<?xml version="1.0" encoding="UTF-8" standalone="no"?>
<!DOCTYPE svg PUBLIC "-//W3C//DTD SVG 1.1//EN"
 "http://www.w3.org/Graphics/SVG/1.1/DTD/svg11.dtd">
<!-- Generated by graphviz version 7.0.5 (20221223.1930)
 -->
<!-- Title: mal&#45;toolkit/mal&#45;toolkit/detail/debug_with_source_location.hpp Pages: 1 -->
<svg width="284pt" height="258pt"
 viewBox="0.00 0.00 284.00 258.00" xmlns="http://www.w3.org/2000/svg" xmlns:xlink="http://www.w3.org/1999/xlink">
<g id="graph0" class="graph" transform="scale(1 1) rotate(0) translate(4 254)">
<title>mal&#45;toolkit/mal&#45;toolkit/detail/debug_with_source_location.hpp</title>
<!-- Node1 -->
<g id="node1" class="node">
<title>Node1</title>
<g id="a_node1"><a xlink:title="This file provides utility functions for debugging and assertion handling.">
<polygon fill="#999999" stroke="#666666" points="203,-250 73,-250 73,-209 203,-209 203,-250"/>
<text text-anchor="start" x="81" y="-238" font-family="Helvetica,sans-Serif" font-size="10.00">mal&#45;toolkit/mal&#45;toolkit</text>
<text text-anchor="start" x="81" y="-227" font-family="Helvetica,sans-Serif" font-size="10.00">/detail/debug_with_source</text>
<text text-anchor="middle" x="138" y="-216" font-family="Helvetica,sans-Serif" font-size="10.00">_location.hpp</text>
</a>
</g>
</g>
<!-- Node2 -->
<g id="node2" class="node">
<title>Node2</title>
<g id="a_node2"><a xlink:href="../../da/d7b/debug_8hpp.html" target="_top" xlink:title="Contains debugging&#45;related macros and utilities for assisting with debugging tasks.">
<polygon fill="white" stroke="#666666" points="193,-173 83,-173 83,-143 193,-143 193,-173"/>
<text text-anchor="start" x="91" y="-161" font-family="Helvetica,sans-Serif" font-size="10.00">mal&#45;toolkit/mal&#45;toolkit</text>
<text text-anchor="middle" x="138" y="-150" font-family="Helvetica,sans-Serif" font-size="10.00">/debug.hpp</text>
</a>
</g>
</g>
<!-- Node1&#45;&gt;Node2 -->
<g id="edge1" class="edge">
<title>Node1&#45;&gt;Node2</title>
<path fill="none" stroke="#63b8ff" d="M131.28,-197.38C131.13,-189.04 131.5,-180.43 132.4,-173.47"/>
<polygon fill="#63b8ff" stroke="#63b8ff" points="127.78,-197.44 131.77,-207.26 134.77,-197.1 127.78,-197.44"/>
</g>
<!-- Node2&#45;&gt;Node1 -->
<g id="edge2" class="edge">
<title>Node2&#45;&gt;Node1</title>
<path fill="none" stroke="#63b8ff" d="M144.55,-184.77C144.91,-192.7 144.78,-201.31 144.16,-208.77"/>
<polygon fill="#63b8ff" stroke="#63b8ff" points="148.05,-184.66 143.73,-174.98 141.07,-185.24 148.05,-184.66"/>
</g>
<!-- Node3 -->
<g id="node3" class="node">
<title>Node3</title>
<g id="a_node3"><a xlink:href="../../d3/d4b/debug__without__source__location_8hpp.html" target="_top" xlink:title="Provides utility functions for debugging and assertion handling without source location information.">
<polygon fill="white" stroke="#666666" points="110,-107 0,-107 0,-66 110,-66 110,-107"/>
<text text-anchor="start" x="8" y="-95" font-family="Helvetica,sans-Serif" font-size="10.00">mal&#45;toolkit/mal&#45;toolkit</text>
<text text-anchor="start" x="8" y="-84" font-family="Helvetica,sans-Serif" font-size="10.00">/detail/debug_without</text>
<text text-anchor="middle" x="55" y="-73" font-family="Helvetica,sans-Serif" font-size="10.00">_source_location.hpp</text>
</a>
</g>
</g>
<!-- Node2&#45;&gt;Node3 -->
<g id="edge3" class="edge">
<title>Node2&#45;&gt;Node3</title>
<path fill="none" stroke="#63b8ff" d="M112.29,-135.47C101.6,-126.52 89.26,-116.19 78.78,-107.42"/>
<polygon fill="#63b8ff" stroke="#63b8ff" points="109.73,-137.89 119.64,-141.63 114.22,-132.52 109.73,-137.89"/>
</g>
<!-- Node4 -->
<g id="node4" class="node">
<title>Node4</title>
<g id="a_node4"><a xlink:href="../../d1/d8a/mal-toolkit_8hpp.html" target="_top" xlink:title="Main header file for the MAL Toolkit library, providing a comprehensive set of tools and utilities.">
<polygon fill="white" stroke="#666666" points="234,-30 124,-30 124,0 234,0 234,-30"/>
<text text-anchor="start" x="132" y="-18" font-family="Helvetica,sans-Serif" font-size="10.00">mal&#45;toolkit/mal&#45;toolkit</text>
<text text-anchor="middle" x="179" y="-7" font-family="Helvetica,sans-Serif" font-size="10.00">/mal&#45;toolkit.hpp</text>
</a>
</g>
</g>
<!-- Node2&#45;&gt;Node4 -->
<g id="edge4" class="edge">
<title>Node2&#45;&gt;Node4</title>
<path fill="none" stroke="#63b8ff" d="M141.89,-131.3C145.04,-112.87 150.08,-87.58 157,-66 160.99,-53.54 167.08,-39.98 171.83,-30.13"/>
<polygon fill="#63b8ff" stroke="#63b8ff" points="138.45,-130.65 140.3,-141.08 145.36,-131.77 138.45,-130.65"/>
</g>
<!-- Node5 -->
<g id="node5" class="node">
<title>Node5</title>
<g id="a_node5"><a xlink:href="../../d0/db4/measurer_8hpp.html" target="_top" xlink:title="Implements performance measurement and profiling utilities.">
<polygon fill="white" stroke="#666666" points="276,-101.5 166,-101.5 166,-71.5 276,-71.5 276,-101.5"/>
<text text-anchor="start" x="174" y="-89.5" font-family="Helvetica,sans-Serif" font-size="10.00">mal&#45;toolkit/mal&#45;toolkit</text>
<text text-anchor="middle" x="221" y="-78.5" font-family="Helvetica,sans-Serif" font-size="10.00">/measurer.hpp</text>
</a>
</g>
</g>
<!-- Node2&#45;&gt;Node5 -->
<g id="edge5" class="edge">
<title>Node2&#45;&gt;Node5</title>
<path fill="none" stroke="#63b8ff" d="M163.75,-135.43C176.79,-124.52 192.26,-111.57 203.82,-101.88"/>
<polygon fill="#63b8ff" stroke="#63b8ff" points="161.78,-132.52 156.36,-141.63 166.27,-137.89 161.78,-132.52"/>
</g>
<!-- Node5&#45;&gt;Node4 -->
<g id="edge6" class="edge">
<title>Node5&#45;&gt;Node4</title>
<path fill="none" stroke="#63b8ff" d="M206.43,-61.38C200.18,-51.05 193.1,-39.32 187.69,-30.38"/>
<polygon fill="#63b8ff" stroke="#63b8ff" points="203.35,-63.06 211.51,-69.8 209.34,-59.44 203.35,-63.06"/>
</g>
</g>
</svg>
