<?xml version="1.0" encoding="UTF-8" standalone="no"?>
<!DOCTYPE svg PUBLIC "-//W3C//DTD SVG 1.1//EN"
 "http://www.w3.org/Graphics/SVG/1.1/DTD/svg11.dtd">
<!-- Generated by graphviz version 7.0.5 (20221223.1930)
 -->
<!-- Title: mal&#45;toolkit/detail/debug_with_source_location.hpp Pages: 1 -->
<svg width="305pt" height="225pt"
 viewBox="0.00 0.00 305.00 225.00" xmlns="http://www.w3.org/2000/svg" xmlns:xlink="http://www.w3.org/1999/xlink">
<g id="graph0" class="graph" transform="scale(1 1) rotate(0) translate(4 221)">
<title>mal&#45;toolkit/detail/debug_with_source_location.hpp</title>
<!-- Node1 -->
<g id="node1" class="node">
<title>Node1</title>
<g id="a_node1"><a xlink:title="This file provides utility functions for debugging and assertion handling.">
<polygon fill="#999999" stroke="#666666" points="226,-217 65,-217 65,-187 226,-187 226,-217"/>
<text text-anchor="start" x="73" y="-205" font-family="Helvetica,sans-Serif" font-size="10.00">mal&#45;toolkit/detail</text>
<text text-anchor="middle" x="145.5" y="-194" font-family="Helvetica,sans-Serif" font-size="10.00">/debug_with_source_location.hpp</text>
</a>
</g>
</g>
<!-- Node2 -->
<g id="node2" class="node">
<title>Node2</title>
<g id="a_node2"><a xlink:href="../../da/d7b/debug_8hpp.html" target="_top" xlink:title=" ">
<polygon fill="white" stroke="#666666" points="200,-151 91,-151 91,-132 200,-132 200,-151"/>
<text text-anchor="middle" x="145.5" y="-139" font-family="Helvetica,sans-Serif" font-size="10.00">mal&#45;toolkit/debug.hpp</text>
</a>
</g>
</g>
<!-- Node1&#45;&gt;Node2 -->
<g id="edge1" class="edge">
<title>Node1&#45;&gt;Node2</title>
<path fill="none" stroke="#63b8ff" d="M138.79,-175.3C138.58,-166.65 139.16,-157.58 140.54,-151.18"/>
<polygon fill="#63b8ff" stroke="#63b8ff" points="135.29,-175.3 139.48,-185.03 142.27,-174.81 135.29,-175.3"/>
</g>
<!-- Node2&#45;&gt;Node1 -->
<g id="edge2" class="edge">
<title>Node2&#45;&gt;Node1</title>
<path fill="none" stroke="#63b8ff" d="M151.93,-162.39C152.49,-170.31 152.31,-179.26 151.42,-186.54"/>
<polygon fill="#63b8ff" stroke="#63b8ff" points="155.43,-162.14 150.66,-152.68 148.49,-163.05 155.43,-162.14"/>
</g>
<!-- Node3 -->
<g id="node3" class="node">
<title>Node3</title>
<g id="a_node3"><a xlink:href="../../d3/d4b/debug__without__source__location_8hpp.html" target="_top" xlink:title=" ">
<polygon fill="white" stroke="#666666" points="117,-96 0,-96 0,-55 117,-55 117,-96"/>
<text text-anchor="start" x="8" y="-84" font-family="Helvetica,sans-Serif" font-size="10.00">mal&#45;toolkit/detail</text>
<text text-anchor="start" x="8" y="-73" font-family="Helvetica,sans-Serif" font-size="10.00">/debug_without_source</text>
<text text-anchor="middle" x="58.5" y="-62" font-family="Helvetica,sans-Serif" font-size="10.00">_location.hpp</text>
</a>
</g>
</g>
<!-- Node2&#45;&gt;Node3 -->
<g id="edge3" class="edge">
<title>Node2&#45;&gt;Node3</title>
<path fill="none" stroke="#63b8ff" d="M124.39,-124.97C112.7,-116.37 98.04,-105.59 85.52,-96.38"/>
<polygon fill="#63b8ff" stroke="#63b8ff" points="122.05,-127.6 132.18,-130.7 126.2,-121.96 122.05,-127.6"/>
</g>
<!-- Node4 -->
<g id="node4" class="node">
<title>Node4</title>
<g id="a_node4"><a xlink:href="../../d1/d08/mal__toolkit_8hpp.html" target="_top" xlink:title=" ">
<polygon fill="white" stroke="#666666" points="255.5,-19 125.5,-19 125.5,0 255.5,0 255.5,-19"/>
<text text-anchor="middle" x="190.5" y="-7" font-family="Helvetica,sans-Serif" font-size="10.00">mal&#45;toolkit/mal_toolkit.hpp</text>
</a>
</g>
</g>
<!-- Node2&#45;&gt;Node4 -->
<g id="edge4" class="edge">
<title>Node2&#45;&gt;Node4</title>
<path fill="none" stroke="#63b8ff" d="M148.56,-120.36C151.62,-102.72 157.1,-76.61 165.5,-55 170.57,-41.95 178.91,-28.06 184.54,-19.33"/>
<polygon fill="#63b8ff" stroke="#63b8ff" points="145.14,-119.59 146.99,-130.02 152.05,-120.71 145.14,-119.59"/>
</g>
<!-- Node5 -->
<g id="node5" class="node">
<title>Node5</title>
<g id="a_node5"><a xlink:href="../../d0/db4/measurer_8hpp.html" target="_top" xlink:title=" ">
<polygon fill="white" stroke="#666666" points="297,-85 174,-85 174,-66 297,-66 297,-85"/>
<text text-anchor="middle" x="235.5" y="-73" font-family="Helvetica,sans-Serif" font-size="10.00">mal&#45;toolkit/measurer.hpp</text>
</a>
</g>
</g>
<!-- Node2&#45;&gt;Node5 -->
<g id="edge5" class="edge">
<title>Node2&#45;&gt;Node5</title>
<path fill="none" stroke="#63b8ff" d="M166.96,-125.24C184.48,-112.78 208.63,-95.61 223.09,-85.32"/>
<polygon fill="#63b8ff" stroke="#63b8ff" points="165.37,-122.08 159.25,-130.72 169.43,-127.78 165.37,-122.08"/>
</g>
<!-- Node5&#45;&gt;Node4 -->
<g id="edge6" class="edge">
<title>Node5&#45;&gt;Node4</title>
<path fill="none" stroke="#63b8ff" d="M222.77,-56.4C214.25,-44.27 203.4,-28.84 196.7,-19.32"/>
<polygon fill="#63b8ff" stroke="#63b8ff" points="219.76,-58.2 228.37,-64.36 225.48,-54.17 219.76,-58.2"/>
</g>
</g>
</svg>
