<?xml version="1.0" encoding="UTF-8" standalone="no"?>
<!DOCTYPE svg PUBLIC "-//W3C//DTD SVG 1.1//EN"
 "http://www.w3.org/Graphics/SVG/1.1/DTD/svg11.dtd">
<!-- Generated by graphviz version 9.0.0 (20230911.1827)
 -->
<!-- Title: mal&#45;toolkit/mal&#45;toolkit/detail/debug_with_source_location.hpp Pages: 1 -->
<svg width="273pt" height="261pt"
 viewBox="0.00 0.00 272.50 260.50" xmlns="http://www.w3.org/2000/svg" xmlns:xlink="http://www.w3.org/1999/xlink">
<g id="graph0" class="graph" transform="scale(1 1) rotate(0) translate(4 256.5)">
<title>mal&#45;toolkit/mal&#45;toolkit/detail/debug_with_source_location.hpp</title>
<!-- Node1 -->
<g id="Node000001" class="node">
<title>Node1</title>
<g id="a_Node000001"><a xlink:title="This file provides utility functions for debugging and assertion handling.">
<polygon fill="#999999" stroke="#666666" points="193.12,-252.5 71.38,-252.5 71.38,-210.75 193.12,-210.75 193.12,-252.5"/>
<text text-anchor="start" x="79.38" y="-239" font-family="Times,serif" font-size="10.00">mal&#45;toolkit/mal&#45;toolkit</text>
<text text-anchor="start" x="79.38" y="-227.75" font-family="Times,serif" font-size="10.00">/detail/debug_with_source</text>
<text text-anchor="middle" x="132.25" y="-216.5" font-family="Times,serif" font-size="10.00">_location.hpp</text>
</a>
</g>
</g>
<!-- Node2 -->
<g id="Node000002" class="node">
<title>Node2</title>
<g id="a_Node000002"><a xlink:href="../../da/d7b/debug_8hpp.html" target="_top" xlink:title="Contains debugging&#45;related macros and utilities for assisting with debugging tasks.">
<polygon fill="white" stroke="#666666" points="184.5,-174.75 80,-174.75 80,-144.25 184.5,-144.25 184.5,-174.75"/>
<text text-anchor="start" x="88" y="-161.25" font-family="Times,serif" font-size="10.00">mal&#45;toolkit/mal&#45;toolkit</text>
<text text-anchor="middle" x="132.25" y="-150" font-family="Times,serif" font-size="10.00">/debug.hpp</text>
</a>
</g>
</g>
<!-- Node1&#45;&gt;Node2 -->
<g id="edge1_Node000001_Node000002" class="edge">
<title>Node1&#45;&gt;Node2</title>
<g id="a_edge1_Node000001_Node000002"><a xlink:title=" ">
<path fill="none" stroke="#63b8ff" d="M125.53,-198.88C125.39,-190.52 125.77,-181.9 126.67,-174.95"/>
<polygon fill="#63b8ff" stroke="#63b8ff" points="122.03,-199 125.99,-208.83 129.02,-198.68 122.03,-199"/>
</a>
</g>
</g>
<!-- Node2&#45;&gt;Node1 -->
<g id="edge2_Node000002_Node000001" class="edge">
<title>Node2&#45;&gt;Node1</title>
<g id="a_edge2_Node000002_Node000001"><a xlink:title=" ">
<path fill="none" stroke="#63b8ff" d="M138.78,-186.25C139.16,-194.19 139.04,-202.82 138.44,-210.34"/>
<polygon fill="#63b8ff" stroke="#63b8ff" points="142.29,-186.13 137.96,-176.46 135.31,-186.72 142.29,-186.13"/>
</a>
</g>
</g>
<!-- Node3 -->
<g id="Node000003" class="node">
<title>Node3</title>
<g id="a_Node000003"><a xlink:href="../../d3/d4b/debug__without__source__location_8hpp.html" target="_top" xlink:title="Provides utility functions for debugging and assertion handling without source location information.">
<polygon fill="white" stroke="#666666" points="104.5,-108.25 0,-108.25 0,-66.5 104.5,-66.5 104.5,-108.25"/>
<text text-anchor="start" x="8" y="-94.75" font-family="Times,serif" font-size="10.00">mal&#45;toolkit/mal&#45;toolkit</text>
<text text-anchor="start" x="8" y="-83.5" font-family="Times,serif" font-size="10.00">/detail/debug_without</text>
<text text-anchor="middle" x="52.25" y="-72.25" font-family="Times,serif" font-size="10.00">_source_location.hpp</text>
</a>
</g>
</g>
<!-- Node2&#45;&gt;Node3 -->
<g id="edge3_Node000002_Node000003" class="edge">
<title>Node2&#45;&gt;Node3</title>
<g id="a_edge3_Node000002_Node000003"><a xlink:title=" ">
<path fill="none" stroke="#63b8ff" d="M107.23,-136.56C97.08,-127.67 85.43,-117.46 75.48,-108.74"/>
<polygon fill="#63b8ff" stroke="#63b8ff" points="104.71,-139.01 114.54,-142.97 109.32,-133.75 104.71,-139.01"/>
</a>
</g>
</g>
<!-- Node4 -->
<g id="Node000004" class="node">
<title>Node4</title>
<g id="a_Node000004"><a xlink:href="../../d1/d8a/mal-toolkit_8hpp.html" target="_top" xlink:title="Main header file for the MAL Toolkit library, providing a comprehensive set of tools and utilities.">
<polygon fill="white" stroke="#666666" points="224.5,-30.5 120,-30.5 120,0 224.5,0 224.5,-30.5"/>
<text text-anchor="start" x="128" y="-17" font-family="Times,serif" font-size="10.00">mal&#45;toolkit/mal&#45;toolkit</text>
<text text-anchor="middle" x="172.25" y="-5.75" font-family="Times,serif" font-size="10.00">/mal&#45;toolkit.hpp</text>
</a>
</g>
</g>
<!-- Node2&#45;&gt;Node4 -->
<g id="edge4_Node000002_Node000004" class="edge">
<title>Node2&#45;&gt;Node4</title>
<g id="a_edge4_Node000002_Node000004"><a xlink:title=" ">
<path fill="none" stroke="#63b8ff" d="M136.19,-132.82C139.38,-114.18 144.46,-88.49 151.25,-66.5 155.05,-54.21 160.74,-40.8 165.24,-30.92"/>
<polygon fill="#63b8ff" stroke="#63b8ff" points="132.78,-132.01 134.61,-142.45 139.68,-133.14 132.78,-132.01"/>
</a>
</g>
</g>
<!-- Node5 -->
<g id="Node000005" class="node">
<title>Node5</title>
<g id="a_Node000005"><a xlink:href="../../d0/db4/measurer_8hpp.html" target="_top" xlink:title="Implements performance measurement and profiling utilities.">
<polygon fill="white" stroke="#666666" points="264.5,-102.62 160,-102.62 160,-72.12 264.5,-72.12 264.5,-102.62"/>
<text text-anchor="start" x="168" y="-89.12" font-family="Times,serif" font-size="10.00">mal&#45;toolkit/mal&#45;toolkit</text>
<text text-anchor="middle" x="212.25" y="-77.88" font-family="Times,serif" font-size="10.00">/measurer.hpp</text>
</a>
</g>
</g>
<!-- Node2&#45;&gt;Node5 -->
<g id="edge5_Node000002_Node000005" class="edge">
<title>Node2&#45;&gt;Node5</title>
<g id="a_edge5_Node000002_Node000005"><a xlink:title=" ">
<path fill="none" stroke="#63b8ff" d="M157.44,-136.42C169.92,-125.48 184.65,-112.57 195.7,-102.89"/>
<polygon fill="#63b8ff" stroke="#63b8ff" points="155.18,-133.75 149.96,-142.97 159.79,-139.01 155.18,-133.75"/>
</a>
</g>
</g>
<!-- Node5&#45;&gt;Node4 -->
<g id="edge6_Node000005_Node000004" class="edge">
<title>Node5&#45;&gt;Node4</title>
<g id="a_edge6_Node000005_Node000004"><a xlink:title=" ">
<path fill="none" stroke="#63b8ff" d="M198.37,-62.04C192.42,-51.61 185.67,-39.78 180.53,-30.76"/>
<polygon fill="#63b8ff" stroke="#63b8ff" points="195.22,-63.58 203.21,-70.53 201.3,-60.11 195.22,-63.58"/>
</a>
</g>
</g>
</g>
</svg>
