<?xml version="1.0" encoding="UTF-8" standalone="no"?>
<!DOCTYPE svg PUBLIC "-//W3C//DTD SVG 1.1//EN"
 "http://www.w3.org/Graphics/SVG/1.1/DTD/svg11.dtd">
<!-- Generated by graphviz version 7.0.5 (20221223.1930)
 -->
<!-- Title: mal&#45;toolkit/debug.hpp Pages: 1 -->
<svg width="484pt" height="159pt"
 viewBox="0.00 0.00 484.00 159.00" xmlns="http://www.w3.org/2000/svg" xmlns:xlink="http://www.w3.org/1999/xlink">
<g id="graph0" class="graph" transform="scale(1 1) rotate(0) translate(4 155)">
<title>mal&#45;toolkit/debug.hpp</title>
<!-- Node1 -->
<g id="node1" class="node">
<title>Node1</title>
<g id="a_node1"><a xlink:title="Contains debugging&#45;related macros and utilities for assisting with debugging tasks.">
<polygon fill="#999999" stroke="#666666" points="292,-151 183,-151 183,-132 292,-132 292,-151"/>
<text text-anchor="middle" x="237.5" y="-139" font-family="Helvetica,sans-Serif" font-size="10.00">mal&#45;toolkit/debug.hpp</text>
</a>
</g>
</g>
<!-- Node2 -->
<g id="node2" class="node">
<title>Node2</title>
<g id="a_node2"><a xlink:href="../../da/d43/debug__with__source__location_8hpp.html" target="_top" xlink:title="This file provides utility functions for debugging and assertion handling.">
<polygon fill="white" stroke="#666666" points="161,-90.5 0,-90.5 0,-60.5 161,-60.5 161,-90.5"/>
<text text-anchor="start" x="8" y="-78.5" font-family="Helvetica,sans-Serif" font-size="10.00">mal&#45;toolkit/detail</text>
<text text-anchor="middle" x="80.5" y="-67.5" font-family="Helvetica,sans-Serif" font-size="10.00">/debug_with_source_location.hpp</text>
</a>
</g>
</g>
<!-- Node1&#45;&gt;Node2 -->
<g id="edge1" class="edge">
<title>Node1&#45;&gt;Node2</title>
<path fill="none" stroke="#63b8ff" d="M200.4,-127.63C172.85,-117.03 135.9,-102 110.26,-90.98"/>
<polygon fill="#63b8ff" stroke="#63b8ff" points="198.82,-130.78 209.41,-131.06 201.31,-124.23 198.82,-130.78"/>
</g>
<!-- Node3 -->
<g id="node3" class="node">
<title>Node3</title>
<g id="a_node3"><a xlink:href="../../d3/d4b/debug__without__source__location_8hpp.html" target="_top" xlink:title="Provides utility functions for debugging and assertion handling without source location information.">
<polygon fill="white" stroke="#666666" points="296,-96 179,-96 179,-55 296,-55 296,-96"/>
<text text-anchor="start" x="187" y="-84" font-family="Helvetica,sans-Serif" font-size="10.00">mal&#45;toolkit/detail</text>
<text text-anchor="start" x="187" y="-73" font-family="Helvetica,sans-Serif" font-size="10.00">/debug_without_source</text>
<text text-anchor="middle" x="237.5" y="-62" font-family="Helvetica,sans-Serif" font-size="10.00">_location.hpp</text>
</a>
</g>
</g>
<!-- Node1&#45;&gt;Node3 -->
<g id="edge3" class="edge">
<title>Node1&#45;&gt;Node3</title>
<path fill="none" stroke="#63b8ff" d="M237.5,-120.14C237.5,-112.54 237.5,-103.93 237.5,-96.38"/>
<polygon fill="#63b8ff" stroke="#63b8ff" points="234,-120.09 237.5,-130.09 241,-120.09 234,-120.09"/>
</g>
<!-- Node4 -->
<g id="node4" class="node">
<title>Node4</title>
<g id="a_node4"><a xlink:href="../../d1/d08/mal__toolkit_8hpp.html" target="_top" xlink:title="Main header file for the MAL Toolkit library, providing a comprehensive set of tools and utilities.">
<polygon fill="white" stroke="#666666" points="434.5,-19 304.5,-19 304.5,0 434.5,0 434.5,-19"/>
<text text-anchor="middle" x="369.5" y="-7" font-family="Helvetica,sans-Serif" font-size="10.00">mal&#45;toolkit/mal_toolkit.hpp</text>
</a>
</g>
</g>
<!-- Node1&#45;&gt;Node4 -->
<g id="edge4" class="edge">
<title>Node1&#45;&gt;Node4</title>
<path fill="none" stroke="#63b8ff" d="M264.51,-125.81C277.67,-117.94 293.24,-107.51 305.5,-96 331.45,-71.63 354.48,-35.72 364.37,-19.29"/>
<polygon fill="#63b8ff" stroke="#63b8ff" points="262.81,-122.75 255.91,-130.78 266.32,-128.81 262.81,-122.75"/>
</g>
<!-- Node5 -->
<g id="node5" class="node">
<title>Node5</title>
<g id="a_node5"><a xlink:href="../../d0/db4/measurer_8hpp.html" target="_top" xlink:title="Implements performance measurement and profiling utilities.">
<polygon fill="white" stroke="#666666" points="476,-85 353,-85 353,-66 476,-66 476,-85"/>
<text text-anchor="middle" x="414.5" y="-73" font-family="Helvetica,sans-Serif" font-size="10.00">mal&#45;toolkit/measurer.hpp</text>
</a>
</g>
</g>
<!-- Node1&#45;&gt;Node5 -->
<g id="edge5" class="edge">
<title>Node1&#45;&gt;Node5</title>
<path fill="none" stroke="#63b8ff" d="M272.7,-127.77C307.34,-115.25 359.35,-96.44 389.81,-85.43"/>
<polygon fill="#63b8ff" stroke="#63b8ff" points="271.75,-124.39 263.53,-131.09 274.13,-130.98 271.75,-124.39"/>
</g>
<!-- Node2&#45;&gt;Node1 -->
<g id="edge2" class="edge">
<title>Node2&#45;&gt;Node1</title>
<path fill="none" stroke="#63b8ff" d="M132.28,-95.09C162.82,-107.1 199.41,-122.2 220.51,-131.6"/>
<polygon fill="#63b8ff" stroke="#63b8ff" points="133.77,-91.91 123.18,-91.53 131.22,-98.43 133.77,-91.91"/>
</g>
<!-- Node5&#45;&gt;Node4 -->
<g id="edge6" class="edge">
<title>Node5&#45;&gt;Node4</title>
<path fill="none" stroke="#63b8ff" d="M401.77,-56.4C393.25,-44.27 382.4,-28.84 375.7,-19.32"/>
<polygon fill="#63b8ff" stroke="#63b8ff" points="398.76,-58.2 407.37,-64.36 404.48,-54.17 398.76,-58.2"/>
</g>
</g>
</svg>
