<?xml version="1.0" encoding="UTF-8" standalone="no"?>
<!DOCTYPE svg PUBLIC "-//W3C//DTD SVG 1.1//EN"
 "http://www.w3.org/Graphics/SVG/1.1/DTD/svg11.dtd">
<!-- Generated by graphviz version 8.1.0 (20230707.0739)
 -->
<!-- Title: mal&#45;toolkit/mal&#45;toolkit/event.hpp Pages: 1 -->
<svg width="113pt" height="172pt"
 viewBox="0.00 0.00 112.50 171.50" xmlns="http://www.w3.org/2000/svg" xmlns:xlink="http://www.w3.org/1999/xlink">
<g id="graph0" class="graph" transform="scale(1 1) rotate(0) translate(4 167.5)">
<title>mal&#45;toolkit/mal&#45;toolkit/event.hpp</title>
<!-- Node1 -->
<g id="Node000001" class="node">
<title>Node1</title>
<g id="a_Node000001"><a xlink:title="Defines event handling and notification mechanisms.">
<polygon fill="#999999" stroke="#666666" points="104.5,-163.5 0,-163.5 0,-133 104.5,-133 104.5,-163.5"/>
<text text-anchor="start" x="8" y="-150" font-family="Times,serif" font-size="10.00">mal&#45;toolkit/mal&#45;toolkit</text>
<text text-anchor="middle" x="52.25" y="-138.75" font-family="Times,serif" font-size="10.00">/event.hpp</text>
</a>
</g>
</g>
<!-- Node2 -->
<g id="Node000002" class="node">
<title>Node2</title>
<g id="a_Node000002"><a xlink:href="../../dc/dad/file-watcher_8hpp.html" target="_top" xlink:title="Implements a file watcher that monitors changes to specified files or directories.">
<polygon fill="white" stroke="#666666" points="104.5,-97 0,-97 0,-66.5 104.5,-66.5 104.5,-97"/>
<text text-anchor="start" x="8" y="-83.5" font-family="Times,serif" font-size="10.00">mal&#45;toolkit/mal&#45;toolkit</text>
<text text-anchor="middle" x="52.25" y="-72.25" font-family="Times,serif" font-size="10.00">/file&#45;watcher.hpp</text>
</a>
</g>
</g>
<!-- Node1&#45;&gt;Node2 -->
<g id="edge1_Node000001_Node000002" class="edge">
<title>Node1&#45;&gt;Node2</title>
<g id="a_edge1_Node000001_Node000002"><a xlink:title=" ">
<path fill="none" stroke="#63b8ff" d="M52.25,-121.88C52.25,-113.55 52.25,-104.58 52.25,-97.33"/>
<polygon fill="#63b8ff" stroke="#63b8ff" points="48.75,-121.61 52.25,-131.61 55.75,-121.61 48.75,-121.61"/>
</a>
</g>
</g>
<!-- Node3 -->
<g id="Node000003" class="node">
<title>Node3</title>
<g id="a_Node000003"><a xlink:href="../../d1/d8a/mal-toolkit_8hpp.html" target="_top" xlink:title="Main header file for the MAL Toolkit library, providing a comprehensive set of tools and utilities.">
<polygon fill="white" stroke="#666666" points="104.5,-30.5 0,-30.5 0,0 104.5,0 104.5,-30.5"/>
<text text-anchor="start" x="8" y="-17" font-family="Times,serif" font-size="10.00">mal&#45;toolkit/mal&#45;toolkit</text>
<text text-anchor="middle" x="52.25" y="-5.75" font-family="Times,serif" font-size="10.00">/mal&#45;toolkit.hpp</text>
</a>
</g>
</g>
<!-- Node2&#45;&gt;Node3 -->
<g id="edge2_Node000002_Node000003" class="edge">
<title>Node2&#45;&gt;Node3</title>
<g id="a_edge2_Node000002_Node000003"><a xlink:title=" ">
<path fill="none" stroke="#63b8ff" d="M52.25,-55.38C52.25,-47.05 52.25,-38.08 52.25,-30.83"/>
<polygon fill="#63b8ff" stroke="#63b8ff" points="48.75,-55.11 52.25,-65.11 55.75,-55.11 48.75,-55.11"/>
</a>
</g>
</g>
</g>
</svg>
