<?xml version="1.0" encoding="UTF-8" standalone="no"?>
<!DOCTYPE svg PUBLIC "-//W3C//DTD SVG 1.1//EN"
 "http://www.w3.org/Graphics/SVG/1.1/DTD/svg11.dtd">
<!-- Generated by graphviz version 7.0.5 (20221223.1930)
 -->
<!-- Title: node_system::events::FilesChangedEvent Pages: 1 -->
<svg width="266pt" height="115pt"
 viewBox="0.00 0.00 265.50 115.00" xmlns="http://www.w3.org/2000/svg" xmlns:xlink="http://www.w3.org/1999/xlink">
<g id="graph0" class="graph" transform="scale(1 1) rotate(0) translate(4 111)">
<title>node_system::events::FilesChangedEvent</title>
<!-- Node1 -->
<g id="node1" class="node">
<title>Node1</title>
<g id="a_node1"><a xlink:title="Event class for files changed.">
<polygon fill="#999999" stroke="#666666" points="177,-30 69,-30 69,0 177,0 177,-30"/>
<text text-anchor="start" x="77" y="-18" font-family="Helvetica,sans-Serif" font-size="10.00">node_system::events</text>
<text text-anchor="middle" x="123" y="-7" font-family="Helvetica,sans-Serif" font-size="10.00">::FilesChangedEvent</text>
</a>
</g>
</g>
<!-- Node2 -->
<g id="node2" class="node">
<title>Node2</title>
<g id="a_node2"><a xlink:href="../../d1/d2c/classnode__system_1_1events_1_1_event.html" target="_top" xlink:title="Base class for all events.">
<polygon fill="white" stroke="#666666" points="108,-107 0,-107 0,-77 108,-77 108,-107"/>
<text text-anchor="start" x="8" y="-95" font-family="Helvetica,sans-Serif" font-size="10.00">node_system::events</text>
<text text-anchor="middle" x="54" y="-84" font-family="Helvetica,sans-Serif" font-size="10.00">::Event</text>
</a>
</g>
</g>
<!-- Node2&#45;&gt;Node1 -->
<g id="edge1" class="edge">
<title>Node2&#45;&gt;Node1</title>
<path fill="none" stroke="#63b8ff" d="M75.04,-68.13C86.34,-55.85 99.92,-41.09 109.74,-30.42"/>
<polygon fill="#63b8ff" stroke="#63b8ff" points="72.52,-65.7 68.33,-75.43 77.68,-70.44 72.52,-65.7"/>
</g>
<!-- Node3 -->
<g id="node3" class="node">
<title>Node3</title>
<g id="a_node3"><a xlink:title=" ">
<polygon fill="white" stroke="#666666" points="257.5,-107 126.5,-107 126.5,-77 257.5,-77 257.5,-107"/>
<text text-anchor="start" x="134.5" y="-95" font-family="Helvetica,sans-Serif" font-size="10.00">std::vector&lt; std::filesystem</text>
<text text-anchor="middle" x="192" y="-84" font-family="Helvetica,sans-Serif" font-size="10.00">::path &gt;</text>
</a>
</g>
</g>
<!-- Node3&#45;&gt;Node1 -->
<g id="edge2" class="edge">
<title>Node3&#45;&gt;Node1</title>
<path fill="none" stroke="#9a32cd" stroke-dasharray="5,2" d="M170.96,-68.13C159.66,-55.85 146.08,-41.09 136.26,-30.42"/>
<polygon fill="#9a32cd" stroke="#9a32cd" points="168.32,-70.44 177.67,-75.43 173.48,-65.7 168.32,-70.44"/>
<text text-anchor="middle" x="173.5" y="-51" font-family="Helvetica,sans-Serif" font-size="10.00"> files_</text>
</g>
</g>
</svg>
