<?xml version="1.0" encoding="UTF-8" standalone="no"?>
<!DOCTYPE svg PUBLIC "-//W3C//DTD SVG 1.1//EN"
 "http://www.w3.org/Graphics/SVG/1.1/DTD/svg11.dtd">
<!-- Generated by graphviz version 9.0.0 (20230911.1827)
 -->
<!-- Title: mal_toolkit::ByteArray::append Pages: 1 -->
<svg width="258pt" height="88pt"
 viewBox="0.00 0.00 257.50 87.50" xmlns="http://www.w3.org/2000/svg" xmlns:xlink="http://www.w3.org/1999/xlink">
<g id="graph0" class="graph" transform="scale(1 1) rotate(0) translate(4 83.5)">
<title>mal_toolkit::ByteArray::append</title>
<!-- Node1 -->
<g id="Node000001" class="node">
<title>Node1</title>
<g id="a_Node000001"><a xlink:title="Append multiple data sources to the byte array.">
<polygon fill="#999999" stroke="#666666" points="249.5,-54.5 142.75,-54.5 142.75,-24 249.5,-24 249.5,-54.5"/>
<text text-anchor="start" x="150.75" y="-41" font-family="Times,serif" font-size="10.00">mal_toolkit::ByteArray</text>
<text text-anchor="middle" x="196.12" y="-29.75" font-family="Times,serif" font-size="10.00">::append</text>
</a>
</g>
</g>
<!-- Node1&#45;&gt;Node1 -->
<g id="edge2_Node000001_Node000001" class="edge">
<title>Node1&#45;&gt;Node1</title>
<g id="a_edge2_Node000001_Node000001"><a xlink:title=" ">
<path fill="none" stroke="#63b8ff" d="M220.06,-66.2C216.15,-69.97 208.17,-72.5 196.12,-72.5 174.1,-72.5 165.67,-64.06 170.83,-54.99"/>
<polygon fill="#63b8ff" stroke="#63b8ff" points="223.51,-66.84 221.24,-56.49 216.56,-66 223.51,-66.84"/>
</a>
</g>
</g>
<!-- Node2 -->
<g id="Node000002" class="node">
<title>Node2</title>
<g id="a_Node000002"><a xlink:href="../../d8/d99/structmal__toolkit_1_1_byte_array.html#a5ebdf4bd2aaee348803dcb9575c77114" target="_top" xlink:title="Append two data sources to the byte array.">
<polygon fill="white" stroke="#666666" points="106.75,-79.5 0,-79.5 0,-49 106.75,-49 106.75,-79.5"/>
<text text-anchor="start" x="8" y="-66" font-family="Times,serif" font-size="10.00">mal_toolkit::ByteArray</text>
<text text-anchor="middle" x="53.38" y="-54.75" font-family="Times,serif" font-size="10.00">::append</text>
</a>
</g>
</g>
<!-- Node1&#45;&gt;Node2 -->
<g id="edge1_Node000001_Node000002" class="edge">
<title>Node1&#45;&gt;Node2</title>
<g id="a_edge1_Node000001_Node000002"><a xlink:title=" ">
<path fill="none" stroke="#63b8ff" d="M131.06,-50.63C123.01,-52.06 114.86,-53.51 107.01,-54.9"/>
<polygon fill="#63b8ff" stroke="#63b8ff" points="131.59,-54.09 140.82,-48.89 130.37,-47.2 131.59,-54.09"/>
</a>
</g>
</g>
<!-- Node3 -->
<g id="Node000003" class="node">
<title>Node3</title>
<g id="a_Node000003"><a xlink:href="../../d8/d99/structmal__toolkit_1_1_byte_array.html#a8c530ce3db08f43b3156b92856c4acf1" target="_top" xlink:title="Create a byte array from multiple data sources.">
<polygon fill="white" stroke="#666666" points="106.75,-30.5 0,-30.5 0,0 106.75,0 106.75,-30.5"/>
<text text-anchor="start" x="8" y="-17" font-family="Times,serif" font-size="10.00">mal_toolkit::ByteArray</text>
<text text-anchor="middle" x="53.38" y="-5.75" font-family="Times,serif" font-size="10.00">::from_byte_arrays</text>
</a>
</g>
</g>
<!-- Node1&#45;&gt;Node3 -->
<g id="edge3_Node000001_Node000003" class="edge">
<title>Node1&#45;&gt;Node3</title>
<g id="a_edge3_Node000001_Node000003"><a xlink:title=" ">
<path fill="none" stroke="#63b8ff" d="M131.06,-28.33C123.01,-26.95 114.86,-25.56 107.01,-24.23"/>
<polygon fill="#63b8ff" stroke="#63b8ff" points="130.38,-31.76 140.82,-29.99 131.55,-24.86 130.38,-31.76"/>
</a>
</g>
</g>
</g>
</svg>
