<?xml version="1.0" encoding="UTF-8" standalone="no"?>
<!DOCTYPE svg PUBLIC "-//W3C//DTD SVG 1.1//EN"
 "http://www.w3.org/Graphics/SVG/1.1/DTD/svg11.dtd">
<!-- Generated by graphviz version 8.1.0 (20230707.0739)
 -->
<!-- Title: mal&#45;toolkit/mal&#45;toolkit/include/spdlog.hpp Pages: 1 -->
<svg width="609pt" height="105pt"
 viewBox="0.00 0.00 608.50 105.00" xmlns="http://www.w3.org/2000/svg" xmlns:xlink="http://www.w3.org/1999/xlink">
<g id="graph0" class="graph" transform="scale(1 1) rotate(0) translate(4 101)">
<title>mal&#45;toolkit/mal&#45;toolkit/include/spdlog.hpp</title>
<!-- Node1 -->
<g id="Node000001" class="node">
<title>Node1</title>
<g id="a_Node000001"><a xlink:title="Provides integration with the SPDLOG library for efficient logging and debugging.">
<polygon fill="#999999" stroke="#666666" points="363.12,-97 258.62,-97 258.62,-66.5 363.12,-66.5 363.12,-97"/>
<text text-anchor="start" x="266.62" y="-83.5" font-family="Times,serif" font-size="10.00">mal&#45;toolkit/mal&#45;toolkit</text>
<text text-anchor="middle" x="310.88" y="-72.25" font-family="Times,serif" font-size="10.00">/include/spdlog.hpp</text>
</a>
</g>
</g>
<!-- Node2 -->
<g id="Node000002" class="node">
<title>Node2</title>
<g id="a_Node000002"><a xlink:title=" ">
<polygon fill="#e0e0e0" stroke="#999999" points="73.75,-24.88 0,-24.88 0,-5.63 73.75,-5.63 73.75,-24.88"/>
<text text-anchor="middle" x="36.88" y="-11.38" font-family="Times,serif" font-size="10.00">spdlog/async.h</text>
</a>
</g>
</g>
<!-- Node1&#45;&gt;Node2 -->
<g id="edge1_Node000001_Node000002" class="edge">
<title>Node1&#45;&gt;Node2</title>
<g id="a_edge1_Node000001_Node000002"><a xlink:title=" ">
<path fill="none" stroke="#63b8ff" d="M258.25,-70.62C211.63,-61.3 141.84,-46.54 81.88,-30.5 79.4,-29.84 76.87,-29.13 74.31,-28.39"/>
<polygon fill="#63b8ff" stroke="#63b8ff" points="75.47,-24.78 64.89,-25.24 73.45,-31.48 75.47,-24.78"/>
</a>
</g>
</g>
<!-- Node3 -->
<g id="Node000003" class="node">
<title>Node3</title>
<g id="a_Node000003"><a xlink:title=" ">
<polygon fill="#e0e0e0" stroke="#999999" points="194.38,-30.5 91.38,-30.5 91.38,0 194.38,0 194.38,-30.5"/>
<text text-anchor="start" x="99.38" y="-17" font-family="Times,serif" font-size="10.00">spdlog/sinks/ansicolor</text>
<text text-anchor="middle" x="142.88" y="-5.75" font-family="Times,serif" font-size="10.00">_sink.h</text>
</a>
</g>
</g>
<!-- Node1&#45;&gt;Node3 -->
<g id="edge2_Node000001_Node000003" class="edge">
<title>Node1&#45;&gt;Node3</title>
<g id="a_edge2_Node000001_Node000003"><a xlink:title=" ">
<path fill="none" stroke="#63b8ff" d="M272.75,-66.11C248.57,-56.83 217.06,-44.73 191.13,-34.78"/>
<polygon fill="#63b8ff" stroke="#63b8ff" points="192.73,-31.26 182.14,-30.94 190.22,-37.79 192.73,-31.26"/>
</a>
</g>
</g>
<!-- Node4 -->
<g id="Node000004" class="node">
<title>Node4</title>
<g id="a_Node000004"><a xlink:title=" ">
<polygon fill="#e0e0e0" stroke="#999999" points="301.25,-30.5 212.5,-30.5 212.5,0 301.25,0 301.25,-30.5"/>
<text text-anchor="start" x="220.5" y="-17" font-family="Times,serif" font-size="10.00">spdlog/sinks/basic</text>
<text text-anchor="middle" x="256.88" y="-5.75" font-family="Times,serif" font-size="10.00">_file_sink.h</text>
</a>
</g>
</g>
<!-- Node1&#45;&gt;Node4 -->
<g id="edge3_Node000001_Node000004" class="edge">
<title>Node1&#45;&gt;Node4</title>
<g id="a_edge3_Node000001_Node000004"><a xlink:title=" ">
<path fill="none" stroke="#63b8ff" d="M298.62,-66.11C291.92,-58.11 283.48,-48.03 275.94,-39.03"/>
<polygon fill="#63b8ff" stroke="#63b8ff" points="278.18,-37.25 269.08,-31.83 272.82,-41.74 278.18,-37.25"/>
</a>
</g>
</g>
<!-- Node5 -->
<g id="Node000005" class="node">
<title>Node5</title>
<g id="a_Node000005"><a xlink:title=" ">
<polygon fill="#e0e0e0" stroke="#999999" points="412.5,-30.5 319.25,-30.5 319.25,0 412.5,0 412.5,-30.5"/>
<text text-anchor="start" x="327.25" y="-17" font-family="Times,serif" font-size="10.00">spdlog/sinks/stdout</text>
<text text-anchor="middle" x="365.88" y="-5.75" font-family="Times,serif" font-size="10.00">_color_sinks.h</text>
</a>
</g>
</g>
<!-- Node1&#45;&gt;Node5 -->
<g id="edge4_Node000001_Node000005" class="edge">
<title>Node1&#45;&gt;Node5</title>
<g id="a_edge4_Node000001_Node000005"><a xlink:title=" ">
<path fill="none" stroke="#63b8ff" d="M323.36,-66.11C330.18,-58.11 338.78,-48.03 346.45,-39.03"/>
<polygon fill="#63b8ff" stroke="#63b8ff" points="349.62,-41.71 353.44,-31.83 344.29,-37.17 349.62,-41.71"/>
</a>
</g>
</g>
<!-- Node6 -->
<g id="Node000006" class="node">
<title>Node6</title>
<g id="a_Node000006"><a xlink:title=" ">
<polygon fill="#e0e0e0" stroke="#999999" points="507.62,-24.88 430.12,-24.88 430.12,-5.63 507.62,-5.63 507.62,-24.88"/>
<text text-anchor="middle" x="468.88" y="-11.38" font-family="Times,serif" font-size="10.00">spdlog/spdlog.h</text>
</a>
</g>
</g>
<!-- Node1&#45;&gt;Node6 -->
<g id="edge5_Node000001_Node000006" class="edge">
<title>Node1&#45;&gt;Node6</title>
<g id="a_edge5_Node000001_Node000006"><a xlink:title=" ">
<path fill="none" stroke="#63b8ff" d="M346.73,-66.11C373.78,-55.07 410.56,-40.06 436.67,-29.4"/>
<polygon fill="#63b8ff" stroke="#63b8ff" points="437.87,-32.28 445.8,-25.26 435.22,-25.8 437.87,-32.28"/>
</a>
</g>
</g>
<!-- Node7 -->
<g id="Node000007" class="node">
<title>Node7</title>
<g id="a_Node000007"><a xlink:href="../../d4/dfc/win-undef_8hpp.html" target="_top" xlink:title=" ">
<polygon fill="white" stroke="#666666" points="600.5,-24.88 525.25,-24.88 525.25,-5.63 600.5,-5.63 600.5,-24.88"/>
<text text-anchor="middle" x="562.88" y="-11.38" font-family="Times,serif" font-size="10.00">win&#45;undef.hpp</text>
</a>
</g>
</g>
<!-- Node1&#45;&gt;Node7 -->
<g id="edge6_Node000001_Node000007" class="edge">
<title>Node1&#45;&gt;Node7</title>
<g id="a_edge6_Node000001_Node000007"><a xlink:title=" ">
<path fill="none" stroke="#63b8ff" d="M363.6,-68.83C405.36,-59.16 465.07,-44.83 516.88,-30.5 519.32,-29.82 521.84,-29.11 524.37,-28.37"/>
<polygon fill="#63b8ff" stroke="#63b8ff" points="525.16,-31.49 533.74,-25.27 523.15,-24.78 525.16,-31.49"/>
</a>
</g>
</g>
</g>
</svg>
