<?xml version="1.0" encoding="UTF-8" standalone="no"?>
<!DOCTYPE svg PUBLIC "-//W3C//DTD SVG 1.1//EN"
 "http://www.w3.org/Graphics/SVG/1.1/DTD/svg11.dtd">
<!-- Generated by graphviz version 7.0.5 (20221223.1930)
 -->
<!-- Title: mal&#45;toolkit/library&#45;pch.hpp Pages: 1 -->
<svg width="2371pt" height="93pt"
 viewBox="0.00 0.00 2371.00 93.00" xmlns="http://www.w3.org/2000/svg" xmlns:xlink="http://www.w3.org/1999/xlink">
<g id="graph0" class="graph" transform="scale(1 1) rotate(0) translate(4 89)">
<title>mal&#45;toolkit/library&#45;pch.hpp</title>
<!-- Node1 -->
<g id="node1" class="node">
<title>Node1</title>
<g id="a_node1"><a xlink:title=" ">
<polygon fill="#999999" stroke="#666666" points="1216,-85 1126,-85 1126,-55 1216,-55 1216,-85"/>
<text text-anchor="start" x="1134" y="-73" font-family="Helvetica,sans-Serif" font-size="10.00">mal&#45;toolkit/library</text>
<text text-anchor="middle" x="1171" y="-62" font-family="Helvetica,sans-Serif" font-size="10.00">&#45;pch.hpp</text>
</a>
</g>
</g>
<!-- Node2 -->
<g id="node2" class="node">
<title>Node2</title>
<g id="a_node2"><a xlink:title=" ">
<polygon fill="#e0e0e0" stroke="#999999" points="56,-19 0,-19 0,0 56,0 56,-19"/>
<text text-anchor="middle" x="28" y="-7" font-family="Helvetica,sans-Serif" font-size="10.00">algorithm</text>
</a>
</g>
</g>
<!-- Node1&#45;&gt;Node2 -->
<g id="edge1" class="edge">
<title>Node1&#45;&gt;Node2</title>
<path fill="none" stroke="#63b8ff" d="M1125.52,-68.04C947.52,-64.12 297.18,-48.18 67.46,-19.02"/>
<polygon fill="#63b8ff" stroke="#63b8ff" points="68.06,-15.56 57.69,-17.73 67.14,-22.5 68.06,-15.56"/>
</g>
<!-- Node3 -->
<g id="node3" class="node">
<title>Node3</title>
<g id="a_node3"><a xlink:title=" ">
<polygon fill="#e0e0e0" stroke="#999999" points="112,-19 74,-19 74,0 112,0 112,-19"/>
<text text-anchor="middle" x="93" y="-7" font-family="Helvetica,sans-Serif" font-size="10.00">array</text>
</a>
</g>
</g>
<!-- Node1&#45;&gt;Node3 -->
<g id="edge2" class="edge">
<title>Node1&#45;&gt;Node3</title>
<path fill="none" stroke="#63b8ff" d="M1125.69,-68.33C953.73,-65.56 340.67,-53.58 123.7,-18.95"/>
<polygon fill="#63b8ff" stroke="#63b8ff" points="124.37,-15.52 113.93,-17.32 123.21,-22.42 124.37,-15.52"/>
</g>
<!-- Node4 -->
<g id="node4" class="node">
<title>Node4</title>
<g id="a_node4"><a xlink:title=" ">
<polygon fill="#e0e0e0" stroke="#999999" points="181.5,-19 130.5,-19 130.5,0 181.5,0 181.5,-19"/>
<text text-anchor="middle" x="156" y="-7" font-family="Helvetica,sans-Serif" font-size="10.00">assert.h</text>
</a>
</g>
</g>
<!-- Node1&#45;&gt;Node4 -->
<g id="edge3" class="edge">
<title>Node1&#45;&gt;Node4</title>
<path fill="none" stroke="#63b8ff" d="M1125.64,-67.81C961.32,-63.35 396.57,-46.45 193.04,-18.93"/>
<polygon fill="#63b8ff" stroke="#63b8ff" points="193.78,-15.5 183.39,-17.57 192.8,-22.43 193.78,-15.5"/>
</g>
<!-- Node5 -->
<g id="node5" class="node">
<title>Node5</title>
<g id="a_node5"><a xlink:title=" ">
<polygon fill="#e0e0e0" stroke="#999999" points="246,-19 200,-19 200,0 246,0 246,-19"/>
<text text-anchor="middle" x="223" y="-7" font-family="Helvetica,sans-Serif" font-size="10.00">chrono</text>
</a>
</g>
</g>
<!-- Node1&#45;&gt;Node5 -->
<g id="edge4" class="edge">
<title>Node1&#45;&gt;Node5</title>
<path fill="none" stroke="#63b8ff" d="M1125.58,-67.75C968.38,-63.25 447.12,-46.71 257.5,-18.99"/>
<polygon fill="#63b8ff" stroke="#63b8ff" points="258.21,-15.56 247.8,-17.51 257.15,-22.48 258.21,-15.56"/>
</g>
<!-- Node6 -->
<g id="node6" class="node">
<title>Node6</title>
<g id="a_node6"><a xlink:title=" ">
<polygon fill="#e0e0e0" stroke="#999999" points="308,-19 264,-19 264,0 308,0 308,-19"/>
<text text-anchor="middle" x="286" y="-7" font-family="Helvetica,sans-Serif" font-size="10.00">cmath</text>
</a>
</g>
</g>
<!-- Node1&#45;&gt;Node6 -->
<g id="edge5" class="edge">
<title>Node1&#45;&gt;Node6</title>
<path fill="none" stroke="#63b8ff" d="M1125.73,-69.66C999.27,-70.81 631.67,-69.36 319.32,-19.01"/>
<polygon fill="#63b8ff" stroke="#63b8ff" points="320.15,-15.6 309.72,-17.44 319.03,-22.5 320.15,-15.6"/>
</g>
<!-- Node7 -->
<g id="node7" class="node">
<title>Node7</title>
<g id="a_node7"><a xlink:title=" ">
<polygon fill="#e0e0e0" stroke="#999999" points="382,-19 326,-19 326,0 382,0 382,-19"/>
<text text-anchor="middle" x="354" y="-7" font-family="Helvetica,sans-Serif" font-size="10.00">concepts</text>
</a>
</g>
</g>
<!-- Node1&#45;&gt;Node7 -->
<g id="edge6" class="edge">
<title>Node1&#45;&gt;Node7</title>
<path fill="none" stroke="#63b8ff" d="M1125.89,-68.65C1007.33,-67.2 677.13,-59.67 393.53,-19.11"/>
<polygon fill="#63b8ff" stroke="#63b8ff" points="394.09,-15.66 383.69,-17.69 393.09,-22.59 394.09,-15.66"/>
</g>
<!-- Node8 -->
<g id="node8" class="node">
<title>Node8</title>
<g id="a_node8"><a xlink:title=" ">
<polygon fill="#e0e0e0" stroke="#999999" points="495.5,-19 400.5,-19 400.5,0 495.5,0 495.5,-19"/>
<text text-anchor="middle" x="448" y="-7" font-family="Helvetica,sans-Serif" font-size="10.00">condition_variable</text>
</a>
</g>
</g>
<!-- Node1&#45;&gt;Node8 -->
<g id="edge7" class="edge">
<title>Node1&#45;&gt;Node8</title>
<path fill="none" stroke="#63b8ff" d="M1125.67,-66.74C1019.55,-61.21 746.48,-45.56 507.23,-19.16"/>
<polygon fill="#63b8ff" stroke="#63b8ff" points="507.69,-15.69 497.37,-18.06 506.92,-22.65 507.69,-15.69"/>
</g>
<!-- Node9 -->
<g id="node9" class="node">
<title>Node9</title>
<g id="a_node9"><a xlink:title=" ">
<polygon fill="#e0e0e0" stroke="#999999" points="560,-19 514,-19 514,0 560,0 560,-19"/>
<text text-anchor="middle" x="537" y="-7" font-family="Helvetica,sans-Serif" font-size="10.00">cstdint</text>
</a>
</g>
</g>
<!-- Node1&#45;&gt;Node9 -->
<g id="edge8" class="edge">
<title>Node1&#45;&gt;Node9</title>
<path fill="none" stroke="#63b8ff" d="M1125.72,-67.97C1026.69,-65.13 783.41,-54.97 571.35,-19.1"/>
<polygon fill="#63b8ff" stroke="#63b8ff" points="572.25,-15.7 561.8,-17.46 571.07,-22.6 572.25,-15.7"/>
</g>
<!-- Node10 -->
<g id="node10" class="node">
<title>Node10</title>
<g id="a_node10"><a xlink:title=" ">
<polygon fill="#e0e0e0" stroke="#999999" points="623.5,-19 578.5,-19 578.5,0 623.5,0 623.5,-19"/>
<text text-anchor="middle" x="601" y="-7" font-family="Helvetica,sans-Serif" font-size="10.00">cstdlib</text>
</a>
</g>
</g>
<!-- Node1&#45;&gt;Node10 -->
<g id="edge9" class="edge">
<title>Node1&#45;&gt;Node10</title>
<path fill="none" stroke="#63b8ff" d="M1125.67,-67.34C1034.47,-63.46 822.28,-51.65 635.12,-19.06"/>
<polygon fill="#63b8ff" stroke="#63b8ff" points="635.92,-15.65 625.46,-17.36 634.7,-22.54 635.92,-15.65"/>
</g>
<!-- Node11 -->
<g id="node11" class="node">
<title>Node11</title>
<g id="a_node11"><a xlink:title=" ">
<polygon fill="#e0e0e0" stroke="#999999" points="702,-19 642,-19 642,0 702,0 702,-19"/>
<text text-anchor="middle" x="672" y="-7" font-family="Helvetica,sans-Serif" font-size="10.00">filesystem</text>
</a>
</g>
</g>
<!-- Node1&#45;&gt;Node11 -->
<g id="edge10" class="edge">
<title>Node1&#45;&gt;Node11</title>
<path fill="none" stroke="#63b8ff" d="M1125.73,-65.69C1044.95,-59.42 870.47,-44.33 713.45,-19.23"/>
<polygon fill="#63b8ff" stroke="#63b8ff" points="714.1,-15.79 703.67,-17.65 712.98,-22.7 714.1,-15.79"/>
</g>
<!-- Node12 -->
<g id="node12" class="node">
<title>Node12</title>
<g id="a_node12"><a xlink:title=" ">
<polygon fill="#e0e0e0" stroke="#999999" points="770,-19 720,-19 720,0 770,0 770,-19"/>
<text text-anchor="middle" x="745" y="-7" font-family="Helvetica,sans-Serif" font-size="10.00">fstream</text>
</a>
</g>
</g>
<!-- Node1&#45;&gt;Node12 -->
<g id="edge11" class="edge">
<title>Node1&#45;&gt;Node12</title>
<path fill="none" stroke="#63b8ff" d="M1125.75,-64.98C1054.5,-58.27 911.66,-43.28 781.15,-19.2"/>
<polygon fill="#63b8ff" stroke="#63b8ff" points="782.14,-15.82 771.67,-17.42 780.85,-22.7 782.14,-15.82"/>
</g>
<!-- Node13 -->
<g id="node13" class="node">
<title>Node13</title>
<g id="a_node13"><a xlink:title=" ">
<polygon fill="#e0e0e0" stroke="#999999" points="847.5,-19 788.5,-19 788.5,0 847.5,0 847.5,-19"/>
<text text-anchor="middle" x="818" y="-7" font-family="Helvetica,sans-Serif" font-size="10.00">functional</text>
</a>
</g>
</g>
<!-- Node1&#45;&gt;Node13 -->
<g id="edge12" class="edge">
<title>Node1&#45;&gt;Node13</title>
<path fill="none" stroke="#63b8ff" d="M1125.62,-62.6C1066.6,-54.09 960.03,-38.11 858.82,-19.25"/>
<polygon fill="#63b8ff" stroke="#63b8ff" points="859.74,-15.86 849.26,-17.45 858.44,-22.74 859.74,-15.86"/>
</g>
<!-- Node14 -->
<g id="node14" class="node">
<title>Node14</title>
<g id="a_node14"><a xlink:title=" ">
<polygon fill="#e0e0e0" stroke="#999999" points="916,-19 866,-19 866,0 916,0 916,-19"/>
<text text-anchor="middle" x="891" y="-7" font-family="Helvetica,sans-Serif" font-size="10.00">iomanip</text>
</a>
</g>
</g>
<!-- Node1&#45;&gt;Node14 -->
<g id="edge13" class="edge">
<title>Node1&#45;&gt;Node14</title>
<path fill="none" stroke="#63b8ff" d="M1125.53,-60.39C1078.38,-51.31 1002.26,-36.28 927.27,-19.44"/>
<polygon fill="#63b8ff" stroke="#63b8ff" points="928.22,-16.06 917.7,-17.27 926.68,-22.89 928.22,-16.06"/>
</g>
<!-- Node15 -->
<g id="node15" class="node">
<title>Node15</title>
<g id="a_node15"><a xlink:title=" ">
<polygon fill="#e0e0e0" stroke="#999999" points="983.5,-19 934.5,-19 934.5,0 983.5,0 983.5,-19"/>
<text text-anchor="middle" x="959" y="-7" font-family="Helvetica,sans-Serif" font-size="10.00">istream</text>
</a>
</g>
</g>
<!-- Node1&#45;&gt;Node15 -->
<g id="edge14" class="edge">
<title>Node1&#45;&gt;Node15</title>
<path fill="none" stroke="#63b8ff" d="M1125.52,-56.45C1086.44,-45.67 1030.85,-30.33 994.85,-20.39"/>
<polygon fill="#63b8ff" stroke="#63b8ff" points="995.92,-17.06 985.35,-17.77 994.06,-23.81 995.92,-17.06"/>
</g>
<!-- Node16 -->
<g id="node16" class="node">
<title>Node16</title>
<g id="a_node16"><a xlink:title=" ">
<polygon fill="#e0e0e0" stroke="#999999" points="1042,-19 1002,-19 1002,0 1042,0 1042,-19"/>
<text text-anchor="middle" x="1022" y="-7" font-family="Helvetica,sans-Serif" font-size="10.00">limits</text>
</a>
</g>
</g>
<!-- Node1&#45;&gt;Node16 -->
<g id="edge15" class="edge">
<title>Node1&#45;&gt;Node16</title>
<path fill="none" stroke="#63b8ff" d="M1134.17,-54.54C1109.17,-44.73 1076.5,-31.9 1052.87,-22.62"/>
<polygon fill="#63b8ff" stroke="#63b8ff" points="1054.38,-19.45 1043.79,-19.06 1051.82,-25.97 1054.38,-19.45"/>
</g>
<!-- Node17 -->
<g id="node17" class="node">
<title>Node17</title>
<g id="a_node17"><a xlink:title=" ">
<polygon fill="#e0e0e0" stroke="#999999" points="1095.5,-19 1060.5,-19 1060.5,0 1095.5,0 1095.5,-19"/>
<text text-anchor="middle" x="1078" y="-7" font-family="Helvetica,sans-Serif" font-size="10.00">map</text>
</a>
</g>
</g>
<!-- Node1&#45;&gt;Node17 -->
<g id="edge16" class="edge">
<title>Node1&#45;&gt;Node17</title>
<path fill="none" stroke="#63b8ff" d="M1148.01,-54.54C1133.9,-45.66 1115.87,-34.32 1101.64,-25.37"/>
<polygon fill="#63b8ff" stroke="#63b8ff" points="1103.67,-22.51 1093.34,-20.15 1099.95,-28.44 1103.67,-22.51"/>
</g>
<!-- Node18 -->
<g id="node18" class="node">
<title>Node18</title>
<g id="a_node18"><a xlink:title=" ">
<polygon fill="#e0e0e0" stroke="#999999" points="1164.5,-19 1113.5,-19 1113.5,0 1164.5,0 1164.5,-19"/>
<text text-anchor="middle" x="1139" y="-7" font-family="Helvetica,sans-Serif" font-size="10.00">memory</text>
</a>
</g>
</g>
<!-- Node1&#45;&gt;Node18 -->
<g id="edge17" class="edge">
<title>Node1&#45;&gt;Node18</title>
<path fill="none" stroke="#63b8ff" d="M1163.09,-54.54C1158.92,-46.91 1153.75,-37.46 1149.27,-29.27"/>
<polygon fill="#63b8ff" stroke="#63b8ff" points="1152.34,-27.6 1144.47,-20.5 1146.2,-30.96 1152.34,-27.6"/>
</g>
<!-- Node19 -->
<g id="node19" class="node">
<title>Node19</title>
<g id="a_node19"><a xlink:title=" ">
<polygon fill="#e0e0e0" stroke="#999999" points="1225.5,-19 1182.5,-19 1182.5,0 1225.5,0 1225.5,-19"/>
<text text-anchor="middle" x="1204" y="-7" font-family="Helvetica,sans-Serif" font-size="10.00">mutex</text>
</a>
</g>
</g>
<!-- Node1&#45;&gt;Node19 -->
<g id="edge18" class="edge">
<title>Node1&#45;&gt;Node19</title>
<path fill="none" stroke="#63b8ff" d="M1179.16,-54.54C1183.51,-46.82 1188.91,-37.24 1193.57,-28.99"/>
<polygon fill="#63b8ff" stroke="#63b8ff" points="1196.5,-30.92 1198.36,-20.49 1190.4,-27.48 1196.5,-30.92"/>
</g>
<!-- Node20 -->
<g id="node20" class="node">
<title>Node20</title>
<g id="a_node20"><a xlink:title=" ">
<polygon fill="#e0e0e0" stroke="#999999" points="1298,-19 1244,-19 1244,0 1298,0 1298,-19"/>
<text text-anchor="middle" x="1271" y="-7" font-family="Helvetica,sans-Serif" font-size="10.00">numbers</text>
</a>
</g>
</g>
<!-- Node1&#45;&gt;Node20 -->
<g id="edge19" class="edge">
<title>Node1&#45;&gt;Node20</title>
<path fill="none" stroke="#63b8ff" d="M1195.72,-54.54C1211.04,-45.58 1230.66,-34.1 1246.02,-25.11"/>
<polygon fill="#63b8ff" stroke="#63b8ff" points="1247.71,-28.18 1254.57,-20.11 1244.17,-22.14 1247.71,-28.18"/>
</g>
<!-- Node21 -->
<g id="node21" class="node">
<title>Node21</title>
<g id="a_node21"><a xlink:title=" ">
<polygon fill="#e0e0e0" stroke="#999999" points="1367.5,-19 1316.5,-19 1316.5,0 1367.5,0 1367.5,-19"/>
<text text-anchor="middle" x="1342" y="-7" font-family="Helvetica,sans-Serif" font-size="10.00">numeric</text>
</a>
</g>
</g>
<!-- Node1&#45;&gt;Node21 -->
<g id="edge20" class="edge">
<title>Node1&#45;&gt;Node21</title>
<path fill="none" stroke="#63b8ff" d="M1213.27,-54.54C1241.61,-44.84 1278.54,-32.21 1305.58,-22.96"/>
<polygon fill="#63b8ff" stroke="#63b8ff" points="1306.38,-26.38 1314.71,-19.84 1304.12,-19.76 1306.38,-26.38"/>
</g>
<!-- Node22 -->
<g id="node22" class="node">
<title>Node22</title>
<g id="a_node22"><a xlink:title=" ">
<polygon fill="#e0e0e0" stroke="#999999" points="1436,-19 1386,-19 1386,0 1436,0 1436,-19"/>
<text text-anchor="middle" x="1411" y="-7" font-family="Helvetica,sans-Serif" font-size="10.00">optional</text>
</a>
</g>
</g>
<!-- Node1&#45;&gt;Node22 -->
<g id="edge21" class="edge">
<title>Node1&#45;&gt;Node22</title>
<path fill="none" stroke="#63b8ff" d="M1216.43,-58.07C1255.82,-48.57 1314.66,-34.33 1374.89,-19.51"/>
<polygon fill="#63b8ff" stroke="#63b8ff" points="1375.41,-22.98 1384.28,-17.19 1373.74,-16.19 1375.41,-22.98"/>
</g>
<!-- Node23 -->
<g id="node23" class="node">
<title>Node23</title>
<g id="a_node23"><a xlink:title=" ">
<polygon fill="#e0e0e0" stroke="#999999" points="1506,-19 1454,-19 1454,0 1506,0 1506,-19"/>
<text text-anchor="middle" x="1480" y="-7" font-family="Helvetica,sans-Serif" font-size="10.00">ostream</text>
</a>
</g>
</g>
<!-- Node1&#45;&gt;Node23 -->
<g id="edge22" class="edge">
<title>Node1&#45;&gt;Node23</title>
<path fill="none" stroke="#63b8ff" d="M1216.25,-61.57C1268.42,-52.82 1356.99,-37.4 1442.45,-19.44"/>
<polygon fill="#63b8ff" stroke="#63b8ff" points="1443.13,-22.88 1452.18,-17.38 1441.68,-16.03 1443.13,-22.88"/>
</g>
<!-- Node24 -->
<g id="node24" class="node">
<title>Node24</title>
<g id="a_node24"><a xlink:title=" ">
<polygon fill="#e0e0e0" stroke="#999999" points="1573.5,-19 1524.5,-19 1524.5,0 1573.5,0 1573.5,-19"/>
<text text-anchor="middle" x="1549" y="-7" font-family="Helvetica,sans-Serif" font-size="10.00">random</text>
</a>
</g>
</g>
<!-- Node1&#45;&gt;Node24 -->
<g id="edge23" class="edge">
<title>Node1&#45;&gt;Node24</title>
<path fill="none" stroke="#63b8ff" d="M1216.32,-63.89C1280.23,-56.36 1400.64,-40.99 1512.99,-19.21"/>
<polygon fill="#63b8ff" stroke="#63b8ff" points="1513.56,-22.66 1522.7,-17.3 1512.21,-15.79 1513.56,-22.66"/>
</g>
<!-- Node25 -->
<g id="node25" class="node">
<title>Node25</title>
<g id="a_node25"><a xlink:title=" ">
<polygon fill="#e0e0e0" stroke="#999999" points="1668.5,-19 1591.5,-19 1591.5,0 1668.5,0 1668.5,-19"/>
<text text-anchor="middle" x="1630" y="-7" font-family="Helvetica,sans-Serif" font-size="10.00">shared_mutex</text>
</a>
</g>
</g>
<!-- Node1&#45;&gt;Node25 -->
<g id="edge24" class="edge">
<title>Node1&#45;&gt;Node25</title>
<path fill="none" stroke="#63b8ff" d="M1216.23,-64.38C1290.19,-56.64 1441.86,-39.97 1579.87,-19.4"/>
<polygon fill="#63b8ff" stroke="#63b8ff" points="1580.18,-22.9 1589.55,-17.95 1579.14,-15.97 1580.18,-22.9"/>
</g>
<!-- Node26 -->
<g id="node26" class="node">
<title>Node26</title>
<g id="a_node26"><a xlink:title=" ">
<polygon fill="#e0e0e0" stroke="#999999" points="1725,-19 1687,-19 1687,0 1725,0 1725,-19"/>
<text text-anchor="middle" x="1706" y="-7" font-family="Helvetica,sans-Serif" font-size="10.00">span</text>
</a>
</g>
</g>
<!-- Node1&#45;&gt;Node26 -->
<g id="edge25" class="edge">
<title>Node1&#45;&gt;Node26</title>
<path fill="none" stroke="#63b8ff" d="M1216.2,-67.52C1303.46,-64.02 1501.18,-52.98 1675.37,-19.15"/>
<polygon fill="#63b8ff" stroke="#63b8ff" points="1675.93,-22.61 1685.06,-17.23 1674.57,-15.74 1675.93,-22.61"/>
</g>
<!-- Node27 -->
<g id="node27" class="node">
<title>Node27</title>
<g id="a_node27"><a xlink:title=" ">
<polygon fill="#e0e0e0" stroke="#999999" points="1795,-19 1743,-19 1743,0 1795,0 1795,-19"/>
<text text-anchor="middle" x="1769" y="-7" font-family="Helvetica,sans-Serif" font-size="10.00">sstream</text>
</a>
</g>
</g>
<!-- Node1&#45;&gt;Node27 -->
<g id="edge26" class="edge">
<title>Node1&#45;&gt;Node27</title>
<path fill="none" stroke="#63b8ff" d="M1216.17,-67.28C1310.32,-63.21 1534.5,-50.96 1731.57,-19.16"/>
<polygon fill="#63b8ff" stroke="#63b8ff" points="1731.92,-22.64 1741.22,-17.58 1730.79,-15.74 1731.92,-22.64"/>
</g>
<!-- Node28 -->
<g id="node28" class="node">
<title>Node28</title>
<g id="a_node28"><a xlink:title=" ">
<polygon fill="#e0e0e0" stroke="#999999" points="1872.5,-19 1813.5,-19 1813.5,0 1872.5,0 1872.5,-19"/>
<text text-anchor="middle" x="1843" y="-7" font-family="Helvetica,sans-Serif" font-size="10.00">stdexcept</text>
</a>
</g>
</g>
<!-- Node1&#45;&gt;Node28 -->
<g id="edge27" class="edge">
<title>Node1&#45;&gt;Node28</title>
<path fill="none" stroke="#63b8ff" d="M1216.13,-67.54C1318.57,-63.77 1576.58,-51.75 1802.21,-19.04"/>
<polygon fill="#63b8ff" stroke="#63b8ff" points="1802.38,-22.55 1811.77,-17.64 1801.37,-15.63 1802.38,-22.55"/>
</g>
<!-- Node29 -->
<g id="node29" class="node">
<title>Node29</title>
<g id="a_node29"><a xlink:title=" ">
<polygon fill="#e0e0e0" stroke="#999999" points="1939,-19 1891,-19 1891,0 1939,0 1939,-19"/>
<text text-anchor="middle" x="1915" y="-7" font-family="Helvetica,sans-Serif" font-size="10.00">stdint.h</text>
</a>
</g>
</g>
<!-- Node1&#45;&gt;Node29 -->
<g id="edge28" class="edge">
<title>Node1&#45;&gt;Node29</title>
<path fill="none" stroke="#63b8ff" d="M1216.25,-68.66C1327.63,-67.23 1623.98,-59.73 1879.24,-19.15"/>
<polygon fill="#63b8ff" stroke="#63b8ff" points="1879.79,-22.6 1889.1,-17.55 1878.67,-15.69 1879.79,-22.6"/>
</g>
<!-- Node30 -->
<g id="node30" class="node">
<title>Node30</title>
<g id="a_node30"><a xlink:title=" ">
<polygon fill="#e0e0e0" stroke="#999999" points="1998.5,-19 1957.5,-19 1957.5,0 1998.5,0 1998.5,-19"/>
<text text-anchor="middle" x="1978" y="-7" font-family="Helvetica,sans-Serif" font-size="10.00">string</text>
</a>
</g>
</g>
<!-- Node1&#45;&gt;Node30 -->
<g id="edge29" class="edge">
<title>Node1&#45;&gt;Node30</title>
<path fill="none" stroke="#63b8ff" d="M1216.5,-69.42C1335.27,-69.8 1664.4,-66.31 1945.89,-18.94"/>
<polygon fill="#63b8ff" stroke="#63b8ff" points="1946.39,-22.41 1955.66,-17.27 1945.21,-15.51 1946.39,-22.41"/>
</g>
<!-- Node31 -->
<g id="node31" class="node">
<title>Node31</title>
<g id="a_node31"><a xlink:title=" ">
<polygon fill="#e0e0e0" stroke="#999999" points="2061,-19 2017,-19 2017,0 2061,0 2061,-19"/>
<text text-anchor="middle" x="2039" y="-7" font-family="Helvetica,sans-Serif" font-size="10.00">thread</text>
</a>
</g>
</g>
<!-- Node1&#45;&gt;Node31 -->
<g id="edge30" class="edge">
<title>Node1&#45;&gt;Node31</title>
<path fill="none" stroke="#63b8ff" d="M1216.28,-69.58C1341,-70.5 1699.99,-68.44 2005.47,-19.04"/>
<polygon fill="#63b8ff" stroke="#63b8ff" points="2005.98,-22.51 2015.28,-17.43 2004.84,-15.6 2005.98,-22.51"/>
</g>
<!-- Node32 -->
<g id="node32" class="node">
<title>Node32</title>
<g id="a_node32"><a xlink:title=" ">
<polygon fill="#e0e0e0" stroke="#999999" points="2141,-19 2079,-19 2079,0 2141,0 2141,-19"/>
<text text-anchor="middle" x="2110" y="-7" font-family="Helvetica,sans-Serif" font-size="10.00">type_traits</text>
</a>
</g>
</g>
<!-- Node1&#45;&gt;Node32 -->
<g id="edge31" class="edge">
<title>Node1&#45;&gt;Node32</title>
<path fill="none" stroke="#63b8ff" d="M1216.13,-68.94C1346.63,-68.24 1735.74,-62.49 2067.36,-19.13"/>
<polygon fill="#63b8ff" stroke="#63b8ff" points="2067.68,-22.62 2077.14,-17.84 2066.76,-15.68 2067.68,-22.62"/>
</g>
<!-- Node33 -->
<g id="node33" class="node">
<title>Node33</title>
<g id="a_node33"><a xlink:title=" ">
<polygon fill="#e0e0e0" stroke="#999999" points="2237,-19 2159,-19 2159,0 2237,0 2237,-19"/>
<text text-anchor="middle" x="2198" y="-7" font-family="Helvetica,sans-Serif" font-size="10.00">unordered_set</text>
</a>
</g>
</g>
<!-- Node1&#45;&gt;Node33 -->
<g id="edge32" class="edge">
<title>Node1&#45;&gt;Node33</title>
<path fill="none" stroke="#63b8ff" d="M1216.05,-68.69C1353.95,-67.31 1782.6,-59.89 2147.19,-19.17"/>
<polygon fill="#63b8ff" stroke="#63b8ff" points="2147.46,-22.66 2157,-18.06 2146.67,-15.71 2147.46,-22.66"/>
</g>
<!-- Node34 -->
<g id="node34" class="node">
<title>Node34</title>
<g id="a_node34"><a xlink:title=" ">
<polygon fill="#e0e0e0" stroke="#999999" points="2301,-19 2255,-19 2255,0 2301,0 2301,-19"/>
<text text-anchor="middle" x="2278" y="-7" font-family="Helvetica,sans-Serif" font-size="10.00">variant</text>
</a>
</g>
</g>
<!-- Node1&#45;&gt;Node34 -->
<g id="edge33" class="edge">
<title>Node1&#45;&gt;Node34</title>
<path fill="none" stroke="#63b8ff" d="M1216.44,-68.18C1391.18,-64.81 2020.74,-50.84 2243.46,-18.98"/>
<polygon fill="#63b8ff" stroke="#63b8ff" points="2243.83,-22.46 2253.21,-17.53 2242.8,-15.54 2243.83,-22.46"/>
</g>
<!-- Node35 -->
<g id="node35" class="node">
<title>Node35</title>
<g id="a_node35"><a xlink:title=" ">
<polygon fill="#e0e0e0" stroke="#999999" points="2363,-19 2319,-19 2319,0 2363,0 2363,-19"/>
<text text-anchor="middle" x="2341" y="-7" font-family="Helvetica,sans-Serif" font-size="10.00">vector</text>
</a>
</g>
</g>
<!-- Node1&#45;&gt;Node35 -->
<g id="edge34" class="edge">
<title>Node1&#45;&gt;Node35</title>
<path fill="none" stroke="#63b8ff" d="M1216.31,-68.36C1397.54,-65.61 2071.48,-53.37 2307.54,-18.94"/>
<polygon fill="#63b8ff" stroke="#63b8ff" points="2307.92,-22.42 2317.28,-17.46 2306.87,-15.5 2307.92,-22.42"/>
</g>
</g>
</svg>
