<?xml version="1.0" encoding="UTF-8" standalone="no"?>
<!DOCTYPE svg PUBLIC "-//W3C//DTD SVG 1.1//EN"
 "http://www.w3.org/Graphics/SVG/1.1/DTD/svg11.dtd">
<!-- Generated by graphviz version 9.0.0 (20230911.1827)
 -->
<!-- Title: mal&#45;toolkit/mal&#45;toolkit/library&#45;pch.hpp Pages: 1 -->
<svg width="2248pt" height="94pt"
 viewBox="0.00 0.00 2247.75 93.75" xmlns="http://www.w3.org/2000/svg" xmlns:xlink="http://www.w3.org/1999/xlink">
<g id="graph0" class="graph" transform="scale(1 1) rotate(0) translate(4 89.75)">
<title>mal&#45;toolkit/mal&#45;toolkit/library&#45;pch.hpp</title>
<!-- Node1 -->
<g id="Node000001" class="node">
<title>Node1</title>
<g id="a_Node000001"><a xlink:title="Precompiled header (PCH) file for common headers used across the library.">
<polygon fill="#999999" stroke="#666666" points="1165.62,-85.75 1061.12,-85.75 1061.12,-55.25 1165.62,-55.25 1165.62,-85.75"/>
<text text-anchor="start" x="1069.12" y="-72.25" font-family="Times,serif" font-size="10.00">mal&#45;toolkit/mal&#45;toolkit</text>
<text text-anchor="middle" x="1113.38" y="-61" font-family="Times,serif" font-size="10.00">/library&#45;pch.hpp</text>
</a>
</g>
</g>
<!-- Node2 -->
<g id="Node000002" class="node">
<title>Node2</title>
<g id="a_Node000002"><a xlink:title=" ">
<polygon fill="#e0e0e0" stroke="#999999" points="46.75,-19.25 0,-19.25 0,0 46.75,0 46.75,-19.25"/>
<text text-anchor="middle" x="23.38" y="-5.75" font-family="Times,serif" font-size="10.00">assert.h</text>
</a>
</g>
</g>
<!-- Node1&#45;&gt;Node2 -->
<g id="edge1_Node000001_Node000002" class="edge">
<title>Node1&#45;&gt;Node2</title>
<g id="a_edge1_Node000001_Node000002"><a xlink:title=" ">
<path fill="none" stroke="#63b8ff" d="M1060.92,-68.51C878.89,-64.83 274.26,-50.64 58.24,-19.31"/>
<polygon fill="#63b8ff" stroke="#63b8ff" points="58.93,-15.87 48.51,-17.83 57.88,-22.79 58.93,-15.87"/>
</a>
</g>
</g>
<!-- Node3 -->
<g id="Node000003" class="node">
<title>Node3</title>
<g id="a_Node000003"><a xlink:title=" ">
<polygon fill="#e0e0e0" stroke="#999999" points="110.38,-19.25 64.38,-19.25 64.38,0 110.38,0 110.38,-19.25"/>
<text text-anchor="middle" x="87.38" y="-5.75" font-family="Times,serif" font-size="10.00">stdint.h</text>
</a>
</g>
</g>
<!-- Node1&#45;&gt;Node3 -->
<g id="edge2_Node000001_Node000003" class="edge">
<title>Node1&#45;&gt;Node3</title>
<g id="a_edge2_Node000001_Node000003"><a xlink:title=" ">
<path fill="none" stroke="#63b8ff" d="M1060.73,-68.32C885.91,-64.16 324.73,-48.94 121.79,-19.22"/>
<polygon fill="#63b8ff" stroke="#63b8ff" points="122.58,-15.8 112.17,-17.75 121.52,-22.72 122.58,-15.8"/>
</a>
</g>
</g>
<!-- Node4 -->
<g id="Node000004" class="node">
<title>Node4</title>
<g id="a_Node000004"><a xlink:title=" ">
<polygon fill="#e0e0e0" stroke="#999999" points="182.12,-19.25 128.62,-19.25 128.62,0 182.12,0 182.12,-19.25"/>
<text text-anchor="middle" x="155.38" y="-5.75" font-family="Times,serif" font-size="10.00">algorithm</text>
</a>
</g>
</g>
<!-- Node1&#45;&gt;Node4 -->
<g id="edge3_Node000001_Node000004" class="edge">
<title>Node1&#45;&gt;Node4</title>
<g id="a_edge3_Node000001_Node000004"><a xlink:title=" ">
<path fill="none" stroke="#63b8ff" d="M1060.8,-69.95C921.01,-70.42 528.49,-67.18 193.78,-19.3"/>
<polygon fill="#63b8ff" stroke="#63b8ff" points="194.3,-15.84 183.9,-17.87 193.29,-22.77 194.3,-15.84"/>
</a>
</g>
</g>
<!-- Node5 -->
<g id="Node000005" class="node">
<title>Node5</title>
<g id="a_Node000005"><a xlink:title=" ">
<polygon fill="#e0e0e0" stroke="#999999" points="236.5,-19.25 200.25,-19.25 200.25,0 236.5,0 236.5,-19.25"/>
<text text-anchor="middle" x="218.38" y="-5.75" font-family="Times,serif" font-size="10.00">array</text>
</a>
</g>
</g>
<!-- Node1&#45;&gt;Node5 -->
<g id="edge4_Node000001_Node000005" class="edge">
<title>Node1&#45;&gt;Node5</title>
<g id="a_edge4_Node000001_Node000005"><a xlink:title=" ">
<path fill="none" stroke="#63b8ff" d="M1060.65,-68.18C901.13,-63.93 424.25,-49.19 247.98,-19.19"/>
<polygon fill="#63b8ff" stroke="#63b8ff" points="248.76,-15.77 238.3,-17.45 247.53,-22.66 248.76,-15.77"/>
</a>
</g>
</g>
<!-- Node6 -->
<g id="Node000006" class="node">
<title>Node6</title>
<g id="a_Node000006"><a xlink:title=" ">
<polygon fill="#e0e0e0" stroke="#999999" points="297.88,-19.25 254.88,-19.25 254.88,0 297.88,0 297.88,-19.25"/>
<text text-anchor="middle" x="276.38" y="-5.75" font-family="Times,serif" font-size="10.00">chrono</text>
</a>
</g>
</g>
<!-- Node1&#45;&gt;Node6 -->
<g id="edge5_Node000001_Node000006" class="edge">
<title>Node1&#45;&gt;Node6</title>
<g id="a_edge5_Node000001_Node000006"><a xlink:title=" ">
<path fill="none" stroke="#63b8ff" d="M1061.08,-70C933.72,-70.43 597.41,-66.72 309.35,-19.18"/>
<polygon fill="#63b8ff" stroke="#63b8ff" points="310.2,-15.77 299.76,-17.57 309.04,-22.68 310.2,-15.77"/>
</a>
</g>
</g>
<!-- Node7 -->
<g id="Node000007" class="node">
<title>Node7</title>
<g id="a_Node000007"><a xlink:title=" ">
<polygon fill="#e0e0e0" stroke="#999999" points="356.75,-19.25 316,-19.25 316,0 356.75,0 356.75,-19.25"/>
<text text-anchor="middle" x="336.38" y="-5.75" font-family="Times,serif" font-size="10.00">cmath</text>
</a>
</g>
</g>
<!-- Node1&#45;&gt;Node7 -->
<g id="edge6_Node000001_Node000007" class="edge">
<title>Node1&#45;&gt;Node7</title>
<g id="a_edge6_Node000001_Node000007"><a xlink:title=" ">
<path fill="none" stroke="#63b8ff" d="M1060.84,-69.79C939.91,-69.63 632.59,-64.56 368.19,-19.14"/>
<polygon fill="#63b8ff" stroke="#63b8ff" points="369.17,-15.76 358.71,-17.49 367.96,-22.66 369.17,-15.76"/>
</a>
</g>
</g>
<!-- Node8 -->
<g id="Node000008" class="node">
<title>Node8</title>
<g id="a_Node000008"><a xlink:title=" ">
<polygon fill="#e0e0e0" stroke="#999999" points="425.62,-19.25 375.12,-19.25 375.12,0 425.62,0 425.62,-19.25"/>
<text text-anchor="middle" x="400.38" y="-5.75" font-family="Times,serif" font-size="10.00">concepts</text>
</a>
</g>
</g>
<!-- Node1&#45;&gt;Node8 -->
<g id="edge7_Node000001_Node000008" class="edge">
<title>Node1&#45;&gt;Node8</title>
<g id="a_edge7_Node000001_Node000008"><a xlink:title=" ">
<path fill="none" stroke="#63b8ff" d="M1060.71,-68.6C948.03,-66.02 675.17,-56.33 437.19,-19.22"/>
<polygon fill="#63b8ff" stroke="#63b8ff" points="437.81,-15.78 427.38,-17.67 436.71,-22.69 437.81,-15.78"/>
</a>
</g>
</g>
<!-- Node9 -->
<g id="Node000009" class="node">
<title>Node9</title>
<g id="a_Node000009"><a xlink:title=" ">
<polygon fill="#e0e0e0" stroke="#999999" points="532.75,-19.25 444,-19.25 444,0 532.75,0 532.75,-19.25"/>
<text text-anchor="middle" x="488.38" y="-5.75" font-family="Times,serif" font-size="10.00">condition_variable</text>
</a>
</g>
</g>
<!-- Node1&#45;&gt;Node9 -->
<g id="edge8_Node000001_Node000009" class="edge">
<title>Node1&#45;&gt;Node9</title>
<g id="a_edge8_Node000001_Node000009"><a xlink:title=" ">
<path fill="none" stroke="#63b8ff" d="M1060.79,-66.18C961.78,-59.65 740.67,-43.73 544.55,-19.57"/>
<polygon fill="#63b8ff" stroke="#63b8ff" points="545.02,-16.1 534.66,-18.34 544.15,-23.05 545.02,-16.1"/>
</a>
</g>
</g>
<!-- Node10 -->
<g id="Node000010" class="node">
<title>Node10</title>
<g id="a_Node000010"><a xlink:title=" ">
<polygon fill="#e0e0e0" stroke="#999999" points="593.88,-19.25 550.88,-19.25 550.88,0 593.88,0 593.88,-19.25"/>
<text text-anchor="middle" x="572.38" y="-5.75" font-family="Times,serif" font-size="10.00">cstdint</text>
</a>
</g>
</g>
<!-- Node1&#45;&gt;Node10 -->
<g id="edge9_Node000001_Node000010" class="edge">
<title>Node1&#45;&gt;Node10</title>
<g id="a_edge9_Node000001_Node000010"><a xlink:title=" ">
<path fill="none" stroke="#63b8ff" d="M1060.7,-67.48C969.52,-63.3 776.39,-51.43 605.45,-19.53"/>
<polygon fill="#63b8ff" stroke="#63b8ff" points="606.18,-16.11 595.71,-17.68 604.88,-22.99 606.18,-16.11"/>
</a>
</g>
</g>
<!-- Node11 -->
<g id="Node000011" class="node">
<title>Node11</title>
<g id="a_Node000011"><a xlink:title=" ">
<polygon fill="#e0e0e0" stroke="#999999" points="654.88,-19.25 611.88,-19.25 611.88,0 654.88,0 654.88,-19.25"/>
<text text-anchor="middle" x="633.38" y="-5.75" font-family="Times,serif" font-size="10.00">cstdlib</text>
</a>
</g>
</g>
<!-- Node1&#45;&gt;Node11 -->
<g id="edge10_Node000001_Node000011" class="edge">
<title>Node1&#45;&gt;Node11</title>
<g id="a_edge10_Node000001_Node000011"><a xlink:title=" ">
<path fill="none" stroke="#63b8ff" d="M1060.63,-66.5C978.18,-61.19 813.74,-48.06 666.26,-19.54"/>
<polygon fill="#63b8ff" stroke="#63b8ff" points="667.2,-16.16 656.71,-17.66 665.85,-23.02 667.2,-16.16"/>
</a>
</g>
</g>
<!-- Node12 -->
<g id="Node000012" class="node">
<title>Node12</title>
<g id="a_Node000012"><a xlink:title=" ">
<polygon fill="#e0e0e0" stroke="#999999" points="727.88,-19.25 672.88,-19.25 672.88,0 727.88,0 727.88,-19.25"/>
<text text-anchor="middle" x="700.38" y="-5.75" font-family="Times,serif" font-size="10.00">filesystem</text>
</a>
</g>
</g>
<!-- Node1&#45;&gt;Node12 -->
<g id="edge11_Node000001_Node000012" class="edge">
<title>Node1&#45;&gt;Node12</title>
<g id="a_edge11_Node000001_Node000012"><a xlink:title=" ">
<path fill="none" stroke="#63b8ff" d="M1060.65,-64.2C989.73,-56.69 859.47,-41.57 739.43,-19.67"/>
<polygon fill="#63b8ff" stroke="#63b8ff" points="740.18,-16.25 729.71,-17.87 738.91,-23.13 740.18,-16.25"/>
</a>
</g>
</g>
<!-- Node13 -->
<g id="Node000013" class="node">
<title>Node13</title>
<g id="a_Node000013"><a xlink:title=" ">
<polygon fill="#e0e0e0" stroke="#999999" points="791,-19.25 745.75,-19.25 745.75,0 791,0 791,-19.25"/>
<text text-anchor="middle" x="768.38" y="-5.75" font-family="Times,serif" font-size="10.00">fstream</text>
</a>
</g>
</g>
<!-- Node1&#45;&gt;Node13 -->
<g id="edge12_Node000001_Node000013" class="edge">
<title>Node1&#45;&gt;Node13</title>
<g id="a_edge12_Node000001_Node000013"><a xlink:title=" ">
<path fill="none" stroke="#63b8ff" d="M1060.73,-62.75C1000.6,-54.67 899.07,-39.87 802.52,-19.51"/>
<polygon fill="#63b8ff" stroke="#63b8ff" points="803.37,-16.11 792.86,-17.45 801.91,-22.96 803.37,-16.11"/>
</a>
</g>
</g>
<!-- Node14 -->
<g id="Node000014" class="node">
<title>Node14</title>
<g id="a_Node000014"><a xlink:title=" ">
<polygon fill="#e0e0e0" stroke="#999999" points="863.5,-19.25 809.25,-19.25 809.25,0 863.5,0 863.5,-19.25"/>
<text text-anchor="middle" x="836.38" y="-5.75" font-family="Times,serif" font-size="10.00">functional</text>
</a>
</g>
</g>
<!-- Node1&#45;&gt;Node14 -->
<g id="edge13_Node000001_Node000014" class="edge">
<title>Node1&#45;&gt;Node14</title>
<g id="a_edge13_Node000001_Node000014"><a xlink:title=" ">
<path fill="none" stroke="#63b8ff" d="M1061.1,-59.06C1014.7,-49.7 944.78,-35.33 875.06,-19.8"/>
<polygon fill="#63b8ff" stroke="#63b8ff" points="875.87,-16.4 865.35,-17.63 874.35,-23.23 875.87,-16.4"/>
</a>
</g>
</g>
<!-- Node15 -->
<g id="Node000015" class="node">
<title>Node15</title>
<g id="a_Node000015"><a xlink:title=" ">
<polygon fill="#e0e0e0" stroke="#999999" points="929.5,-19.25 881.25,-19.25 881.25,0 929.5,0 929.5,-19.25"/>
<text text-anchor="middle" x="905.38" y="-5.75" font-family="Times,serif" font-size="10.00">iomanip</text>
</a>
</g>
</g>
<!-- Node1&#45;&gt;Node15 -->
<g id="edge14_Node000001_Node000015" class="edge">
<title>Node1&#45;&gt;Node15</title>
<g id="a_edge14_Node000001_Node000015"><a xlink:title=" ">
<path fill="none" stroke="#63b8ff" d="M1061.42,-54.8C1023.86,-44.16 974.09,-30.07 940.96,-20.7"/>
<polygon fill="#63b8ff" stroke="#63b8ff" points="942.02,-17.36 931.44,-18 940.11,-24.09 942.02,-17.36"/>
</a>
</g>
</g>
<!-- Node16 -->
<g id="Node000016" class="node">
<title>Node16</title>
<g id="a_Node000016"><a xlink:title=" ">
<polygon fill="#e0e0e0" stroke="#999999" points="993,-19.25 947.75,-19.25 947.75,0 993,0 993,-19.25"/>
<text text-anchor="middle" x="970.38" y="-5.75" font-family="Times,serif" font-size="10.00">istream</text>
</a>
</g>
</g>
<!-- Node1&#45;&gt;Node16 -->
<g id="edge15_Node000001_Node000016" class="edge">
<title>Node1&#45;&gt;Node16</title>
<g id="a_edge15_Node000001_Node000016"><a xlink:title=" ">
<path fill="none" stroke="#63b8ff" d="M1077.66,-54.8C1054.73,-45.35 1025.19,-33.19 1002.91,-24.02"/>
<polygon fill="#63b8ff" stroke="#63b8ff" points="1004.28,-20.8 993.7,-20.23 1001.62,-27.27 1004.28,-20.8"/>
</a>
</g>
</g>
<!-- Node17 -->
<g id="Node000017" class="node">
<title>Node17</title>
<g id="a_Node000017"><a xlink:title=" ">
<polygon fill="#e0e0e0" stroke="#999999" points="1049.25,-19.25 1011.5,-19.25 1011.5,0 1049.25,0 1049.25,-19.25"/>
<text text-anchor="middle" x="1030.38" y="-5.75" font-family="Times,serif" font-size="10.00">limits</text>
</a>
</g>
</g>
<!-- Node1&#45;&gt;Node17 -->
<g id="edge16_Node000001_Node000017" class="edge">
<title>Node1&#45;&gt;Node17</title>
<g id="a_edge16_Node000001_Node000017"><a xlink:title=" ">
<path fill="none" stroke="#63b8ff" d="M1092.86,-54.95C1080.59,-46.24 1064.99,-35.18 1052.45,-26.28"/>
<polygon fill="#63b8ff" stroke="#63b8ff" points="1054.59,-23.51 1044.4,-20.58 1050.54,-29.22 1054.59,-23.51"/>
</a>
</g>
</g>
<!-- Node18 -->
<g id="Node000018" class="node">
<title>Node18</title>
<g id="a_Node000018"><a xlink:title=" ">
<polygon fill="#e0e0e0" stroke="#999999" points="1101,-19.25 1067.75,-19.25 1067.75,0 1101,0 1101,-19.25"/>
<text text-anchor="middle" x="1084.38" y="-5.75" font-family="Times,serif" font-size="10.00">map</text>
</a>
</g>
</g>
<!-- Node1&#45;&gt;Node18 -->
<g id="edge17_Node000001_Node000018" class="edge">
<title>Node1&#45;&gt;Node18</title>
<g id="a_edge17_Node000001_Node000018"><a xlink:title=" ">
<path fill="none" stroke="#63b8ff" d="M1106.21,-54.95C1102.47,-47.36 1097.85,-37.99 1093.83,-29.82"/>
<polygon fill="#63b8ff" stroke="#63b8ff" points="1097.07,-28.48 1089.51,-21.06 1090.79,-31.58 1097.07,-28.48"/>
</a>
</g>
</g>
<!-- Node19 -->
<g id="Node000019" class="node">
<title>Node19</title>
<g id="a_Node000019"><a xlink:title=" ">
<polygon fill="#e0e0e0" stroke="#999999" points="1167.5,-19.25 1119.25,-19.25 1119.25,0 1167.5,0 1167.5,-19.25"/>
<text text-anchor="middle" x="1143.38" y="-5.75" font-family="Times,serif" font-size="10.00">memory</text>
</a>
</g>
</g>
<!-- Node1&#45;&gt;Node19 -->
<g id="edge18_Node000001_Node000019" class="edge">
<title>Node1&#45;&gt;Node19</title>
<g id="a_edge18_Node000001_Node000019"><a xlink:title=" ">
<path fill="none" stroke="#63b8ff" d="M1120.79,-54.95C1124.66,-47.36 1129.43,-37.99 1133.6,-29.82"/>
<polygon fill="#63b8ff" stroke="#63b8ff" points="1136.64,-31.55 1138.06,-21.05 1130.4,-28.37 1136.64,-31.55"/>
</a>
</g>
</g>
<!-- Node20 -->
<g id="Node000020" class="node">
<title>Node20</title>
<g id="a_Node000020"><a xlink:title=" ">
<polygon fill="#e0e0e0" stroke="#999999" points="1226.75,-19.25 1186,-19.25 1186,0 1226.75,0 1226.75,-19.25"/>
<text text-anchor="middle" x="1206.38" y="-5.75" font-family="Times,serif" font-size="10.00">mutex</text>
</a>
</g>
</g>
<!-- Node1&#45;&gt;Node20 -->
<g id="edge19_Node000001_Node000020" class="edge">
<title>Node1&#45;&gt;Node20</title>
<g id="a_edge19_Node000001_Node000020"><a xlink:title=" ">
<path fill="none" stroke="#63b8ff" d="M1136.36,-54.95C1150.39,-46.07 1168.28,-34.74 1182.47,-25.76"/>
<polygon fill="#63b8ff" stroke="#63b8ff" points="1184.18,-28.82 1190.76,-20.51 1180.44,-22.9 1184.18,-28.82"/>
</a>
</g>
</g>
<!-- Node21 -->
<g id="Node000021" class="node">
<title>Node21</title>
<g id="a_Node000021"><a xlink:title=" ">
<polygon fill="#e0e0e0" stroke="#999999" points="1295.62,-19.25 1245.12,-19.25 1245.12,0 1295.62,0 1295.62,-19.25"/>
<text text-anchor="middle" x="1270.38" y="-5.75" font-family="Times,serif" font-size="10.00">numbers</text>
</a>
</g>
</g>
<!-- Node1&#45;&gt;Node21 -->
<g id="edge20_Node000001_Node000021" class="edge">
<title>Node1&#45;&gt;Node21</title>
<g id="a_edge20_Node000001_Node000021"><a xlink:title=" ">
<path fill="none" stroke="#63b8ff" d="M1152.59,-54.8C1178.11,-45.23 1211.09,-32.86 1235.66,-23.64"/>
<polygon fill="#63b8ff" stroke="#63b8ff" points="1236.75,-26.97 1244.88,-20.19 1234.29,-20.42 1236.75,-26.97"/>
</a>
</g>
</g>
<!-- Node22 -->
<g id="Node000022" class="node">
<title>Node22</title>
<g id="a_Node000022"><a xlink:title=" ">
<polygon fill="#e0e0e0" stroke="#999999" points="1361.5,-19.25 1313.25,-19.25 1313.25,0 1361.5,0 1361.5,-19.25"/>
<text text-anchor="middle" x="1337.38" y="-5.75" font-family="Times,serif" font-size="10.00">numeric</text>
</a>
</g>
</g>
<!-- Node1&#45;&gt;Node22 -->
<g id="edge21_Node000001_Node000022" class="edge">
<title>Node1&#45;&gt;Node22</title>
<g id="a_edge21_Node000001_Node000022"><a xlink:title=" ">
<path fill="none" stroke="#63b8ff" d="M1165.89,-55.7C1207.78,-44.69 1265.31,-29.57 1301.92,-19.94"/>
<polygon fill="#63b8ff" stroke="#63b8ff" points="1302.78,-23.34 1311.56,-17.41 1301,-16.57 1302.78,-23.34"/>
</a>
</g>
</g>
<!-- Node23 -->
<g id="Node000023" class="node">
<title>Node23</title>
<g id="a_Node000023"><a xlink:title=" ">
<polygon fill="#e0e0e0" stroke="#999999" points="1426.75,-19.25 1380,-19.25 1380,0 1426.75,0 1426.75,-19.25"/>
<text text-anchor="middle" x="1403.38" y="-5.75" font-family="Times,serif" font-size="10.00">optional</text>
</a>
</g>
</g>
<!-- Node1&#45;&gt;Node23 -->
<g id="edge22_Node000001_Node000023" class="edge">
<title>Node1&#45;&gt;Node23</title>
<g id="a_edge22_Node000001_Node000023"><a xlink:title=" ">
<path fill="none" stroke="#63b8ff" d="M1165.75,-60.25C1215.39,-51.26 1292.27,-36.77 1368.4,-19.58"/>
<polygon fill="#63b8ff" stroke="#63b8ff" points="1369.18,-22.99 1378.15,-17.36 1367.62,-16.17 1369.18,-22.99"/>
</a>
</g>
</g>
<!-- Node24 -->
<g id="Node000024" class="node">
<title>Node24</title>
<g id="a_Node000024"><a xlink:title=" ">
<polygon fill="#e0e0e0" stroke="#999999" points="1492.12,-19.25 1444.62,-19.25 1444.62,0 1492.12,0 1492.12,-19.25"/>
<text text-anchor="middle" x="1468.38" y="-5.75" font-family="Times,serif" font-size="10.00">ostream</text>
</a>
</g>
</g>
<!-- Node1&#45;&gt;Node24 -->
<g id="edge23_Node000001_Node000024" class="edge">
<title>Node1&#45;&gt;Node24</title>
<g id="a_edge23_Node000001_Node000024"><a xlink:title=" ">
<path fill="none" stroke="#63b8ff" d="M1166.1,-62.93C1227.8,-54.88 1333.24,-39.98 1433.09,-19.54"/>
<polygon fill="#63b8ff" stroke="#63b8ff" points="1433.73,-22.98 1442.81,-17.53 1432.31,-16.13 1433.73,-22.98"/>
</a>
</g>
</g>
<!-- Node25 -->
<g id="Node000025" class="node">
<title>Node25</title>
<g id="a_Node000025"><a xlink:title=" ">
<polygon fill="#e0e0e0" stroke="#999999" points="1556.38,-19.25 1510.38,-19.25 1510.38,0 1556.38,0 1556.38,-19.25"/>
<text text-anchor="middle" x="1533.38" y="-5.75" font-family="Times,serif" font-size="10.00">random</text>
</a>
</g>
</g>
<!-- Node1&#45;&gt;Node25 -->
<g id="edge24_Node000001_Node000025" class="edge">
<title>Node1&#45;&gt;Node25</title>
<g id="a_edge24_Node000001_Node000025"><a xlink:title=" ">
<path fill="none" stroke="#63b8ff" d="M1165.83,-64.97C1238.54,-58.18 1374.21,-43.74 1498.79,-19.52"/>
<polygon fill="#63b8ff" stroke="#63b8ff" points="1499.42,-22.97 1508.56,-17.6 1498.07,-16.1 1499.42,-22.97"/>
</a>
</g>
</g>
<!-- Node26 -->
<g id="Node000026" class="node">
<title>Node26</title>
<g id="a_Node000026"><a xlink:title=" ">
<polygon fill="#e0e0e0" stroke="#999999" points="1646.5,-19.25 1574.25,-19.25 1574.25,0 1646.5,0 1646.5,-19.25"/>
<text text-anchor="middle" x="1610.38" y="-5.75" font-family="Times,serif" font-size="10.00">shared_mutex</text>
</a>
</g>
</g>
<!-- Node1&#45;&gt;Node26 -->
<g id="edge25_Node000001_Node000026" class="edge">
<title>Node1&#45;&gt;Node26</title>
<g id="a_edge25_Node000001_Node000026"><a xlink:title=" ">
<path fill="none" stroke="#63b8ff" d="M1166.09,-65C1248.54,-57.65 1413.24,-41.79 1562.86,-19.52"/>
<polygon fill="#63b8ff" stroke="#63b8ff" points="1563.2,-23.01 1572.57,-18.06 1562.16,-16.09 1563.2,-23.01"/>
</a>
</g>
</g>
<!-- Node27 -->
<g id="Node000027" class="node">
<title>Node27</title>
<g id="a_Node000027"><a xlink:title=" ">
<polygon fill="#e0e0e0" stroke="#999999" points="1699.75,-19.25 1665,-19.25 1665,0 1699.75,0 1699.75,-19.25"/>
<text text-anchor="middle" x="1682.38" y="-5.75" font-family="Times,serif" font-size="10.00">span</text>
</a>
</g>
</g>
<!-- Node1&#45;&gt;Node27 -->
<g id="edge26_Node000001_Node000027" class="edge">
<title>Node1&#45;&gt;Node27</title>
<g id="a_edge26_Node000001_Node000027"><a xlink:title=" ">
<path fill="none" stroke="#63b8ff" d="M1165.87,-68.4C1261.34,-65.59 1469.71,-55.71 1653.29,-19.2"/>
<polygon fill="#63b8ff" stroke="#63b8ff" points="1653.92,-22.64 1663.03,-17.23 1652.53,-15.78 1653.92,-22.64"/>
</a>
</g>
</g>
<!-- Node28 -->
<g id="Node000028" class="node">
<title>Node28</title>
<g id="a_Node000028"><a xlink:title=" ">
<polygon fill="#e0e0e0" stroke="#999999" points="1763.38,-19.25 1717.38,-19.25 1717.38,0 1763.38,0 1763.38,-19.25"/>
<text text-anchor="middle" x="1740.38" y="-5.75" font-family="Times,serif" font-size="10.00">sstream</text>
</a>
</g>
</g>
<!-- Node1&#45;&gt;Node28 -->
<g id="edge27_Node000001_Node000028" class="edge">
<title>Node1&#45;&gt;Node28</title>
<g id="a_edge27_Node000001_Node000028"><a xlink:title=" ">
<path fill="none" stroke="#63b8ff" d="M1165.91,-68.22C1268.23,-65.04 1501.41,-54.46 1705.81,-19.39"/>
<polygon fill="#63b8ff" stroke="#63b8ff" points="1706.32,-22.85 1715.57,-17.69 1705.12,-15.95 1706.32,-22.85"/>
</a>
</g>
</g>
<!-- Node29 -->
<g id="Node000029" class="node">
<title>Node29</title>
<g id="a_Node000029"><a xlink:title=" ">
<polygon fill="#e0e0e0" stroke="#999999" points="1835.5,-19.25 1781.25,-19.25 1781.25,0 1835.5,0 1835.5,-19.25"/>
<text text-anchor="middle" x="1808.38" y="-5.75" font-family="Times,serif" font-size="10.00">stdexcept</text>
</a>
</g>
</g>
<!-- Node1&#45;&gt;Node29 -->
<g id="edge28_Node000001_Node000029" class="edge">
<title>Node1&#45;&gt;Node29</title>
<g id="a_edge28_Node000001_Node000029"><a xlink:title=" ">
<path fill="none" stroke="#63b8ff" d="M1165.81,-68.33C1276.02,-65.26 1539.82,-54.72 1769.68,-19.43"/>
<polygon fill="#63b8ff" stroke="#63b8ff" points="1770.11,-22.9 1779.45,-17.9 1769.03,-15.98 1770.11,-22.9"/>
</a>
</g>
</g>
<!-- Node30 -->
<g id="Node000030" class="node">
<title>Node30</title>
<g id="a_Node000030"><a xlink:title=" ">
<polygon fill="#e0e0e0" stroke="#999999" points="1893,-19.25 1853.75,-19.25 1853.75,0 1893,0 1893,-19.25"/>
<text text-anchor="middle" x="1873.38" y="-5.75" font-family="Times,serif" font-size="10.00">string</text>
</a>
</g>
</g>
<!-- Node1&#45;&gt;Node30 -->
<g id="edge29_Node000001_Node000030" class="edge">
<title>Node1&#45;&gt;Node30</title>
<g id="a_edge29_Node000001_Node000030"><a xlink:title=" ">
<path fill="none" stroke="#63b8ff" d="M1165.71,-69.84C1284.68,-69.76 1584.43,-64.83 1842.45,-19.14"/>
<polygon fill="#63b8ff" stroke="#63b8ff" points="1842.83,-22.63 1852.06,-17.42 1841.6,-15.74 1842.83,-22.63"/>
</a>
</g>
</g>
<!-- Node31 -->
<g id="Node000031" class="node">
<title>Node31</title>
<g id="a_Node000031"><a xlink:title=" ">
<polygon fill="#e0e0e0" stroke="#999999" points="1952.12,-19.25 1910.62,-19.25 1910.62,0 1952.12,0 1952.12,-19.25"/>
<text text-anchor="middle" x="1931.38" y="-5.75" font-family="Times,serif" font-size="10.00">thread</text>
</a>
</g>
</g>
<!-- Node1&#45;&gt;Node31 -->
<g id="edge30_Node000001_Node000031" class="edge">
<title>Node1&#45;&gt;Node31</title>
<g id="a_edge30_Node000001_Node000031"><a xlink:title=" ">
<path fill="none" stroke="#63b8ff" d="M1166.02,-70.22C1291.82,-71.07 1619.61,-68.15 1899.11,-19.47"/>
<polygon fill="#63b8ff" stroke="#63b8ff" points="1899.56,-22.95 1908.79,-17.76 1898.34,-16.05 1899.56,-22.95"/>
</a>
</g>
</g>
<!-- Node32 -->
<g id="Node000032" class="node">
<title>Node32</title>
<g id="a_Node000032"><a xlink:title=" ">
<polygon fill="#e0e0e0" stroke="#999999" points="2028.75,-19.25 1970,-19.25 1970,0 2028.75,0 2028.75,-19.25"/>
<text text-anchor="middle" x="1999.38" y="-5.75" font-family="Times,serif" font-size="10.00">type_traits</text>
</a>
</g>
</g>
<!-- Node1&#45;&gt;Node32 -->
<g id="edge31_Node000001_Node000032" class="edge">
<title>Node1&#45;&gt;Node32</title>
<g id="a_edge31_Node000001_Node000032"><a xlink:title=" ">
<path fill="none" stroke="#63b8ff" d="M1165.78,-69.37C1297.59,-68.42 1653.58,-61.9 1958.32,-19.46"/>
<polygon fill="#63b8ff" stroke="#63b8ff" points="1958.68,-22.94 1968.09,-18.08 1957.7,-16.01 1958.68,-22.94"/>
</a>
</g>
</g>
<!-- Node33 -->
<g id="Node000033" class="node">
<title>Node33</title>
<g id="a_Node000033"><a xlink:title=" ">
<polygon fill="#e0e0e0" stroke="#999999" points="2119.5,-19.25 2047.25,-19.25 2047.25,0 2119.5,0 2119.5,-19.25"/>
<text text-anchor="middle" x="2083.38" y="-5.75" font-family="Times,serif" font-size="10.00">unordered_set</text>
</a>
</g>
</g>
<!-- Node1&#45;&gt;Node33 -->
<g id="edge32_Node000001_Node000033" class="edge">
<title>Node1&#45;&gt;Node33</title>
<g id="a_edge32_Node000001_Node000033"><a xlink:title=" ">
<path fill="none" stroke="#63b8ff" d="M1165.94,-69.05C1305.81,-67.33 1698.84,-59.16 2035.83,-19.24"/>
<polygon fill="#63b8ff" stroke="#63b8ff" points="2035.77,-22.78 2045.28,-18.11 2034.94,-15.83 2035.77,-22.78"/>
</a>
</g>
</g>
<!-- Node34 -->
<g id="Node000034" class="node">
<title>Node34</title>
<g id="a_Node000034"><a xlink:title=" ">
<polygon fill="#e0e0e0" stroke="#999999" points="2180.88,-19.25 2137.88,-19.25 2137.88,0 2180.88,0 2180.88,-19.25"/>
<text text-anchor="middle" x="2159.38" y="-5.75" font-family="Times,serif" font-size="10.00">variant</text>
</a>
</g>
</g>
<!-- Node1&#45;&gt;Node34 -->
<g id="edge33_Node000001_Node000034" class="edge">
<title>Node1&#45;&gt;Node34</title>
<g id="a_edge33_Node000001_Node000034"><a xlink:title=" ">
<path fill="none" stroke="#63b8ff" d="M1165.88,-68.44C1343.05,-64.62 1918.84,-50.24 2126.41,-19.1"/>
<polygon fill="#63b8ff" stroke="#63b8ff" points="2126.66,-22.6 2136,-17.59 2125.58,-15.69 2126.66,-22.6"/>
</a>
</g>
</g>
<!-- Node35 -->
<g id="Node000035" class="node">
<title>Node35</title>
<g id="a_Node000035"><a xlink:title=" ">
<polygon fill="#e0e0e0" stroke="#999999" points="2239.75,-19.25 2199,-19.25 2199,0 2239.75,0 2239.75,-19.25"/>
<text text-anchor="middle" x="2219.38" y="-5.75" font-family="Times,serif" font-size="10.00">vector</text>
</a>
</g>
</g>
<!-- Node1&#45;&gt;Node35 -->
<g id="edge34_Node000001_Node000035" class="edge">
<title>Node1&#45;&gt;Node35</title>
<g id="a_edge34_Node000001_Node000035"><a xlink:title=" ">
<path fill="none" stroke="#63b8ff" d="M1165.83,-68.73C1350.12,-65.79 1968.17,-53.66 2187.53,-19.27"/>
<polygon fill="#63b8ff" stroke="#63b8ff" points="2187.81,-22.77 2197.12,-17.7 2186.68,-15.86 2187.81,-22.77"/>
</a>
</g>
</g>
</g>
</svg>
