<?xml version="1.0" encoding="UTF-8" standalone="no"?>
<!DOCTYPE svg PUBLIC "-//W3C//DTD SVG 1.1//EN"
 "http://www.w3.org/Graphics/SVG/1.1/DTD/svg11.dtd">
<!-- Generated by graphviz version 8.1.0 (20230707.0739)
 -->
<!-- Title: mal&#45;toolkit/mal&#45;toolkit/library&#45;pch.hpp Pages: 1 -->
<svg width="2248pt" height="94pt"
 viewBox="0.00 0.00 2248.12 93.75" xmlns="http://www.w3.org/2000/svg" xmlns:xlink="http://www.w3.org/1999/xlink">
<g id="graph0" class="graph" transform="scale(1 1) rotate(0) translate(4 89.75)">
<title>mal&#45;toolkit/mal&#45;toolkit/library&#45;pch.hpp</title>
<!-- Node1 -->
<g id="Node000001" class="node">
<title>Node1</title>
<g id="a_Node000001"><a xlink:title="Precompiled header (PCH) file for common headers used across the library.">
<polygon fill="#999999" stroke="#666666" points="1163,-85.75 1058.5,-85.75 1058.5,-55.25 1163,-55.25 1163,-85.75"/>
<text text-anchor="start" x="1066.5" y="-72.25" font-family="Times,serif" font-size="10.00">mal&#45;toolkit/mal&#45;toolkit</text>
<text text-anchor="middle" x="1110.75" y="-61" font-family="Times,serif" font-size="10.00">/library&#45;pch.hpp</text>
</a>
</g>
</g>
<!-- Node2 -->
<g id="Node000002" class="node">
<title>Node2</title>
<g id="a_Node000002"><a xlink:title=" ">
<polygon fill="#e0e0e0" stroke="#999999" points="53.5,-19.25 0,-19.25 0,0 53.5,0 53.5,-19.25"/>
<text text-anchor="middle" x="26.75" y="-5.75" font-family="Times,serif" font-size="10.00">algorithm</text>
</a>
</g>
</g>
<!-- Node1&#45;&gt;Node2 -->
<g id="edge1_Node000001_Node000002" class="edge">
<title>Node1&#45;&gt;Node2</title>
<g id="a_edge1_Node000001_Node000002"><a xlink:title=" ">
<path fill="none" stroke="#63b8ff" d="M1058.18,-68.28C877.1,-63.89 279.11,-47.66 64.61,-19.17"/>
<polygon fill="#63b8ff" stroke="#63b8ff" points="65.16,-15.57 54.77,-17.67 64.2,-22.51 65.16,-15.57"/>
</a>
</g>
</g>
<!-- Node3 -->
<g id="Node000003" class="node">
<title>Node3</title>
<g id="a_Node000003"><a xlink:title=" ">
<polygon fill="#e0e0e0" stroke="#999999" points="107.88,-19.25 71.62,-19.25 71.62,0 107.88,0 107.88,-19.25"/>
<text text-anchor="middle" x="89.75" y="-5.75" font-family="Times,serif" font-size="10.00">array</text>
</a>
</g>
</g>
<!-- Node1&#45;&gt;Node3 -->
<g id="edge2_Node000001_Node000003" class="edge">
<title>Node1&#45;&gt;Node3</title>
<g id="a_edge2_Node000001_Node000003"><a xlink:title=" ">
<path fill="none" stroke="#63b8ff" d="M1058.12,-68.56C883.25,-65.16 321.81,-52.08 119.09,-18.89"/>
<polygon fill="#63b8ff" stroke="#63b8ff" points="119.72,-15.27 109.27,-17.03 118.53,-22.17 119.72,-15.27"/>
</a>
</g>
</g>
<!-- Node4 -->
<g id="Node000004" class="node">
<title>Node4</title>
<g id="a_Node000004"><a xlink:title=" ">
<polygon fill="#e0e0e0" stroke="#999999" points="173.12,-19.25 126.38,-19.25 126.38,0 173.12,0 173.12,-19.25"/>
<text text-anchor="middle" x="149.75" y="-5.75" font-family="Times,serif" font-size="10.00">assert.h</text>
</a>
</g>
</g>
<!-- Node1&#45;&gt;Node4 -->
<g id="edge3_Node000001_Node000004" class="edge">
<title>Node1&#45;&gt;Node4</title>
<g id="a_edge3_Node000001_Node000004"><a xlink:title=" ">
<path fill="none" stroke="#63b8ff" d="M1058.02,-68.1C890.79,-63.43 372.75,-47.21 184.01,-19.23"/>
<polygon fill="#63b8ff" stroke="#63b8ff" points="184.81,-15.66 174.4,-17.59 183.74,-22.58 184.81,-15.66"/>
</a>
</g>
</g>
<!-- Node5 -->
<g id="Node000005" class="node">
<title>Node5</title>
<g id="a_Node000005"><a xlink:title=" ">
<polygon fill="#e0e0e0" stroke="#999999" points="234.25,-19.25 191.25,-19.25 191.25,0 234.25,0 234.25,-19.25"/>
<text text-anchor="middle" x="212.75" y="-5.75" font-family="Times,serif" font-size="10.00">chrono</text>
</a>
</g>
</g>
<!-- Node1&#45;&gt;Node5 -->
<g id="edge4_Node000001_Node000005" class="edge">
<title>Node1&#45;&gt;Node5</title>
<g id="a_edge4_Node000001_Node000005"><a xlink:title=" ">
<path fill="none" stroke="#63b8ff" d="M1058.13,-67.92C898.76,-62.92 421.98,-46.22 245.33,-19.06"/>
<polygon fill="#63b8ff" stroke="#63b8ff" points="246.06,-15.47 235.64,-17.34 244.95,-22.38 246.06,-15.47"/>
</a>
</g>
</g>
<!-- Node6 -->
<g id="Node000006" class="node">
<title>Node6</title>
<g id="a_Node000006"><a xlink:title=" ">
<polygon fill="#e0e0e0" stroke="#999999" points="293.12,-19.25 252.38,-19.25 252.38,0 293.12,0 293.12,-19.25"/>
<text text-anchor="middle" x="272.75" y="-5.75" font-family="Times,serif" font-size="10.00">cmath</text>
</a>
</g>
</g>
<!-- Node1&#45;&gt;Node6 -->
<g id="edge5_Node000001_Node000006" class="edge">
<title>Node1&#45;&gt;Node6</title>
<g id="a_edge5_Node000001_Node000006"><a xlink:title=" ">
<path fill="none" stroke="#63b8ff" d="M1058.3,-70.17C930.51,-70.96 592.97,-68 304.28,-19.08"/>
<polygon fill="#63b8ff" stroke="#63b8ff" points="305.04,-15.49 294.6,-17.25 303.86,-22.39 305.04,-15.49"/>
</a>
</g>
</g>
<!-- Node7 -->
<g id="Node000007" class="node">
<title>Node7</title>
<g id="a_Node000007"><a xlink:title=" ">
<polygon fill="#e0e0e0" stroke="#999999" points="362,-19.25 311.5,-19.25 311.5,0 362,0 362,-19.25"/>
<text text-anchor="middle" x="336.75" y="-5.75" font-family="Times,serif" font-size="10.00">concepts</text>
</a>
</g>
</g>
<!-- Node1&#45;&gt;Node7 -->
<g id="edge6_Node000001_Node000007" class="edge">
<title>Node1&#45;&gt;Node7</title>
<g id="a_edge6_Node000001_Node000007"><a xlink:title=" ">
<path fill="none" stroke="#63b8ff" d="M1058.44,-69.06C938.66,-67.37 635.28,-59.31 372.76,-19.08"/>
<polygon fill="#63b8ff" stroke="#63b8ff" points="373.68,-15.53 363.26,-17.45 372.61,-22.45 373.68,-15.53"/>
</a>
</g>
</g>
<!-- Node8 -->
<g id="Node000008" class="node">
<title>Node8</title>
<g id="a_Node000008"><a xlink:title=" ">
<polygon fill="#e0e0e0" stroke="#999999" points="469.12,-19.25 380.38,-19.25 380.38,0 469.12,0 469.12,-19.25"/>
<text text-anchor="middle" x="424.75" y="-5.75" font-family="Times,serif" font-size="10.00">condition_variable</text>
</a>
</g>
</g>
<!-- Node1&#45;&gt;Node8 -->
<g id="edge7_Node000001_Node000008" class="edge">
<title>Node1&#45;&gt;Node8</title>
<g id="a_edge7_Node000001_Node000008"><a xlink:title=" ">
<path fill="none" stroke="#63b8ff" d="M1058.08,-66.79C951.11,-60.95 700.51,-45.68 480.33,-19.47"/>
<polygon fill="#63b8ff" stroke="#63b8ff" points="480.88,-15.9 470.53,-18.18 480.04,-22.85 480.88,-15.9"/>
</a>
</g>
</g>
<!-- Node9 -->
<g id="Node000009" class="node">
<title>Node9</title>
<g id="a_Node000009"><a xlink:title=" ">
<polygon fill="#e0e0e0" stroke="#999999" points="530.25,-19.25 487.25,-19.25 487.25,0 530.25,0 530.25,-19.25"/>
<text text-anchor="middle" x="508.75" y="-5.75" font-family="Times,serif" font-size="10.00">cstdint</text>
</a>
</g>
</g>
<!-- Node1&#45;&gt;Node9 -->
<g id="edge8_Node000001_Node000009" class="edge">
<title>Node1&#45;&gt;Node9</title>
<g id="a_edge8_Node000001_Node000009"><a xlink:title=" ">
<path fill="none" stroke="#63b8ff" d="M1058.24,-68.26C958.79,-65.17 736.14,-54.8 541.31,-19.41"/>
<polygon fill="#63b8ff" stroke="#63b8ff" points="542.06,-15.8 531.59,-17.43 540.79,-22.69 542.06,-15.8"/>
</a>
</g>
</g>
<!-- Node10 -->
<g id="Node000010" class="node">
<title>Node10</title>
<g id="a_Node000010"><a xlink:title=" ">
<polygon fill="#e0e0e0" stroke="#999999" points="591.25,-19.25 548.25,-19.25 548.25,0 591.25,0 591.25,-19.25"/>
<text text-anchor="middle" x="569.75" y="-5.75" font-family="Times,serif" font-size="10.00">cstdlib</text>
</a>
</g>
</g>
<!-- Node1&#45;&gt;Node10 -->
<g id="edge9_Node000001_Node000010" class="edge">
<title>Node1&#45;&gt;Node10</title>
<g id="a_edge9_Node000001_Node000010"><a xlink:title=" ">
<path fill="none" stroke="#63b8ff" d="M1058.07,-67.48C966.8,-63.29 773.38,-51.4 602.31,-19.44"/>
<polygon fill="#63b8ff" stroke="#63b8ff" points="603.07,-15.83 592.59,-17.4 601.77,-22.71 603.07,-15.83"/>
</a>
</g>
</g>
<!-- Node11 -->
<g id="Node000011" class="node">
<title>Node11</title>
<g id="a_Node000011"><a xlink:title=" ">
<polygon fill="#e0e0e0" stroke="#999999" points="664.25,-19.25 609.25,-19.25 609.25,0 664.25,0 664.25,-19.25"/>
<text text-anchor="middle" x="636.75" y="-5.75" font-family="Times,serif" font-size="10.00">filesystem</text>
</a>
</g>
</g>
<!-- Node1&#45;&gt;Node11 -->
<g id="edge10_Node000001_Node000011" class="edge">
<title>Node1&#45;&gt;Node11</title>
<g id="a_edge10_Node000001_Node000011"><a xlink:title=" ">
<path fill="none" stroke="#63b8ff" d="M1058.2,-65.54C977.7,-59.02 818.87,-44.37 675.33,-19.53"/>
<polygon fill="#63b8ff" stroke="#63b8ff" points="676.04,-15.93 665.59,-17.65 674.83,-22.82 676.04,-15.93"/>
</a>
</g>
</g>
<!-- Node12 -->
<g id="Node000012" class="node">
<title>Node12</title>
<g id="a_Node000012"><a xlink:title=" ">
<polygon fill="#e0e0e0" stroke="#999999" points="727.38,-19.25 682.12,-19.25 682.12,0 727.38,0 727.38,-19.25"/>
<text text-anchor="middle" x="704.75" y="-5.75" font-family="Times,serif" font-size="10.00">fstream</text>
</a>
</g>
</g>
<!-- Node1&#45;&gt;Node12 -->
<g id="edge11_Node000001_Node000012" class="edge">
<title>Node1&#45;&gt;Node12</title>
<g id="a_edge11_Node000001_Node000012"><a xlink:title=" ">
<path fill="none" stroke="#63b8ff" d="M1058.05,-64.6C987.38,-57.54 857.87,-42.93 738.18,-19.29"/>
<polygon fill="#63b8ff" stroke="#63b8ff" points="739.23,-15.73 728.74,-17.2 737.86,-22.6 739.23,-15.73"/>
</a>
</g>
</g>
<!-- Node13 -->
<g id="Node000013" class="node">
<title>Node13</title>
<g id="a_Node000013"><a xlink:title=" ">
<polygon fill="#e0e0e0" stroke="#999999" points="799.88,-19.25 745.62,-19.25 745.62,0 799.88,0 799.88,-19.25"/>
<text text-anchor="middle" x="772.75" y="-5.75" font-family="Times,serif" font-size="10.00">functional</text>
</a>
</g>
</g>
<!-- Node1&#45;&gt;Node13 -->
<g id="edge12_Node000001_Node000013" class="edge">
<title>Node1&#45;&gt;Node13</title>
<g id="a_edge12_Node000001_Node000013"><a xlink:title=" ">
<path fill="none" stroke="#63b8ff" d="M1058.17,-61.9C1000,-53.23 903.26,-38.06 810.88,-19.57"/>
<polygon fill="#63b8ff" stroke="#63b8ff" points="811.72,-15.97 801.22,-17.42 810.33,-22.83 811.72,-15.97"/>
</a>
</g>
</g>
<!-- Node14 -->
<g id="Node000014" class="node">
<title>Node14</title>
<g id="a_Node000014"><a xlink:title=" ">
<polygon fill="#e0e0e0" stroke="#999999" points="865.88,-19.25 817.62,-19.25 817.62,0 865.88,0 865.88,-19.25"/>
<text text-anchor="middle" x="841.75" y="-5.75" font-family="Times,serif" font-size="10.00">iomanip</text>
</a>
</g>
</g>
<!-- Node1&#45;&gt;Node14 -->
<g id="edge13_Node000001_Node000014" class="edge">
<title>Node1&#45;&gt;Node14</title>
<g id="a_edge13_Node000001_Node000014"><a xlink:title=" ">
<path fill="none" stroke="#63b8ff" d="M1058.1,-59.01C1012.52,-49.76 944.56,-35.6 876.68,-19.63"/>
<polygon fill="#63b8ff" stroke="#63b8ff" points="877.76,-16.05 867.23,-17.16 876.15,-22.86 877.76,-16.05"/>
</a>
</g>
</g>
<!-- Node15 -->
<g id="Node000015" class="node">
<title>Node15</title>
<g id="a_Node000015"><a xlink:title=" ">
<polygon fill="#e0e0e0" stroke="#999999" points="929.38,-19.25 884.12,-19.25 884.12,0 929.38,0 929.38,-19.25"/>
<text text-anchor="middle" x="906.75" y="-5.75" font-family="Times,serif" font-size="10.00">istream</text>
</a>
</g>
</g>
<!-- Node1&#45;&gt;Node15 -->
<g id="edge14_Node000001_Node000015" class="edge">
<title>Node1&#45;&gt;Node15</title>
<g id="a_edge14_Node000001_Node000015"><a xlink:title=" ">
<path fill="none" stroke="#63b8ff" d="M1059.8,-54.8C1022.37,-43.99 972.59,-29.63 940.12,-20.25"/>
<polygon fill="#63b8ff" stroke="#63b8ff" points="941.39,-16.69 930.81,-17.28 939.45,-23.42 941.39,-16.69"/>
</a>
</g>
</g>
<!-- Node16 -->
<g id="Node000016" class="node">
<title>Node16</title>
<g id="a_Node000016"><a xlink:title=" ">
<polygon fill="#e0e0e0" stroke="#999999" points="985.62,-19.25 947.88,-19.25 947.88,0 985.62,0 985.62,-19.25"/>
<text text-anchor="middle" x="966.75" y="-5.75" font-family="Times,serif" font-size="10.00">limits</text>
</a>
</g>
</g>
<!-- Node1&#45;&gt;Node16 -->
<g id="edge15_Node000001_Node000016" class="edge">
<title>Node1&#45;&gt;Node16</title>
<g id="a_edge15_Node000001_Node000016"><a xlink:title=" ">
<path fill="none" stroke="#63b8ff" d="M1074.78,-54.8C1050.48,-44.86 1018.79,-31.9 996.02,-22.59"/>
<polygon fill="#63b8ff" stroke="#63b8ff" points="997.53,-19.02 986.95,-18.47 994.88,-25.5 997.53,-19.02"/>
</a>
</g>
</g>
<!-- Node17 -->
<g id="Node000017" class="node">
<title>Node17</title>
<g id="a_Node000017"><a xlink:title=" ">
<polygon fill="#e0e0e0" stroke="#999999" points="1037.38,-19.25 1004.12,-19.25 1004.12,0 1037.38,0 1037.38,-19.25"/>
<text text-anchor="middle" x="1020.75" y="-5.75" font-family="Times,serif" font-size="10.00">map</text>
</a>
</g>
</g>
<!-- Node1&#45;&gt;Node17 -->
<g id="edge16_Node000001_Node000017" class="edge">
<title>Node1&#45;&gt;Node17</title>
<g id="a_edge16_Node000001_Node000017"><a xlink:title=" ">
<path fill="none" stroke="#63b8ff" d="M1088.5,-54.95C1074.8,-45.98 1057.28,-34.52 1043.48,-25.5"/>
<polygon fill="#63b8ff" stroke="#63b8ff" points="1045.91,-22.25 1035.62,-19.7 1042.08,-28.1 1045.91,-22.25"/>
</a>
</g>
</g>
<!-- Node18 -->
<g id="Node000018" class="node">
<title>Node18</title>
<g id="a_Node000018"><a xlink:title=" ">
<polygon fill="#e0e0e0" stroke="#999999" points="1103.88,-19.25 1055.62,-19.25 1055.62,0 1103.88,0 1103.88,-19.25"/>
<text text-anchor="middle" x="1079.75" y="-5.75" font-family="Times,serif" font-size="10.00">memory</text>
</a>
</g>
</g>
<!-- Node1&#45;&gt;Node18 -->
<g id="edge17_Node000001_Node000018" class="edge">
<title>Node1&#45;&gt;Node18</title>
<g id="a_edge17_Node000001_Node000018"><a xlink:title=" ">
<path fill="none" stroke="#63b8ff" d="M1103.09,-54.95C1099,-47.19 1093.93,-37.56 1089.56,-29.26"/>
<polygon fill="#63b8ff" stroke="#63b8ff" points="1092.28,-27.92 1084.53,-20.7 1086.09,-31.18 1092.28,-27.92"/>
</a>
</g>
</g>
<!-- Node19 -->
<g id="Node000019" class="node">
<title>Node19</title>
<g id="a_Node000019"><a xlink:title=" ">
<polygon fill="#e0e0e0" stroke="#999999" points="1163.12,-19.25 1122.38,-19.25 1122.38,0 1163.12,0 1163.12,-19.25"/>
<text text-anchor="middle" x="1142.75" y="-5.75" font-family="Times,serif" font-size="10.00">mutex</text>
</a>
</g>
</g>
<!-- Node1&#45;&gt;Node19 -->
<g id="edge18_Node000001_Node000019" class="edge">
<title>Node1&#45;&gt;Node19</title>
<g id="a_edge18_Node000001_Node000019"><a xlink:title=" ">
<path fill="none" stroke="#63b8ff" d="M1118.66,-54.95C1122.88,-47.19 1128.11,-37.56 1132.62,-29.26"/>
<polygon fill="#63b8ff" stroke="#63b8ff" points="1136.12,-31.16 1137.82,-20.7 1129.97,-27.82 1136.12,-31.16"/>
</a>
</g>
</g>
<!-- Node20 -->
<g id="Node000020" class="node">
<title>Node20</title>
<g id="a_Node000020"><a xlink:title=" ">
<polygon fill="#e0e0e0" stroke="#999999" points="1232,-19.25 1181.5,-19.25 1181.5,0 1232,0 1232,-19.25"/>
<text text-anchor="middle" x="1206.75" y="-5.75" font-family="Times,serif" font-size="10.00">numbers</text>
</a>
</g>
</g>
<!-- Node1&#45;&gt;Node20 -->
<g id="edge19_Node000001_Node000020" class="edge">
<title>Node1&#45;&gt;Node20</title>
<g id="a_edge19_Node000001_Node000020"><a xlink:title=" ">
<path fill="none" stroke="#63b8ff" d="M1134.48,-54.95C1149.24,-45.9 1168.15,-34.3 1182.92,-25.24"/>
<polygon fill="#63b8ff" stroke="#63b8ff" points="1184.26,-27.91 1190.95,-19.7 1180.6,-21.95 1184.26,-27.91"/>
</a>
</g>
</g>
<!-- Node21 -->
<g id="Node000021" class="node">
<title>Node21</title>
<g id="a_Node000021"><a xlink:title=" ">
<polygon fill="#e0e0e0" stroke="#999999" points="1297.88,-19.25 1249.62,-19.25 1249.62,0 1297.88,0 1297.88,-19.25"/>
<text text-anchor="middle" x="1273.75" y="-5.75" font-family="Times,serif" font-size="10.00">numeric</text>
</a>
</g>
</g>
<!-- Node1&#45;&gt;Node21 -->
<g id="edge20_Node000001_Node000021" class="edge">
<title>Node1&#45;&gt;Node21</title>
<g id="a_edge20_Node000001_Node000021"><a xlink:title=" ">
<path fill="none" stroke="#63b8ff" d="M1151.46,-54.8C1178.48,-45.04 1213.56,-32.37 1239.21,-23.1"/>
<polygon fill="#63b8ff" stroke="#63b8ff" points="1240.01,-26.17 1248.23,-19.48 1237.64,-19.59 1240.01,-26.17"/>
</a>
</g>
</g>
<!-- Node22 -->
<g id="Node000022" class="node">
<title>Node22</title>
<g id="a_Node000022"><a xlink:title=" ">
<polygon fill="#e0e0e0" stroke="#999999" points="1363.12,-19.25 1316.38,-19.25 1316.38,0 1363.12,0 1363.12,-19.25"/>
<text text-anchor="middle" x="1339.75" y="-5.75" font-family="Times,serif" font-size="10.00">optional</text>
</a>
</g>
</g>
<!-- Node1&#45;&gt;Node22 -->
<g id="edge21_Node000001_Node000022" class="edge">
<title>Node1&#45;&gt;Node22</title>
<g id="a_edge21_Node000001_Node000022"><a xlink:title=" ">
<path fill="none" stroke="#63b8ff" d="M1163.18,-56.13C1200.27,-46.65 1251.46,-33.54 1305.48,-19.57"/>
<polygon fill="#63b8ff" stroke="#63b8ff" points="1306.16,-22.75 1314.96,-16.86 1304.4,-15.97 1306.16,-22.75"/>
</a>
</g>
</g>
<!-- Node23 -->
<g id="Node000023" class="node">
<title>Node23</title>
<g id="a_Node000023"><a xlink:title=" ">
<polygon fill="#e0e0e0" stroke="#999999" points="1428.5,-19.25 1381,-19.25 1381,0 1428.5,0 1428.5,-19.25"/>
<text text-anchor="middle" x="1404.75" y="-5.75" font-family="Times,serif" font-size="10.00">ostream</text>
</a>
</g>
</g>
<!-- Node1&#45;&gt;Node23 -->
<g id="edge22_Node000001_Node000023" class="edge">
<title>Node1&#45;&gt;Node23</title>
<g id="a_edge22_Node000001_Node000023"><a xlink:title=" ">
<path fill="none" stroke="#63b8ff" d="M1163.45,-60.4C1214.05,-51.43 1292.84,-36.84 1370.23,-19.48"/>
<polygon fill="#63b8ff" stroke="#63b8ff" points="1370.66,-22.74 1379.64,-17.12 1369.12,-15.91 1370.66,-22.74"/>
</a>
</g>
</g>
<!-- Node24 -->
<g id="Node000024" class="node">
<title>Node24</title>
<g id="a_Node000024"><a xlink:title=" ">
<polygon fill="#e0e0e0" stroke="#999999" points="1492.75,-19.25 1446.75,-19.25 1446.75,0 1492.75,0 1492.75,-19.25"/>
<text text-anchor="middle" x="1469.75" y="-5.75" font-family="Times,serif" font-size="10.00">random</text>
</a>
</g>
</g>
<!-- Node1&#45;&gt;Node24 -->
<g id="edge23_Node000001_Node000024" class="edge">
<title>Node1&#45;&gt;Node24</title>
<g id="a_edge23_Node000001_Node000024"><a xlink:title=" ">
<path fill="none" stroke="#63b8ff" d="M1163.46,-63.23C1226.14,-55.36 1334.09,-40.55 1435.65,-19.5"/>
<polygon fill="#63b8ff" stroke="#63b8ff" points="1436.34,-22.72 1445.4,-17.24 1434.9,-15.87 1436.34,-22.72"/>
</a>
</g>
</g>
<!-- Node25 -->
<g id="Node000025" class="node">
<title>Node25</title>
<g id="a_Node000025"><a xlink:title=" ">
<polygon fill="#e0e0e0" stroke="#999999" points="1582.88,-19.25 1510.62,-19.25 1510.62,0 1582.88,0 1582.88,-19.25"/>
<text text-anchor="middle" x="1546.75" y="-5.75" font-family="Times,serif" font-size="10.00">shared_mutex</text>
</a>
</g>
</g>
<!-- Node1&#45;&gt;Node25 -->
<g id="edge24_Node000001_Node000025" class="edge">
<title>Node1&#45;&gt;Node25</title>
<g id="a_edge24_Node000001_Node000025"><a xlink:title=" ">
<path fill="none" stroke="#63b8ff" d="M1163.39,-63.78C1236.56,-55.59 1373.37,-39.46 1499.8,-19.48"/>
<polygon fill="#63b8ff" stroke="#63b8ff" points="1500.11,-22.81 1509.43,-17.78 1499.01,-15.9 1500.11,-22.81"/>
</a>
</g>
</g>
<!-- Node26 -->
<g id="Node000026" class="node">
<title>Node26</title>
<g id="a_Node000026"><a xlink:title=" ">
<polygon fill="#e0e0e0" stroke="#999999" points="1636.12,-19.25 1601.38,-19.25 1601.38,0 1636.12,0 1636.12,-19.25"/>
<text text-anchor="middle" x="1618.75" y="-5.75" font-family="Times,serif" font-size="10.00">span</text>
</a>
</g>
</g>
<!-- Node1&#45;&gt;Node26 -->
<g id="edge25_Node000001_Node000026" class="edge">
<title>Node1&#45;&gt;Node26</title>
<g id="a_edge25_Node000001_Node000026"><a xlink:title=" ">
<path fill="none" stroke="#63b8ff" d="M1163.25,-67.54C1250.35,-63.52 1430.14,-51.97 1590.35,-19.1"/>
<polygon fill="#63b8ff" stroke="#63b8ff" points="1590.8,-22.37 1599.88,-16.9 1589.37,-15.52 1590.8,-22.37"/>
</a>
</g>
</g>
<!-- Node27 -->
<g id="Node000027" class="node">
<title>Node27</title>
<g id="a_Node000027"><a xlink:title=" ">
<polygon fill="#e0e0e0" stroke="#999999" points="1699.75,-19.25 1653.75,-19.25 1653.75,0 1699.75,0 1699.75,-19.25"/>
<text text-anchor="middle" x="1676.75" y="-5.75" font-family="Times,serif" font-size="10.00">sstream</text>
</a>
</g>
</g>
<!-- Node1&#45;&gt;Node27 -->
<g id="edge26_Node000001_Node000027" class="edge">
<title>Node1&#45;&gt;Node27</title>
<g id="a_edge26_Node000001_Node000027"><a xlink:title=" ">
<path fill="none" stroke="#63b8ff" d="M1163.45,-67.5C1257.84,-63.28 1462,-51.24 1642.67,-19.33"/>
<polygon fill="#63b8ff" stroke="#63b8ff" points="1643.21,-22.61 1652.44,-17.4 1641.97,-15.72 1643.21,-22.61"/>
</a>
</g>
</g>
<!-- Node28 -->
<g id="Node000028" class="node">
<title>Node28</title>
<g id="a_Node000028"><a xlink:title=" ">
<polygon fill="#e0e0e0" stroke="#999999" points="1771.88,-19.25 1717.62,-19.25 1717.62,0 1771.88,0 1771.88,-19.25"/>
<text text-anchor="middle" x="1744.75" y="-5.75" font-family="Times,serif" font-size="10.00">stdexcept</text>
</a>
</g>
</g>
<!-- Node1&#45;&gt;Node28 -->
<g id="edge27_Node000001_Node000028" class="edge">
<title>Node1&#45;&gt;Node28</title>
<g id="a_edge27_Node000001_Node000028"><a xlink:title=" ">
<path fill="none" stroke="#63b8ff" d="M1163.47,-67.75C1266.26,-63.76 1500.74,-51.81 1706.61,-19.36"/>
<polygon fill="#63b8ff" stroke="#63b8ff" points="1707,-22.68 1716.32,-17.65 1705.89,-15.77 1707,-22.68"/>
</a>
</g>
</g>
<!-- Node29 -->
<g id="Node000029" class="node">
<title>Node29</title>
<g id="a_Node000029"><a xlink:title=" ">
<polygon fill="#e0e0e0" stroke="#999999" points="1835.75,-19.25 1789.75,-19.25 1789.75,0 1835.75,0 1835.75,-19.25"/>
<text text-anchor="middle" x="1812.75" y="-5.75" font-family="Times,serif" font-size="10.00">stdint.h</text>
</a>
</g>
</g>
<!-- Node1&#45;&gt;Node29 -->
<g id="edge28_Node000001_Node000029" class="edge">
<title>Node1&#45;&gt;Node29</title>
<g id="a_edge28_Node000001_Node000029"><a xlink:title=" ">
<path fill="none" stroke="#63b8ff" d="M1163.28,-68.92C1275.07,-66.95 1544.76,-58.38 1778.68,-19.28"/>
<polygon fill="#63b8ff" stroke="#63b8ff" points="1779.17,-22.57 1788.44,-17.45 1778,-15.67 1779.17,-22.57"/>
</a>
</g>
</g>
<!-- Node30 -->
<g id="Node000030" class="node">
<title>Node30</title>
<g id="a_Node000030"><a xlink:title=" ">
<polygon fill="#e0e0e0" stroke="#999999" points="1893.38,-19.25 1854.12,-19.25 1854.12,0 1893.38,0 1893.38,-19.25"/>
<text text-anchor="middle" x="1873.75" y="-5.75" font-family="Times,serif" font-size="10.00">string</text>
</a>
</g>
</g>
<!-- Node1&#45;&gt;Node30 -->
<g id="edge29_Node000001_Node000030" class="edge">
<title>Node1&#45;&gt;Node30</title>
<g id="a_edge29_Node000001_Node000030"><a xlink:title=" ">
<path fill="none" stroke="#63b8ff" d="M1163.3,-69.86C1282.81,-69.83 1584.03,-64.97 1843.17,-19.08"/>
<polygon fill="#63b8ff" stroke="#63b8ff" points="1843.7,-22.36 1852.92,-17.15 1842.46,-15.47 1843.7,-22.36"/>
</a>
</g>
</g>
<!-- Node31 -->
<g id="Node000031" class="node">
<title>Node31</title>
<g id="a_Node000031"><a xlink:title=" ">
<polygon fill="#e0e0e0" stroke="#999999" points="1952.5,-19.25 1911,-19.25 1911,0 1952.5,0 1952.5,-19.25"/>
<text text-anchor="middle" x="1931.75" y="-5.75" font-family="Times,serif" font-size="10.00">thread</text>
</a>
</g>
</g>
<!-- Node1&#45;&gt;Node31 -->
<g id="edge30_Node000001_Node000031" class="edge">
<title>Node1&#45;&gt;Node31</title>
<g id="a_edge30_Node000001_Node000031"><a xlink:title=" ">
<path fill="none" stroke="#63b8ff" d="M1163.13,-70.24C1289.11,-71.14 1618.88,-68.35 1899.85,-19.41"/>
<polygon fill="#63b8ff" stroke="#63b8ff" points="1900.42,-22.68 1909.66,-17.5 1899.2,-15.79 1900.42,-22.68"/>
</a>
</g>
</g>
<!-- Node32 -->
<g id="Node000032" class="node">
<title>Node32</title>
<g id="a_Node000032"><a xlink:title=" ">
<polygon fill="#e0e0e0" stroke="#999999" points="2029.12,-19.25 1970.38,-19.25 1970.38,0 2029.12,0 2029.12,-19.25"/>
<text text-anchor="middle" x="1999.75" y="-5.75" font-family="Times,serif" font-size="10.00">type_traits</text>
</a>
</g>
</g>
<!-- Node1&#45;&gt;Node32 -->
<g id="edge31_Node000001_Node000032" class="edge">
<title>Node1&#45;&gt;Node32</title>
<g id="a_edge31_Node000001_Node000032"><a xlink:title=" ">
<path fill="none" stroke="#63b8ff" d="M1163.34,-69.39C1295.68,-68.47 1653.22,-62.02 1959.11,-19.4"/>
<polygon fill="#63b8ff" stroke="#63b8ff" points="1959.55,-22.73 1968.97,-17.87 1958.57,-15.8 1959.55,-22.73"/>
</a>
</g>
</g>
<!-- Node33 -->
<g id="Node000033" class="node">
<title>Node33</title>
<g id="a_Node000033"><a xlink:title=" ">
<polygon fill="#e0e0e0" stroke="#999999" points="2119.88,-19.25 2047.62,-19.25 2047.62,0 2119.88,0 2119.88,-19.25"/>
<text text-anchor="middle" x="2083.75" y="-5.75" font-family="Times,serif" font-size="10.00">unordered_set</text>
</a>
</g>
</g>
<!-- Node1&#45;&gt;Node33 -->
<g id="edge32_Node000001_Node000033" class="edge">
<title>Node1&#45;&gt;Node33</title>
<g id="a_edge32_Node000001_Node000033"><a xlink:title=" ">
<path fill="none" stroke="#63b8ff" d="M1163.49,-69.06C1303.85,-67.37 1698.31,-59.26 2036.42,-19.22"/>
<polygon fill="#63b8ff" stroke="#63b8ff" points="2036.65,-22.6 2046.16,-17.93 2035.81,-15.65 2036.65,-22.6"/>
</a>
</g>
</g>
<!-- Node34 -->
<g id="Node000034" class="node">
<title>Node34</title>
<g id="a_Node000034"><a xlink:title=" ">
<polygon fill="#e0e0e0" stroke="#999999" points="2181.25,-19.25 2138.25,-19.25 2138.25,0 2181.25,0 2181.25,-19.25"/>
<text text-anchor="middle" x="2159.75" y="-5.75" font-family="Times,serif" font-size="10.00">variant</text>
</a>
</g>
</g>
<!-- Node1&#45;&gt;Node34 -->
<g id="edge33_Node000001_Node000034" class="edge">
<title>Node1&#45;&gt;Node34</title>
<g id="a_edge33_Node000001_Node000034"><a xlink:title=" ">
<path fill="none" stroke="#63b8ff" d="M1163.41,-68.44C1341.2,-64.64 1919.17,-50.3 2127.07,-19.05"/>
<polygon fill="#63b8ff" stroke="#63b8ff" points="2127.53,-22.37 2136.87,-17.36 2126.45,-15.45 2127.53,-22.37"/>
</a>
</g>
</g>
<!-- Node35 -->
<g id="Node000035" class="node">
<title>Node35</title>
<g id="a_Node000035"><a xlink:title=" ">
<polygon fill="#e0e0e0" stroke="#999999" points="2240.12,-19.25 2199.38,-19.25 2199.38,0 2240.12,0 2240.12,-19.25"/>
<text text-anchor="middle" x="2219.75" y="-5.75" font-family="Times,serif" font-size="10.00">vector</text>
</a>
</g>
</g>
<!-- Node1&#45;&gt;Node35 -->
<g id="edge34_Node000001_Node000035" class="edge">
<title>Node1&#45;&gt;Node35</title>
<g id="a_edge34_Node000001_Node000035"><a xlink:title=" ">
<path fill="none" stroke="#63b8ff" d="M1163.35,-68.74C1348.24,-65.81 1968.54,-53.73 2188.21,-19.22"/>
<polygon fill="#63b8ff" stroke="#63b8ff" points="2188.68,-22.53 2197.98,-17.46 2187.55,-15.62 2188.68,-22.53"/>
</a>
</g>
</g>
</g>
</svg>
