<?xml version="1.0" encoding="UTF-8" standalone="no"?>
<!DOCTYPE svg PUBLIC "-//W3C//DTD SVG 1.1//EN"
 "http://www.w3.org/Graphics/SVG/1.1/DTD/svg11.dtd">
<!-- Generated by graphviz version 8.1.0 (20230707.0739)
 -->
<!-- Title: mal&#45;toolkit/mal&#45;toolkit/library&#45;pch.hpp Pages: 1 -->
<!--zoomable 94 -->

<svg id="main" version="1.1" xmlns="http://www.w3.org/2000/svg" xmlns:xlink="http://www.w3.org/1999/xlink" xml:space="preserve" onload="init(evt)">
<style type="text/css"><![CDATA[
.node, .edge {opacity: 0.7;}
.node.selected, .edge.selected {opacity: 1;}
.edge:hover path { stroke: red; }
.edge:hover polygon { stroke: red; fill: red; }
]]></style>

<defs>
  <circle id="rim" cx="0" cy="0" r="7"/>
  <circle id="rim2" cx="0" cy="0" r="3.5"/>
  <g id="zoomPlus">
    <use xlink:href="#rim" fill="#404040"><set attributeName="fill" to="#808080" begin="zoomplus.mouseover" end="zoomplus.mouseout"/></use>
    <path d="M-4,0h8M0,-4v8" fill="none" stroke="white" stroke-width="1.5" pointer-events="none"/>
  </g>
  <g id="zoomMin">
    <use xlink:href="#rim" fill="#404040"><set attributeName="fill" to="#808080" begin="zoomminus.mouseover" end="zoomminus.mouseout"/></use>
    <path d="M-4,0h8" fill="none" stroke="white" stroke-width="1.5" pointer-events="none"/>
  </g>
  <g id="arrowUp" transform="translate(30 24)">
    <use xlink:href="#rim"/>
    <path pointer-events="none" fill="none" stroke="white" stroke-width="1.5" d="M0,-3.0v7 M-2.5,-0.5L0,-3.0L2.5,-0.5"/>
  </g>
  <g id="arrowRight" transform="rotate(90) translate(36 -43)">
    <use xlink:href="#rim"/>
    <path pointer-events="none" fill="none" stroke="white" stroke-width="1.5" d="M0,-3.0v7 M-2.5,-0.5L0,-3.0L2.5,-0.5"/>
  </g>
  <g id="arrowDown" transform="rotate(180) translate(-30 -48)">
    <use xlink:href="#rim"/>
    <path pointer-events="none" fill="none" stroke="white" stroke-width="1.5" d="M0,-3.0v7 M-2.5,-0.5L0,-3.0L2.5,-0.5"/>
  </g>
  <g id="arrowLeft" transform="rotate(270) translate(-36 17)">
    <use xlink:href="#rim"/>
    <path pointer-events="none" fill="none" stroke="white" stroke-width="1.5" d="M0,-3.0v7 M-2.5,-0.5L0,-3.0L2.5,-0.5"/>
  </g>
  <g id="resetDef">
    <use xlink:href="#rim2" fill="#404040"><set attributeName="fill" to="#808080" begin="reset.mouseover" end="reset.mouseout"/></use>
  </g>
</defs>
<script type="application/ecmascript">
var viewWidth = 2248;
var viewHeight = 94;
var sectionId = 'dynsection-0';
</script>
<script type="application/ecmascript" xlink:href="../../svg.min.js"/>
<svg id="graph" class="graph">
<g id="viewport">
<title>mal&#45;toolkit/mal&#45;toolkit/library&#45;pch.hpp</title>
<!-- Node1 -->
<g id="Node000001" class="node">
<title>Node1</title>
<g id="a_Node000001"><a xlink:title="Precompiled header (PCH) file for common headers used across the library.">
<polygon fill="#999999" stroke="#666666" points="1165.62,-85.75 1061.12,-85.75 1061.12,-55.25 1165.62,-55.25 1165.62,-85.75"/>
<text text-anchor="start" x="1069.12" y="-72.25" font-family="Times,serif" font-size="10.00">mal&#45;toolkit/mal&#45;toolkit</text>
<text text-anchor="middle" x="1113.38" y="-61" font-family="Times,serif" font-size="10.00">/library&#45;pch.hpp</text>
</a>
</g>
</g>
<!-- Node2 -->
<g id="Node000002" class="node">
<title>Node2</title>
<g id="a_Node000002"><a xlink:title=" ">
<polygon fill="#e0e0e0" stroke="#999999" points="46.75,-19.25 0,-19.25 0,0 46.75,0 46.75,-19.25"/>
<text text-anchor="middle" x="23.38" y="-5.75" font-family="Times,serif" font-size="10.00">assert.h</text>
</a>
</g>
</g>
<!-- Node1&#45;&gt;Node2 -->
<g id="edge1_Node000001_Node000002" class="edge">
<title>Node1&#45;&gt;Node2</title>
<g id="a_edge1_Node000001_Node000002"><a xlink:title=" ">
<path fill="none" stroke="#63b8ff" d="M1060.92,-68.51C878.7,-64.82 273.06,-50.61 57.59,-19.21"/>
<polygon fill="#63b8ff" stroke="#63b8ff" points="58.43,-15.65 48.02,-17.61 57.38,-22.57 58.43,-15.65"/>
</a>
</g>
</g>
<!-- Node3 -->
<g id="Node000003" class="node">
<title>Node3</title>
<g id="a_Node000003"><a xlink:title=" ">
<polygon fill="#e0e0e0" stroke="#999999" points="110.38,-19.25 64.38,-19.25 64.38,0 110.38,0 110.38,-19.25"/>
<text text-anchor="middle" x="87.38" y="-5.75" font-family="Times,serif" font-size="10.00">stdint.h</text>
</a>
</g>
</g>
<!-- Node1&#45;&gt;Node3 -->
<g id="edge2_Node000001_Node000003" class="edge">
<title>Node1&#45;&gt;Node3</title>
<g id="a_edge2_Node000001_Node000003"><a xlink:title=" ">
<path fill="none" stroke="#63b8ff" d="M1060.73,-68.32C885.82,-64.16 324.17,-48.92 121.49,-19.17"/>
<polygon fill="#63b8ff" stroke="#63b8ff" points="122.08,-15.57 111.67,-17.52 121.02,-22.49 122.08,-15.57"/>
</a>
</g>
</g>
<!-- Node4 -->
<g id="Node000004" class="node">
<title>Node4</title>
<g id="a_Node000004"><a xlink:title=" ">
<polygon fill="#e0e0e0" stroke="#999999" points="182.12,-19.25 128.62,-19.25 128.62,0 182.12,0 182.12,-19.25"/>
<text text-anchor="middle" x="155.38" y="-5.75" font-family="Times,serif" font-size="10.00">algorithm</text>
</a>
</g>
</g>
<!-- Node1&#45;&gt;Node4 -->
<g id="edge3_Node000001_Node000004" class="edge">
<title>Node1&#45;&gt;Node4</title>
<g id="a_edge3_Node000001_Node000004"><a xlink:title=" ">
<path fill="none" stroke="#63b8ff" d="M1060.8,-69.95C920.94,-70.43 528.1,-67.17 193.29,-19.23"/>
<polygon fill="#63b8ff" stroke="#63b8ff" points="193.8,-15.62 183.4,-17.65 192.79,-22.55 193.8,-15.62"/>
</a>
</g>
</g>
<!-- Node5 -->
<g id="Node000005" class="node">
<title>Node5</title>
<g id="a_Node000005"><a xlink:title=" ">
<polygon fill="#e0e0e0" stroke="#999999" points="236.5,-19.25 200.25,-19.25 200.25,0 236.5,0 236.5,-19.25"/>
<text text-anchor="middle" x="218.38" y="-5.75" font-family="Times,serif" font-size="10.00">array</text>
</a>
</g>
</g>
<!-- Node1&#45;&gt;Node5 -->
<g id="edge4_Node000001_Node000005" class="edge">
<title>Node1&#45;&gt;Node5</title>
<g id="a_edge4_Node000001_Node000005"><a xlink:title=" ">
<path fill="none" stroke="#63b8ff" d="M1060.65,-68.18C900.97,-63.93 423.3,-49.16 247.45,-19.1"/>
<polygon fill="#63b8ff" stroke="#63b8ff" points="248.27,-15.51 237.81,-17.19 247.03,-22.4 248.27,-15.51"/>
</a>
</g>
</g>
<!-- Node6 -->
<g id="Node000006" class="node">
<title>Node6</title>
<g id="a_Node000006"><a xlink:title=" ">
<polygon fill="#e0e0e0" stroke="#999999" points="297.88,-19.25 254.88,-19.25 254.88,0 297.88,0 297.88,-19.25"/>
<text text-anchor="middle" x="276.38" y="-5.75" font-family="Times,serif" font-size="10.00">chrono</text>
</a>
</g>
</g>
<!-- Node1&#45;&gt;Node6 -->
<g id="edge5_Node000001_Node000006" class="edge">
<title>Node1&#45;&gt;Node6</title>
<g id="a_edge5_Node000001_Node000006"><a xlink:title=" ">
<path fill="none" stroke="#63b8ff" d="M1061.08,-70C933.66,-70.43 597.08,-66.72 308.92,-19.11"/>
<polygon fill="#63b8ff" stroke="#63b8ff" points="309.7,-15.52 299.26,-17.33 308.55,-22.43 309.7,-15.52"/>
</a>
</g>
</g>
<!-- Node7 -->
<g id="Node000007" class="node">
<title>Node7</title>
<g id="a_Node000007"><a xlink:title=" ">
<polygon fill="#e0e0e0" stroke="#999999" points="356.75,-19.25 316,-19.25 316,0 356.75,0 356.75,-19.25"/>
<text text-anchor="middle" x="336.38" y="-5.75" font-family="Times,serif" font-size="10.00">cmath</text>
</a>
</g>
</g>
<!-- Node1&#45;&gt;Node7 -->
<g id="edge6_Node000001_Node000007" class="edge">
<title>Node1&#45;&gt;Node7</title>
<g id="a_edge6_Node000001_Node000007"><a xlink:title=" ">
<path fill="none" stroke="#63b8ff" d="M1060.84,-69.79C939.85,-69.63 632.28,-64.56 367.8,-19.08"/>
<polygon fill="#63b8ff" stroke="#63b8ff" points="368.68,-15.5 358.22,-17.23 367.47,-22.4 368.68,-15.5"/>
</a>
</g>
</g>
<!-- Node8 -->
<g id="Node000008" class="node">
<title>Node8</title>
<g id="a_Node000008"><a xlink:title=" ">
<polygon fill="#e0e0e0" stroke="#999999" points="425.62,-19.25 375.12,-19.25 375.12,0 425.62,0 425.62,-19.25"/>
<text text-anchor="middle" x="400.38" y="-5.75" font-family="Times,serif" font-size="10.00">concepts</text>
</a>
</g>
</g>
<!-- Node1&#45;&gt;Node8 -->
<g id="edge7_Node000001_Node000008" class="edge">
<title>Node1&#45;&gt;Node8</title>
<g id="a_edge7_Node000001_Node000008"><a xlink:title=" ">
<path fill="none" stroke="#63b8ff" d="M1060.71,-68.6C947.92,-66.01 674.63,-56.31 436.48,-19.11"/>
<polygon fill="#63b8ff" stroke="#63b8ff" points="437.31,-15.54 426.89,-17.44 436.22,-22.46 437.31,-15.54"/>
</a>
</g>
</g>
<!-- Node9 -->
<g id="Node000009" class="node">
<title>Node9</title>
<g id="a_Node000009"><a xlink:title=" ">
<polygon fill="#e0e0e0" stroke="#999999" points="532.75,-19.25 444,-19.25 444,0 532.75,0 532.75,-19.25"/>
<text text-anchor="middle" x="488.38" y="-5.75" font-family="Times,serif" font-size="10.00">condition_variable</text>
</a>
</g>
</g>
<!-- Node1&#45;&gt;Node9 -->
<g id="edge8_Node000001_Node000009" class="edge">
<title>Node1&#45;&gt;Node9</title>
<g id="a_edge8_Node000001_Node000009"><a xlink:title=" ">
<path fill="none" stroke="#63b8ff" d="M1060.79,-66.18C961.68,-59.65 740.23,-43.7 543.97,-19.5"/>
<polygon fill="#63b8ff" stroke="#63b8ff" points="544.52,-15.91 534.16,-18.15 543.65,-22.86 544.52,-15.91"/>
</a>
</g>
</g>
<!-- Node10 -->
<g id="Node000010" class="node">
<title>Node10</title>
<g id="a_Node000010"><a xlink:title=" ">
<polygon fill="#e0e0e0" stroke="#999999" points="593.88,-19.25 550.88,-19.25 550.88,0 593.88,0 593.88,-19.25"/>
<text text-anchor="middle" x="572.38" y="-5.75" font-family="Times,serif" font-size="10.00">cstdint</text>
</a>
</g>
</g>
<!-- Node1&#45;&gt;Node10 -->
<g id="edge9_Node000001_Node000010" class="edge">
<title>Node1&#45;&gt;Node10</title>
<g id="a_edge9_Node000001_Node000010"><a xlink:title=" ">
<path fill="none" stroke="#63b8ff" d="M1060.7,-67.48C969.43,-63.29 776,-51.4 604.93,-19.44"/>
<polygon fill="#63b8ff" stroke="#63b8ff" points="605.7,-15.83 595.22,-17.4 604.39,-22.71 605.7,-15.83"/>
</a>
</g>
</g>
<!-- Node11 -->
<g id="Node000011" class="node">
<title>Node11</title>
<g id="a_Node000011"><a xlink:title=" ">
<polygon fill="#e0e0e0" stroke="#999999" points="654.88,-19.25 611.88,-19.25 611.88,0 654.88,0 654.88,-19.25"/>
<text text-anchor="middle" x="633.38" y="-5.75" font-family="Times,serif" font-size="10.00">cstdlib</text>
</a>
</g>
</g>
<!-- Node1&#45;&gt;Node11 -->
<g id="edge10_Node000001_Node000011" class="edge">
<title>Node1&#45;&gt;Node11</title>
<g id="a_edge10_Node000001_Node000011"><a xlink:title=" ">
<path fill="none" stroke="#63b8ff" d="M1060.63,-66.5C978.1,-61.19 813.41,-48.03 665.82,-19.45"/>
<polygon fill="#63b8ff" stroke="#63b8ff" points="666.71,-15.86 656.23,-17.37 665.36,-22.73 666.71,-15.86"/>
</a>
</g>
</g>
<!-- Node12 -->
<g id="Node000012" class="node">
<title>Node12</title>
<g id="a_Node000012"><a xlink:title=" ">
<polygon fill="#e0e0e0" stroke="#999999" points="727.88,-19.25 672.88,-19.25 672.88,0 727.88,0 727.88,-19.25"/>
<text text-anchor="middle" x="700.38" y="-5.75" font-family="Times,serif" font-size="10.00">filesystem</text>
</a>
</g>
</g>
<!-- Node1&#45;&gt;Node12 -->
<g id="edge11_Node000001_Node000012" class="edge">
<title>Node1&#45;&gt;Node12</title>
<g id="a_edge11_Node000001_Node000012"><a xlink:title=" ">
<path fill="none" stroke="#63b8ff" d="M1060.65,-64.2C989.59,-56.68 858.95,-41.5 738.71,-19.53"/>
<polygon fill="#63b8ff" stroke="#63b8ff" points="739.69,-15.97 729.22,-17.6 738.42,-22.86 739.69,-15.97"/>
</a>
</g>
</g>
<!-- Node13 -->
<g id="Node000013" class="node">
<title>Node13</title>
<g id="a_Node000013"><a xlink:title=" ">
<polygon fill="#e0e0e0" stroke="#999999" points="791,-19.25 745.75,-19.25 745.75,0 791,0 791,-19.25"/>
<text text-anchor="middle" x="768.38" y="-5.75" font-family="Times,serif" font-size="10.00">fstream</text>
</a>
</g>
</g>
<!-- Node1&#45;&gt;Node13 -->
<g id="edge12_Node000001_Node000013" class="edge">
<title>Node1&#45;&gt;Node13</title>
<g id="a_edge12_Node000001_Node000013"><a xlink:title=" ">
<path fill="none" stroke="#63b8ff" d="M1060.73,-62.75C1000.47,-54.65 898.66,-39.81 801.93,-19.39"/>
<polygon fill="#63b8ff" stroke="#63b8ff" points="802.89,-15.8 792.38,-17.13 801.42,-22.64 802.89,-15.8"/>
</a>
</g>
</g>
<!-- Node14 -->
<g id="Node000014" class="node">
<title>Node14</title>
<g id="a_Node000014"><a xlink:title=" ">
<polygon fill="#e0e0e0" stroke="#999999" points="863.5,-19.25 809.25,-19.25 809.25,0 863.5,0 863.5,-19.25"/>
<text text-anchor="middle" x="836.38" y="-5.75" font-family="Times,serif" font-size="10.00">functional</text>
</a>
</g>
</g>
<!-- Node1&#45;&gt;Node14 -->
<g id="edge13_Node000001_Node000014" class="edge">
<title>Node1&#45;&gt;Node14</title>
<g id="a_edge13_Node000001_Node000014"><a xlink:title=" ">
<path fill="none" stroke="#63b8ff" d="M1061.1,-59.06C1014.51,-49.66 944.2,-35.21 874.2,-19.61"/>
<polygon fill="#63b8ff" stroke="#63b8ff" points="875.4,-16.07 864.87,-17.3 873.87,-22.9 875.4,-16.07"/>
</a>
</g>
</g>
<!-- Node15 -->
<g id="Node000015" class="node">
<title>Node15</title>
<g id="a_Node000015"><a xlink:title=" ">
<polygon fill="#e0e0e0" stroke="#999999" points="929.5,-19.25 881.25,-19.25 881.25,0 929.5,0 929.5,-19.25"/>
<text text-anchor="middle" x="905.38" y="-5.75" font-family="Times,serif" font-size="10.00">iomanip</text>
</a>
</g>
</g>
<!-- Node1&#45;&gt;Node15 -->
<g id="edge14_Node000001_Node000015" class="edge">
<title>Node1&#45;&gt;Node15</title>
<g id="a_edge14_Node000001_Node000015"><a xlink:title=" ">
<path fill="none" stroke="#63b8ff" d="M1061.42,-54.8C1023.69,-44.12 973.65,-29.95 940.53,-20.57"/>
<polygon fill="#63b8ff" stroke="#63b8ff" points="941.56,-16.95 930.98,-17.59 939.65,-23.68 941.56,-16.95"/>
</a>
</g>
</g>
<!-- Node16 -->
<g id="Node000016" class="node">
<title>Node16</title>
<g id="a_Node000016"><a xlink:title=" ">
<polygon fill="#e0e0e0" stroke="#999999" points="993,-19.25 947.75,-19.25 947.75,0 993,0 993,-19.25"/>
<text text-anchor="middle" x="970.38" y="-5.75" font-family="Times,serif" font-size="10.00">istream</text>
</a>
</g>
</g>
<!-- Node1&#45;&gt;Node16 -->
<g id="edge15_Node000001_Node000016" class="edge">
<title>Node1&#45;&gt;Node16</title>
<g id="a_edge15_Node000001_Node000016"><a xlink:title=" ">
<path fill="none" stroke="#63b8ff" d="M1077.66,-54.8C1054.52,-45.27 1024.65,-32.97 1002.3,-23.77"/>
<polygon fill="#63b8ff" stroke="#63b8ff" points="1003.88,-20.22 993.31,-19.65 1001.22,-26.7 1003.88,-20.22"/>
</a>
</g>
</g>
<!-- Node17 -->
<g id="Node000017" class="node">
<title>Node17</title>
<g id="a_Node000017"><a xlink:title=" ">
<polygon fill="#e0e0e0" stroke="#999999" points="1049.25,-19.25 1011.5,-19.25 1011.5,0 1049.25,0 1049.25,-19.25"/>
<text text-anchor="middle" x="1030.38" y="-5.75" font-family="Times,serif" font-size="10.00">limits</text>
</a>
</g>
</g>
<!-- Node1&#45;&gt;Node17 -->
<g id="edge16_Node000001_Node000017" class="edge">
<title>Node1&#45;&gt;Node17</title>
<g id="a_edge16_Node000001_Node000017"><a xlink:title=" ">
<path fill="none" stroke="#63b8ff" d="M1092.86,-54.95C1080.46,-46.15 1064.68,-34.96 1052.08,-26.02"/>
<polygon fill="#63b8ff" stroke="#63b8ff" points="1054.35,-22.63 1044.17,-19.7 1050.3,-28.34 1054.35,-22.63"/>
</a>
</g>
</g>
<!-- Node18 -->
<g id="Node000018" class="node">
<title>Node18</title>
<g id="a_Node000018"><a xlink:title=" ">
<polygon fill="#e0e0e0" stroke="#999999" points="1101,-19.25 1067.75,-19.25 1067.75,0 1101,0 1101,-19.25"/>
<text text-anchor="middle" x="1084.38" y="-5.75" font-family="Times,serif" font-size="10.00">map</text>
</a>
</g>
</g>
<!-- Node1&#45;&gt;Node18 -->
<g id="edge17_Node000001_Node000018" class="edge">
<title>Node1&#45;&gt;Node18</title>
<g id="a_edge17_Node000001_Node000018"><a xlink:title=" ">
<path fill="none" stroke="#63b8ff" d="M1106.21,-54.95C1102.43,-47.28 1097.75,-37.77 1093.69,-29.54"/>
<polygon fill="#63b8ff" stroke="#63b8ff" points="1096.4,-28.13 1088.85,-20.7 1090.12,-31.22 1096.4,-28.13"/>
</a>
</g>
</g>
<!-- Node19 -->
<g id="Node000019" class="node">
<title>Node19</title>
<g id="a_Node000019"><a xlink:title=" ">
<polygon fill="#e0e0e0" stroke="#999999" points="1167.5,-19.25 1119.25,-19.25 1119.25,0 1167.5,0 1167.5,-19.25"/>
<text text-anchor="middle" x="1143.38" y="-5.75" font-family="Times,serif" font-size="10.00">memory</text>
</a>
</g>
</g>
<!-- Node1&#45;&gt;Node19 -->
<g id="edge18_Node000001_Node000019" class="edge">
<title>Node1&#45;&gt;Node19</title>
<g id="a_edge18_Node000001_Node000019"><a xlink:title=" ">
<path fill="none" stroke="#63b8ff" d="M1120.79,-54.95C1124.74,-47.19 1129.65,-37.56 1133.88,-29.26"/>
<polygon fill="#63b8ff" stroke="#63b8ff" points="1137.33,-31.2 1138.75,-20.7 1131.09,-28.02 1137.33,-31.2"/>
</a>
</g>
</g>
<!-- Node20 -->
<g id="Node000020" class="node">
<title>Node20</title>
<g id="a_Node000020"><a xlink:title=" ">
<polygon fill="#e0e0e0" stroke="#999999" points="1226.75,-19.25 1186,-19.25 1186,0 1226.75,0 1226.75,-19.25"/>
<text text-anchor="middle" x="1206.38" y="-5.75" font-family="Times,serif" font-size="10.00">mutex</text>
</a>
</g>
</g>
<!-- Node1&#45;&gt;Node20 -->
<g id="edge19_Node000001_Node000020" class="edge">
<title>Node1&#45;&gt;Node20</title>
<g id="a_edge19_Node000001_Node000020"><a xlink:title=" ">
<path fill="none" stroke="#63b8ff" d="M1136.36,-54.95C1150.52,-45.98 1168.63,-34.52 1182.88,-25.5"/>
<polygon fill="#63b8ff" stroke="#63b8ff" points="1184.46,-28.01 1191.04,-19.7 1180.72,-22.09 1184.46,-28.01"/>
</a>
</g>
</g>
<!-- Node21 -->
<g id="Node000021" class="node">
<title>Node21</title>
<g id="a_Node000021"><a xlink:title=" ">
<polygon fill="#e0e0e0" stroke="#999999" points="1295.62,-19.25 1245.12,-19.25 1245.12,0 1295.62,0 1295.62,-19.25"/>
<text text-anchor="middle" x="1270.38" y="-5.75" font-family="Times,serif" font-size="10.00">numbers</text>
</a>
</g>
</g>
<!-- Node1&#45;&gt;Node21 -->
<g id="edge20_Node000001_Node000021" class="edge">
<title>Node1&#45;&gt;Node21</title>
<g id="a_edge20_Node000001_Node000021"><a xlink:title=" ">
<path fill="none" stroke="#63b8ff" d="M1152.59,-54.8C1178.34,-45.14 1211.68,-32.63 1236.32,-23.4"/>
<polygon fill="#63b8ff" stroke="#63b8ff" points="1237.16,-26.44 1245.3,-19.65 1234.71,-19.89 1237.16,-26.44"/>
</a>
</g>
</g>
<!-- Node22 -->
<g id="Node000022" class="node">
<title>Node22</title>
<g id="a_Node000022"><a xlink:title=" ">
<polygon fill="#e0e0e0" stroke="#999999" points="1361.5,-19.25 1313.25,-19.25 1313.25,0 1361.5,0 1361.5,-19.25"/>
<text text-anchor="middle" x="1337.38" y="-5.75" font-family="Times,serif" font-size="10.00">numeric</text>
</a>
</g>
</g>
<!-- Node1&#45;&gt;Node22 -->
<g id="edge21_Node000001_Node000022" class="edge">
<title>Node1&#45;&gt;Node22</title>
<g id="a_edge21_Node000001_Node000022"><a xlink:title=" ">
<path fill="none" stroke="#63b8ff" d="M1165.89,-55.7C1207.96,-44.64 1265.81,-29.44 1302.39,-19.82"/>
<polygon fill="#63b8ff" stroke="#63b8ff" points="1303.24,-22.95 1312.02,-17.03 1301.46,-16.18 1303.24,-22.95"/>
</a>
</g>
</g>
<!-- Node23 -->
<g id="Node000023" class="node">
<title>Node23</title>
<g id="a_Node000023"><a xlink:title=" ">
<polygon fill="#e0e0e0" stroke="#999999" points="1426.75,-19.25 1380,-19.25 1380,0 1426.75,0 1426.75,-19.25"/>
<text text-anchor="middle" x="1403.38" y="-5.75" font-family="Times,serif" font-size="10.00">optional</text>
</a>
</g>
</g>
<!-- Node1&#45;&gt;Node23 -->
<g id="edge22_Node000001_Node000023" class="edge">
<title>Node1&#45;&gt;Node23</title>
<g id="a_edge22_Node000001_Node000023"><a xlink:title=" ">
<path fill="none" stroke="#63b8ff" d="M1165.75,-60.25C1215.59,-51.23 1292.9,-36.65 1369.34,-19.37"/>
<polygon fill="#63b8ff" stroke="#63b8ff" points="1369.65,-22.66 1378.63,-17.02 1368.1,-15.83 1369.65,-22.66"/>
</a>
</g>
</g>
<!-- Node24 -->
<g id="Node000024" class="node">
<title>Node24</title>
<g id="a_Node000024"><a xlink:title=" ">
<polygon fill="#e0e0e0" stroke="#999999" points="1492.12,-19.25 1444.62,-19.25 1444.62,0 1492.12,0 1492.12,-19.25"/>
<text text-anchor="middle" x="1468.38" y="-5.75" font-family="Times,serif" font-size="10.00">ostream</text>
</a>
</g>
</g>
<!-- Node1&#45;&gt;Node24 -->
<g id="edge23_Node000001_Node000024" class="edge">
<title>Node1&#45;&gt;Node24</title>
<g id="a_edge23_Node000001_Node000024"><a xlink:title=" ">
<path fill="none" stroke="#63b8ff" d="M1166.1,-62.93C1227.92,-54.86 1333.67,-39.92 1433.69,-19.42"/>
<polygon fill="#63b8ff" stroke="#63b8ff" points="1434.21,-22.68 1443.29,-17.22 1432.79,-15.82 1434.21,-22.68"/>
</a>
</g>
</g>
<!-- Node25 -->
<g id="Node000025" class="node">
<title>Node25</title>
<g id="a_Node000025"><a xlink:title=" ">
<polygon fill="#e0e0e0" stroke="#999999" points="1556.38,-19.25 1510.38,-19.25 1510.38,0 1556.38,0 1556.38,-19.25"/>
<text text-anchor="middle" x="1533.38" y="-5.75" font-family="Times,serif" font-size="10.00">random</text>
</a>
</g>
</g>
<!-- Node1&#45;&gt;Node25 -->
<g id="edge24_Node000001_Node000025" class="edge">
<title>Node1&#45;&gt;Node25</title>
<g id="a_edge24_Node000001_Node000025"><a xlink:title=" ">
<path fill="none" stroke="#63b8ff" d="M1165.83,-64.97C1238.69,-58.17 1374.75,-43.69 1499.55,-19.38"/>
<polygon fill="#63b8ff" stroke="#63b8ff" points="1499.91,-22.67 1509.04,-17.3 1498.55,-15.81 1499.91,-22.67"/>
</a>
</g>
</g>
<!-- Node26 -->
<g id="Node000026" class="node">
<title>Node26</title>
<g id="a_Node000026"><a xlink:title=" ">
<polygon fill="#e0e0e0" stroke="#999999" points="1646.5,-19.25 1574.25,-19.25 1574.25,0 1646.5,0 1646.5,-19.25"/>
<text text-anchor="middle" x="1610.38" y="-5.75" font-family="Times,serif" font-size="10.00">shared_mutex</text>
</a>
</g>
</g>
<!-- Node1&#45;&gt;Node26 -->
<g id="edge25_Node000001_Node000026" class="edge">
<title>Node1&#45;&gt;Node26</title>
<g id="a_edge25_Node000001_Node000026"><a xlink:title=" ">
<path fill="none" stroke="#63b8ff" d="M1166.09,-65C1248.63,-57.65 1413.57,-41.76 1563.31,-19.46"/>
<polygon fill="#63b8ff" stroke="#63b8ff" points="1563.7,-22.79 1573.07,-17.84 1562.66,-15.86 1563.7,-22.79"/>
</a>
</g>
</g>
<!-- Node27 -->
<g id="Node000027" class="node">
<title>Node27</title>
<g id="a_Node000027"><a xlink:title=" ">
<polygon fill="#e0e0e0" stroke="#999999" points="1699.75,-19.25 1665,-19.25 1665,0 1699.75,0 1699.75,-19.25"/>
<text text-anchor="middle" x="1682.38" y="-5.75" font-family="Times,serif" font-size="10.00">span</text>
</a>
</g>
</g>
<!-- Node1&#45;&gt;Node27 -->
<g id="edge26_Node000001_Node000027" class="edge">
<title>Node1&#45;&gt;Node27</title>
<g id="a_edge26_Node000001_Node000027"><a xlink:title=" ">
<path fill="none" stroke="#63b8ff" d="M1165.87,-68.4C1261.43,-65.59 1470.13,-55.69 1653.84,-19.09"/>
<polygon fill="#63b8ff" stroke="#63b8ff" points="1654.4,-22.34 1663.51,-16.93 1653.01,-15.48 1654.4,-22.34"/>
</a>
</g>
</g>
<!-- Node28 -->
<g id="Node000028" class="node">
<title>Node28</title>
<g id="a_Node000028"><a xlink:title=" ">
<polygon fill="#e0e0e0" stroke="#999999" points="1763.38,-19.25 1717.38,-19.25 1717.38,0 1763.38,0 1763.38,-19.25"/>
<text text-anchor="middle" x="1740.38" y="-5.75" font-family="Times,serif" font-size="10.00">sstream</text>
</a>
</g>
</g>
<!-- Node1&#45;&gt;Node28 -->
<g id="edge27_Node000001_Node000028" class="edge">
<title>Node1&#45;&gt;Node28</title>
<g id="a_edge27_Node000001_Node000028"><a xlink:title=" ">
<path fill="none" stroke="#63b8ff" d="M1165.91,-68.22C1268.33,-65.03 1501.87,-54.44 1706.42,-19.28"/>
<polygon fill="#63b8ff" stroke="#63b8ff" points="1706.81,-22.59 1716.06,-17.43 1705.61,-15.7 1706.81,-22.59"/>
</a>
</g>
</g>
<!-- Node29 -->
<g id="Node000029" class="node">
<title>Node29</title>
<g id="a_Node000029"><a xlink:title=" ">
<polygon fill="#e0e0e0" stroke="#999999" points="1835.5,-19.25 1781.25,-19.25 1781.25,0 1835.5,0 1835.5,-19.25"/>
<text text-anchor="middle" x="1808.38" y="-5.75" font-family="Times,serif" font-size="10.00">stdexcept</text>
</a>
</g>
</g>
<!-- Node1&#45;&gt;Node29 -->
<g id="edge28_Node000001_Node000029" class="edge">
<title>Node1&#45;&gt;Node29</title>
<g id="a_edge28_Node000001_Node000029"><a xlink:title=" ">
<path fill="none" stroke="#63b8ff" d="M1165.81,-68.33C1276.13,-65.26 1540.34,-54.7 1770.37,-19.32"/>
<polygon fill="#63b8ff" stroke="#63b8ff" points="1770.61,-22.67 1779.95,-17.67 1769.53,-15.75 1770.61,-22.67"/>
</a>
</g>
</g>
<!-- Node30 -->
<g id="Node000030" class="node">
<title>Node30</title>
<g id="a_Node000030"><a xlink:title=" ">
<polygon fill="#e0e0e0" stroke="#999999" points="1893,-19.25 1853.75,-19.25 1853.75,0 1893,0 1893,-19.25"/>
<text text-anchor="middle" x="1873.38" y="-5.75" font-family="Times,serif" font-size="10.00">string</text>
</a>
</g>
</g>
<!-- Node1&#45;&gt;Node30 -->
<g id="edge29_Node000001_Node000030" class="edge">
<title>Node1&#45;&gt;Node30</title>
<g id="a_edge29_Node000001_Node000030"><a xlink:title=" ">
<path fill="none" stroke="#63b8ff" d="M1165.71,-69.84C1284.73,-69.76 1584.72,-64.82 1842.84,-19.08"/>
<polygon fill="#63b8ff" stroke="#63b8ff" points="1843.32,-22.36 1852.55,-17.15 1842.08,-15.48 1843.32,-22.36"/>
</a>
</g>
</g>
<!-- Node31 -->
<g id="Node000031" class="node">
<title>Node31</title>
<g id="a_Node000031"><a xlink:title=" ">
<polygon fill="#e0e0e0" stroke="#999999" points="1952.12,-19.25 1910.62,-19.25 1910.62,0 1952.12,0 1952.12,-19.25"/>
<text text-anchor="middle" x="1931.38" y="-5.75" font-family="Times,serif" font-size="10.00">thread</text>
</a>
</g>
</g>
<!-- Node1&#45;&gt;Node31 -->
<g id="edge30_Node000001_Node000031" class="edge">
<title>Node1&#45;&gt;Node31</title>
<g id="a_edge30_Node000001_Node000031"><a xlink:title=" ">
<path fill="none" stroke="#63b8ff" d="M1166.02,-70.22C1291.88,-71.07 1619.93,-68.15 1899.52,-19.4"/>
<polygon fill="#63b8ff" stroke="#63b8ff" points="1900.05,-22.68 1909.28,-17.5 1898.83,-15.79 1900.05,-22.68"/>
</a>
</g>
</g>
<!-- Node32 -->
<g id="Node000032" class="node">
<title>Node32</title>
<g id="a_Node000032"><a xlink:title=" ">
<polygon fill="#e0e0e0" stroke="#999999" points="2028.75,-19.25 1970,-19.25 1970,0 2028.75,0 2028.75,-19.25"/>
<text text-anchor="middle" x="1999.38" y="-5.75" font-family="Times,serif" font-size="10.00">type_traits</text>
</a>
</g>
</g>
<!-- Node1&#45;&gt;Node32 -->
<g id="edge31_Node000001_Node000032" class="edge">
<title>Node1&#45;&gt;Node32</title>
<g id="a_edge31_Node000001_Node000032"><a xlink:title=" ">
<path fill="none" stroke="#63b8ff" d="M1165.78,-69.37C1297.65,-68.42 1653.93,-61.9 1958.77,-19.4"/>
<polygon fill="#63b8ff" stroke="#63b8ff" points="1959.18,-22.73 1968.59,-17.87 1958.2,-15.8 1959.18,-22.73"/>
</a>
</g>
</g>
<!-- Node33 -->
<g id="Node000033" class="node">
<title>Node33</title>
<g id="a_Node000033"><a xlink:title=" ">
<polygon fill="#e0e0e0" stroke="#999999" points="2119.5,-19.25 2047.25,-19.25 2047.25,0 2119.5,0 2119.5,-19.25"/>
<text text-anchor="middle" x="2083.38" y="-5.75" font-family="Times,serif" font-size="10.00">unordered_set</text>
</a>
</g>
</g>
<!-- Node1&#45;&gt;Node33 -->
<g id="edge32_Node000001_Node000033" class="edge">
<title>Node1&#45;&gt;Node33</title>
<g id="a_edge32_Node000001_Node000033"><a xlink:title=" ">
<path fill="none" stroke="#63b8ff" d="M1165.94,-69.05C1305.88,-67.33 1699.23,-59.15 2036.32,-19.19"/>
<polygon fill="#63b8ff" stroke="#63b8ff" points="2036.27,-22.6 2045.78,-17.93 2035.44,-15.65 2036.27,-22.6"/>
</a>
</g>
</g>
<!-- Node34 -->
<g id="Node000034" class="node">
<title>Node34</title>
<g id="a_Node000034"><a xlink:title=" ">
<polygon fill="#e0e0e0" stroke="#999999" points="2180.88,-19.25 2137.88,-19.25 2137.88,0 2180.88,0 2180.88,-19.25"/>
<text text-anchor="middle" x="2159.38" y="-5.75" font-family="Times,serif" font-size="10.00">variant</text>
</a>
</g>
</g>
<!-- Node1&#45;&gt;Node34 -->
<g id="edge33_Node000001_Node000034" class="edge">
<title>Node1&#45;&gt;Node34</title>
<g id="a_edge33_Node000001_Node000034"><a xlink:title=" ">
<path fill="none" stroke="#63b8ff" d="M1165.88,-68.44C1343.14,-64.62 1919.42,-50.22 2126.72,-19.05"/>
<polygon fill="#63b8ff" stroke="#63b8ff" points="2127.16,-22.37 2136.49,-17.36 2126.07,-15.45 2127.16,-22.37"/>
</a>
</g>
</g>
<!-- Node35 -->
<g id="Node000035" class="node">
<title>Node35</title>
<g id="a_Node000035"><a xlink:title=" ">
<polygon fill="#e0e0e0" stroke="#999999" points="2239.75,-19.25 2199,-19.25 2199,0 2239.75,0 2239.75,-19.25"/>
<text text-anchor="middle" x="2219.38" y="-5.75" font-family="Times,serif" font-size="10.00">vector</text>
</a>
</g>
</g>
<!-- Node1&#45;&gt;Node35 -->
<g id="edge34_Node000001_Node000035" class="edge">
<title>Node1&#45;&gt;Node35</title>
<g id="a_edge34_Node000001_Node000035"><a xlink:title=" ">
<path fill="none" stroke="#63b8ff" d="M1165.83,-68.73C1350.21,-65.79 1968.78,-53.65 2187.86,-19.22"/>
<polygon fill="#63b8ff" stroke="#63b8ff" points="2188.31,-22.53 2197.61,-17.46 2187.17,-15.62 2188.31,-22.53"/>
</a>
</g>
</g>
</g>
</svg>

<g id="navigator" transform="translate(0 0)" fill="#404254">
  <rect fill="#f2f5e9" fill-opacity="0.5" stroke="#606060" stroke-width=".5" x="0" y="0" width="60" height="60"/>
  <use id="zoomplus" xlink:href="#zoomPlus" x="17" y="9" onmousedown="handleZoom(evt,'in')"/>
  <use id="zoomminus" xlink:href="#zoomMin" x="42" y="9" onmousedown="handleZoom(evt,'out')"/>
  <use id="reset" xlink:href="#resetDef" x="30" y="36" onmousedown="handleReset()"/>
   <use id="arrowup" xlink:href="#arrowUp" x="0" y="0" onmousedown="handlePan(0,-1)"/>
  <use id="arrowright" xlink:href="#arrowRight" x="0" y="0" onmousedown="handlePan(1,0)"/>
  <use id="arrowdown" xlink:href="#arrowDown" x="0" y="0" onmousedown="handlePan(0,1)"/>
  <use id="arrowleft" xlink:href="#arrowLeft" x="0" y="0" onmousedown="handlePan(-1,0)"/>
</g>
<svg viewBox="0 0 15 15" width="100%" height="30px" preserveAspectRatio="xMaxYMin meet">
 <g id="arrow_out" transform="scale(0.3 0.3)">
  <a xlink:href="library-pch_8hpp__incl_org.svg" target="_base">
   <rect id="button" ry="5" rx="5" y="6" x="6" height="38" width="38"
        fill="#f2f5e9" fill-opacity="0.5" stroke="#606060" stroke-width="1.0"/>
   <path id="arrow"
     d="M 11.500037,31.436501 C 11.940474,20.09759 22.043105,11.32322 32.158766,21.979434 L 37.068811,17.246167 C 37.068811,17.246167 37.088388,32 37.088388,32 L 22.160133,31.978069 C 22.160133,31.978069 26.997745,27.140456 26.997745,27.140456 C 18.528582,18.264221 13.291696,25.230495 11.500037,31.436501 z"
     style="fill:#404040;"/>
  </a>
 </g>
</svg>

<style type='text/css'>
<![CDATA[
[data-mouse-over-selected='false'] { opacity: 0.7; }
[data-mouse-over-selected='true']  { opacity: 1.0; }
]]>
</style>
<script type="application/ecmascript"><![CDATA[
document.addEventListener('DOMContentLoaded', (event) => {
  highlightEdges();
  highlightAdjacentNodes();
});
]]></script>
</svg>
