<?xml version="1.0" encoding="UTF-8" standalone="no"?>
<!DOCTYPE svg PUBLIC "-//W3C//DTD SVG 1.1//EN"
 "http://www.w3.org/Graphics/SVG/1.1/DTD/svg11.dtd">
<!-- Generated by graphviz version 9.0.0 (20230911.1827)
 -->
<!-- Title: mal_toolkit::CurrentSourceLocation Pages: 1 -->
<svg width="409pt" height="119pt"
 viewBox="0.00 0.00 409.25 118.50" xmlns="http://www.w3.org/2000/svg" xmlns:xlink="http://www.w3.org/1999/xlink">
<g id="graph0" class="graph" transform="scale(1 1) rotate(0) translate(4 114.5)">
<title>mal_toolkit::CurrentSourceLocation</title>
<!-- Node1 -->
<g id="Node000001" class="node">
<title>Node1</title>
<g id="a_Node000001"><a xlink:title="Returns an empty string representing the current source location.">
<polygon fill="#999999" stroke="#666666" points="401.25,-67.5 278,-67.5 278,-37 401.25,-37 401.25,-67.5"/>
<text text-anchor="start" x="286" y="-54" font-family="Times,serif" font-size="10.00">mal_toolkit::CurrentSource</text>
<text text-anchor="middle" x="339.62" y="-42.75" font-family="Times,serif" font-size="10.00">Location</text>
</a>
</g>
</g>
<!-- Node2 -->
<g id="Node000002" class="node">
<title>Node2</title>
<g id="a_Node000002"><a xlink:href="../../d1/d3a/structmal__toolkit_1_1_measurer.html#a75ea1122ef872b467e5113888c1e5305" target="_top" xlink:title="Construct a Measurer object.">
<polygon fill="white" stroke="#666666" points="233.75,-110.5 130,-110.5 130,-80 233.75,-80 233.75,-110.5"/>
<text text-anchor="start" x="138" y="-97" font-family="Times,serif" font-size="10.00">mal_toolkit::Measurer</text>
<text text-anchor="middle" x="181.88" y="-85.75" font-family="Times,serif" font-size="10.00">::Measurer</text>
</a>
</g>
</g>
<!-- Node1&#45;&gt;Node2 -->
<g id="edge1_Node000001_Node000002" class="edge">
<title>Node1&#45;&gt;Node2</title>
<g id="a_edge1_Node000001_Node000002"><a xlink:title=" ">
<path fill="none" stroke="#63b8ff" d="M271.16,-70.88C258.72,-74.31 245.93,-77.84 234.08,-81.11"/>
<polygon fill="#63b8ff" stroke="#63b8ff" points="271.79,-74.33 280.5,-68.3 269.93,-67.59 271.79,-74.33"/>
</a>
</g>
</g>
<!-- Node3 -->
<g id="Node000003" class="node">
<title>Node3</title>
<g id="a_Node000003"><a xlink:href="../../df/df5/namespacemal__toolkit.html#a8405b24c94e717d8a57da64b1483a4a9" target="_top" xlink:title="Always asserts a condition with customizable behavior.">
<polygon fill="white" stroke="#666666" points="242,-61.88 121.75,-61.88 121.75,-42.62 242,-42.62 242,-61.88"/>
<text text-anchor="middle" x="181.88" y="-48.38" font-family="Times,serif" font-size="10.00">mal_toolkit::AlwaysAssert</text>
</a>
</g>
</g>
<!-- Node1&#45;&gt;Node3 -->
<g id="edge2_Node000001_Node000003" class="edge">
<title>Node1&#45;&gt;Node3</title>
<g id="a_edge2_Node000001_Node000003"><a xlink:title=" ">
<path fill="none" stroke="#63b8ff" d="M266.25,-52.25C258.23,-52.25 250.12,-52.25 242.28,-52.25"/>
<polygon fill="#63b8ff" stroke="#63b8ff" points="266,-55.75 276,-52.25 266,-48.75 266,-55.75"/>
</a>
</g>
</g>
<!-- Node4 -->
<g id="Node000004" class="node">
<title>Node4</title>
<g id="a_Node000004"><a xlink:href="../../df/df5/namespacemal__toolkit.html#a1a10dbab8f9e26361eaa4af07f31713d" target="_top" xlink:title="Asserts a condition with customizable behavior based on debug mode.">
<polygon fill="white" stroke="#666666" points="227.75,-24.88 136,-24.88 136,-5.63 227.75,-5.63 227.75,-24.88"/>
<text text-anchor="middle" x="181.88" y="-11.38" font-family="Times,serif" font-size="10.00">mal_toolkit::Assert</text>
</a>
</g>
</g>
<!-- Node1&#45;&gt;Node4 -->
<g id="edge3_Node000001_Node000004" class="edge">
<title>Node1&#45;&gt;Node4</title>
<g id="a_edge3_Node000001_Node000004"><a xlink:title=" ">
<path fill="none" stroke="#63b8ff" d="M266.7,-35.16C252.45,-31.78 237.93,-28.33 225.07,-25.27"/>
<polygon fill="#63b8ff" stroke="#63b8ff" points="265.5,-38.48 276.04,-37.38 267.12,-31.67 265.5,-38.48"/>
</a>
</g>
</g>
<!-- Node5 -->
<g id="Node000005" class="node">
<title>Node5</title>
<g id="a_Node000005"><a xlink:href="../../df/df5/namespacemal__toolkit.html#a6dd69b1a3c078b983b60645afa17b00c" target="_top" xlink:title="Convert a ByteView to an integer value of the specified type.">
<polygon fill="white" stroke="#666666" points="85.75,-30.5 0,-30.5 0,0 85.75,0 85.75,-30.5"/>
<text text-anchor="start" x="8" y="-17" font-family="Times,serif" font-size="10.00">mal_toolkit::bytes</text>
<text text-anchor="middle" x="42.88" y="-5.75" font-family="Times,serif" font-size="10.00">_to_integer</text>
</a>
</g>
</g>
<!-- Node4&#45;&gt;Node5 -->
<g id="edge4_Node000004_Node000005" class="edge">
<title>Node4&#45;&gt;Node5</title>
<g id="a_edge4_Node000004_Node000005"><a xlink:title=" ">
<path fill="none" stroke="#63b8ff" d="M124.47,-15.25C111.54,-15.25 98.02,-15.25 85.82,-15.25"/>
<polygon fill="#63b8ff" stroke="#63b8ff" points="124.12,-18.75 134.12,-15.25 124.12,-11.75 124.12,-18.75"/>
</a>
</g>
</g>
</g>
</svg>
