<?xml version="1.0" encoding="UTF-8" standalone="no"?>
<!DOCTYPE svg PUBLIC "-//W3C//DTD SVG 1.1//EN"
 "http://www.w3.org/Graphics/SVG/1.1/DTD/svg11.dtd">
<!-- Generated by graphviz version 9.0.0 (20230911.1827)
 -->
<!-- Title: mal&#45;toolkit/mal&#45;toolkit/library&#45;pch.hpp Pages: 1 -->
<!--zoomable 249 -->

<svg id="main" version="1.1" xmlns="http://www.w3.org/2000/svg" xmlns:xlink="http://www.w3.org/1999/xlink" xml:space="preserve" onload="init(evt)">
<style type="text/css"><![CDATA[
.node, .edge {opacity: 0.7;}
.node.selected, .edge.selected {opacity: 1;}
.edge:hover path { stroke: red; }
.edge:hover polygon { stroke: red; fill: red; }
]]></style>

<defs>
  <circle id="rim" cx="0" cy="0" r="7"/>
  <circle id="rim2" cx="0" cy="0" r="3.5"/>
  <g id="zoomPlus">
    <use xlink:href="#rim" fill="#404040"><set attributeName="fill" to="#808080" begin="zoomplus.mouseover" end="zoomplus.mouseout"/></use>
    <path d="M-4,0h8M0,-4v8" fill="none" stroke="white" stroke-width="1.5" pointer-events="none"/>
  </g>
  <g id="zoomMin">
    <use xlink:href="#rim" fill="#404040"><set attributeName="fill" to="#808080" begin="zoomminus.mouseover" end="zoomminus.mouseout"/></use>
    <path d="M-4,0h8" fill="none" stroke="white" stroke-width="1.5" pointer-events="none"/>
  </g>
  <g id="arrowUp" transform="translate(30 24)">
    <use xlink:href="#rim"/>
    <path pointer-events="none" fill="none" stroke="white" stroke-width="1.5" d="M0,-3.0v7 M-2.5,-0.5L0,-3.0L2.5,-0.5"/>
  </g>
  <g id="arrowRight" transform="rotate(90) translate(36 -43)">
    <use xlink:href="#rim"/>
    <path pointer-events="none" fill="none" stroke="white" stroke-width="1.5" d="M0,-3.0v7 M-2.5,-0.5L0,-3.0L2.5,-0.5"/>
  </g>
  <g id="arrowDown" transform="rotate(180) translate(-30 -48)">
    <use xlink:href="#rim"/>
    <path pointer-events="none" fill="none" stroke="white" stroke-width="1.5" d="M0,-3.0v7 M-2.5,-0.5L0,-3.0L2.5,-0.5"/>
  </g>
  <g id="arrowLeft" transform="rotate(270) translate(-36 17)">
    <use xlink:href="#rim"/>
    <path pointer-events="none" fill="none" stroke="white" stroke-width="1.5" d="M0,-3.0v7 M-2.5,-0.5L0,-3.0L2.5,-0.5"/>
  </g>
  <g id="resetDef">
    <use xlink:href="#rim2" fill="#404040"><set attributeName="fill" to="#808080" begin="reset.mouseover" end="reset.mouseout"/></use>
  </g>
</defs>
<script type="application/ecmascript">
var viewWidth = 1009;
var viewHeight = 249;
var sectionId = 'dynsection-1';
</script>
<script type="application/ecmascript" xlink:href="../../svg.min.js"/>
<svg id="graph" class="graph">
<g id="viewport">
<title>mal&#45;toolkit/mal&#45;toolkit/library&#45;pch.hpp</title>
<!-- Node1 -->
<g id="Node000001" class="node">
<title>Node1</title>
<g id="a_Node000001"><a xlink:title="Precompiled header (PCH) file for common headers used across the library.">
<polygon fill="#999999" stroke="#666666" points="532.5,-241.25 428,-241.25 428,-210.75 532.5,-210.75 532.5,-241.25"/>
<text text-anchor="start" x="436" y="-227.75" font-family="Times,serif" font-size="10.00">mal&#45;toolkit/mal&#45;toolkit</text>
<text text-anchor="middle" x="480.25" y="-216.5" font-family="Times,serif" font-size="10.00">/library&#45;pch.hpp</text>
</a>
</g>
</g>
<!-- Node2 -->
<g id="Node000002" class="node">
<title>Node2</title>
<g id="a_Node000002"><a xlink:href="../../da/df5/byte-helper_8hpp.html" target="_top" xlink:title=" ">
<polygon fill="white" stroke="#666666" points="104.5,-102.62 0,-102.62 0,-72.12 104.5,-72.12 104.5,-102.62"/>
<text text-anchor="start" x="8" y="-89.12" font-family="Times,serif" font-size="10.00">mal&#45;toolkit/mal&#45;toolkit</text>
<text text-anchor="middle" x="52.25" y="-77.88" font-family="Times,serif" font-size="10.00">/byte&#45;helper.hpp</text>
</a>
</g>
</g>
<!-- Node1&#45;&gt;Node2 -->
<g id="edge1_Node000001_Node000002" class="edge">
<title>Node1&#45;&gt;Node2</title>
<g id="a_edge1_Node000001_Node000002"><a xlink:title=" ">
<path fill="none" stroke="#63b8ff" d="M416.32,-221.94C326.27,-216.66 167.54,-203.5 118.25,-174.75 89.23,-157.82 68.66,-122.68 58.82,-102.83"/>
<polygon fill="#63b8ff" stroke="#63b8ff" points="416.06,-225.43 426.24,-222.5 416.45,-218.44 416.06,-225.43"/>
</a>
</g>
</g>
<!-- Node3 -->
<g id="Node000003" class="node">
<title>Node3</title>
<g id="a_Node000003"><a xlink:href="../../d1/d8a/mal-toolkit_8hpp.html" target="_top" xlink:title="Main header file for the MAL Toolkit library, providing a comprehensive set of tools and utilities.">
<polygon fill="white" stroke="#666666" points="342.5,-30.5 238,-30.5 238,0 342.5,0 342.5,-30.5"/>
<text text-anchor="start" x="246" y="-17" font-family="Times,serif" font-size="10.00">mal&#45;toolkit/mal&#45;toolkit</text>
<text text-anchor="middle" x="290.25" y="-5.75" font-family="Times,serif" font-size="10.00">/mal&#45;toolkit.hpp</text>
</a>
</g>
</g>
<!-- Node1&#45;&gt;Node3 -->
<g id="edge20_Node000001_Node000003" class="edge">
<title>Node1&#45;&gt;Node3</title>
<g id="a_edge20_Node000001_Node000003"><a xlink:title=" ">
<path fill="none" stroke="#63b8ff" d="M416.3,-224.35C332.77,-221.99 193.39,-212.35 161.25,-174.75 142.39,-152.68 159.3,-91.83 180.25,-66.5 194.83,-48.86 216.94,-37.14 237.52,-29.48"/>
<polygon fill="#63b8ff" stroke="#63b8ff" points="416.1,-227.85 426.18,-224.6 416.27,-220.85 416.1,-227.85"/>
</a>
</g>
</g>
<!-- Node4 -->
<g id="Node000004" class="node">
<title>Node4</title>
<g id="a_Node000004"><a xlink:href="../../d4/d80/common-structures_8hpp.html" target="_top" xlink:title="Defines common data structures and types that can be used anywhere.">
<polygon fill="white" stroke="#666666" points="284,-174.75 170.5,-174.75 170.5,-144.25 284,-144.25 284,-174.75"/>
<text text-anchor="start" x="178.5" y="-161.25" font-family="Times,serif" font-size="10.00">mal&#45;toolkit/mal&#45;toolkit</text>
<text text-anchor="middle" x="227.25" y="-150" font-family="Times,serif" font-size="10.00">/common&#45;structures.hpp</text>
</a>
</g>
</g>
<!-- Node1&#45;&gt;Node4 -->
<g id="edge3_Node000001_Node000004" class="edge">
<title>Node1&#45;&gt;Node4</title>
<g id="a_edge3_Node000001_Node000004"><a xlink:title=" ">
<path fill="none" stroke="#63b8ff" d="M416.38,-208.72C375.74,-198.36 323.57,-185.05 284.31,-175.05"/>
<polygon fill="#63b8ff" stroke="#63b8ff" points="415.5,-212.1 426.05,-211.18 417.23,-205.32 415.5,-212.1"/>
</a>
</g>
</g>
<!-- Node5 -->
<g id="Node000005" class="node">
<title>Node5</title>
<g id="a_Node000005"><a xlink:href="../../d1/d27/converter_8hpp.html" target="_top" xlink:title="Provides functions for converting between different data types.">
<polygon fill="white" stroke="#666666" points="302.5,-102.62 198,-102.62 198,-72.12 302.5,-72.12 302.5,-102.62"/>
<text text-anchor="start" x="206" y="-89.12" font-family="Times,serif" font-size="10.00">mal&#45;toolkit/mal&#45;toolkit</text>
<text text-anchor="middle" x="250.25" y="-77.88" font-family="Times,serif" font-size="10.00">/converter.hpp</text>
</a>
</g>
</g>
<!-- Node1&#45;&gt;Node5 -->
<g id="edge5_Node000001_Node000005" class="edge">
<title>Node1&#45;&gt;Node5</title>
<g id="a_edge5_Node000001_Node000005"><a xlink:title=" ">
<path fill="none" stroke="#63b8ff" d="M425.53,-206.28C403.91,-197.92 379.27,-187.14 358.25,-174.75 322.47,-153.66 285.73,-121.63 265.66,-103.07"/>
<polygon fill="#63b8ff" stroke="#63b8ff" points="424.19,-209.51 434.78,-209.77 426.66,-202.97 424.19,-209.51"/>
</a>
</g>
</g>
<!-- Node6 -->
<g id="Node000006" class="node">
<title>Node6</title>
<g id="a_Node000006"><a xlink:href="../../da/d7b/debug_8hpp.html" target="_top" xlink:title="Contains debugging&#45;related macros and utilities for assisting with debugging tasks.">
<polygon fill="white" stroke="#666666" points="471.5,-174.75 367,-174.75 367,-144.25 471.5,-144.25 471.5,-174.75"/>
<text text-anchor="start" x="375" y="-161.25" font-family="Times,serif" font-size="10.00">mal&#45;toolkit/mal&#45;toolkit</text>
<text text-anchor="middle" x="419.25" y="-150" font-family="Times,serif" font-size="10.00">/debug.hpp</text>
</a>
</g>
</g>
<!-- Node1&#45;&gt;Node6 -->
<g id="edge7_Node000001_Node000006" class="edge">
<title>Node1&#45;&gt;Node6</title>
<g id="a_edge7_Node000001_Node000006"><a xlink:title=" ">
<path fill="none" stroke="#63b8ff" d="M458.65,-202.16C450.13,-193.15 440.59,-183.07 433.04,-175.08"/>
<polygon fill="#63b8ff" stroke="#63b8ff" points="455.95,-204.4 465.37,-209.26 461.04,-199.59 455.95,-204.4"/>
</a>
</g>
</g>
<!-- Node10 -->
<g id="Node000010" class="node">
<title>Node10</title>
<g id="a_Node000010"><a xlink:href="../../d1/dcf/endianness_8hpp.html" target="_top" xlink:title="Provides functions and utilities for handling endianness conversions.">
<polygon fill="white" stroke="#666666" points="594.88,-174.75 489.62,-174.75 489.62,-144.25 594.88,-144.25 594.88,-174.75"/>
<text text-anchor="start" x="497.62" y="-161.25" font-family="Times,serif" font-size="10.00">mal&#45;toolkit/mal&#45;toolkit</text>
<text text-anchor="middle" x="542.25" y="-150" font-family="Times,serif" font-size="10.00">/detail/endianness.hpp</text>
</a>
</g>
</g>
<!-- Node1&#45;&gt;Node10 -->
<g id="edge14_Node000001_Node000010" class="edge">
<title>Node1&#45;&gt;Node10</title>
<g id="a_edge14_Node000001_Node000010"><a xlink:title=" ">
<path fill="none" stroke="#63b8ff" d="M502.21,-202.16C510.87,-193.15 520.56,-183.07 528.24,-175.08"/>
<polygon fill="#63b8ff" stroke="#63b8ff" points="499.77,-199.64 495.37,-209.27 504.82,-204.49 499.77,-199.64"/>
</a>
</g>
</g>
<!-- Node12 -->
<g id="Node000012" class="node">
<title>Node12</title>
<g id="a_Node000012"><a xlink:href="../../dc/d94/event_8hpp.html" target="_top" xlink:title="Defines event handling and notification mechanisms.">
<polygon fill="white" stroke="#666666" points="717.5,-174.75 613,-174.75 613,-144.25 717.5,-144.25 717.5,-174.75"/>
<text text-anchor="start" x="621" y="-161.25" font-family="Times,serif" font-size="10.00">mal&#45;toolkit/mal&#45;toolkit</text>
<text text-anchor="middle" x="665.25" y="-150" font-family="Times,serif" font-size="10.00">/event.hpp</text>
</a>
</g>
</g>
<!-- Node1&#45;&gt;Node12 -->
<g id="edge16_Node000001_Node000012" class="edge">
<title>Node1&#45;&gt;Node12</title>
<g id="a_edge16_Node000001_Node000012"><a xlink:title=" ">
<path fill="none" stroke="#63b8ff" d="M532.85,-206.66C561.45,-196.69 596.33,-184.53 623.12,-175.19"/>
<polygon fill="#63b8ff" stroke="#63b8ff" points="531.95,-203.27 523.66,-209.87 534.25,-209.88 531.95,-203.27"/>
</a>
</g>
</g>
<!-- Node13 -->
<g id="Node000013" class="node">
<title>Node13</title>
<g id="a_Node000013"><a xlink:href="../../dc/dad/file-watcher_8hpp.html" target="_top" xlink:title="Implements a file watcher that monitors changes to specified files or directories.">
<polygon fill="white" stroke="#666666" points="971.5,-102.62 867,-102.62 867,-72.12 971.5,-72.12 971.5,-102.62"/>
<text text-anchor="start" x="875" y="-89.12" font-family="Times,serif" font-size="10.00">mal&#45;toolkit/mal&#45;toolkit</text>
<text text-anchor="middle" x="919.25" y="-77.88" font-family="Times,serif" font-size="10.00">/file&#45;watcher.hpp</text>
</a>
</g>
</g>
<!-- Node1&#45;&gt;Node13 -->
<g id="edge19_Node000001_Node000013" class="edge">
<title>Node1&#45;&gt;Node13</title>
<g id="a_edge19_Node000001_Node000013"><a xlink:title=" ">
<path fill="none" stroke="#63b8ff" d="M544.15,-220.28C595.39,-214.57 668.11,-202.05 726.25,-174.75 745.85,-165.55 745.36,-154.84 764.25,-144.25 783.34,-133.55 834.97,-115.68 873.44,-103.03"/>
<polygon fill="#63b8ff" stroke="#63b8ff" points="543.99,-216.78 534.41,-221.3 544.72,-223.74 543.99,-216.78"/>
</a>
</g>
</g>
<!-- Node14 -->
<g id="Node000014" class="node">
<title>Node14</title>
<g id="a_Node000014"><a xlink:href="../../dd/db7/stl-helpers_8hpp.html" target="_top" xlink:title="Provides helper functions and extensions for the C++ Standard Library.">
<polygon fill="white" stroke="#666666" points="877.5,-174.75 773,-174.75 773,-144.25 877.5,-144.25 877.5,-174.75"/>
<text text-anchor="start" x="781" y="-161.25" font-family="Times,serif" font-size="10.00">mal&#45;toolkit/mal&#45;toolkit</text>
<text text-anchor="middle" x="825.25" y="-150" font-family="Times,serif" font-size="10.00">/stl&#45;helpers.hpp</text>
</a>
</g>
</g>
<!-- Node1&#45;&gt;Node14 -->
<g id="edge21_Node000001_Node000014" class="edge">
<title>Node1&#45;&gt;Node14</title>
<g id="a_edge21_Node000001_Node000014"><a xlink:title=" ">
<path fill="none" stroke="#63b8ff" d="M544.09,-214.15C600.72,-204.37 685.63,-189.32 759.25,-174.75 763.62,-173.89 768.15,-172.96 772.69,-172.02"/>
<polygon fill="#63b8ff" stroke="#63b8ff" points="543.55,-210.69 534.29,-215.83 544.74,-217.59 543.55,-210.69"/>
</a>
</g>
</g>
<!-- Node15 -->
<g id="Node000015" class="node">
<title>Node15</title>
<g id="a_Node000015"><a xlink:href="../../d0/d8a/win-utils_8hpp.html" target="_top" xlink:title="Provides various Windows&#45;specific utility functions and macros.">
<polygon fill="white" stroke="#666666" points="1000.5,-174.75 896,-174.75 896,-144.25 1000.5,-144.25 1000.5,-174.75"/>
<text text-anchor="start" x="904" y="-161.25" font-family="Times,serif" font-size="10.00">mal&#45;toolkit/mal&#45;toolkit</text>
<text text-anchor="middle" x="948.25" y="-150" font-family="Times,serif" font-size="10.00">/win&#45;utils.hpp</text>
</a>
</g>
</g>
<!-- Node1&#45;&gt;Node15 -->
<g id="edge23_Node000001_Node000015" class="edge">
<title>Node1&#45;&gt;Node15</title>
<g id="a_edge23_Node000001_Node000015"><a xlink:title=" ">
<path fill="none" stroke="#63b8ff" d="M544.12,-219.14C624.35,-211.32 766.08,-195.94 886.25,-174.75 889.3,-174.21 892.42,-173.62 895.56,-173"/>
<polygon fill="#63b8ff" stroke="#63b8ff" points="543.86,-215.65 534.25,-220.1 544.54,-222.62 543.86,-215.65"/>
</a>
</g>
</g>
<!-- Node2&#45;&gt;Node3 -->
<g id="edge2_Node000002_Node000003" class="edge">
<title>Node2&#45;&gt;Node3</title>
<g id="a_edge2_Node000002_Node000003"><a xlink:title=" ">
<path fill="none" stroke="#63b8ff" d="M111.83,-68.41C114,-67.76 116.14,-67.13 118.25,-66.5 158.96,-54.42 205.16,-40.94 239.42,-30.98"/>
<polygon fill="#63b8ff" stroke="#63b8ff" points="110.92,-65.03 102.35,-71.24 112.93,-71.73 110.92,-65.03"/>
</a>
</g>
</g>
<!-- Node4&#45;&gt;Node3 -->
<g id="edge4_Node000004_Node000003" class="edge">
<title>Node4&#45;&gt;Node3</title>
<g id="a_edge4_Node000004_Node000003"><a xlink:title=" ">
<path fill="none" stroke="#63b8ff" d="M205.68,-135.06C190.72,-115.84 175.72,-88.34 189.25,-66.5 200.08,-49.02 219.02,-37.42 237.59,-29.83"/>
<polygon fill="#63b8ff" stroke="#63b8ff" points="202.85,-137.14 211.93,-142.61 208.24,-132.67 202.85,-137.14"/>
</a>
</g>
</g>
<!-- Node5&#45;&gt;Node3 -->
<g id="edge6_Node000005_Node000003" class="edge">
<title>Node5&#45;&gt;Node3</title>
<g id="a_edge6_Node000005_Node000003"><a xlink:title=" ">
<path fill="none" stroke="#63b8ff" d="M264.13,-62.04C270.08,-51.61 276.83,-39.78 281.97,-30.76"/>
<polygon fill="#63b8ff" stroke="#63b8ff" points="261.2,-60.11 259.29,-70.53 267.28,-63.58 261.2,-60.11"/>
</a>
</g>
</g>
<!-- Node6&#45;&gt;Node3 -->
<g id="edge11_Node000006_Node000003" class="edge">
<title>Node6&#45;&gt;Node3</title>
<g id="a_edge11_Node000006_Node000003"><a xlink:title=" ">
<path fill="none" stroke="#63b8ff" d="M384.78,-137.6C372.74,-129.34 359.65,-119.21 349.25,-108.25 326.39,-84.16 307.22,-50.02 297.37,-30.82"/>
<polygon fill="#63b8ff" stroke="#63b8ff" points="382.6,-140.35 392.87,-142.96 386.47,-134.52 382.6,-140.35"/>
</a>
</g>
</g>
<!-- Node7 -->
<g id="Node000007" class="node">
<title>Node7</title>
<g id="a_Node000007"><a xlink:href="../../da/d43/debug__with__source__location_8hpp.html" target="_top" xlink:title="This file provides utility functions for debugging and assertion handling.">
<polygon fill="white" stroke="#666666" points="480.12,-108.25 358.38,-108.25 358.38,-66.5 480.12,-66.5 480.12,-108.25"/>
<text text-anchor="start" x="366.38" y="-94.75" font-family="Times,serif" font-size="10.00">mal&#45;toolkit/mal&#45;toolkit</text>
<text text-anchor="start" x="366.38" y="-83.5" font-family="Times,serif" font-size="10.00">/detail/debug_with_source</text>
<text text-anchor="middle" x="419.25" y="-72.25" font-family="Times,serif" font-size="10.00">_location.hpp</text>
</a>
</g>
</g>
<!-- Node6&#45;&gt;Node7 -->
<g id="edge8_Node000006_Node000007" class="edge">
<title>Node6&#45;&gt;Node7</title>
<g id="a_edge8_Node000006_Node000007"><a xlink:title=" ">
<path fill="none" stroke="#63b8ff" d="M412.71,-132.72C412.34,-124.81 412.46,-116.23 413.06,-108.74"/>
<polygon fill="#63b8ff" stroke="#63b8ff" points="409.21,-132.79 413.53,-142.46 416.18,-132.2 409.21,-132.79"/>
</a>
</g>
</g>
<!-- Node8 -->
<g id="Node000008" class="node">
<title>Node8</title>
<g id="a_Node000008"><a xlink:href="../../d3/d4b/debug__without__source__location_8hpp.html" target="_top" xlink:title="Provides utility functions for debugging and assertion handling without source location information.">
<polygon fill="white" stroke="#666666" points="602.5,-108.25 498,-108.25 498,-66.5 602.5,-66.5 602.5,-108.25"/>
<text text-anchor="start" x="506" y="-94.75" font-family="Times,serif" font-size="10.00">mal&#45;toolkit/mal&#45;toolkit</text>
<text text-anchor="start" x="506" y="-83.5" font-family="Times,serif" font-size="10.00">/detail/debug_without</text>
<text text-anchor="middle" x="550.25" y="-72.25" font-family="Times,serif" font-size="10.00">_source_location.hpp</text>
</a>
</g>
</g>
<!-- Node6&#45;&gt;Node8 -->
<g id="edge10_Node000006_Node000008" class="edge">
<title>Node6&#45;&gt;Node8</title>
<g id="a_edge10_Node000006_Node000008"><a xlink:title=" ">
<path fill="none" stroke="#63b8ff" d="M456.57,-138.52C474.05,-129.16 494.84,-118.03 512.39,-108.64"/>
<polygon fill="#63b8ff" stroke="#63b8ff" points="455.21,-135.28 448.05,-143.09 458.51,-141.45 455.21,-135.28"/>
</a>
</g>
</g>
<!-- Node9 -->
<g id="Node000009" class="node">
<title>Node9</title>
<g id="a_Node000009"><a xlink:href="../../d0/db4/measurer_8hpp.html" target="_top" xlink:title="Implements performance measurement and profiling utilities.">
<polygon fill="white" stroke="#666666" points="725.5,-102.62 621,-102.62 621,-72.12 725.5,-72.12 725.5,-102.62"/>
<text text-anchor="start" x="629" y="-89.12" font-family="Times,serif" font-size="10.00">mal&#45;toolkit/mal&#45;toolkit</text>
<text text-anchor="middle" x="673.25" y="-77.88" font-family="Times,serif" font-size="10.00">/measurer.hpp</text>
</a>
</g>
</g>
<!-- Node6&#45;&gt;Node9 -->
<g id="edge12_Node000006_Node000009" class="edge">
<title>Node6&#45;&gt;Node9</title>
<g id="a_edge12_Node000006_Node000009"><a xlink:title=" ">
<path fill="none" stroke="#63b8ff" d="M482.4,-142.89C519.97,-133.38 568.49,-120.69 611.25,-108.25 616.79,-106.64 622.58,-104.88 628.3,-103.1"/>
<polygon fill="#63b8ff" stroke="#63b8ff" points="481.92,-139.4 473.08,-145.24 483.63,-146.19 481.92,-139.4"/>
</a>
</g>
</g>
<!-- Node7&#45;&gt;Node6 -->
<g id="edge9_Node000007_Node000006" class="edge">
<title>Node7&#45;&gt;Node6</title>
<g id="a_edge9_Node000007_Node000006"><a xlink:title=" ">
<path fill="none" stroke="#63b8ff" d="M425.97,-120.14C426.11,-128.47 425.73,-137.04 424.84,-143.97"/>
<polygon fill="#63b8ff" stroke="#63b8ff" points="429.47,-120.07 425.51,-110.25 422.48,-120.4 429.47,-120.07"/>
</a>
</g>
</g>
<!-- Node9&#45;&gt;Node3 -->
<g id="edge13_Node000009_Node000003" class="edge">
<title>Node9&#45;&gt;Node3</title>
<g id="a_edge13_Node000009_Node000003"><a xlink:title=" ">
<path fill="none" stroke="#63b8ff" d="M619.6,-68.62C616.79,-67.86 613.99,-67.15 611.25,-66.5 517.94,-44.38 407,-29.48 343,-21.96"/>
<polygon fill="#63b8ff" stroke="#63b8ff" points="618.44,-71.92 629.01,-71.3 620.35,-65.19 618.44,-71.92"/>
</a>
</g>
</g>
<!-- Node11 -->
<g id="Node000011" class="node">
<title>Node11</title>
<g id="a_Node000011"><a xlink:href="../../d7/db4/uuid_8hpp.html" target="_top" xlink:title="Defines utilities for working with Universally Unique Identifiers (UUIDs).">
<polygon fill="white" stroke="#666666" points="848.5,-102.62 744,-102.62 744,-72.12 848.5,-72.12 848.5,-102.62"/>
<text text-anchor="start" x="752" y="-89.12" font-family="Times,serif" font-size="10.00">mal&#45;toolkit/mal&#45;toolkit</text>
<text text-anchor="middle" x="796.25" y="-77.88" font-family="Times,serif" font-size="10.00">/uuid.hpp</text>
</a>
</g>
</g>
<!-- Node10&#45;&gt;Node11 -->
<g id="edge15_Node000010_Node000011" class="edge">
<title>Node10&#45;&gt;Node11</title>
<g id="a_edge15_Node000010_Node000011"><a xlink:title=" ">
<path fill="none" stroke="#63b8ff" d="M605.8,-142.79C643.31,-133.29 691.64,-120.65 734.25,-108.25 739.79,-106.64 745.58,-104.88 751.3,-103.1"/>
<polygon fill="#63b8ff" stroke="#63b8ff" points="605.33,-139.3 596.49,-145.14 607.04,-146.09 605.33,-139.3"/>
</a>
</g>
</g>
<!-- Node12&#45;&gt;Node13 -->
<g id="edge17_Node000012_Node000013" class="edge">
<title>Node12&#45;&gt;Node13</title>
<g id="a_edge17_Node000012_Node000013"><a xlink:title=" ">
<path fill="none" stroke="#63b8ff" d="M728.4,-142.89C765.97,-133.38 814.49,-120.69 857.25,-108.25 862.79,-106.64 868.58,-104.88 874.3,-103.1"/>
<polygon fill="#63b8ff" stroke="#63b8ff" points="727.92,-139.4 719.08,-145.24 729.63,-146.19 727.92,-139.4"/>
</a>
</g>
</g>
<!-- Node13&#45;&gt;Node3 -->
<g id="edge18_Node000013_Node000003" class="edge">
<title>Node13&#45;&gt;Node3</title>
<g id="a_edge18_Node000013_Node000003"><a xlink:title=" ">
<path fill="none" stroke="#63b8ff" d="M866.9,-68.7C863.65,-67.88 860.42,-67.14 857.25,-66.5 670.54,-28.79 443.55,-19.38 342.79,-17.03"/>
<polygon fill="#63b8ff" stroke="#63b8ff" points="865.87,-72.05 876.44,-71.32 867.72,-65.3 865.87,-72.05"/>
</a>
</g>
</g>
<!-- Node14&#45;&gt;Node3 -->
<g id="edge22_Node000014_Node000003" class="edge">
<title>Node14&#45;&gt;Node3</title>
<g id="a_edge22_Node000014_Node000003"><a xlink:title=" ">
<path fill="none" stroke="#63b8ff" d="M888.56,-141.76C928.82,-130.47 974.44,-116.24 980.25,-108.25 991.16,-93.24 992.89,-80.09 980.25,-66.5 937.13,-20.13 496.86,-16.06 342.99,-16.06"/>
<polygon fill="#63b8ff" stroke="#63b8ff" points="887.82,-138.33 879.12,-144.37 889.69,-145.08 887.82,-138.33"/>
</a>
</g>
</g>
</g>
</svg>

<g id="navigator" transform="translate(0 0)" fill="#404254">
  <rect fill="#f2f5e9" fill-opacity="0.5" stroke="#606060" stroke-width=".5" x="0" y="0" width="60" height="60"/>
  <use id="zoomplus" xlink:href="#zoomPlus" x="17" y="9" onmousedown="handleZoom(evt,'in')"/>
  <use id="zoomminus" xlink:href="#zoomMin" x="42" y="9" onmousedown="handleZoom(evt,'out')"/>
  <use id="reset" xlink:href="#resetDef" x="30" y="36" onmousedown="handleReset()"/>
   <use id="arrowup" xlink:href="#arrowUp" x="0" y="0" onmousedown="handlePan(0,-1)"/>
  <use id="arrowright" xlink:href="#arrowRight" x="0" y="0" onmousedown="handlePan(1,0)"/>
  <use id="arrowdown" xlink:href="#arrowDown" x="0" y="0" onmousedown="handlePan(0,1)"/>
  <use id="arrowleft" xlink:href="#arrowLeft" x="0" y="0" onmousedown="handlePan(-1,0)"/>
</g>
<svg viewBox="0 0 15 15" width="100%" height="30px" preserveAspectRatio="xMaxYMin meet">
 <g id="arrow_out" transform="scale(0.3 0.3)">
  <a xlink:href="library-pch_8hpp__dep__incl_org.svg" target="_base">
   <rect id="button" ry="5" rx="5" y="6" x="6" height="38" width="38"
        fill="#f2f5e9" fill-opacity="0.5" stroke="#606060" stroke-width="1.0"/>
   <path id="arrow"
     d="M 11.500037,31.436501 C 11.940474,20.09759 22.043105,11.32322 32.158766,21.979434 L 37.068811,17.246167 C 37.068811,17.246167 37.088388,32 37.088388,32 L 22.160133,31.978069 C 22.160133,31.978069 26.997745,27.140456 26.997745,27.140456 C 18.528582,18.264221 13.291696,25.230495 11.500037,31.436501 z"
     style="fill:#404040;"/>
  </a>
 </g>
</svg>

<style type='text/css'>
<![CDATA[
[data-mouse-over-selected='false'] { opacity: 0.7; }
[data-mouse-over-selected='true']  { opacity: 1.0; }
]]>
</style>
<script type="application/ecmascript"><![CDATA[
document.addEventListener('DOMContentLoaded', (event) => {
  highlightEdges();
  highlightAdjacentNodes();
});
]]></script>
</svg>
