<?xml version="1.0" encoding="UTF-8" standalone="no"?>
<!DOCTYPE svg PUBLIC "-//W3C//DTD SVG 1.1//EN"
 "http://www.w3.org/Graphics/SVG/1.1/DTD/svg11.dtd">
<!-- Generated by graphviz version 7.0.5 (20221223.1930)
 -->
<!-- Title: mal&#45;toolkit/library&#45;pch.hpp Pages: 1 -->
<svg width="1118pt" height="236pt"
 viewBox="0.00 0.00 1117.50 236.00" xmlns="http://www.w3.org/2000/svg" xmlns:xlink="http://www.w3.org/1999/xlink">
<g id="graph0" class="graph" transform="scale(1 1) rotate(0) translate(4 232)">
<title>mal&#45;toolkit/library&#45;pch.hpp</title>
<!-- Node1 -->
<g id="node1" class="node">
<title>Node1</title>
<g id="a_node1"><a xlink:title=" ">
<polygon fill="#999999" stroke="#666666" points="663,-228 573,-228 573,-198 663,-198 663,-228"/>
<text text-anchor="start" x="581" y="-216" font-family="Helvetica,sans-Serif" font-size="10.00">mal&#45;toolkit/library</text>
<text text-anchor="middle" x="618" y="-205" font-family="Helvetica,sans-Serif" font-size="10.00">&#45;pch.hpp</text>
</a>
</g>
</g>
<!-- Node2 -->
<g id="node2" class="node">
<title>Node2</title>
<g id="a_node2"><a xlink:href="../../d4/d80/common-structures_8hpp.html" target="_top" xlink:title=" ">
<polygon fill="white" stroke="#666666" points="102,-90.5 0,-90.5 0,-60.5 102,-60.5 102,-90.5"/>
<text text-anchor="start" x="8" y="-78.5" font-family="Helvetica,sans-Serif" font-size="10.00">mal&#45;toolkit/common</text>
<text text-anchor="middle" x="51" y="-67.5" font-family="Helvetica,sans-Serif" font-size="10.00">&#45;structures.hpp</text>
</a>
</g>
</g>
<!-- Node1&#45;&gt;Node2 -->
<g id="edge1" class="edge">
<title>Node1&#45;&gt;Node2</title>
<path fill="none" stroke="#63b8ff" d="M561.42,-211.96C446.68,-210.99 191.1,-204.01 116,-162 87.03,-145.8 66.92,-110.79 57.36,-90.96"/>
<polygon fill="#63b8ff" stroke="#63b8ff" points="561.2,-215.46 571.22,-212.03 561.25,-208.46 561.2,-215.46"/>
</g>
<!-- Node3 -->
<g id="node3" class="node">
<title>Node3</title>
<g id="a_node3"><a xlink:href="../../d1/d08/mal__toolkit_8hpp.html" target="_top" xlink:title=" ">
<polygon fill="white" stroke="#666666" points="271,-19 141,-19 141,0 271,0 271,-19"/>
<text text-anchor="middle" x="206" y="-7" font-family="Helvetica,sans-Serif" font-size="10.00">mal&#45;toolkit/mal_toolkit.hpp</text>
</a>
</g>
</g>
<!-- Node1&#45;&gt;Node3 -->
<g id="edge18" class="edge">
<title>Node1&#45;&gt;Node3</title>
<path fill="none" stroke="#63b8ff" d="M561.38,-212.06C462.09,-211.05 261.94,-203.73 208,-162 169.29,-132.05 170.02,-102.45 182,-55 185.35,-41.72 193.53,-28.1 199.41,-19.49"/>
<polygon fill="#63b8ff" stroke="#63b8ff" points="561.15,-215.56 571.17,-212.14 561.2,-208.56 561.15,-215.56"/>
</g>
<!-- Node4 -->
<g id="node4" class="node">
<title>Node4</title>
<g id="a_node4"><a xlink:href="../../d1/d27/converter_8hpp.html" target="_top" xlink:title=" ">
<polygon fill="white" stroke="#666666" points="340.5,-156.5 217.5,-156.5 217.5,-137.5 340.5,-137.5 340.5,-156.5"/>
<text text-anchor="middle" x="279" y="-144.5" font-family="Helvetica,sans-Serif" font-size="10.00">mal&#45;toolkit/converter.hpp</text>
</a>
</g>
</g>
<!-- Node1&#45;&gt;Node4 -->
<g id="edge3" class="edge">
<title>Node1&#45;&gt;Node4</title>
<path fill="none" stroke="#63b8ff" d="M561.66,-201.36C495.89,-188.95 388.29,-168.63 326.55,-156.98"/>
<polygon fill="#63b8ff" stroke="#63b8ff" points="560.67,-204.74 571.15,-203.15 561.97,-197.86 560.67,-204.74"/>
</g>
<!-- Node5 -->
<g id="node5" class="node">
<title>Node5</title>
<g id="a_node5"><a xlink:href="../../da/d7b/debug_8hpp.html" target="_top" xlink:title=" ">
<polygon fill="white" stroke="#666666" points="496.5,-156.5 387.5,-156.5 387.5,-137.5 496.5,-137.5 496.5,-156.5"/>
<text text-anchor="middle" x="442" y="-144.5" font-family="Helvetica,sans-Serif" font-size="10.00">mal&#45;toolkit/debug.hpp</text>
</a>
</g>
</g>
<!-- Node1&#45;&gt;Node5 -->
<g id="edge5" class="edge">
<title>Node1&#45;&gt;Node5</title>
<path fill="none" stroke="#63b8ff" d="M568.09,-193.85C534.96,-181.8 492.9,-166.51 466.71,-156.99"/>
<polygon fill="#63b8ff" stroke="#63b8ff" points="566.49,-196.99 577.08,-197.12 568.88,-190.41 566.49,-196.99"/>
</g>
<!-- Node9 -->
<g id="node9" class="node">
<title>Node9</title>
<g id="a_node9"><a xlink:href="../../d1/dcf/endianness_8hpp.html" target="_top" xlink:title="Provides functions and utilities for handling endianness conversions.">
<polygon fill="white" stroke="#666666" points="662,-162 574,-162 574,-132 662,-132 662,-162"/>
<text text-anchor="start" x="582" y="-150" font-family="Helvetica,sans-Serif" font-size="10.00">mal&#45;toolkit/detail</text>
<text text-anchor="middle" x="618" y="-139" font-family="Helvetica,sans-Serif" font-size="10.00">/endianness.hpp</text>
</a>
</g>
</g>
<!-- Node1&#45;&gt;Node9 -->
<g id="edge12" class="edge">
<title>Node1&#45;&gt;Node9</title>
<path fill="none" stroke="#63b8ff" d="M618,-186.39C618,-178.13 618,-169.28 618,-162.16"/>
<polygon fill="#63b8ff" stroke="#63b8ff" points="614.5,-186.28 618,-196.28 621.5,-186.28 614.5,-186.28"/>
</g>
<!-- Node11 -->
<g id="node11" class="node">
<title>Node11</title>
<g id="a_node11"><a xlink:href="../../dc/d94/event_8hpp.html" target="_top" xlink:title=" ">
<polygon fill="white" stroke="#666666" points="787.5,-156.5 680.5,-156.5 680.5,-137.5 787.5,-137.5 787.5,-156.5"/>
<text text-anchor="middle" x="734" y="-144.5" font-family="Helvetica,sans-Serif" font-size="10.00">mal&#45;toolkit/event.hpp</text>
</a>
</g>
</g>
<!-- Node1&#45;&gt;Node11 -->
<g id="edge14" class="edge">
<title>Node1&#45;&gt;Node11</title>
<path fill="none" stroke="#63b8ff" d="M654.05,-192.11C675.35,-180.36 701.28,-166.05 717.71,-156.99"/>
<polygon fill="#63b8ff" stroke="#63b8ff" points="652.42,-189.01 645.36,-196.91 655.8,-195.14 652.42,-189.01"/>
</g>
<!-- Node12 -->
<g id="node12" class="node">
<title>Node12</title>
<g id="a_node12"><a xlink:href="../../dc/dad/file-watcher_8hpp.html" target="_top" xlink:title=" ">
<polygon fill="white" stroke="#666666" points="941,-85 809,-85 809,-66 941,-66 941,-85"/>
<text text-anchor="middle" x="875" y="-73" font-family="Helvetica,sans-Serif" font-size="10.00">mal&#45;toolkit/file&#45;watcher.hpp</text>
</a>
</g>
</g>
<!-- Node1&#45;&gt;Node12 -->
<g id="edge17" class="edge">
<title>Node1&#45;&gt;Node12</title>
<path fill="none" stroke="#63b8ff" d="M674.18,-204.36C710.9,-197.47 758.79,-184.78 796,-162 829.61,-141.42 857.85,-102.59 869.41,-85.25"/>
<polygon fill="#63b8ff" stroke="#63b8ff" points="673.88,-200.85 664.65,-206.05 675.11,-207.75 673.88,-200.85"/>
</g>
<!-- Node13 -->
<g id="node13" class="node">
<title>Node13</title>
<g id="a_node13"><a xlink:href="../../dd/db7/stl-helpers_8hpp.html" target="_top" xlink:title=" ">
<polygon fill="white" stroke="#666666" points="972,-156.5 844,-156.5 844,-137.5 972,-137.5 972,-156.5"/>
<text text-anchor="middle" x="908" y="-144.5" font-family="Helvetica,sans-Serif" font-size="10.00">mal&#45;toolkit/stl&#45;helpers.hpp</text>
</a>
</g>
</g>
<!-- Node1&#45;&gt;Node13 -->
<g id="edge19" class="edge">
<title>Node1&#45;&gt;Node13</title>
<path fill="none" stroke="#63b8ff" d="M674.26,-199.58C731.05,-187.05 817.37,-168 867.68,-156.9"/>
<polygon fill="#63b8ff" stroke="#63b8ff" points="673.8,-196.1 664.79,-201.67 675.31,-202.94 673.8,-196.1"/>
</g>
<!-- Node14 -->
<g id="node14" class="node">
<title>Node14</title>
<g id="a_node14"><a xlink:href="../../d0/d8a/win-utils_8hpp.html" target="_top" xlink:title=" ">
<polygon fill="white" stroke="#666666" points="1109.5,-156.5 990.5,-156.5 990.5,-137.5 1109.5,-137.5 1109.5,-156.5"/>
<text text-anchor="middle" x="1050" y="-144.5" font-family="Helvetica,sans-Serif" font-size="10.00">mal&#45;toolkit/win&#45;utils.hpp</text>
</a>
</g>
</g>
<!-- Node1&#45;&gt;Node14 -->
<g id="edge21" class="edge">
<title>Node1&#45;&gt;Node14</title>
<path fill="none" stroke="#63b8ff" d="M674.41,-205.35C745.93,-196.67 872.95,-180.38 981,-162 989.8,-160.5 999.19,-158.72 1008.12,-156.94"/>
<polygon fill="#63b8ff" stroke="#63b8ff" points="674.43,-201.83 664.92,-206.5 675.26,-208.78 674.43,-201.83"/>
</g>
<!-- Node2&#45;&gt;Node3 -->
<g id="edge2" class="edge">
<title>Node2&#45;&gt;Node3</title>
<path fill="none" stroke="#63b8ff" d="M96.1,-55.88C125.09,-43.91 161.48,-28.88 184.24,-19.49"/>
<polygon fill="#63b8ff" stroke="#63b8ff" points="95.09,-52.51 87.18,-59.56 97.76,-58.98 95.09,-52.51"/>
</g>
<!-- Node4&#45;&gt;Node3 -->
<g id="edge4" class="edge">
<title>Node4&#45;&gt;Node3</title>
<path fill="none" stroke="#63b8ff" d="M237.32,-132.67C220.11,-124.87 201.9,-113.11 192,-96 177.61,-71.13 192.49,-35.78 200.97,-19.43"/>
<polygon fill="#63b8ff" stroke="#63b8ff" points="235.85,-135.85 246.43,-136.44 238.53,-129.38 235.85,-135.85"/>
</g>
<!-- Node5&#45;&gt;Node3 -->
<g id="edge9" class="edge">
<title>Node5&#45;&gt;Node3</title>
<path fill="none" stroke="#63b8ff" d="M378.66,-134.94C318.6,-123.9 235.94,-107.02 225,-96 204.22,-75.06 204.02,-36.76 205.15,-19.43"/>
<polygon fill="#63b8ff" stroke="#63b8ff" points="378.01,-138.38 388.48,-136.73 379.27,-131.5 378.01,-138.38"/>
</g>
<!-- Node6 -->
<g id="node6" class="node">
<title>Node6</title>
<g id="a_node6"><a xlink:href="../../da/d43/debug__with__source__location_8hpp.html" target="_top" xlink:title="This file provides utility functions for debugging and assertion handling.">
<polygon fill="white" stroke="#666666" points="395.5,-90.5 234.5,-90.5 234.5,-60.5 395.5,-60.5 395.5,-90.5"/>
<text text-anchor="start" x="242.5" y="-78.5" font-family="Helvetica,sans-Serif" font-size="10.00">mal&#45;toolkit/detail</text>
<text text-anchor="middle" x="315" y="-67.5" font-family="Helvetica,sans-Serif" font-size="10.00">/debug_with_source_location.hpp</text>
</a>
</g>
</g>
<!-- Node5&#45;&gt;Node6 -->
<g id="edge6" class="edge">
<title>Node5&#45;&gt;Node6</title>
<path fill="none" stroke="#63b8ff" d="M410.83,-131.98C387.47,-120.06 356.3,-103.02 335.84,-90.97"/>
<polygon fill="#63b8ff" stroke="#63b8ff" points="409.09,-135.02 419.6,-136.38 412.23,-128.76 409.09,-135.02"/>
</g>
<!-- Node7 -->
<g id="node7" class="node">
<title>Node7</title>
<g id="a_node7"><a xlink:href="../../d3/d4b/debug__without__source__location_8hpp.html" target="_top" xlink:title=" ">
<polygon fill="white" stroke="#666666" points="530.5,-96 413.5,-96 413.5,-55 530.5,-55 530.5,-96"/>
<text text-anchor="start" x="421.5" y="-84" font-family="Helvetica,sans-Serif" font-size="10.00">mal&#45;toolkit/detail</text>
<text text-anchor="start" x="421.5" y="-73" font-family="Helvetica,sans-Serif" font-size="10.00">/debug_without_source</text>
<text text-anchor="middle" x="472" y="-62" font-family="Helvetica,sans-Serif" font-size="10.00">_location.hpp</text>
</a>
</g>
</g>
<!-- Node5&#45;&gt;Node7 -->
<g id="edge8" class="edge">
<title>Node5&#45;&gt;Node7</title>
<path fill="none" stroke="#63b8ff" d="M450.27,-126.84C454.37,-117.34 459.32,-105.88 463.46,-96.29"/>
<polygon fill="#63b8ff" stroke="#63b8ff" points="447.15,-125.24 446.4,-135.81 453.58,-128.01 447.15,-125.24"/>
</g>
<!-- Node8 -->
<g id="node8" class="node">
<title>Node8</title>
<g id="a_node8"><a xlink:href="../../d0/db4/measurer_8hpp.html" target="_top" xlink:title=" ">
<polygon fill="white" stroke="#666666" points="671.5,-85 548.5,-85 548.5,-66 671.5,-66 671.5,-85"/>
<text text-anchor="middle" x="610" y="-73" font-family="Helvetica,sans-Serif" font-size="10.00">mal&#45;toolkit/measurer.hpp</text>
</a>
</g>
</g>
<!-- Node5&#45;&gt;Node8 -->
<g id="edge10" class="edge">
<title>Node5&#45;&gt;Node8</title>
<path fill="none" stroke="#63b8ff" d="M473.82,-132.84C507.4,-118.94 559.4,-97.43 588.46,-85.41"/>
<polygon fill="#63b8ff" stroke="#63b8ff" points="472.92,-129.42 465.02,-136.48 475.6,-135.89 472.92,-129.42"/>
</g>
<!-- Node6&#45;&gt;Node5 -->
<g id="edge7" class="edge">
<title>Node6&#45;&gt;Node5</title>
<path fill="none" stroke="#63b8ff" d="M356.88,-96.06C382.74,-109.58 413.93,-126.91 430.59,-137.2"/>
<polygon fill="#63b8ff" stroke="#63b8ff" points="358.75,-93.09 348.26,-91.6 355.54,-99.3 358.75,-93.09"/>
</g>
<!-- Node8&#45;&gt;Node3 -->
<g id="edge11" class="edge">
<title>Node8&#45;&gt;Node3</title>
<path fill="none" stroke="#63b8ff" d="M569.92,-62.48C559.89,-59.75 549.1,-57.05 539,-55 446.83,-36.27 338.66,-23.48 271.21,-16.58"/>
<polygon fill="#63b8ff" stroke="#63b8ff" points="568.82,-65.8 579.39,-65.13 570.71,-59.06 568.82,-65.8"/>
</g>
<!-- Node10 -->
<g id="node10" class="node">
<title>Node10</title>
<g id="a_node10"><a xlink:href="../../d7/db4/uuid_8hpp.html" target="_top" xlink:title=" ">
<polygon fill="white" stroke="#666666" points="790.5,-85 689.5,-85 689.5,-66 790.5,-66 790.5,-85"/>
<text text-anchor="middle" x="740" y="-73" font-family="Helvetica,sans-Serif" font-size="10.00">mal&#45;toolkit/uuid.hpp</text>
</a>
</g>
</g>
<!-- Node9&#45;&gt;Node10 -->
<g id="edge13" class="edge">
<title>Node9&#45;&gt;Node10</title>
<path fill="none" stroke="#63b8ff" d="M653.25,-125.92C676.78,-112.51 706.57,-95.54 724.41,-85.38"/>
<polygon fill="#63b8ff" stroke="#63b8ff" points="651.55,-122.86 644.59,-130.85 655.02,-128.94 651.55,-122.86"/>
</g>
<!-- Node11&#45;&gt;Node12 -->
<g id="edge15" class="edge">
<title>Node11&#45;&gt;Node12</title>
<path fill="none" stroke="#63b8ff" d="M762.19,-132.11C790.4,-118.2 832.95,-97.22 856.93,-85.41"/>
<polygon fill="#63b8ff" stroke="#63b8ff" points="760.92,-128.83 753.5,-136.39 764.02,-135.11 760.92,-128.83"/>
</g>
<!-- Node12&#45;&gt;Node3 -->
<g id="edge16" class="edge">
<title>Node12&#45;&gt;Node3</title>
<path fill="none" stroke="#63b8ff" d="M834.36,-62.66C823,-59.74 810.59,-56.91 799,-55 609.01,-23.75 381.11,-14.41 271.38,-11.65"/>
<polygon fill="#63b8ff" stroke="#63b8ff" points="833.27,-66 843.84,-65.19 835.08,-59.23 833.27,-66"/>
</g>
<!-- Node13&#45;&gt;Node3 -->
<g id="edge20" class="edge">
<title>Node13&#45;&gt;Node3</title>
<path fill="none" stroke="#63b8ff" d="M925.95,-129.33C945.15,-109.54 970.27,-76.51 950,-55 926.89,-30.47 448.47,-16.39 271.27,-12"/>
<polygon fill="#63b8ff" stroke="#63b8ff" points="923.74,-126.6 919.06,-136.11 928.64,-131.59 923.74,-126.6"/>
</g>
</g>
</svg>
