<?xml version="1.0" encoding="UTF-8" standalone="no"?>
<!DOCTYPE svg PUBLIC "-//W3C//DTD SVG 1.1//EN"
 "http://www.w3.org/Graphics/SVG/1.1/DTD/svg11.dtd">
<!-- Generated by graphviz version 8.1.0 (20230707.0739)
 -->
<!-- Title: mal&#45;toolkit/mal&#45;toolkit/library&#45;pch.hpp Pages: 1 -->
<svg width="1009pt" height="249pt"
 viewBox="0.00 0.00 1008.50 249.25" xmlns="http://www.w3.org/2000/svg" xmlns:xlink="http://www.w3.org/1999/xlink">
<g id="graph0" class="graph" transform="scale(1 1) rotate(0) translate(4 245.25)">
<title>mal&#45;toolkit/mal&#45;toolkit/library&#45;pch.hpp</title>
<!-- Node1 -->
<g id="Node000001" class="node">
<title>Node1</title>
<g id="a_Node000001"><a xlink:title="Precompiled header (PCH) file for common headers used across the library.">
<polygon fill="#999999" stroke="#666666" points="532.5,-241.25 428,-241.25 428,-210.75 532.5,-210.75 532.5,-241.25"/>
<text text-anchor="start" x="436" y="-227.75" font-family="Times,serif" font-size="10.00">mal&#45;toolkit/mal&#45;toolkit</text>
<text text-anchor="middle" x="480.25" y="-216.5" font-family="Times,serif" font-size="10.00">/library&#45;pch.hpp</text>
</a>
</g>
</g>
<!-- Node2 -->
<g id="Node000002" class="node">
<title>Node2</title>
<g id="a_Node000002"><a xlink:href="../../da/df5/byte-helper_8hpp.html" target="_top" xlink:title=" ">
<polygon fill="white" stroke="#666666" points="104.5,-102.62 0,-102.62 0,-72.12 104.5,-72.12 104.5,-102.62"/>
<text text-anchor="start" x="8" y="-89.12" font-family="Times,serif" font-size="10.00">mal&#45;toolkit/mal&#45;toolkit</text>
<text text-anchor="middle" x="52.25" y="-77.88" font-family="Times,serif" font-size="10.00">/byte&#45;helper.hpp</text>
</a>
</g>
</g>
<!-- Node1&#45;&gt;Node2 -->
<g id="edge1_Node000001_Node000002" class="edge">
<title>Node1&#45;&gt;Node2</title>
<g id="a_edge1_Node000001_Node000002"><a xlink:title=" ">
<path fill="none" stroke="#63b8ff" d="M416.87,-221.97C326.91,-216.71 167.64,-203.56 118.25,-174.75 89.23,-157.82 68.66,-122.68 58.82,-102.83"/>
<polygon fill="#63b8ff" stroke="#63b8ff" points="416.57,-225.52 426.75,-222.59 416.96,-218.53 416.57,-225.52"/>
</a>
</g>
</g>
<!-- Node3 -->
<g id="Node000003" class="node">
<title>Node3</title>
<g id="a_Node000003"><a xlink:href="../../d1/d8a/mal-toolkit_8hpp.html" target="_top" xlink:title="Main header file for the MAL Toolkit library, providing a comprehensive set of tools and utilities.">
<polygon fill="white" stroke="#666666" points="342.5,-30.5 238,-30.5 238,0 342.5,0 342.5,-30.5"/>
<text text-anchor="start" x="246" y="-17" font-family="Times,serif" font-size="10.00">mal&#45;toolkit/mal&#45;toolkit</text>
<text text-anchor="middle" x="290.25" y="-5.75" font-family="Times,serif" font-size="10.00">/mal&#45;toolkit.hpp</text>
</a>
</g>
</g>
<!-- Node1&#45;&gt;Node3 -->
<g id="edge20_Node000001_Node000003" class="edge">
<title>Node1&#45;&gt;Node3</title>
<g id="a_edge20_Node000001_Node000003"><a xlink:title=" ">
<path fill="none" stroke="#63b8ff" d="M416.81,-224.37C333.35,-222.03 193.46,-212.43 161.25,-174.75 142.39,-152.68 159.3,-91.83 180.25,-66.5 194.83,-48.86 216.94,-37.14 237.52,-29.48"/>
<polygon fill="#63b8ff" stroke="#63b8ff" points="416.61,-227.89 426.69,-224.64 416.78,-220.89 416.61,-227.89"/>
</a>
</g>
</g>
<!-- Node4 -->
<g id="Node000004" class="node">
<title>Node4</title>
<g id="a_Node000004"><a xlink:href="../../d4/d80/common-structures_8hpp.html" target="_top" xlink:title="Defines common data structures and types that can be used anywhere.">
<polygon fill="white" stroke="#666666" points="284,-174.75 170.5,-174.75 170.5,-144.25 284,-144.25 284,-174.75"/>
<text text-anchor="start" x="178.5" y="-161.25" font-family="Times,serif" font-size="10.00">mal&#45;toolkit/mal&#45;toolkit</text>
<text text-anchor="middle" x="227.25" y="-150" font-family="Times,serif" font-size="10.00">/common&#45;structures.hpp</text>
</a>
</g>
</g>
<!-- Node1&#45;&gt;Node4 -->
<g id="edge3_Node000001_Node000004" class="edge">
<title>Node1&#45;&gt;Node4</title>
<g id="a_edge3_Node000001_Node000004"><a xlink:title=" ">
<path fill="none" stroke="#63b8ff" d="M416.9,-208.85C376.19,-198.47 323.73,-185.1 284.31,-175.05"/>
<polygon fill="#63b8ff" stroke="#63b8ff" points="415.97,-212.48 426.52,-211.56 417.7,-205.7 415.97,-212.48"/>
</a>
</g>
</g>
<!-- Node5 -->
<g id="Node000005" class="node">
<title>Node5</title>
<g id="a_Node000005"><a xlink:href="../../d1/d27/converter_8hpp.html" target="_top" xlink:title="Provides functions for converting between different data types.">
<polygon fill="white" stroke="#666666" points="302.5,-102.62 198,-102.62 198,-72.12 302.5,-72.12 302.5,-102.62"/>
<text text-anchor="start" x="206" y="-89.12" font-family="Times,serif" font-size="10.00">mal&#45;toolkit/mal&#45;toolkit</text>
<text text-anchor="middle" x="250.25" y="-77.88" font-family="Times,serif" font-size="10.00">/converter.hpp</text>
</a>
</g>
</g>
<!-- Node1&#45;&gt;Node5 -->
<g id="edge5_Node000001_Node000005" class="edge">
<title>Node1&#45;&gt;Node5</title>
<g id="a_edge5_Node000001_Node000005"><a xlink:title=" ">
<path fill="none" stroke="#63b8ff" d="M426.12,-206.51C404.36,-198.11 379.46,-187.25 358.25,-174.75 322.47,-153.66 285.73,-121.63 265.66,-103.07"/>
<polygon fill="#63b8ff" stroke="#63b8ff" points="424.6,-210.05 435.2,-210.31 427.07,-203.5 424.6,-210.05"/>
</a>
</g>
</g>
<!-- Node6 -->
<g id="Node000006" class="node">
<title>Node6</title>
<g id="a_Node000006"><a xlink:href="../../da/d7b/debug_8hpp.html" target="_top" xlink:title="Contains debugging&#45;related macros and utilities for assisting with debugging tasks.">
<polygon fill="white" stroke="#666666" points="471.5,-174.75 367,-174.75 367,-144.25 471.5,-144.25 471.5,-174.75"/>
<text text-anchor="start" x="375" y="-161.25" font-family="Times,serif" font-size="10.00">mal&#45;toolkit/mal&#45;toolkit</text>
<text text-anchor="middle" x="419.25" y="-150" font-family="Times,serif" font-size="10.00">/debug.hpp</text>
</a>
</g>
</g>
<!-- Node1&#45;&gt;Node6 -->
<g id="edge7_Node000001_Node000006" class="edge">
<title>Node1&#45;&gt;Node6</title>
<g id="a_edge7_Node000001_Node000006"><a xlink:title=" ">
<path fill="none" stroke="#63b8ff" d="M458.91,-202.44C450.32,-193.36 440.67,-183.15 433.04,-175.08"/>
<polygon fill="#63b8ff" stroke="#63b8ff" points="455.99,-204.5 465.41,-209.36 461.08,-199.69 455.99,-204.5"/>
</a>
</g>
</g>
<!-- Node10 -->
<g id="Node000010" class="node">
<title>Node10</title>
<g id="a_Node000010"><a xlink:href="../../d1/dcf/endianness_8hpp.html" target="_top" xlink:title="Provides functions and utilities for handling endianness conversions.">
<polygon fill="white" stroke="#666666" points="594.88,-174.75 489.62,-174.75 489.62,-144.25 594.88,-144.25 594.88,-174.75"/>
<text text-anchor="start" x="497.62" y="-161.25" font-family="Times,serif" font-size="10.00">mal&#45;toolkit/mal&#45;toolkit</text>
<text text-anchor="middle" x="542.25" y="-150" font-family="Times,serif" font-size="10.00">/detail/endianness.hpp</text>
</a>
</g>
</g>
<!-- Node1&#45;&gt;Node10 -->
<g id="edge14_Node000001_Node000010" class="edge">
<title>Node1&#45;&gt;Node10</title>
<g id="a_edge14_Node000001_Node000010"><a xlink:title=" ">
<path fill="none" stroke="#63b8ff" d="M501.94,-202.44C510.67,-193.36 520.48,-183.15 528.24,-175.08"/>
<polygon fill="#63b8ff" stroke="#63b8ff" points="499.73,-199.73 495.32,-209.36 504.77,-204.58 499.73,-199.73"/>
</a>
</g>
</g>
<!-- Node12 -->
<g id="Node000012" class="node">
<title>Node12</title>
<g id="a_Node000012"><a xlink:href="../../dc/d94/event_8hpp.html" target="_top" xlink:title="Defines event handling and notification mechanisms.">
<polygon fill="white" stroke="#666666" points="717.5,-174.75 613,-174.75 613,-144.25 717.5,-144.25 717.5,-174.75"/>
<text text-anchor="start" x="621" y="-161.25" font-family="Times,serif" font-size="10.00">mal&#45;toolkit/mal&#45;toolkit</text>
<text text-anchor="middle" x="665.25" y="-150" font-family="Times,serif" font-size="10.00">/event.hpp</text>
</a>
</g>
</g>
<!-- Node1&#45;&gt;Node12 -->
<g id="edge16_Node000001_Node000012" class="edge">
<title>Node1&#45;&gt;Node12</title>
<g id="a_edge16_Node000001_Node000012"><a xlink:title=" ">
<path fill="none" stroke="#63b8ff" d="M532.47,-206.79C561.14,-196.8 596.22,-184.57 623.12,-175.19"/>
<polygon fill="#63b8ff" stroke="#63b8ff" points="531.52,-203.77 523.23,-210.36 533.82,-210.38 531.52,-203.77"/>
</a>
</g>
</g>
<!-- Node13 -->
<g id="Node000013" class="node">
<title>Node13</title>
<g id="a_Node000013"><a xlink:href="../../dc/dad/file-watcher_8hpp.html" target="_top" xlink:title="Implements a file watcher that monitors changes to specified files or directories.">
<polygon fill="white" stroke="#666666" points="971.5,-102.62 867,-102.62 867,-72.12 971.5,-72.12 971.5,-102.62"/>
<text text-anchor="start" x="875" y="-89.12" font-family="Times,serif" font-size="10.00">mal&#45;toolkit/mal&#45;toolkit</text>
<text text-anchor="middle" x="919.25" y="-77.88" font-family="Times,serif" font-size="10.00">/file&#45;watcher.hpp</text>
</a>
</g>
</g>
<!-- Node1&#45;&gt;Node13 -->
<g id="edge19_Node000001_Node000013" class="edge">
<title>Node1&#45;&gt;Node13</title>
<g id="a_edge19_Node000001_Node000013"><a xlink:title=" ">
<path fill="none" stroke="#63b8ff" d="M543.82,-220.32C595.09,-214.62 667.98,-202.1 726.25,-174.75 745.85,-165.55 745.36,-154.84 764.25,-144.25 783.34,-133.55 834.97,-115.68 873.44,-103.03"/>
<polygon fill="#63b8ff" stroke="#63b8ff" points="543.48,-216.94 533.9,-221.46 544.21,-223.9 543.48,-216.94"/>
</a>
</g>
</g>
<!-- Node14 -->
<g id="Node000014" class="node">
<title>Node14</title>
<g id="a_Node000014"><a xlink:href="../../dd/db7/stl-helpers_8hpp.html" target="_top" xlink:title="Provides helper functions and extensions for the C++ Standard Library.">
<polygon fill="white" stroke="#666666" points="877.5,-174.75 773,-174.75 773,-144.25 877.5,-144.25 877.5,-174.75"/>
<text text-anchor="start" x="781" y="-161.25" font-family="Times,serif" font-size="10.00">mal&#45;toolkit/mal&#45;toolkit</text>
<text text-anchor="middle" x="825.25" y="-150" font-family="Times,serif" font-size="10.00">/stl&#45;helpers.hpp</text>
</a>
</g>
</g>
<!-- Node1&#45;&gt;Node14 -->
<g id="edge21_Node000001_Node000014" class="edge">
<title>Node1&#45;&gt;Node14</title>
<g id="a_edge21_Node000001_Node000014"><a xlink:title=" ">
<path fill="none" stroke="#63b8ff" d="M543.38,-214.27C600.01,-204.49 685.32,-189.38 759.25,-174.75 763.62,-173.89 768.15,-172.96 772.69,-172.02"/>
<polygon fill="#63b8ff" stroke="#63b8ff" points="543.06,-210.94 533.8,-216.09 544.25,-217.84 543.06,-210.94"/>
</a>
</g>
</g>
<!-- Node15 -->
<g id="Node000015" class="node">
<title>Node15</title>
<g id="a_Node000015"><a xlink:href="../../d0/d8a/win-utils_8hpp.html" target="_top" xlink:title="Provides various Windows&#45;specific utility functions and macros.">
<polygon fill="white" stroke="#666666" points="1000.5,-174.75 896,-174.75 896,-144.25 1000.5,-144.25 1000.5,-174.75"/>
<text text-anchor="start" x="904" y="-161.25" font-family="Times,serif" font-size="10.00">mal&#45;toolkit/mal&#45;toolkit</text>
<text text-anchor="middle" x="948.25" y="-150" font-family="Times,serif" font-size="10.00">/win&#45;utils.hpp</text>
</a>
</g>
</g>
<!-- Node1&#45;&gt;Node15 -->
<g id="edge23_Node000001_Node000015" class="edge">
<title>Node1&#45;&gt;Node15</title>
<g id="a_edge23_Node000001_Node000015"><a xlink:title=" ">
<path fill="none" stroke="#63b8ff" d="M543.63,-219.19C623.77,-211.38 765.84,-195.98 886.25,-174.75 889.3,-174.21 892.42,-173.62 895.56,-173"/>
<polygon fill="#63b8ff" stroke="#63b8ff" points="543.36,-215.8 533.74,-220.24 544.03,-222.77 543.36,-215.8"/>
</a>
</g>
</g>
<!-- Node2&#45;&gt;Node3 -->
<g id="edge2_Node000002_Node000003" class="edge">
<title>Node2&#45;&gt;Node3</title>
<g id="a_edge2_Node000002_Node000003"><a xlink:title=" ">
<path fill="none" stroke="#63b8ff" d="M111.29,-68.57C113.64,-67.87 115.97,-67.18 118.25,-66.5 158.96,-54.42 205.16,-40.94 239.42,-30.98"/>
<polygon fill="#63b8ff" stroke="#63b8ff" points="110.47,-65.46 101.9,-71.68 112.48,-72.17 110.47,-65.46"/>
</a>
</g>
</g>
<!-- Node4&#45;&gt;Node3 -->
<g id="edge4_Node000004_Node000003" class="edge">
<title>Node4&#45;&gt;Node3</title>
<g id="a_edge4_Node000004_Node000003"><a xlink:title=" ">
<path fill="none" stroke="#63b8ff" d="M205.88,-135.33C190.86,-116.09 175.66,-88.44 189.25,-66.5 200.08,-49.02 219.02,-37.42 237.59,-29.83"/>
<polygon fill="#63b8ff" stroke="#63b8ff" points="203.81,-137.31 212.89,-142.77 209.2,-132.84 203.81,-137.31"/>
</a>
</g>
</g>
<!-- Node5&#45;&gt;Node3 -->
<g id="edge6_Node000005_Node000003" class="edge">
<title>Node5&#45;&gt;Node3</title>
<g id="a_edge6_Node000005_Node000003"><a xlink:title=" ">
<path fill="none" stroke="#63b8ff" d="M263.95,-62.37C269.94,-51.86 276.77,-39.88 281.97,-30.76"/>
<polygon fill="#63b8ff" stroke="#63b8ff" points="260.45,-60.42 258.54,-70.85 266.53,-63.89 260.45,-60.42"/>
</a>
</g>
</g>
<!-- Node6&#45;&gt;Node3 -->
<g id="edge11_Node000006_Node000003" class="edge">
<title>Node6&#45;&gt;Node3</title>
<g id="a_edge11_Node000006_Node000003"><a xlink:title=" ">
<path fill="none" stroke="#63b8ff" d="M385.14,-137.84C373,-129.54 359.75,-119.32 349.25,-108.25 326.39,-84.16 307.22,-50.02 297.37,-30.82"/>
<polygon fill="#63b8ff" stroke="#63b8ff" points="382.86,-141.2 393.14,-143.79 386.72,-135.36 382.86,-141.2"/>
</a>
</g>
</g>
<!-- Node7 -->
<g id="Node000007" class="node">
<title>Node7</title>
<g id="a_Node000007"><a xlink:href="../../da/d43/debug__with__source__location_8hpp.html" target="_top" xlink:title="This file provides utility functions for debugging and assertion handling.">
<polygon fill="white" stroke="#666666" points="480.12,-108.25 358.38,-108.25 358.38,-66.5 480.12,-66.5 480.12,-108.25"/>
<text text-anchor="start" x="366.38" y="-94.75" font-family="Times,serif" font-size="10.00">mal&#45;toolkit/mal&#45;toolkit</text>
<text text-anchor="start" x="366.38" y="-83.5" font-family="Times,serif" font-size="10.00">/detail/debug_with_source</text>
<text text-anchor="middle" x="419.25" y="-72.25" font-family="Times,serif" font-size="10.00">_location.hpp</text>
</a>
</g>
</g>
<!-- Node6&#45;&gt;Node7 -->
<g id="edge8_Node000006_Node000007" class="edge">
<title>Node6&#45;&gt;Node7</title>
<g id="a_edge8_Node000006_Node000007"><a xlink:title=" ">
<path fill="none" stroke="#63b8ff" d="M412.74,-133.28C412.34,-125.22 412.44,-116.4 413.06,-108.74"/>
<polygon fill="#63b8ff" stroke="#63b8ff" points="409.32,-133.31 413.66,-142.97 416.29,-132.71 409.32,-133.31"/>
</a>
</g>
</g>
<!-- Node8 -->
<g id="Node000008" class="node">
<title>Node8</title>
<g id="a_Node000008"><a xlink:href="../../d3/d4b/debug__without__source__location_8hpp.html" target="_top" xlink:title="Provides utility functions for debugging and assertion handling without source location information.">
<polygon fill="white" stroke="#666666" points="602.5,-108.25 498,-108.25 498,-66.5 602.5,-66.5 602.5,-108.25"/>
<text text-anchor="start" x="506" y="-94.75" font-family="Times,serif" font-size="10.00">mal&#45;toolkit/mal&#45;toolkit</text>
<text text-anchor="start" x="506" y="-83.5" font-family="Times,serif" font-size="10.00">/detail/debug_without</text>
<text text-anchor="middle" x="550.25" y="-72.25" font-family="Times,serif" font-size="10.00">_source_location.hpp</text>
</a>
</g>
</g>
<!-- Node6&#45;&gt;Node8 -->
<g id="edge10_Node000006_Node000008" class="edge">
<title>Node6&#45;&gt;Node8</title>
<g id="a_edge10_Node000006_Node000008"><a xlink:title=" ">
<path fill="none" stroke="#63b8ff" d="M456.08,-138.78C473.66,-129.37 494.68,-118.12 512.39,-108.64"/>
<polygon fill="#63b8ff" stroke="#63b8ff" points="454.88,-135.99 447.71,-143.8 458.18,-142.17 454.88,-135.99"/>
</a>
</g>
</g>
<!-- Node9 -->
<g id="Node000009" class="node">
<title>Node9</title>
<g id="a_Node000009"><a xlink:href="../../d0/db4/measurer_8hpp.html" target="_top" xlink:title="Implements performance measurement and profiling utilities.">
<polygon fill="white" stroke="#666666" points="725.5,-102.62 621,-102.62 621,-72.12 725.5,-72.12 725.5,-102.62"/>
<text text-anchor="start" x="629" y="-89.12" font-family="Times,serif" font-size="10.00">mal&#45;toolkit/mal&#45;toolkit</text>
<text text-anchor="middle" x="673.25" y="-77.88" font-family="Times,serif" font-size="10.00">/measurer.hpp</text>
</a>
</g>
</g>
<!-- Node6&#45;&gt;Node9 -->
<g id="edge12_Node000006_Node000009" class="edge">
<title>Node6&#45;&gt;Node9</title>
<g id="a_edge12_Node000006_Node000009"><a xlink:title=" ">
<path fill="none" stroke="#63b8ff" d="M481.92,-143.01C519.55,-133.48 568.31,-120.74 611.25,-108.25 616.79,-106.64 622.58,-104.88 628.3,-103.1"/>
<polygon fill="#63b8ff" stroke="#63b8ff" points="481.45,-139.77 472.61,-145.61 483.17,-146.56 481.45,-139.77"/>
</a>
</g>
</g>
<!-- Node7&#45;&gt;Node6 -->
<g id="edge9_Node000007_Node000006" class="edge">
<title>Node7&#45;&gt;Node6</title>
<g id="a_edge9_Node000007_Node000006"><a xlink:title=" ">
<path fill="none" stroke="#63b8ff" d="M425.96,-119.57C426.13,-128.07 425.75,-136.88 424.84,-143.97"/>
<polygon fill="#63b8ff" stroke="#63b8ff" points="429.42,-119.56 425.44,-109.74 422.43,-119.89 429.42,-119.56"/>
</a>
</g>
</g>
<!-- Node9&#45;&gt;Node3 -->
<g id="edge13_Node000009_Node000003" class="edge">
<title>Node9&#45;&gt;Node3</title>
<g id="a_edge13_Node000009_Node000003"><a xlink:title=" ">
<path fill="none" stroke="#63b8ff" d="M619.91,-68.7C616.99,-67.91 614.09,-67.17 611.25,-66.5 517.94,-44.38 407,-29.48 343,-21.96"/>
<polygon fill="#63b8ff" stroke="#63b8ff" points="618.89,-72.33 629.47,-71.71 620.81,-65.6 618.89,-72.33"/>
</a>
</g>
</g>
<!-- Node11 -->
<g id="Node000011" class="node">
<title>Node11</title>
<g id="a_Node000011"><a xlink:href="../../d7/db4/uuid_8hpp.html" target="_top" xlink:title="Defines utilities for working with Universally Unique Identifiers (UUIDs).">
<polygon fill="white" stroke="#666666" points="848.5,-102.62 744,-102.62 744,-72.12 848.5,-72.12 848.5,-102.62"/>
<text text-anchor="start" x="752" y="-89.12" font-family="Times,serif" font-size="10.00">mal&#45;toolkit/mal&#45;toolkit</text>
<text text-anchor="middle" x="796.25" y="-77.88" font-family="Times,serif" font-size="10.00">/uuid.hpp</text>
</a>
</g>
</g>
<!-- Node10&#45;&gt;Node11 -->
<g id="edge15_Node000010_Node000011" class="edge">
<title>Node10&#45;&gt;Node11</title>
<g id="a_edge15_Node000010_Node000011"><a xlink:title=" ">
<path fill="none" stroke="#63b8ff" d="M605.32,-142.91C642.9,-133.4 691.46,-120.7 734.25,-108.25 739.79,-106.64 745.58,-104.88 751.3,-103.1"/>
<polygon fill="#63b8ff" stroke="#63b8ff" points="604.86,-139.67 596.02,-145.51 606.58,-146.46 604.86,-139.67"/>
</a>
</g>
</g>
<!-- Node12&#45;&gt;Node13 -->
<g id="edge17_Node000012_Node000013" class="edge">
<title>Node12&#45;&gt;Node13</title>
<g id="a_edge17_Node000012_Node000013"><a xlink:title=" ">
<path fill="none" stroke="#63b8ff" d="M727.92,-143.01C765.55,-133.48 814.31,-120.74 857.25,-108.25 862.79,-106.64 868.58,-104.88 874.3,-103.1"/>
<polygon fill="#63b8ff" stroke="#63b8ff" points="727.45,-139.77 718.61,-145.61 729.17,-146.56 727.45,-139.77"/>
</a>
</g>
</g>
<!-- Node13&#45;&gt;Node3 -->
<g id="edge18_Node000013_Node000003" class="edge">
<title>Node13&#45;&gt;Node3</title>
<g id="a_edge18_Node000013_Node000003"><a xlink:title=" ">
<path fill="none" stroke="#63b8ff" d="M867.55,-68.87C864.08,-67.98 860.63,-67.18 857.25,-66.5 670.54,-28.79 443.55,-19.38 342.79,-17.03"/>
<polygon fill="#63b8ff" stroke="#63b8ff" points="866.33,-72.44 876.9,-71.72 868.19,-65.69 866.33,-72.44"/>
</a>
</g>
</g>
<!-- Node14&#45;&gt;Node3 -->
<g id="edge22_Node000014_Node000003" class="edge">
<title>Node14&#45;&gt;Node3</title>
<g id="a_edge22_Node000014_Node000003"><a xlink:title=" ">
<path fill="none" stroke="#63b8ff" d="M888.05,-141.9C928.43,-130.59 974.42,-116.27 980.25,-108.25 991.16,-93.24 992.89,-80.09 980.25,-66.5 937.13,-20.13 496.86,-16.06 342.99,-16.06"/>
<polygon fill="#63b8ff" stroke="#63b8ff" points="887.36,-138.74 878.66,-144.78 889.23,-145.48 887.36,-138.74"/>
</a>
</g>
</g>
</g>
</svg>
