<?xml version="1.0" encoding="UTF-8" standalone="no"?>
<!DOCTYPE svg PUBLIC "-//W3C//DTD SVG 1.1//EN"
 "http://www.w3.org/Graphics/SVG/1.1/DTD/svg11.dtd">
<!-- Generated by graphviz version 7.0.5 (20221223.1930)
 -->
<!-- Title: mal&#45;toolkit/mal&#45;toolkit/library&#45;pch.hpp Pages: 1 -->
<svg width="1052pt" height="247pt"
 viewBox="0.00 0.00 1052.00 247.00" xmlns="http://www.w3.org/2000/svg" xmlns:xlink="http://www.w3.org/1999/xlink">
<g id="graph0" class="graph" transform="scale(1 1) rotate(0) translate(4 243)">
<title>mal&#45;toolkit/mal&#45;toolkit/library&#45;pch.hpp</title>
<!-- Node1 -->
<g id="node1" class="node">
<title>Node1</title>
<g id="a_node1"><a xlink:title="Precompiled header (PCH) file for common headers used across the library.">
<polygon fill="#999999" stroke="#666666" points="555,-239 445,-239 445,-209 555,-209 555,-239"/>
<text text-anchor="start" x="453" y="-227" font-family="Helvetica,sans-Serif" font-size="10.00">mal&#45;toolkit/mal&#45;toolkit</text>
<text text-anchor="middle" x="500" y="-216" font-family="Helvetica,sans-Serif" font-size="10.00">/library&#45;pch.hpp</text>
</a>
</g>
</g>
<!-- Node2 -->
<g id="node2" class="node">
<title>Node2</title>
<g id="a_node2"><a xlink:href="../../da/df5/byte-helper_8hpp.html" target="_top" xlink:title=" ">
<polygon fill="white" stroke="#666666" points="110,-101.5 0,-101.5 0,-71.5 110,-71.5 110,-101.5"/>
<text text-anchor="start" x="8" y="-89.5" font-family="Helvetica,sans-Serif" font-size="10.00">mal&#45;toolkit/mal&#45;toolkit</text>
<text text-anchor="middle" x="55" y="-78.5" font-family="Helvetica,sans-Serif" font-size="10.00">/byte&#45;helper.hpp</text>
</a>
</g>
</g>
<!-- Node1&#45;&gt;Node2 -->
<g id="edge1" class="edge">
<title>Node1&#45;&gt;Node2</title>
<path fill="none" stroke="#63b8ff" d="M433.54,-220.05C340.11,-214.92 175.6,-202 124,-173 94.4,-156.37 72.6,-121.53 62.07,-101.84"/>
<polygon fill="#63b8ff" stroke="#63b8ff" points="433.16,-223.54 443.33,-220.57 433.53,-216.55 433.16,-223.54"/>
</g>
<!-- Node3 -->
<g id="node3" class="node">
<title>Node3</title>
<g id="a_node3"><a xlink:href="../../d1/d8a/mal-toolkit_8hpp.html" target="_top" xlink:title="Main header file for the MAL Toolkit library, providing a comprehensive set of tools and utilities.">
<polygon fill="white" stroke="#666666" points="355,-30 245,-30 245,0 355,0 355,-30"/>
<text text-anchor="start" x="253" y="-18" font-family="Helvetica,sans-Serif" font-size="10.00">mal&#45;toolkit/mal&#45;toolkit</text>
<text text-anchor="middle" x="300" y="-7" font-family="Helvetica,sans-Serif" font-size="10.00">/mal&#45;toolkit.hpp</text>
</a>
</g>
</g>
<!-- Node1&#45;&gt;Node3 -->
<g id="edge20" class="edge">
<title>Node1&#45;&gt;Node3</title>
<path fill="none" stroke="#63b8ff" d="M433.25,-222.87C345.86,-221.12 199.78,-212.22 166,-173 147.11,-151.07 163.59,-91.35 185,-66 200.24,-47.95 223.22,-36.22 244.64,-28.7"/>
<polygon fill="#63b8ff" stroke="#63b8ff" points="433.08,-226.37 443.14,-223.04 433.2,-219.37 433.08,-226.37"/>
</g>
<!-- Node4 -->
<g id="node4" class="node">
<title>Node4</title>
<g id="a_node4"><a xlink:href="../../d4/d80/common-structures_8hpp.html" target="_top" xlink:title="Defines common data structures and types that can be used anywhere.">
<polygon fill="white" stroke="#666666" points="297,-173 175,-173 175,-143 297,-143 297,-173"/>
<text text-anchor="start" x="183" y="-161" font-family="Helvetica,sans-Serif" font-size="10.00">mal&#45;toolkit/mal&#45;toolkit</text>
<text text-anchor="middle" x="236" y="-150" font-family="Helvetica,sans-Serif" font-size="10.00">/common&#45;structures.hpp</text>
</a>
</g>
</g>
<!-- Node1&#45;&gt;Node4 -->
<g id="edge3" class="edge">
<title>Node1&#45;&gt;Node4</title>
<path fill="none" stroke="#63b8ff" d="M433.58,-206.9C391.09,-196.6 336.45,-183.35 295.4,-173.4"/>
<polygon fill="#63b8ff" stroke="#63b8ff" points="432.64,-210.27 443.19,-209.23 434.29,-203.47 432.64,-210.27"/>
</g>
<!-- Node5 -->
<g id="node5" class="node">
<title>Node5</title>
<g id="a_node5"><a xlink:href="../../d1/d27/converter_8hpp.html" target="_top" xlink:title="Provides functions for converting between different data types.">
<polygon fill="white" stroke="#666666" points="314,-101.5 204,-101.5 204,-71.5 314,-71.5 314,-101.5"/>
<text text-anchor="start" x="212" y="-89.5" font-family="Helvetica,sans-Serif" font-size="10.00">mal&#45;toolkit/mal&#45;toolkit</text>
<text text-anchor="middle" x="259" y="-78.5" font-family="Helvetica,sans-Serif" font-size="10.00">/converter.hpp</text>
</a>
</g>
</g>
<!-- Node1&#45;&gt;Node5 -->
<g id="edge5" class="edge">
<title>Node1&#45;&gt;Node5</title>
<path fill="none" stroke="#63b8ff" d="M442.86,-204.79C419.87,-196.46 393.52,-185.62 371,-173 333.87,-152.19 295.47,-120.17 274.68,-101.79"/>
<polygon fill="#63b8ff" stroke="#63b8ff" points="441.48,-208.01 452.08,-208.04 443.82,-201.41 441.48,-208.01"/>
</g>
<!-- Node6 -->
<g id="node6" class="node">
<title>Node6</title>
<g id="a_node6"><a xlink:href="../../da/d7b/debug_8hpp.html" target="_top" xlink:title="Contains debugging&#45;related macros and utilities for assisting with debugging tasks.">
<polygon fill="white" stroke="#666666" points="490,-173 380,-173 380,-143 490,-143 490,-173"/>
<text text-anchor="start" x="388" y="-161" font-family="Helvetica,sans-Serif" font-size="10.00">mal&#45;toolkit/mal&#45;toolkit</text>
<text text-anchor="middle" x="435" y="-150" font-family="Helvetica,sans-Serif" font-size="10.00">/debug.hpp</text>
</a>
</g>
</g>
<!-- Node1&#45;&gt;Node6 -->
<g id="edge7" class="edge">
<title>Node1&#45;&gt;Node6</title>
<path fill="none" stroke="#63b8ff" d="M477.46,-200.81C468.15,-191.64 457.62,-181.28 449.39,-173.16"/>
<polygon fill="#63b8ff" stroke="#63b8ff" points="474.91,-203.21 484.5,-207.73 479.83,-198.22 474.91,-203.21"/>
</g>
<!-- Node10 -->
<g id="node10" class="node">
<title>Node10</title>
<g id="a_node10"><a xlink:href="../../d1/dcf/endianness_8hpp.html" target="_top" xlink:title="Provides functions and utilities for handling endianness conversions.">
<polygon fill="white" stroke="#666666" points="621.5,-173 508.5,-173 508.5,-143 621.5,-143 621.5,-173"/>
<text text-anchor="start" x="516.5" y="-161" font-family="Helvetica,sans-Serif" font-size="10.00">mal&#45;toolkit/mal&#45;toolkit</text>
<text text-anchor="middle" x="565" y="-150" font-family="Helvetica,sans-Serif" font-size="10.00">/detail/endianness.hpp</text>
</a>
</g>
</g>
<!-- Node1&#45;&gt;Node10 -->
<g id="edge14" class="edge">
<title>Node1&#45;&gt;Node10</title>
<path fill="none" stroke="#63b8ff" d="M522.54,-200.81C531.85,-191.64 542.38,-181.28 550.61,-173.16"/>
<polygon fill="#63b8ff" stroke="#63b8ff" points="520.17,-198.22 515.5,-207.73 525.09,-203.21 520.17,-198.22"/>
</g>
<!-- Node12 -->
<g id="node12" class="node">
<title>Node12</title>
<g id="a_node12"><a xlink:href="../../dc/d94/event_8hpp.html" target="_top" xlink:title="Defines event handling and notification mechanisms.">
<polygon fill="white" stroke="#666666" points="750,-173 640,-173 640,-143 750,-143 750,-173"/>
<text text-anchor="start" x="648" y="-161" font-family="Helvetica,sans-Serif" font-size="10.00">mal&#45;toolkit/mal&#45;toolkit</text>
<text text-anchor="middle" x="695" y="-150" font-family="Helvetica,sans-Serif" font-size="10.00">/event.hpp</text>
</a>
</g>
</g>
<!-- Node1&#45;&gt;Node12 -->
<g id="edge16" class="edge">
<title>Node1&#45;&gt;Node12</title>
<path fill="none" stroke="#63b8ff" d="M554.64,-205.07C585.09,-195.07 622.51,-182.79 651.05,-173.43"/>
<polygon fill="#63b8ff" stroke="#63b8ff" points="553.61,-201.72 545.2,-208.17 555.79,-208.37 553.61,-201.72"/>
</g>
<!-- Node13 -->
<g id="node13" class="node">
<title>Node13</title>
<g id="a_node13"><a xlink:href="../../dc/dad/file-watcher_8hpp.html" target="_top" xlink:title="Implements a file watcher that monitors changes to specified files or directories.">
<polygon fill="white" stroke="#666666" points="1012,-101.5 902,-101.5 902,-71.5 1012,-71.5 1012,-101.5"/>
<text text-anchor="start" x="910" y="-89.5" font-family="Helvetica,sans-Serif" font-size="10.00">mal&#45;toolkit/mal&#45;toolkit</text>
<text text-anchor="middle" x="957" y="-78.5" font-family="Helvetica,sans-Serif" font-size="10.00">/file&#45;watcher.hpp</text>
</a>
</g>
</g>
<!-- Node1&#45;&gt;Node13 -->
<g id="edge19" class="edge">
<title>Node1&#45;&gt;Node13</title>
<path fill="none" stroke="#63b8ff" d="M566.52,-218.88C620.47,-213.52 697.39,-201.22 759,-173 778.56,-164.04 778.13,-153.34 797,-143 816.73,-132.2 870.02,-114.48 909.72,-101.98"/>
<polygon fill="#63b8ff" stroke="#63b8ff" points="566.51,-215.36 556.88,-219.78 567.16,-222.33 566.51,-215.36"/>
</g>
<!-- Node14 -->
<g id="node14" class="node">
<title>Node14</title>
<g id="a_node14"><a xlink:href="../../dd/db7/stl-helpers_8hpp.html" target="_top" xlink:title="Provides helper functions and extensions for the C++ Standard Library.">
<polygon fill="white" stroke="#666666" points="916,-173 806,-173 806,-143 916,-143 916,-173"/>
<text text-anchor="start" x="814" y="-161" font-family="Helvetica,sans-Serif" font-size="10.00">mal&#45;toolkit/mal&#45;toolkit</text>
<text text-anchor="middle" x="861" y="-150" font-family="Helvetica,sans-Serif" font-size="10.00">/stl&#45;helpers.hpp</text>
</a>
</g>
</g>
<!-- Node1&#45;&gt;Node14 -->
<g id="edge21" class="edge">
<title>Node1&#45;&gt;Node14</title>
<path fill="none" stroke="#63b8ff" d="M566.33,-212.24C625.58,-202.48 714.7,-187.46 792,-173 796.45,-172.17 801.05,-171.29 805.67,-170.38"/>
<polygon fill="#63b8ff" stroke="#63b8ff" points="566.05,-208.74 556.75,-213.81 567.18,-215.64 566.05,-208.74"/>
</g>
<!-- Node15 -->
<g id="node15" class="node">
<title>Node15</title>
<g id="a_node15"><a xlink:href="../../d0/d8a/win-utils_8hpp.html" target="_top" xlink:title="Provides various Windows&#45;specific utility functions and macros.">
<polygon fill="white" stroke="#666666" points="1044,-173 934,-173 934,-143 1044,-143 1044,-173"/>
<text text-anchor="start" x="942" y="-161" font-family="Helvetica,sans-Serif" font-size="10.00">mal&#45;toolkit/mal&#45;toolkit</text>
<text text-anchor="middle" x="989" y="-150" font-family="Helvetica,sans-Serif" font-size="10.00">/win&#45;utils.hpp</text>
</a>
</g>
</g>
<!-- Node1&#45;&gt;Node15 -->
<g id="edge23" class="edge">
<title>Node1&#45;&gt;Node15</title>
<path fill="none" stroke="#63b8ff" d="M566.67,-217.2C650.59,-209.43 799.04,-194.13 925,-173 927.8,-172.53 930.67,-172.02 933.56,-171.48"/>
<polygon fill="#63b8ff" stroke="#63b8ff" points="566.41,-213.71 556.77,-218.11 567.05,-220.68 566.41,-213.71"/>
</g>
<!-- Node2&#45;&gt;Node3 -->
<g id="edge2" class="edge">
<title>Node2&#45;&gt;Node3</title>
<path fill="none" stroke="#63b8ff" d="M116.97,-67.92C157.8,-56.34 210.61,-41.36 249,-30.47"/>
<polygon fill="#63b8ff" stroke="#63b8ff" points="116.18,-64.51 107.52,-70.6 118.09,-71.24 116.18,-64.51"/>
</g>
<!-- Node4&#45;&gt;Node3 -->
<g id="edge4" class="edge">
<title>Node4&#45;&gt;Node3</title>
<path fill="none" stroke="#63b8ff" d="M211.89,-134.32C205.09,-126.41 198.57,-116.98 195,-107 188.86,-89.84 185.27,-81.41 195,-66 206.21,-48.24 225.64,-36.66 244.76,-29.17"/>
<polygon fill="#63b8ff" stroke="#63b8ff" points="209.15,-136.52 218.52,-141.46 214.28,-131.75 209.15,-136.52"/>
</g>
<!-- Node5&#45;&gt;Node3 -->
<g id="edge6" class="edge">
<title>Node5&#45;&gt;Node3</title>
<path fill="none" stroke="#63b8ff" d="M273.23,-61.38C279.32,-51.05 286.24,-39.32 291.52,-30.38"/>
<polygon fill="#63b8ff" stroke="#63b8ff" points="270.33,-59.4 268.26,-69.8 276.36,-62.96 270.33,-59.4"/>
</g>
<!-- Node6&#45;&gt;Node3 -->
<g id="edge11" class="edge">
<title>Node6&#45;&gt;Node3</title>
<path fill="none" stroke="#63b8ff" d="M399,-136.65C386.18,-128.42 372.16,-118.2 361,-107 337.51,-83.42 317.63,-49.55 307.4,-30.48"/>
<polygon fill="#63b8ff" stroke="#63b8ff" points="396.88,-139.45 407.22,-141.75 400.56,-133.5 396.88,-139.45"/>
</g>
<!-- Node7 -->
<g id="node7" class="node">
<title>Node7</title>
<g id="a_node7"><a xlink:href="../../da/d43/debug__with__source__location_8hpp.html" target="_top" xlink:title="This file provides utility functions for debugging and assertion handling.">
<polygon fill="white" stroke="#666666" points="500,-107 370,-107 370,-66 500,-66 500,-107"/>
<text text-anchor="start" x="378" y="-95" font-family="Helvetica,sans-Serif" font-size="10.00">mal&#45;toolkit/mal&#45;toolkit</text>
<text text-anchor="start" x="378" y="-84" font-family="Helvetica,sans-Serif" font-size="10.00">/detail/debug_with_source</text>
<text text-anchor="middle" x="435" y="-73" font-family="Helvetica,sans-Serif" font-size="10.00">_location.hpp</text>
</a>
</g>
</g>
<!-- Node6&#45;&gt;Node7 -->
<g id="edge8" class="edge">
<title>Node6&#45;&gt;Node7</title>
<path fill="none" stroke="#63b8ff" d="M428.46,-131.36C428.09,-123.45 428.21,-114.87 428.83,-107.42"/>
<polygon fill="#63b8ff" stroke="#63b8ff" points="424.95,-131.42 429.28,-141.09 431.93,-130.83 424.95,-131.42"/>
</g>
<!-- Node8 -->
<g id="node8" class="node">
<title>Node8</title>
<g id="a_node8"><a xlink:href="../../d3/d4b/debug__without__source__location_8hpp.html" target="_top" xlink:title="Provides utility functions for debugging and assertion handling without source location information.">
<polygon fill="white" stroke="#666666" points="628,-107 518,-107 518,-66 628,-66 628,-107"/>
<text text-anchor="start" x="526" y="-95" font-family="Helvetica,sans-Serif" font-size="10.00">mal&#45;toolkit/mal&#45;toolkit</text>
<text text-anchor="start" x="526" y="-84" font-family="Helvetica,sans-Serif" font-size="10.00">/detail/debug_without</text>
<text text-anchor="middle" x="573" y="-73" font-family="Helvetica,sans-Serif" font-size="10.00">_source_location.hpp</text>
</a>
</g>
</g>
<!-- Node6&#45;&gt;Node8 -->
<g id="edge10" class="edge">
<title>Node6&#45;&gt;Node8</title>
<path fill="none" stroke="#63b8ff" d="M473.8,-137.46C492.44,-128.07 514.73,-116.85 533.45,-107.42"/>
<polygon fill="#63b8ff" stroke="#63b8ff" points="472.3,-134.29 464.95,-141.92 475.45,-140.55 472.3,-134.29"/>
</g>
<!-- Node9 -->
<g id="node9" class="node">
<title>Node9</title>
<g id="a_node9"><a xlink:href="../../d0/db4/measurer_8hpp.html" target="_top" xlink:title="Implements performance measurement and profiling utilities.">
<polygon fill="white" stroke="#666666" points="756,-101.5 646,-101.5 646,-71.5 756,-71.5 756,-101.5"/>
<text text-anchor="start" x="654" y="-89.5" font-family="Helvetica,sans-Serif" font-size="10.00">mal&#45;toolkit/mal&#45;toolkit</text>
<text text-anchor="middle" x="701" y="-78.5" font-family="Helvetica,sans-Serif" font-size="10.00">/measurer.hpp</text>
</a>
</g>
</g>
<!-- Node6&#45;&gt;Node9 -->
<g id="edge12" class="edge">
<title>Node6&#45;&gt;Node9</title>
<path fill="none" stroke="#63b8ff" d="M501.17,-141.56C540.72,-132.1 591.89,-119.44 637,-107 642.71,-105.42 648.69,-103.7 654.59,-101.96"/>
<polygon fill="#63b8ff" stroke="#63b8ff" points="500.46,-138.13 491.55,-143.85 502.09,-144.94 500.46,-138.13"/>
</g>
<!-- Node7&#45;&gt;Node6 -->
<g id="edge9" class="edge">
<title>Node7&#45;&gt;Node6</title>
<path fill="none" stroke="#63b8ff" d="M441.72,-118.79C441.86,-127.1 441.49,-135.68 440.59,-142.6"/>
<polygon fill="#63b8ff" stroke="#63b8ff" points="445.22,-118.75 441.24,-108.93 438.23,-119.08 445.22,-118.75"/>
</g>
<!-- Node9&#45;&gt;Node3 -->
<g id="edge13" class="edge">
<title>Node9&#45;&gt;Node3</title>
<path fill="none" stroke="#63b8ff" d="M645.46,-68.04C642.61,-67.31 639.78,-66.63 637,-66 538.91,-43.91 422.48,-29.11 355.33,-21.66"/>
<polygon fill="#63b8ff" stroke="#63b8ff" points="644.44,-71.39 655.01,-70.61 646.26,-64.63 644.44,-71.39"/>
</g>
<!-- Node11 -->
<g id="node11" class="node">
<title>Node11</title>
<g id="a_node11"><a xlink:href="../../d7/db4/uuid_8hpp.html" target="_top" xlink:title="Defines utilities for working with Universally Unique Identifiers (UUIDs).">
<polygon fill="white" stroke="#666666" points="884,-101.5 774,-101.5 774,-71.5 884,-71.5 884,-101.5"/>
<text text-anchor="start" x="782" y="-89.5" font-family="Helvetica,sans-Serif" font-size="10.00">mal&#45;toolkit/mal&#45;toolkit</text>
<text text-anchor="middle" x="829" y="-78.5" font-family="Helvetica,sans-Serif" font-size="10.00">/uuid.hpp</text>
</a>
</g>
</g>
<!-- Node10&#45;&gt;Node11 -->
<g id="edge15" class="edge">
<title>Node10&#45;&gt;Node11</title>
<path fill="none" stroke="#63b8ff" d="M632.83,-140.95C671.66,-131.53 721.21,-119.14 765,-107 770.71,-105.42 776.68,-103.69 782.59,-101.94"/>
<polygon fill="#63b8ff" stroke="#63b8ff" points="632.04,-137.54 623.14,-143.29 633.68,-144.34 632.04,-137.54"/>
</g>
<!-- Node12&#45;&gt;Node13 -->
<g id="edge17" class="edge">
<title>Node12&#45;&gt;Node13</title>
<path fill="none" stroke="#63b8ff" d="M761.32,-141.1C799.88,-131.65 849.32,-119.16 893,-107 898.71,-105.41 904.68,-103.68 910.59,-101.93"/>
<polygon fill="#63b8ff" stroke="#63b8ff" points="760.59,-137.68 751.71,-143.45 762.25,-144.48 760.59,-137.68"/>
</g>
<!-- Node13&#45;&gt;Node3 -->
<g id="edge18" class="edge">
<title>Node13&#45;&gt;Node3</title>
<path fill="none" stroke="#63b8ff" d="M903.1,-68.2C899.7,-67.38 896.32,-66.64 893,-66 697.69,-28.45 460.81,-19.1 355.31,-16.77"/>
<polygon fill="#63b8ff" stroke="#63b8ff" points="901.91,-71.51 912.47,-70.64 903.68,-64.73 901.91,-71.51"/>
</g>
<!-- Node14&#45;&gt;Node3 -->
<g id="edge22" class="edge">
<title>Node14&#45;&gt;Node3</title>
<path fill="none" stroke="#63b8ff" d="M927.3,-140.23C968.61,-129.11 1015.03,-115.13 1021,-107 1031.79,-92.32 1033.43,-79.32 1021,-66 975.9,-17.66 516.41,-15.03 355.39,-15.6"/>
<polygon fill="#63b8ff" stroke="#63b8ff" points="926.61,-136.79 917.85,-142.74 928.41,-143.55 926.61,-136.79"/>
</g>
</g>
</svg>
