<?xml version="1.0" encoding="UTF-8" standalone="no"?>
<!DOCTYPE svg PUBLIC "-//W3C//DTD SVG 1.1//EN"
 "http://www.w3.org/Graphics/SVG/1.1/DTD/svg11.dtd">
<!-- Generated by graphviz version 7.0.5 (20221223.1930)
 -->
<!-- Title: mal&#45;toolkit/library&#45;pch.hpp Pages: 1 -->
<svg width="1137pt" height="236pt"
 viewBox="0.00 0.00 1137.04 236.00" xmlns="http://www.w3.org/2000/svg" xmlns:xlink="http://www.w3.org/1999/xlink">
<g id="graph0" class="graph" transform="scale(1 1) rotate(0) translate(4 232)">
<title>mal&#45;toolkit/library&#45;pch.hpp</title>
<!-- Node1 -->
<g id="node1" class="node">
<title>Node1</title>
<g id="a_node1"><a xlink:title="Precompiled header (PCH) file for common headers used across the library.">
<polygon fill="#999999" stroke="#666666" points="588,-228 498,-228 498,-198 588,-198 588,-228"/>
<text text-anchor="start" x="506" y="-216" font-family="Helvetica,sans-Serif" font-size="10.00">mal&#45;toolkit/library</text>
<text text-anchor="middle" x="543" y="-205" font-family="Helvetica,sans-Serif" font-size="10.00">&#45;pch.hpp</text>
</a>
</g>
</g>
<!-- Node2 -->
<g id="node2" class="node">
<title>Node2</title>
<g id="a_node2"><a xlink:href="../../da/df5/byte-helper_8hpp.html" target="_top" xlink:title=" ">
<polygon fill="white" stroke="#666666" points="130,-156.5 0,-156.5 0,-137.5 130,-137.5 130,-156.5"/>
<text text-anchor="middle" x="65" y="-144.5" font-family="Helvetica,sans-Serif" font-size="10.00">mal&#45;toolkit/byte&#45;helper.hpp</text>
</a>
</g>
</g>
<!-- Node1&#45;&gt;Node2 -->
<g id="edge1" class="edge">
<title>Node1&#45;&gt;Node2</title>
<path fill="none" stroke="#63b8ff" d="M486.32,-205.81C408.85,-197.15 265.63,-180.39 144,-162 134.08,-160.5 123.5,-158.74 113.4,-156.98"/>
<polygon fill="#63b8ff" stroke="#63b8ff" points="485.89,-209.29 496.22,-206.92 486.66,-202.33 485.89,-209.29"/>
</g>
<!-- Node3 -->
<g id="node3" class="node">
<title>Node3</title>
<g id="a_node3"><a xlink:href="../../d4/d80/common-structures_8hpp.html" target="_top" xlink:title="Defines common data structures and types that can be used anywhere.">
<polygon fill="white" stroke="#666666" points="168,-90.5 66,-90.5 66,-60.5 168,-60.5 168,-90.5"/>
<text text-anchor="start" x="74" y="-78.5" font-family="Helvetica,sans-Serif" font-size="10.00">mal&#45;toolkit/common</text>
<text text-anchor="middle" x="117" y="-67.5" font-family="Helvetica,sans-Serif" font-size="10.00">&#45;structures.hpp</text>
</a>
</g>
</g>
<!-- Node1&#45;&gt;Node3 -->
<g id="edge2" class="edge">
<title>Node1&#45;&gt;Node3</title>
<path fill="none" stroke="#63b8ff" d="M486.34,-209.39C398.02,-204.46 232.44,-191.5 182,-162 153.35,-145.24 133.12,-110.45 123.45,-90.81"/>
<polygon fill="#63b8ff" stroke="#63b8ff" points="486.06,-212.88 496.24,-209.92 486.44,-205.89 486.06,-212.88"/>
</g>
<!-- Node4 -->
<g id="node4" class="node">
<title>Node4</title>
<g id="a_node4"><a xlink:href="../../d1/d08/mal__toolkit_8hpp.html" target="_top" xlink:title="Master header file for the MAL Toolkit library, providing a comprehensive set of tools and utilities.">
<polygon fill="white" stroke="#666666" points="441,-19 311,-19 311,0 441,0 441,-19"/>
<text text-anchor="middle" x="376" y="-7" font-family="Helvetica,sans-Serif" font-size="10.00">mal&#45;toolkit/mal_toolkit.hpp</text>
</a>
</g>
</g>
<!-- Node1&#45;&gt;Node4 -->
<g id="edge19" class="edge">
<title>Node1&#45;&gt;Node4</title>
<path fill="none" stroke="#63b8ff" d="M486.18,-211.24C409.02,-206.73 273.96,-185.64 215,-96 204.99,-80.78 203.96,-69.5 215,-55 227.43,-38.67 275.3,-26.8 315.65,-19.44"/>
<polygon fill="#63b8ff" stroke="#63b8ff" points="485.91,-214.74 496.08,-211.74 486.26,-207.74 485.91,-214.74"/>
</g>
<!-- Node5 -->
<g id="node5" class="node">
<title>Node5</title>
<g id="a_node5"><a xlink:href="../../d1/d27/converter_8hpp.html" target="_top" xlink:title="Provides functions for converting between different data types.">
<polygon fill="white" stroke="#666666" points="347.5,-85 224.5,-85 224.5,-66 347.5,-66 347.5,-85"/>
<text text-anchor="middle" x="286" y="-73" font-family="Helvetica,sans-Serif" font-size="10.00">mal&#45;toolkit/converter.hpp</text>
</a>
</g>
</g>
<!-- Node1&#45;&gt;Node5 -->
<g id="edge4" class="edge">
<title>Node1&#45;&gt;Node5</title>
<path fill="none" stroke="#63b8ff" d="M492.08,-193.44C469.85,-184.75 443.72,-173.74 421,-162 373.67,-137.56 321.4,-101.68 298.22,-85.28"/>
<polygon fill="#63b8ff" stroke="#63b8ff" points="490.64,-196.64 501.23,-196.97 493.16,-190.11 490.64,-196.64"/>
</g>
<!-- Node6 -->
<g id="node6" class="node">
<title>Node6</title>
<g id="a_node6"><a xlink:href="../../da/d7b/debug_8hpp.html" target="_top" xlink:title="Contains debugging&#45;related macros and utilities for assisting with debugging tasks.">
<polygon fill="white" stroke="#666666" points="539.5,-156.5 430.5,-156.5 430.5,-137.5 539.5,-137.5 539.5,-156.5"/>
<text text-anchor="middle" x="485" y="-144.5" font-family="Helvetica,sans-Serif" font-size="10.00">mal&#45;toolkit/debug.hpp</text>
</a>
</g>
</g>
<!-- Node1&#45;&gt;Node6 -->
<g id="edge6" class="edge">
<title>Node1&#45;&gt;Node6</title>
<path fill="none" stroke="#63b8ff" d="M522.41,-189.28C512.25,-178.07 500.58,-165.19 493.02,-156.84"/>
<polygon fill="#63b8ff" stroke="#63b8ff" points="519.8,-191.62 529.11,-196.67 524.99,-186.91 519.8,-191.62"/>
</g>
<!-- Node10 -->
<g id="node10" class="node">
<title>Node10</title>
<g id="a_node10"><a xlink:href="../../d1/dcf/endianness_8hpp.html" target="_top" xlink:title="Provides functions and utilities for handling endianness conversions.">
<polygon fill="white" stroke="#666666" points="646,-162 558,-162 558,-132 646,-132 646,-162"/>
<text text-anchor="start" x="566" y="-150" font-family="Helvetica,sans-Serif" font-size="10.00">mal&#45;toolkit/detail</text>
<text text-anchor="middle" x="602" y="-139" font-family="Helvetica,sans-Serif" font-size="10.00">/endianness.hpp</text>
</a>
</g>
</g>
<!-- Node1&#45;&gt;Node10 -->
<g id="edge13" class="edge">
<title>Node1&#45;&gt;Node10</title>
<path fill="none" stroke="#63b8ff" d="M563.72,-189.53C572.11,-180.43 581.54,-170.19 588.94,-162.16"/>
<polygon fill="#63b8ff" stroke="#63b8ff" points="561.32,-186.96 557.12,-196.68 566.47,-191.7 561.32,-186.96"/>
</g>
<!-- Node12 -->
<g id="node12" class="node">
<title>Node12</title>
<g id="a_node12"><a xlink:href="../../dc/d94/event_8hpp.html" target="_top" xlink:title="Defines event handling and notification mechanisms.">
<polygon fill="white" stroke="#666666" points="771.5,-156.5 664.5,-156.5 664.5,-137.5 771.5,-137.5 771.5,-156.5"/>
<text text-anchor="middle" x="718" y="-144.5" font-family="Helvetica,sans-Serif" font-size="10.00">mal&#45;toolkit/event.hpp</text>
</a>
</g>
</g>
<!-- Node1&#45;&gt;Node12 -->
<g id="edge15" class="edge">
<title>Node1&#45;&gt;Node12</title>
<path fill="none" stroke="#63b8ff" d="M593.06,-193.69C625.93,-181.67 667.51,-166.47 693.43,-156.99"/>
<polygon fill="#63b8ff" stroke="#63b8ff" points="591.88,-190.4 583.69,-197.12 594.29,-196.97 591.88,-190.4"/>
</g>
<!-- Node13 -->
<g id="node13" class="node">
<title>Node13</title>
<g id="a_node13"><a xlink:href="../../dc/dad/file-watcher_8hpp.html" target="_top" xlink:title="Implements a file watcher that monitors changes to specified files or directories.">
<polygon fill="white" stroke="#666666" points="1111,-85 979,-85 979,-66 1111,-66 1111,-85"/>
<text text-anchor="middle" x="1045" y="-73" font-family="Helvetica,sans-Serif" font-size="10.00">mal&#45;toolkit/file&#45;watcher.hpp</text>
</a>
</g>
</g>
<!-- Node1&#45;&gt;Node13 -->
<g id="edge18" class="edge">
<title>Node1&#45;&gt;Node13</title>
<path fill="none" stroke="#63b8ff" d="M599.54,-207.23C649,-201.41 721.84,-188.8 780,-162 799.86,-152.85 799.26,-141.41 819,-132 881.28,-102.31 903.05,-112.68 970,-96 983.45,-92.65 998.21,-88.84 1011.06,-85.48"/>
<polygon fill="#63b8ff" stroke="#63b8ff" points="599.17,-203.75 589.61,-208.33 599.94,-210.7 599.17,-203.75"/>
</g>
<!-- Node14 -->
<g id="node14" class="node">
<title>Node14</title>
<g id="a_node14"><a xlink:href="../../dd/db7/stl-helpers_8hpp.html" target="_top" xlink:title="Provides helper functions and extensions for the C++ Standard Library.">
<polygon fill="white" stroke="#666666" points="956,-156.5 828,-156.5 828,-137.5 956,-137.5 956,-156.5"/>
<text text-anchor="middle" x="892" y="-144.5" font-family="Helvetica,sans-Serif" font-size="10.00">mal&#45;toolkit/stl&#45;helpers.hpp</text>
</a>
</g>
</g>
<!-- Node1&#45;&gt;Node14 -->
<g id="edge20" class="edge">
<title>Node1&#45;&gt;Node14</title>
<path fill="none" stroke="#63b8ff" d="M599.54,-201.63C667.14,-189.23 779.16,-168.69 843.16,-156.96"/>
<polygon fill="#63b8ff" stroke="#63b8ff" points="598.96,-198.18 589.76,-203.43 600.22,-205.06 598.96,-198.18"/>
</g>
<!-- Node15 -->
<g id="node15" class="node">
<title>Node15</title>
<g id="a_node15"><a xlink:href="../../d0/d8a/win-utils_8hpp.html" target="_top" xlink:title="Provides various Windows&#45;specific utility functions and macros.">
<polygon fill="white" stroke="#666666" points="1093.5,-156.5 974.5,-156.5 974.5,-137.5 1093.5,-137.5 1093.5,-156.5"/>
<text text-anchor="middle" x="1034" y="-144.5" font-family="Helvetica,sans-Serif" font-size="10.00">mal&#45;toolkit/win&#45;utils.hpp</text>
</a>
</g>
</g>
<!-- Node1&#45;&gt;Node15 -->
<g id="edge22" class="edge">
<title>Node1&#45;&gt;Node15</title>
<path fill="none" stroke="#63b8ff" d="M599.9,-206.76C681.15,-198.93 834.99,-182.85 965,-162 973.93,-160.57 983.46,-158.79 992.51,-156.99"/>
<polygon fill="#63b8ff" stroke="#63b8ff" points="599.57,-203.27 589.95,-207.71 600.24,-210.24 599.57,-203.27"/>
</g>
<!-- Node3&#45;&gt;Node4 -->
<g id="edge3" class="edge">
<title>Node3&#45;&gt;Node4</title>
<path fill="none" stroke="#63b8ff" d="M174.67,-56.98C177.14,-56.3 179.59,-55.64 182,-55 233.78,-41.31 293.98,-27.88 333.42,-19.42"/>
<polygon fill="#63b8ff" stroke="#63b8ff" points="173.89,-53.57 165.22,-59.66 175.79,-60.3 173.89,-53.57"/>
</g>
<!-- Node5&#45;&gt;Node4 -->
<g id="edge5" class="edge">
<title>Node5&#45;&gt;Node4</title>
<path fill="none" stroke="#63b8ff" d="M307.46,-59.24C324.98,-46.78 349.13,-29.61 363.59,-19.32"/>
<polygon fill="#63b8ff" stroke="#63b8ff" points="305.87,-56.08 299.75,-64.72 309.93,-61.78 305.87,-56.08"/>
</g>
<!-- Node6&#45;&gt;Node4 -->
<g id="edge10" class="edge">
<title>Node6&#45;&gt;Node4</title>
<path fill="none" stroke="#63b8ff" d="M445.42,-132.67C427.49,-124.71 407.54,-112.8 395,-96 377.54,-72.6 375.58,-36.21 375.69,-19.47"/>
<polygon fill="#63b8ff" stroke="#63b8ff" points="443.98,-135.86 454.56,-136.45 446.65,-129.39 443.98,-135.86"/>
</g>
<!-- Node7 -->
<g id="node7" class="node">
<title>Node7</title>
<g id="a_node7"><a xlink:href="../../da/d43/debug__with__source__location_8hpp.html" target="_top" xlink:title="This file provides utility functions for debugging and assertion handling.">
<polygon fill="white" stroke="#666666" points="565.5,-90.5 404.5,-90.5 404.5,-60.5 565.5,-60.5 565.5,-90.5"/>
<text text-anchor="start" x="412.5" y="-78.5" font-family="Helvetica,sans-Serif" font-size="10.00">mal&#45;toolkit/detail</text>
<text text-anchor="middle" x="485" y="-67.5" font-family="Helvetica,sans-Serif" font-size="10.00">/debug_with_source_location.hpp</text>
</a>
</g>
</g>
<!-- Node6&#45;&gt;Node7 -->
<g id="edge7" class="edge">
<title>Node6&#45;&gt;Node7</title>
<path fill="none" stroke="#63b8ff" d="M478.81,-125.89C477.9,-114.65 478.1,-100.91 479.42,-90.77"/>
<polygon fill="#63b8ff" stroke="#63b8ff" points="475.33,-126.25 480.13,-135.7 482.27,-125.32 475.33,-126.25"/>
</g>
<!-- Node8 -->
<g id="node8" class="node">
<title>Node8</title>
<g id="a_node8"><a xlink:href="../../d3/d4b/debug__without__source__location_8hpp.html" target="_top" xlink:title="Provides utility functions for debugging and assertion handling without source location information.">
<polygon fill="white" stroke="#666666" points="700.5,-96 583.5,-96 583.5,-55 700.5,-55 700.5,-96"/>
<text text-anchor="start" x="591.5" y="-84" font-family="Helvetica,sans-Serif" font-size="10.00">mal&#45;toolkit/detail</text>
<text text-anchor="start" x="591.5" y="-73" font-family="Helvetica,sans-Serif" font-size="10.00">/debug_without_source</text>
<text text-anchor="middle" x="642" y="-62" font-family="Helvetica,sans-Serif" font-size="10.00">_location.hpp</text>
</a>
</g>
</g>
<!-- Node6&#45;&gt;Node8 -->
<g id="edge9" class="edge">
<title>Node6&#45;&gt;Node8</title>
<path fill="none" stroke="#63b8ff" d="M515.45,-132.52C538.56,-122.29 570.71,-108.06 596.82,-96.5"/>
<polygon fill="#63b8ff" stroke="#63b8ff" points="514.31,-129.2 506.59,-136.44 517.15,-135.6 514.31,-129.2"/>
</g>
<!-- Node9 -->
<g id="node9" class="node">
<title>Node9</title>
<g id="a_node9"><a xlink:href="../../d0/db4/measurer_8hpp.html" target="_top" xlink:title="Implements performance measurement and profiling utilities.">
<polygon fill="white" stroke="#666666" points="841.5,-85 718.5,-85 718.5,-66 841.5,-66 841.5,-85"/>
<text text-anchor="middle" x="780" y="-73" font-family="Helvetica,sans-Serif" font-size="10.00">mal&#45;toolkit/measurer.hpp</text>
</a>
</g>
</g>
<!-- Node6&#45;&gt;Node9 -->
<g id="edge11" class="edge">
<title>Node6&#45;&gt;Node9</title>
<path fill="none" stroke="#63b8ff" d="M536.36,-134.67C597.19,-121.24 692.39,-100.13 709,-96 722.02,-92.76 736.31,-88.9 748.63,-85.47"/>
<polygon fill="#63b8ff" stroke="#63b8ff" points="535.92,-131.19 526.91,-136.76 537.43,-138.02 535.92,-131.19"/>
</g>
<!-- Node7&#45;&gt;Node6 -->
<g id="edge8" class="edge">
<title>Node7&#45;&gt;Node6</title>
<path fill="none" stroke="#63b8ff" d="M491.53,-101.88C492.13,-114.26 491.51,-128.34 489.67,-137.2"/>
<polygon fill="#63b8ff" stroke="#63b8ff" points="495.05,-101.95 490.71,-92.28 488.07,-102.54 495.05,-101.95"/>
</g>
<!-- Node9&#45;&gt;Node4 -->
<g id="edge12" class="edge">
<title>Node9&#45;&gt;Node4</title>
<path fill="none" stroke="#63b8ff" d="M739.92,-62.48C729.89,-59.75 719.1,-57.05 709,-55 616.83,-36.27 508.66,-23.48 441.21,-16.58"/>
<polygon fill="#63b8ff" stroke="#63b8ff" points="738.82,-65.8 749.39,-65.13 740.71,-59.06 738.82,-65.8"/>
</g>
<!-- Node11 -->
<g id="node11" class="node">
<title>Node11</title>
<g id="a_node11"><a xlink:href="../../d7/db4/uuid_8hpp.html" target="_top" xlink:title="Defines utilities for working with Universally Unique Identifiers (UUIDs).">
<polygon fill="white" stroke="#666666" points="960.5,-85 859.5,-85 859.5,-66 960.5,-66 960.5,-85"/>
<text text-anchor="middle" x="910" y="-73" font-family="Helvetica,sans-Serif" font-size="10.00">mal&#45;toolkit/uuid.hpp</text>
</a>
</g>
</g>
<!-- Node10&#45;&gt;Node11 -->
<g id="edge14" class="edge">
<title>Node10&#45;&gt;Node11</title>
<path fill="none" stroke="#63b8ff" d="M657.49,-131.56C742.99,-113.08 767.99,-116.8 850,-96 861.68,-93.04 874.4,-89.02 885.11,-85.4"/>
<polygon fill="#63b8ff" stroke="#63b8ff" points="656.96,-128.09 647.95,-133.67 658.47,-134.93 656.96,-128.09"/>
</g>
<!-- Node12&#45;&gt;Node13 -->
<g id="edge16" class="edge">
<title>Node12&#45;&gt;Node13</title>
<path fill="none" stroke="#63b8ff" d="M772.09,-134.81C776.79,-133.86 781.48,-132.91 786,-132 867.7,-115.6 888.75,-114.49 970,-96 983.91,-92.84 999.15,-88.95 1012.25,-85.48"/>
<polygon fill="#63b8ff" stroke="#63b8ff" points="771.73,-131.31 762.64,-136.75 773.14,-138.17 771.73,-131.31"/>
</g>
<!-- Node13&#45;&gt;Node4 -->
<g id="edge17" class="edge">
<title>Node13&#45;&gt;Node4</title>
<path fill="none" stroke="#63b8ff" d="M1004.9,-62.66C993.69,-59.73 981.45,-56.9 970,-55 779.48,-23.36 550.83,-14.2 441.06,-11.56"/>
<polygon fill="#63b8ff" stroke="#63b8ff" points="1003.67,-65.95 1014.24,-65.18 1005.5,-59.19 1003.67,-65.95"/>
</g>
<!-- Node14&#45;&gt;Node4 -->
<g id="edge21" class="edge">
<title>Node14&#45;&gt;Node4</title>
<path fill="none" stroke="#63b8ff" d="M947.5,-134.72C1014.11,-121.05 1117.25,-99.41 1120,-96 1131.42,-81.8 1132.49,-68.26 1120,-55 1096.89,-30.47 618.47,-16.39 441.27,-12"/>
<polygon fill="#63b8ff" stroke="#63b8ff" points="946.91,-131.26 937.82,-136.7 948.32,-138.12 946.91,-131.26"/>
</g>
</g>
</svg>
