<?xml version="1.0" encoding="UTF-8" standalone="no"?>
<!DOCTYPE svg PUBLIC "-//W3C//DTD SVG 1.1//EN"
 "http://www.w3.org/Graphics/SVG/1.1/DTD/svg11.dtd">
<!-- Generated by graphviz version 7.0.5 (20221223.1930)
 -->
<!-- Title: mal&#45;toolkit/mal&#45;toolkit/mal&#45;toolkit.hpp Pages: 1 -->
<svg width="3037pt" height="280pt"
 viewBox="0.00 0.00 3036.50 280.00" xmlns="http://www.w3.org/2000/svg" xmlns:xlink="http://www.w3.org/1999/xlink">
<g id="graph0" class="graph" transform="scale(1 1) rotate(0) translate(4 276)">
<title>mal&#45;toolkit/mal&#45;toolkit/mal&#45;toolkit.hpp</title>
<!-- Node1 -->
<g id="node1" class="node">
<title>Node1</title>
<g id="a_node1"><a xlink:title="Main header file for the MAL Toolkit library, providing a comprehensive set of tools and utilities.">
<polygon fill="#999999" stroke="#666666" points="1558,-272 1448,-272 1448,-242 1558,-242 1558,-272"/>
<text text-anchor="start" x="1456" y="-260" font-family="Helvetica,sans-Serif" font-size="10.00">mal&#45;toolkit/mal&#45;toolkit</text>
<text text-anchor="middle" x="1503" y="-249" font-family="Helvetica,sans-Serif" font-size="10.00">/mal&#45;toolkit.hpp</text>
</a>
</g>
</g>
<!-- Node2 -->
<g id="node2" class="node">
<title>Node2</title>
<g id="a_node2"><a xlink:href="../../db/d6e/library-pch_8hpp.html" target="_top" xlink:title="Precompiled header (PCH) file for common headers used across the library.">
<polygon fill="white" stroke="#666666" points="1334.5,-90.5 1255.5,-90.5 1255.5,-71.5 1334.5,-71.5 1334.5,-90.5"/>
<text text-anchor="middle" x="1295" y="-78.5" font-family="Helvetica,sans-Serif" font-size="10.00">library&#45;pch.hpp</text>
</a>
</g>
</g>
<!-- Node1&#45;&gt;Node2 -->
<g id="edge1" class="edge">
<title>Node1&#45;&gt;Node2</title>
<path fill="none" stroke="#63b8ff" d="M1447.64,-253.69C1377.45,-249.46 1262.36,-237.75 1236,-206 1208.23,-172.54 1249.97,-123.82 1276.28,-98.57"/>
<polygon fill="#63b8ff" stroke="#63b8ff" points="1278.42,-101.35 1283.38,-91.98 1273.66,-96.22 1278.42,-101.35"/>
</g>
<!-- Node37 -->
<g id="node37" class="node">
<title>Node37</title>
<g id="a_node37"><a xlink:href="../../d1/d27/converter_8hpp.html" target="_top" xlink:title="Provides functions for converting between different data types.">
<polygon fill="white" stroke="#666666" points="1184.5,-151 1109.5,-151 1109.5,-132 1184.5,-132 1184.5,-151"/>
<text text-anchor="middle" x="1147" y="-139" font-family="Helvetica,sans-Serif" font-size="10.00">converter.hpp</text>
</a>
</g>
</g>
<!-- Node1&#45;&gt;Node37 -->
<g id="edge36" class="edge">
<title>Node1&#45;&gt;Node37</title>
<path fill="none" stroke="#63b8ff" d="M1447.65,-251.59C1371.83,-244.77 1240.34,-229.88 1199,-206 1180.53,-195.33 1165.88,-175.43 1156.9,-160.74"/>
<polygon fill="#63b8ff" stroke="#63b8ff" points="1160.17,-159.4 1152.15,-152.48 1154.1,-162.9 1160.17,-159.4"/>
</g>
<!-- Node38 -->
<g id="node38" class="node">
<title>Node38</title>
<g id="a_node38"><a xlink:href="../../dd/dc6/backoffs_8hpp.html" target="_top" xlink:title=" ">
<polygon fill="white" stroke="#666666" points="165.5,-90.5 94.5,-90.5 94.5,-71.5 165.5,-71.5 165.5,-90.5"/>
<text text-anchor="middle" x="130" y="-78.5" font-family="Helvetica,sans-Serif" font-size="10.00">backoffs.hpp</text>
</a>
</g>
</g>
<!-- Node1&#45;&gt;Node38 -->
<g id="edge38" class="edge">
<title>Node1&#45;&gt;Node38</title>
<path fill="none" stroke="#63b8ff" d="M1447.9,-249.02C1224.16,-220.66 385.51,-114.38 177.11,-87.97"/>
<polygon fill="#63b8ff" stroke="#63b8ff" points="177.83,-84.53 167.47,-86.75 176.95,-91.48 177.83,-84.53"/>
</g>
<!-- Node39 -->
<g id="node39" class="node">
<title>Node39</title>
<g id="a_node39"><a xlink:href="../../da/d7b/debug_8hpp.html" target="_top" xlink:title="Contains debugging&#45;related macros and utilities for assisting with debugging tasks.">
<polygon fill="white" stroke="#666666" points="2260.5,-151 2199.5,-151 2199.5,-132 2260.5,-132 2260.5,-151"/>
<text text-anchor="middle" x="2230" y="-139" font-family="Helvetica,sans-Serif" font-size="10.00">debug.hpp</text>
</a>
</g>
</g>
<!-- Node1&#45;&gt;Node39 -->
<g id="edge42" class="edge">
<title>Node1&#45;&gt;Node39</title>
<path fill="none" stroke="#63b8ff" d="M1558.35,-250.24C1635.54,-241.94 1779.8,-225.46 1902,-206 2005.53,-189.51 2126.38,-164.65 2188.48,-151.46"/>
<polygon fill="#63b8ff" stroke="#63b8ff" points="2188.84,-154.96 2197.89,-149.45 2187.38,-148.12 2188.84,-154.96"/>
</g>
<!-- Node48 -->
<g id="node48" class="node">
<title>Node48</title>
<g id="a_node48"><a xlink:href="../../dc/dad/file-watcher_8hpp.html" target="_top" xlink:title="Implements a file watcher that monitors changes to specified files or directories.">
<polygon fill="white" stroke="#666666" points="1475,-206 1391,-206 1391,-187 1475,-187 1475,-206"/>
<text text-anchor="middle" x="1433" y="-194" font-family="Helvetica,sans-Serif" font-size="10.00">file&#45;watcher.hpp</text>
</a>
</g>
</g>
<!-- Node1&#45;&gt;Node48 -->
<g id="edge53" class="edge">
<title>Node1&#45;&gt;Node48</title>
<path fill="none" stroke="#63b8ff" d="M1485.7,-241.54C1475.53,-233.04 1462.66,-222.29 1452.18,-213.53"/>
<polygon fill="#63b8ff" stroke="#63b8ff" points="1454.46,-210.87 1444.54,-207.15 1449.97,-216.24 1454.46,-210.87"/>
</g>
<!-- Node50 -->
<g id="node50" class="node">
<title>Node50</title>
<g id="a_node50"><a xlink:href="../../d0/db4/measurer_8hpp.html" target="_top" xlink:title="Implements performance measurement and profiling utilities.">
<polygon fill="white" stroke="#666666" points="1892.5,-206 1817.5,-206 1817.5,-187 1892.5,-187 1892.5,-206"/>
<text text-anchor="middle" x="1855" y="-194" font-family="Helvetica,sans-Serif" font-size="10.00">measurer.hpp</text>
</a>
</g>
</g>
<!-- Node1&#45;&gt;Node50 -->
<g id="edge57" class="edge">
<title>Node1&#45;&gt;Node50</title>
<path fill="none" stroke="#63b8ff" d="M1558.42,-247.19C1617.19,-237.8 1713.03,-222.29 1805.75,-206.36"/>
<polygon fill="#63b8ff" stroke="#63b8ff" points="1806.29,-209.82 1815.55,-204.68 1805.1,-202.92 1806.29,-209.82"/>
</g>
<!-- Node51 -->
<g id="node51" class="node">
<title>Node51</title>
<g id="a_node51"><a xlink:href="../../df/d05/timer_8hpp.html" target="_top" xlink:title="Implements timer utilities for measuring elapsed time and intervals.">
<polygon fill="white" stroke="#666666" points="1810,-151 1754,-151 1754,-132 1810,-132 1810,-151"/>
<text text-anchor="middle" x="1782" y="-139" font-family="Helvetica,sans-Serif" font-size="10.00">timer.hpp</text>
</a>
</g>
</g>
<!-- Node1&#45;&gt;Node51 -->
<g id="edge62" class="edge">
<title>Node1&#45;&gt;Node51</title>
<path fill="none" stroke="#63b8ff" d="M1558.32,-246.4C1596.48,-238.55 1647.75,-225.52 1690,-206 1717.2,-193.43 1745.06,-172.93 1762.89,-158.63"/>
<polygon fill="#63b8ff" stroke="#63b8ff" points="1765,-161.42 1770.52,-152.37 1760.57,-156 1765,-161.42"/>
</g>
<!-- Node52 -->
<g id="node52" class="node">
<title>Node52</title>
<g id="a_node52"><a xlink:href="../../d4/da0/string_8hpp.html" target="_top" xlink:title="Implements string manipulation and formatting functions.">
<polygon fill="white" stroke="#666666" points="1590.5,-206 1531.5,-206 1531.5,-187 1590.5,-187 1590.5,-206"/>
<text text-anchor="middle" x="1561" y="-194" font-family="Helvetica,sans-Serif" font-size="10.00">string.hpp</text>
</a>
</g>
</g>
<!-- Node1&#45;&gt;Node52 -->
<g id="edge60" class="edge">
<title>Node1&#45;&gt;Node52</title>
<path fill="none" stroke="#63b8ff" d="M1517.34,-241.54C1525.5,-233.3 1535.77,-222.94 1544.3,-214.34"/>
<polygon fill="#63b8ff" stroke="#63b8ff" points="1546.78,-216.82 1551.33,-207.25 1541.81,-211.89 1546.78,-216.82"/>
</g>
<!-- Node53 -->
<g id="node53" class="node">
<title>Node53</title>
<g id="a_node53"><a xlink:href="../../d4/d6a/template_8hpp.html" target="_top" xlink:title="Defines template classes and functions used in the project.">
<polygon fill="white" stroke="#666666" points="1681,-206 1609,-206 1609,-187 1681,-187 1681,-206"/>
<text text-anchor="middle" x="1645" y="-194" font-family="Helvetica,sans-Serif" font-size="10.00">template.hpp</text>
</a>
</g>
</g>
<!-- Node1&#45;&gt;Node53 -->
<g id="edge61" class="edge">
<title>Node1&#45;&gt;Node53</title>
<path fill="none" stroke="#63b8ff" d="M1538.1,-241.54C1561.01,-232.1 1590.67,-219.88 1612.94,-210.71"/>
<polygon fill="#63b8ff" stroke="#63b8ff" points="1614.21,-213.97 1622.13,-206.92 1611.55,-207.5 1614.21,-213.97"/>
</g>
<!-- Node54 -->
<g id="node54" class="node">
<title>Node54</title>
<g id="a_node54"><a xlink:href="../../dd/db7/stl-helpers_8hpp.html" target="_top" xlink:title="Provides helper functions and extensions for the C++ Standard Library.">
<polygon fill="white" stroke="#666666" points="1325,-206 1245,-206 1245,-187 1325,-187 1325,-206"/>
<text text-anchor="middle" x="1285" y="-194" font-family="Helvetica,sans-Serif" font-size="10.00">stl&#45;helpers.hpp</text>
</a>
</g>
</g>
<!-- Node1&#45;&gt;Node54 -->
<g id="edge63" class="edge">
<title>Node1&#45;&gt;Node54</title>
<path fill="none" stroke="#63b8ff" d="M1449.11,-241.54C1412.14,-231.62 1363.68,-218.61 1329.02,-209.31"/>
<polygon fill="#63b8ff" stroke="#63b8ff" points="1330.31,-206.04 1319.75,-206.82 1328.5,-212.8 1330.31,-206.04"/>
</g>
<!-- Node55 -->
<g id="node55" class="node">
<title>Node55</title>
<g id="a_node55"><a xlink:href="../../d4/dc3/macro_8hpp.html" target="_top" xlink:title="Defines macros and constants for various purposes.">
<polygon fill="white" stroke="#666666" points="1799,-206 1737,-206 1737,-187 1799,-187 1799,-206"/>
<text text-anchor="middle" x="1768" y="-194" font-family="Helvetica,sans-Serif" font-size="10.00">macro.hpp</text>
</a>
</g>
</g>
<!-- Node1&#45;&gt;Node55 -->
<g id="edge65" class="edge">
<title>Node1&#45;&gt;Node55</title>
<path fill="none" stroke="#63b8ff" d="M1558.23,-243.81C1608.05,-232.81 1680.26,-216.87 1725.64,-206.85"/>
<polygon fill="#63b8ff" stroke="#63b8ff" points="1726.37,-210.28 1735.38,-204.7 1724.86,-203.44 1726.37,-210.28"/>
</g>
<!-- Node56 -->
<g id="node56" class="node">
<title>Node56</title>
<g id="a_node56"><a xlink:href="../../d4/d80/common-structures_8hpp.html" target="_top" xlink:title="Defines common data structures and types that can be used anywhere.">
<polygon fill="white" stroke="#666666" points="1398.5,-151 1279.5,-151 1279.5,-132 1398.5,-132 1398.5,-151"/>
<text text-anchor="middle" x="1339" y="-139" font-family="Helvetica,sans-Serif" font-size="10.00">common&#45;structures.hpp</text>
</a>
</g>
</g>
<!-- Node1&#45;&gt;Node56 -->
<g id="edge66" class="edge">
<title>Node1&#45;&gt;Node56</title>
<path fill="none" stroke="#63b8ff" d="M1449.95,-241.6C1427.36,-233.66 1401.74,-222.08 1382,-206 1367.01,-193.79 1355.2,-175 1347.77,-161.03"/>
<polygon fill="#63b8ff" stroke="#63b8ff" points="1351.07,-159.8 1343.46,-152.42 1344.81,-162.93 1351.07,-159.8"/>
</g>
<!-- Node57 -->
<g id="node57" class="node">
<title>Node57</title>
<g id="a_node57"><a xlink:href="../../da/df5/byte-helper_8hpp.html" target="_top" xlink:title=" ">
<polygon fill="white" stroke="#666666" points="1614,-151 1532,-151 1532,-132 1614,-132 1614,-151"/>
<text text-anchor="middle" x="1573" y="-139" font-family="Helvetica,sans-Serif" font-size="10.00">byte&#45;helper.hpp</text>
</a>
</g>
</g>
<!-- Node1&#45;&gt;Node57 -->
<g id="edge68" class="edge">
<title>Node1&#45;&gt;Node57</title>
<path fill="none" stroke="#63b8ff" d="M1504.79,-241.56C1507.14,-226.9 1512.29,-203.98 1523,-187 1529.98,-175.94 1540.48,-166.01 1550.06,-158.35"/>
<polygon fill="#63b8ff" stroke="#63b8ff" points="1552.08,-161.21 1557.96,-152.4 1547.86,-155.62 1552.08,-161.21"/>
</g>
<!-- Node3 -->
<g id="node3" class="node">
<title>Node3</title>
<g id="a_node3"><a xlink:title=" ">
<polygon fill="#e0e0e0" stroke="#999999" points="56,-24.5 0,-24.5 0,-5.5 56,-5.5 56,-24.5"/>
<text text-anchor="middle" x="28" y="-12.5" font-family="Helvetica,sans-Serif" font-size="10.00">algorithm</text>
</a>
</g>
</g>
<!-- Node2&#45;&gt;Node3 -->
<g id="edge2" class="edge">
<title>Node2&#45;&gt;Node3</title>
<path fill="none" stroke="#63b8ff" d="M1255.01,-80.09C1070.49,-80.25 300.32,-77.99 65,-30 62.97,-29.59 60.9,-29.07 58.84,-28.49"/>
<polygon fill="#63b8ff" stroke="#63b8ff" points="60.04,-25.21 49.44,-25.38 57.84,-31.85 60.04,-25.21"/>
</g>
<!-- Node4 -->
<g id="node4" class="node">
<title>Node4</title>
<g id="a_node4"><a xlink:title=" ">
<polygon fill="#e0e0e0" stroke="#999999" points="546,-24.5 508,-24.5 508,-5.5 546,-5.5 546,-24.5"/>
<text text-anchor="middle" x="527" y="-12.5" font-family="Helvetica,sans-Serif" font-size="10.00">array</text>
</a>
</g>
</g>
<!-- Node2&#45;&gt;Node4 -->
<g id="edge3" class="edge">
<title>Node2&#45;&gt;Node4</title>
<path fill="none" stroke="#63b8ff" d="M1255.35,-79.38C1121.74,-76.95 688.88,-66.41 555,-30 554.19,-29.78 553.38,-29.54 552.57,-29.27"/>
<polygon fill="#63b8ff" stroke="#63b8ff" points="554.24,-26.18 543.66,-25.57 551.55,-32.64 554.24,-26.18"/>
</g>
<!-- Node5 -->
<g id="node5" class="node">
<title>Node5</title>
<g id="a_node5"><a xlink:title=" ">
<polygon fill="#e0e0e0" stroke="#999999" points="615.5,-24.5 564.5,-24.5 564.5,-5.5 615.5,-5.5 615.5,-24.5"/>
<text text-anchor="middle" x="590" y="-12.5" font-family="Helvetica,sans-Serif" font-size="10.00">assert.h</text>
</a>
</g>
</g>
<!-- Node2&#45;&gt;Node5 -->
<g id="edge4" class="edge">
<title>Node2&#45;&gt;Node5</title>
<path fill="none" stroke="#63b8ff" d="M1255.33,-78.63C1130.38,-74.06 746.17,-58.05 625,-30 623.37,-29.62 621.71,-29.18 620.05,-28.69"/>
<polygon fill="#63b8ff" stroke="#63b8ff" points="621.31,-25.42 610.71,-25.43 619,-32.03 621.31,-25.42"/>
</g>
<!-- Node6 -->
<g id="node6" class="node">
<title>Node6</title>
<g id="a_node6"><a xlink:title=" ">
<polygon fill="#e0e0e0" stroke="#999999" points="120,-24.5 74,-24.5 74,-5.5 120,-5.5 120,-24.5"/>
<text text-anchor="middle" x="97" y="-12.5" font-family="Helvetica,sans-Serif" font-size="10.00">chrono</text>
</a>
</g>
</g>
<!-- Node2&#45;&gt;Node6 -->
<g id="edge5" class="edge">
<title>Node2&#45;&gt;Node6</title>
<path fill="none" stroke="#63b8ff" d="M1255.26,-80.25C1076.99,-81.08 350.08,-81.21 129,-30 127.6,-29.68 126.19,-29.29 124.78,-28.87"/>
<polygon fill="#63b8ff" stroke="#63b8ff" points="126.21,-25.66 115.62,-25.44 123.76,-32.22 126.21,-25.66"/>
</g>
<!-- Node7 -->
<g id="node7" class="node">
<title>Node7</title>
<g id="a_node7"><a xlink:title=" ">
<polygon fill="#e0e0e0" stroke="#999999" points="678,-24.5 634,-24.5 634,-5.5 678,-5.5 678,-24.5"/>
<text text-anchor="middle" x="656" y="-12.5" font-family="Helvetica,sans-Serif" font-size="10.00">cmath</text>
</a>
</g>
</g>
<!-- Node2&#45;&gt;Node7 -->
<g id="edge6" class="edge">
<title>Node2&#45;&gt;Node7</title>
<path fill="none" stroke="#63b8ff" d="M1255.27,-78.5C1138.07,-73.8 795.18,-57.98 687,-30 685.83,-29.7 684.64,-29.35 683.46,-28.98"/>
<polygon fill="#63b8ff" stroke="#63b8ff" points="685,-25.82 674.41,-25.48 682.47,-32.35 685,-25.82"/>
</g>
<!-- Node8 -->
<g id="node8" class="node">
<title>Node8</title>
<g id="a_node8"><a xlink:title=" ">
<polygon fill="#e0e0e0" stroke="#999999" points="752,-24.5 696,-24.5 696,-5.5 752,-5.5 752,-24.5"/>
<text text-anchor="middle" x="724" y="-12.5" font-family="Helvetica,sans-Serif" font-size="10.00">concepts</text>
</a>
</g>
</g>
<!-- Node2&#45;&gt;Node8 -->
<g id="edge7" class="edge">
<title>Node2&#45;&gt;Node8</title>
<path fill="none" stroke="#63b8ff" d="M1255.23,-79.9C1165.74,-78.88 942.2,-71.96 761,-30 759.24,-29.59 757.46,-29.12 755.67,-28.61"/>
<polygon fill="#63b8ff" stroke="#63b8ff" points="756.86,-25.31 746.26,-25.47 754.65,-31.95 756.86,-25.31"/>
</g>
<!-- Node9 -->
<g id="node9" class="node">
<title>Node9</title>
<g id="a_node9"><a xlink:title=" ">
<polygon fill="#e0e0e0" stroke="#999999" points="865.5,-24.5 770.5,-24.5 770.5,-5.5 865.5,-5.5 865.5,-24.5"/>
<text text-anchor="middle" x="818" y="-12.5" font-family="Helvetica,sans-Serif" font-size="10.00">condition_variable</text>
</a>
</g>
</g>
<!-- Node2&#45;&gt;Node9 -->
<g id="edge8" class="edge">
<title>Node2&#45;&gt;Node9</title>
<path fill="none" stroke="#63b8ff" d="M1255.09,-76.89C1180.17,-70.68 1013.54,-55.16 875,-30 870.95,-29.26 866.76,-28.41 862.58,-27.5"/>
<polygon fill="#63b8ff" stroke="#63b8ff" points="863.62,-24.15 853.09,-25.32 862.05,-30.97 863.62,-24.15"/>
</g>
<!-- Node10 -->
<g id="node10" class="node">
<title>Node10</title>
<g id="a_node10"><a xlink:title=" ">
<polygon fill="#e0e0e0" stroke="#999999" points="930,-24.5 884,-24.5 884,-5.5 930,-5.5 930,-24.5"/>
<text text-anchor="middle" x="907" y="-12.5" font-family="Helvetica,sans-Serif" font-size="10.00">cstdint</text>
</a>
</g>
</g>
<!-- Node2&#45;&gt;Node10 -->
<g id="edge9" class="edge">
<title>Node2&#45;&gt;Node10</title>
<path fill="none" stroke="#63b8ff" d="M1255.03,-77.94C1188.38,-73.73 1050.84,-61.67 939,-30 937.83,-29.67 936.65,-29.31 935.47,-28.91"/>
<polygon fill="#63b8ff" stroke="#63b8ff" points="936.96,-25.74 926.37,-25.42 934.45,-32.27 936.96,-25.74"/>
</g>
<!-- Node11 -->
<g id="node11" class="node">
<title>Node11</title>
<g id="a_node11"><a xlink:title=" ">
<polygon fill="#e0e0e0" stroke="#999999" points="993.5,-24.5 948.5,-24.5 948.5,-5.5 993.5,-5.5 993.5,-24.5"/>
<text text-anchor="middle" x="971" y="-12.5" font-family="Helvetica,sans-Serif" font-size="10.00">cstdlib</text>
</a>
</g>
</g>
<!-- Node2&#45;&gt;Node11 -->
<g id="edge10" class="edge">
<title>Node2&#45;&gt;Node11</title>
<path fill="none" stroke="#63b8ff" d="M1255.1,-76.27C1198.21,-70.26 1090.95,-56.34 1003,-30 1002.01,-29.7 1001.01,-29.38 1000,-29.05"/>
<polygon fill="#63b8ff" stroke="#63b8ff" points="1001.33,-25.81 990.74,-25.47 998.81,-32.34 1001.33,-25.81"/>
</g>
<!-- Node12 -->
<g id="node12" class="node">
<title>Node12</title>
<g id="a_node12"><a xlink:title=" ">
<polygon fill="#e0e0e0" stroke="#999999" points="1072,-24.5 1012,-24.5 1012,-5.5 1072,-5.5 1072,-24.5"/>
<text text-anchor="middle" x="1042" y="-12.5" font-family="Helvetica,sans-Serif" font-size="10.00">filesystem</text>
</a>
</g>
</g>
<!-- Node2&#45;&gt;Node12 -->
<g id="edge11" class="edge">
<title>Node2&#45;&gt;Node12</title>
<path fill="none" stroke="#63b8ff" d="M1255.2,-72.13C1211.96,-63.25 1141.01,-47.72 1081,-30 1079.4,-29.53 1077.78,-29.03 1076.14,-28.51"/>
<polygon fill="#63b8ff" stroke="#63b8ff" points="1077.39,-25.24 1066.8,-25.36 1075.16,-31.87 1077.39,-25.24"/>
</g>
<!-- Node13 -->
<g id="node13" class="node">
<title>Node13</title>
<g id="a_node13"><a xlink:title=" ">
<polygon fill="#e0e0e0" stroke="#999999" points="1140,-24.5 1090,-24.5 1090,-5.5 1140,-5.5 1140,-24.5"/>
<text text-anchor="middle" x="1115" y="-12.5" font-family="Helvetica,sans-Serif" font-size="10.00">fstream</text>
</a>
</g>
</g>
<!-- Node2&#45;&gt;Node13 -->
<g id="edge12" class="edge">
<title>Node2&#45;&gt;Node13</title>
<path fill="none" stroke="#63b8ff" d="M1267.1,-71C1237.59,-61.36 1189.74,-45.35 1149,-30 1148.22,-29.7 1147.42,-29.4 1146.62,-29.1"/>
<polygon fill="#63b8ff" stroke="#63b8ff" points="1148.13,-25.93 1137.55,-25.5 1145.55,-32.44 1148.13,-25.93"/>
</g>
<!-- Node14 -->
<g id="node14" class="node">
<title>Node14</title>
<g id="a_node14"><a xlink:title=" ">
<polygon fill="#e0e0e0" stroke="#999999" points="1217.5,-24.5 1158.5,-24.5 1158.5,-5.5 1217.5,-5.5 1217.5,-24.5"/>
<text text-anchor="middle" x="1188" y="-12.5" font-family="Helvetica,sans-Serif" font-size="10.00">functional</text>
</a>
</g>
</g>
<!-- Node2&#45;&gt;Node14 -->
<g id="edge13" class="edge">
<title>Node2&#45;&gt;Node14</title>
<path fill="none" stroke="#63b8ff" d="M1280.12,-71.1C1262.63,-60.64 1233.36,-43.13 1212.5,-30.66"/>
<polygon fill="#63b8ff" stroke="#63b8ff" points="1214.43,-27.73 1204.05,-25.6 1210.84,-33.74 1214.43,-27.73"/>
</g>
<!-- Node15 -->
<g id="node15" class="node">
<title>Node15</title>
<g id="a_node15"><a xlink:title=" ">
<polygon fill="#e0e0e0" stroke="#999999" points="1286,-24.5 1236,-24.5 1236,-5.5 1286,-5.5 1286,-24.5"/>
<text text-anchor="middle" x="1261" y="-12.5" font-family="Helvetica,sans-Serif" font-size="10.00">iomanip</text>
</a>
</g>
</g>
<!-- Node2&#45;&gt;Node15 -->
<g id="edge14" class="edge">
<title>Node2&#45;&gt;Node15</title>
<path fill="none" stroke="#63b8ff" d="M1290.27,-71.1C1285.3,-61.74 1277.33,-46.73 1270.95,-34.74"/>
<polygon fill="#63b8ff" stroke="#63b8ff" points="1274.18,-33.35 1266.4,-26.16 1268,-36.63 1274.18,-33.35"/>
</g>
<!-- Node16 -->
<g id="node16" class="node">
<title>Node16</title>
<g id="a_node16"><a xlink:title=" ">
<polygon fill="#e0e0e0" stroke="#999999" points="1353.5,-24.5 1304.5,-24.5 1304.5,-5.5 1353.5,-5.5 1353.5,-24.5"/>
<text text-anchor="middle" x="1329" y="-12.5" font-family="Helvetica,sans-Serif" font-size="10.00">istream</text>
</a>
</g>
</g>
<!-- Node2&#45;&gt;Node16 -->
<g id="edge15" class="edge">
<title>Node2&#45;&gt;Node16</title>
<path fill="none" stroke="#63b8ff" d="M1299.73,-71.1C1304.7,-61.74 1312.67,-46.73 1319.05,-34.74"/>
<polygon fill="#63b8ff" stroke="#63b8ff" points="1322,-36.63 1323.6,-26.16 1315.82,-33.35 1322,-36.63"/>
</g>
<!-- Node17 -->
<g id="node17" class="node">
<title>Node17</title>
<g id="a_node17"><a xlink:title=" ">
<polygon fill="#e0e0e0" stroke="#999999" points="1412,-24.5 1372,-24.5 1372,-5.5 1412,-5.5 1412,-24.5"/>
<text text-anchor="middle" x="1392" y="-12.5" font-family="Helvetica,sans-Serif" font-size="10.00">limits</text>
</a>
</g>
</g>
<!-- Node2&#45;&gt;Node17 -->
<g id="edge16" class="edge">
<title>Node2&#45;&gt;Node17</title>
<path fill="none" stroke="#63b8ff" d="M1308.49,-71.1C1324.2,-60.74 1350.4,-43.45 1369.27,-31"/>
<polygon fill="#63b8ff" stroke="#63b8ff" points="1370.94,-34.09 1377.36,-25.66 1367.09,-28.24 1370.94,-34.09"/>
</g>
<!-- Node18 -->
<g id="node18" class="node">
<title>Node18</title>
<g id="a_node18"><a xlink:title=" ">
<polygon fill="#e0e0e0" stroke="#999999" points="1465.5,-24.5 1430.5,-24.5 1430.5,-5.5 1465.5,-5.5 1465.5,-24.5"/>
<text text-anchor="middle" x="1448" y="-12.5" font-family="Helvetica,sans-Serif" font-size="10.00">map</text>
</a>
</g>
</g>
<!-- Node2&#45;&gt;Node18 -->
<g id="edge17" class="edge">
<title>Node2&#45;&gt;Node18</title>
<path fill="none" stroke="#63b8ff" d="M1319.46,-71.13C1345.07,-61.64 1386.31,-45.83 1421,-30 1421.11,-29.95 1421.22,-29.9 1421.32,-29.85"/>
<polygon fill="#63b8ff" stroke="#63b8ff" points="1422.75,-33.05 1430.21,-25.52 1419.68,-26.76 1422.75,-33.05"/>
</g>
<!-- Node19 -->
<g id="node19" class="node">
<title>Node19</title>
<g id="a_node19"><a xlink:title=" ">
<polygon fill="#e0e0e0" stroke="#999999" points="1534.5,-24.5 1483.5,-24.5 1483.5,-5.5 1534.5,-5.5 1534.5,-24.5"/>
<text text-anchor="middle" x="1509" y="-12.5" font-family="Helvetica,sans-Serif" font-size="10.00">memory</text>
</a>
</g>
</g>
<!-- Node2&#45;&gt;Node19 -->
<g id="edge18" class="edge">
<title>Node2&#45;&gt;Node19</title>
<path fill="none" stroke="#63b8ff" d="M1332.28,-71.03C1368.96,-61.88 1426.38,-46.7 1475,-30 1475.95,-29.67 1476.91,-29.33 1477.88,-28.98"/>
<polygon fill="#63b8ff" stroke="#63b8ff" points="1478.8,-32.38 1486.88,-25.53 1476.29,-25.85 1478.8,-32.38"/>
</g>
<!-- Node20 -->
<g id="node20" class="node">
<title>Node20</title>
<g id="a_node20"><a xlink:title=" ">
<polygon fill="#e0e0e0" stroke="#999999" points="1595.5,-24.5 1552.5,-24.5 1552.5,-5.5 1595.5,-5.5 1595.5,-24.5"/>
<text text-anchor="middle" x="1574" y="-12.5" font-family="Helvetica,sans-Serif" font-size="10.00">mutex</text>
</a>
</g>
</g>
<!-- Node2&#45;&gt;Node20 -->
<g id="edge19" class="edge">
<title>Node2&#45;&gt;Node20</title>
<path fill="none" stroke="#63b8ff" d="M1335,-74.97C1384.82,-68.02 1472.16,-53.6 1544,-30 1544.8,-29.74 1545.6,-29.46 1546.41,-29.17"/>
<polygon fill="#63b8ff" stroke="#63b8ff" points="1547.53,-32.49 1555.44,-25.44 1544.86,-26.02 1547.53,-32.49"/>
</g>
<!-- Node21 -->
<g id="node21" class="node">
<title>Node21</title>
<g id="a_node21"><a xlink:title=" ">
<polygon fill="#e0e0e0" stroke="#999999" points="1668,-24.5 1614,-24.5 1614,-5.5 1668,-5.5 1668,-24.5"/>
<text text-anchor="middle" x="1641" y="-12.5" font-family="Helvetica,sans-Serif" font-size="10.00">numbers</text>
</a>
</g>
</g>
<!-- Node2&#45;&gt;Node21 -->
<g id="edge20" class="edge">
<title>Node2&#45;&gt;Node21</title>
<path fill="none" stroke="#63b8ff" d="M1334.71,-76.3C1394.24,-70.16 1509.78,-55.88 1605,-30 1606.58,-29.57 1608.18,-29.1 1609.79,-28.59"/>
<polygon fill="#63b8ff" stroke="#63b8ff" points="1610.6,-32.01 1618.88,-25.4 1608.29,-25.41 1610.6,-32.01"/>
</g>
<!-- Node22 -->
<g id="node22" class="node">
<title>Node22</title>
<g id="a_node22"><a xlink:title=" ">
<polygon fill="#e0e0e0" stroke="#999999" points="1737.5,-24.5 1686.5,-24.5 1686.5,-5.5 1737.5,-5.5 1737.5,-24.5"/>
<text text-anchor="middle" x="1712" y="-12.5" font-family="Helvetica,sans-Serif" font-size="10.00">numeric</text>
</a>
</g>
</g>
<!-- Node2&#45;&gt;Node22 -->
<g id="edge21" class="edge">
<title>Node2&#45;&gt;Node22</title>
<path fill="none" stroke="#63b8ff" d="M1334.95,-78.06C1405.16,-73.93 1554.85,-61.88 1677,-30 1678.58,-29.59 1680.19,-29.12 1681.8,-28.62"/>
<polygon fill="#63b8ff" stroke="#63b8ff" points="1682.63,-32.04 1690.88,-25.39 1680.28,-25.44 1682.63,-32.04"/>
</g>
<!-- Node23 -->
<g id="node23" class="node">
<title>Node23</title>
<g id="a_node23"><a xlink:title=" ">
<polygon fill="#e0e0e0" stroke="#999999" points="1806,-24.5 1756,-24.5 1756,-5.5 1806,-5.5 1806,-24.5"/>
<text text-anchor="middle" x="1781" y="-12.5" font-family="Helvetica,sans-Serif" font-size="10.00">optional</text>
</a>
</g>
</g>
<!-- Node2&#45;&gt;Node23 -->
<g id="edge22" class="edge">
<title>Node2&#45;&gt;Node23</title>
<path fill="none" stroke="#63b8ff" d="M1334.97,-79.32C1414.61,-77.14 1598.23,-68.05 1747,-30 1748.39,-29.64 1749.8,-29.24 1751.21,-28.81"/>
<polygon fill="#63b8ff" stroke="#63b8ff" points="1752.25,-32.15 1760.48,-25.47 1749.88,-25.57 1752.25,-32.15"/>
</g>
<!-- Node24 -->
<g id="node24" class="node">
<title>Node24</title>
<g id="a_node24"><a xlink:title=" ">
<polygon fill="#e0e0e0" stroke="#999999" points="1876,-24.5 1824,-24.5 1824,-5.5 1876,-5.5 1876,-24.5"/>
<text text-anchor="middle" x="1850" y="-12.5" font-family="Helvetica,sans-Serif" font-size="10.00">ostream</text>
</a>
</g>
</g>
<!-- Node2&#45;&gt;Node24 -->
<g id="edge23" class="edge">
<title>Node2&#45;&gt;Node24</title>
<path fill="none" stroke="#63b8ff" d="M1334.77,-80C1422.68,-79.18 1639.61,-72.58 1815,-30 1816.63,-29.6 1818.28,-29.15 1819.94,-28.65"/>
<polygon fill="#63b8ff" stroke="#63b8ff" points="1821,-31.98 1829.27,-25.36 1818.68,-25.38 1821,-31.98"/>
</g>
<!-- Node25 -->
<g id="node25" class="node">
<title>Node25</title>
<g id="a_node25"><a xlink:title=" ">
<polygon fill="#e0e0e0" stroke="#999999" points="187.5,-24.5 138.5,-24.5 138.5,-5.5 187.5,-5.5 187.5,-24.5"/>
<text text-anchor="middle" x="163" y="-12.5" font-family="Helvetica,sans-Serif" font-size="10.00">random</text>
</a>
</g>
</g>
<!-- Node2&#45;&gt;Node25 -->
<g id="edge24" class="edge">
<title>Node2&#45;&gt;Node25</title>
<path fill="none" stroke="#63b8ff" d="M1255.03,-80.02C1082.96,-79.8 404.61,-76 197,-30 195.36,-29.64 193.71,-29.2 192.05,-28.71"/>
<polygon fill="#63b8ff" stroke="#63b8ff" points="193.35,-25.46 182.76,-25.4 191,-32.06 193.35,-25.46"/>
</g>
<!-- Node26 -->
<g id="node26" class="node">
<title>Node26</title>
<g id="a_node26"><a xlink:title=" ">
<polygon fill="#e0e0e0" stroke="#999999" points="1971.5,-24.5 1894.5,-24.5 1894.5,-5.5 1971.5,-5.5 1971.5,-24.5"/>
<text text-anchor="middle" x="1933" y="-12.5" font-family="Helvetica,sans-Serif" font-size="10.00">shared_mutex</text>
</a>
</g>
</g>
<!-- Node2&#45;&gt;Node26 -->
<g id="edge25" class="edge">
<title>Node2&#45;&gt;Node26</title>
<path fill="none" stroke="#63b8ff" d="M1334.72,-79.36C1430.3,-77.22 1680.35,-68.12 1885,-30 1888.2,-29.4 1891.49,-28.68 1894.78,-27.88"/>
<polygon fill="#63b8ff" stroke="#63b8ff" points="1895.59,-31.29 1904.35,-25.34 1893.79,-24.53 1895.59,-31.29"/>
</g>
<!-- Node27 -->
<g id="node27" class="node">
<title>Node27</title>
<g id="a_node27"><a xlink:title=" ">
<polygon fill="#e0e0e0" stroke="#999999" points="2028,-24.5 1990,-24.5 1990,-5.5 2028,-5.5 2028,-24.5"/>
<text text-anchor="middle" x="2009" y="-12.5" font-family="Helvetica,sans-Serif" font-size="10.00">span</text>
</a>
</g>
</g>
<!-- Node2&#45;&gt;Node27 -->
<g id="edge26" class="edge">
<title>Node2&#45;&gt;Node27</title>
<path fill="none" stroke="#63b8ff" d="M1334.83,-79.13C1462.13,-76.02 1857.94,-63.82 1981,-30 1981.81,-29.78 1982.62,-29.53 1983.43,-29.27"/>
<polygon fill="#63b8ff" stroke="#63b8ff" points="1984.45,-32.63 1992.34,-25.56 1981.76,-26.17 1984.45,-32.63"/>
</g>
<!-- Node28 -->
<g id="node28" class="node">
<title>Node28</title>
<g id="a_node28"><a xlink:title=" ">
<polygon fill="#e0e0e0" stroke="#999999" points="2098,-24.5 2046,-24.5 2046,-5.5 2098,-5.5 2098,-24.5"/>
<text text-anchor="middle" x="2072" y="-12.5" font-family="Helvetica,sans-Serif" font-size="10.00">sstream</text>
</a>
</g>
</g>
<!-- Node2&#45;&gt;Node28 -->
<g id="edge27" class="edge">
<title>Node2&#45;&gt;Node28</title>
<path fill="none" stroke="#63b8ff" d="M1334.65,-78.96C1468.28,-75.2 1901.35,-60.89 2037,-30 2038.64,-29.63 2040.29,-29.19 2041.95,-28.7"/>
<polygon fill="#63b8ff" stroke="#63b8ff" points="2043,-32.05 2051.29,-25.46 2040.7,-25.43 2043,-32.05"/>
</g>
<!-- Node29 -->
<g id="node29" class="node">
<title>Node29</title>
<g id="a_node29"><a xlink:title=" ">
<polygon fill="#e0e0e0" stroke="#999999" points="2175.5,-24.5 2116.5,-24.5 2116.5,-5.5 2175.5,-5.5 2175.5,-24.5"/>
<text text-anchor="middle" x="2146" y="-12.5" font-family="Helvetica,sans-Serif" font-size="10.00">stdexcept</text>
</a>
</g>
</g>
<!-- Node2&#45;&gt;Node29 -->
<g id="edge28" class="edge">
<title>Node2&#45;&gt;Node29</title>
<path fill="none" stroke="#63b8ff" d="M1334.85,-79.04C1476.72,-75.38 1956.73,-60.94 2107,-30 2109.17,-29.55 2111.38,-29.01 2113.59,-28.41"/>
<polygon fill="#63b8ff" stroke="#63b8ff" points="2114.53,-31.78 2123.01,-25.42 2112.42,-25.11 2114.53,-31.78"/>
</g>
<!-- Node30 -->
<g id="node30" class="node">
<title>Node30</title>
<g id="a_node30"><a xlink:title=" ">
<polygon fill="#e0e0e0" stroke="#999999" points="2242,-24.5 2194,-24.5 2194,-5.5 2242,-5.5 2242,-24.5"/>
<text text-anchor="middle" x="2218" y="-12.5" font-family="Helvetica,sans-Serif" font-size="10.00">stdint.h</text>
</a>
</g>
</g>
<!-- Node2&#45;&gt;Node30 -->
<g id="edge29" class="edge">
<title>Node2&#45;&gt;Node30</title>
<path fill="none" stroke="#63b8ff" d="M1334.8,-79.58C1485.36,-77.71 2019.86,-68.44 2185,-30 2186.59,-29.63 2188.2,-29.19 2189.81,-28.69"/>
<polygon fill="#63b8ff" stroke="#63b8ff" points="2190.63,-32.12 2198.8,-25.39 2188.21,-25.56 2190.63,-32.12"/>
</g>
<!-- Node31 -->
<g id="node31" class="node">
<title>Node31</title>
<g id="a_node31"><a xlink:title=" ">
<polygon fill="#e0e0e0" stroke="#999999" points="2301.5,-24.5 2260.5,-24.5 2260.5,-5.5 2301.5,-5.5 2301.5,-24.5"/>
<text text-anchor="middle" x="2281" y="-12.5" font-family="Helvetica,sans-Serif" font-size="10.00">string</text>
</a>
</g>
</g>
<!-- Node2&#45;&gt;Node31 -->
<g id="edge30" class="edge">
<title>Node2&#45;&gt;Node31</title>
<path fill="none" stroke="#63b8ff" d="M1334.8,-79.94C1492.45,-79.39 2073.21,-74.35 2251,-30 2252.17,-29.71 2253.35,-29.37 2254.53,-28.99"/>
<polygon fill="#63b8ff" stroke="#63b8ff" points="2255.5,-32.38 2263.51,-25.44 2252.92,-25.87 2255.5,-32.38"/>
</g>
<!-- Node32 -->
<g id="node32" class="node">
<title>Node32</title>
<g id="a_node32"><a xlink:title=" ">
<polygon fill="#e0e0e0" stroke="#999999" points="2364,-24.5 2320,-24.5 2320,-5.5 2364,-5.5 2364,-24.5"/>
<text text-anchor="middle" x="2342" y="-12.5" font-family="Helvetica,sans-Serif" font-size="10.00">thread</text>
</a>
</g>
</g>
<!-- Node2&#45;&gt;Node32 -->
<g id="edge31" class="edge">
<title>Node2&#45;&gt;Node32</title>
<path fill="none" stroke="#63b8ff" d="M1334.75,-80.02C1498.44,-79.8 2120.76,-75.89 2311,-30 2312.21,-29.71 2313.42,-29.37 2314.64,-29"/>
<polygon fill="#63b8ff" stroke="#63b8ff" points="2315.85,-32.28 2323.94,-25.43 2313.35,-25.74 2315.85,-32.28"/>
</g>
<!-- Node33 -->
<g id="node33" class="node">
<title>Node33</title>
<g id="a_node33"><a xlink:title=" ">
<polygon fill="#e0e0e0" stroke="#999999" points="268,-24.5 206,-24.5 206,-5.5 268,-5.5 268,-24.5"/>
<text text-anchor="middle" x="237" y="-12.5" font-family="Helvetica,sans-Serif" font-size="10.00">type_traits</text>
</a>
</g>
</g>
<!-- Node2&#45;&gt;Node33 -->
<g id="edge32" class="edge">
<title>Node2&#45;&gt;Node33</title>
<path fill="none" stroke="#63b8ff" d="M1255.27,-79.57C1091.65,-77.57 469.45,-67.59 277,-30 274.54,-29.52 272.02,-28.92 269.5,-28.24"/>
<polygon fill="#63b8ff" stroke="#63b8ff" points="270.73,-24.95 260.14,-25.31 268.64,-31.63 270.73,-24.95"/>
</g>
<!-- Node34 -->
<g id="node34" class="node">
<title>Node34</title>
<g id="a_node34"><a xlink:title=" ">
<polygon fill="#e0e0e0" stroke="#999999" points="364,-24.5 286,-24.5 286,-5.5 364,-5.5 364,-24.5"/>
<text text-anchor="middle" x="325" y="-12.5" font-family="Helvetica,sans-Serif" font-size="10.00">unordered_set</text>
</a>
</g>
</g>
<!-- Node2&#45;&gt;Node34 -->
<g id="edge33" class="edge">
<title>Node2&#45;&gt;Node34</title>
<path fill="none" stroke="#63b8ff" d="M1255.22,-79.06C1101.55,-75.23 546.63,-59.62 373,-30 369.6,-29.42 366.1,-28.68 362.61,-27.85"/>
<polygon fill="#63b8ff" stroke="#63b8ff" points="363.68,-24.51 353.12,-25.34 361.89,-31.28 363.68,-24.51"/>
</g>
<!-- Node35 -->
<g id="node35" class="node">
<title>Node35</title>
<g id="a_node35"><a xlink:title=" ">
<polygon fill="#e0e0e0" stroke="#999999" points="428,-24.5 382,-24.5 382,-5.5 428,-5.5 428,-24.5"/>
<text text-anchor="middle" x="405" y="-12.5" font-family="Helvetica,sans-Serif" font-size="10.00">variant</text>
</a>
</g>
</g>
<!-- Node2&#45;&gt;Node35 -->
<g id="edge34" class="edge">
<title>Node2&#45;&gt;Node35</title>
<path fill="none" stroke="#63b8ff" d="M1255.11,-79.54C1107.9,-77.55 595.43,-67.98 437,-30 435.61,-29.67 434.2,-29.27 432.79,-28.84"/>
<polygon fill="#63b8ff" stroke="#63b8ff" points="434.23,-25.64 423.63,-25.39 431.76,-32.19 434.23,-25.64"/>
</g>
<!-- Node36 -->
<g id="node36" class="node">
<title>Node36</title>
<g id="a_node36"><a xlink:title=" ">
<polygon fill="#e0e0e0" stroke="#999999" points="490,-24.5 446,-24.5 446,-5.5 490,-5.5 490,-24.5"/>
<text text-anchor="middle" x="468" y="-12.5" font-family="Helvetica,sans-Serif" font-size="10.00">vector</text>
</a>
</g>
</g>
<!-- Node2&#45;&gt;Node36 -->
<g id="edge35" class="edge">
<title>Node2&#45;&gt;Node36</title>
<path fill="none" stroke="#63b8ff" d="M1255.36,-79.39C1115.37,-76.96 644.81,-66.22 499,-30 497.83,-29.71 496.64,-29.37 495.45,-29"/>
<polygon fill="#63b8ff" stroke="#63b8ff" points="496.99,-25.84 486.4,-25.53 494.48,-32.38 496.99,-25.84"/>
</g>
<!-- Node37&#45;&gt;Node2 -->
<g id="edge37" class="edge">
<title>Node37&#45;&gt;Node2</title>
<path fill="none" stroke="#63b8ff" d="M1169.48,-131.62C1194.04,-121.91 1233.62,-106.26 1261.77,-95.14"/>
<polygon fill="#63b8ff" stroke="#63b8ff" points="1262.89,-98.46 1270.9,-91.52 1260.32,-91.95 1262.89,-98.46"/>
</g>
<!-- Node38&#45;&gt;Node3 -->
<g id="edge39" class="edge">
<title>Node38&#45;&gt;Node3</title>
<path fill="none" stroke="#63b8ff" d="M115.82,-71.1C99.22,-60.69 71.49,-43.29 51.63,-30.83"/>
<polygon fill="#63b8ff" stroke="#63b8ff" points="53.68,-27.98 43.34,-25.63 49.95,-33.91 53.68,-27.98"/>
</g>
<!-- Node38&#45;&gt;Node6 -->
<g id="edge40" class="edge">
<title>Node38&#45;&gt;Node6</title>
<path fill="none" stroke="#63b8ff" d="M125.41,-71.1C120.58,-61.74 112.85,-46.73 106.66,-34.74"/>
<polygon fill="#63b8ff" stroke="#63b8ff" points="109.94,-33.45 102.24,-26.17 103.72,-36.66 109.94,-33.45"/>
</g>
<!-- Node38&#45;&gt;Node25 -->
<g id="edge41" class="edge">
<title>Node38&#45;&gt;Node25</title>
<path fill="none" stroke="#63b8ff" d="M134.59,-71.1C139.42,-61.74 147.15,-46.73 153.34,-34.74"/>
<polygon fill="#63b8ff" stroke="#63b8ff" points="156.28,-36.66 157.76,-26.17 150.06,-33.45 156.28,-36.66"/>
</g>
<!-- Node39&#45;&gt;Node2 -->
<g id="edge43" class="edge">
<title>Node39&#45;&gt;Node2</title>
<path fill="none" stroke="#63b8ff" d="M2199.16,-138.57C2063.24,-130.07 1516.93,-95.89 1346.23,-85.21"/>
<polygon fill="#63b8ff" stroke="#63b8ff" points="1346.54,-81.72 1336.34,-84.59 1346.11,-88.7 1346.54,-81.72"/>
</g>
<!-- Node40 -->
<g id="node40" class="node">
<title>Node40</title>
<g id="a_node40"><a xlink:href="../../dd/db5/spdlog_8hpp.html" target="_top" xlink:title="Provides integration with the SPDLOG library for efficient logging and debugging.">
<polygon fill="white" stroke="#666666" points="2586.5,-90.5 2489.5,-90.5 2489.5,-71.5 2586.5,-71.5 2586.5,-90.5"/>
<text text-anchor="middle" x="2538" y="-78.5" font-family="Helvetica,sans-Serif" font-size="10.00">include/spdlog.hpp</text>
</a>
</g>
</g>
<!-- Node39&#45;&gt;Node40 -->
<g id="edge44" class="edge">
<title>Node39&#45;&gt;Node40</title>
<path fill="none" stroke="#63b8ff" d="M2260.94,-134.62C2311.96,-124.93 2414.53,-105.45 2479.54,-93.1"/>
<polygon fill="#63b8ff" stroke="#63b8ff" points="2480.17,-96.55 2489.34,-91.24 2478.86,-89.67 2480.17,-96.55"/>
</g>
<!-- Node47 -->
<g id="node47" class="node">
<title>Node47</title>
<g id="a_node47"><a xlink:href="../../da/d43/debug__with__source__location_8hpp.html" target="_top" xlink:title="This file provides utility functions for debugging and assertion handling.">
<polygon fill="white" stroke="#666666" points="2731.5,-96 2604.5,-96 2604.5,-66 2731.5,-66 2731.5,-96"/>
<text text-anchor="start" x="2612.5" y="-84" font-family="Helvetica,sans-Serif" font-size="10.00">detail/debug_with_source</text>
<text text-anchor="middle" x="2668" y="-73" font-family="Helvetica,sans-Serif" font-size="10.00">_location.hpp</text>
</a>
</g>
</g>
<!-- Node39&#45;&gt;Node47 -->
<g id="edge51" class="edge">
<title>Node39&#45;&gt;Node47</title>
<path fill="none" stroke="#63b8ff" d="M2260.67,-136.98C2322.69,-130.37 2466.55,-115.01 2587,-96 2588.9,-95.7 2590.83,-95.39 2592.78,-95.06"/>
<polygon fill="#63b8ff" stroke="#63b8ff" points="2593.33,-98.52 2602.59,-93.36 2592.14,-91.62 2593.33,-98.52"/>
</g>
<!-- Node41 -->
<g id="node41" class="node">
<title>Node41</title>
<g id="a_node41"><a xlink:title=" ">
<polygon fill="#e0e0e0" stroke="#999999" points="2463.5,-24.5 2382.5,-24.5 2382.5,-5.5 2463.5,-5.5 2463.5,-24.5"/>
<text text-anchor="middle" x="2423" y="-12.5" font-family="Helvetica,sans-Serif" font-size="10.00">spdlog/async.h</text>
</a>
</g>
</g>
<!-- Node40&#45;&gt;Node41 -->
<g id="edge45" class="edge">
<title>Node40&#45;&gt;Node41</title>
<path fill="none" stroke="#63b8ff" d="M2522.01,-71.1C2503.04,-60.55 2471.17,-42.81 2448.72,-30.32"/>
<polygon fill="#63b8ff" stroke="#63b8ff" points="2450.62,-27.36 2440.18,-25.56 2447.21,-33.48 2450.62,-27.36"/>
</g>
<!-- Node42 -->
<g id="node42" class="node">
<title>Node42</title>
<g id="a_node42"><a xlink:title=" ">
<polygon fill="#e0e0e0" stroke="#999999" points="2594.5,-30 2481.5,-30 2481.5,0 2594.5,0 2594.5,-30"/>
<text text-anchor="start" x="2489.5" y="-18" font-family="Helvetica,sans-Serif" font-size="10.00">spdlog/sinks/ansicolor</text>
<text text-anchor="middle" x="2538" y="-7" font-family="Helvetica,sans-Serif" font-size="10.00">_sink.h</text>
</a>
</g>
</g>
<!-- Node40&#45;&gt;Node42 -->
<g id="edge46" class="edge">
<title>Node40&#45;&gt;Node42</title>
<path fill="none" stroke="#63b8ff" d="M2538,-71.1C2538,-63.41 2538,-51.92 2538,-41.42"/>
<polygon fill="#63b8ff" stroke="#63b8ff" points="2541.5,-41.75 2538,-31.75 2534.5,-41.75 2541.5,-41.75"/>
</g>
<!-- Node43 -->
<g id="node43" class="node">
<title>Node43</title>
<g id="a_node43"><a xlink:title=" ">
<polygon fill="#e0e0e0" stroke="#999999" points="2711,-30 2613,-30 2613,0 2711,0 2711,-30"/>
<text text-anchor="start" x="2621" y="-18" font-family="Helvetica,sans-Serif" font-size="10.00">spdlog/sinks/basic</text>
<text text-anchor="middle" x="2662" y="-7" font-family="Helvetica,sans-Serif" font-size="10.00">_file_sink.h</text>
</a>
</g>
</g>
<!-- Node40&#45;&gt;Node43 -->
<g id="edge47" class="edge">
<title>Node40&#45;&gt;Node43</title>
<path fill="none" stroke="#63b8ff" d="M2555.24,-71.1C2572.9,-61.99 2600.93,-47.52 2623.84,-35.7"/>
<polygon fill="#63b8ff" stroke="#63b8ff" points="2625.32,-38.87 2632.6,-31.17 2622.11,-32.65 2625.32,-38.87"/>
</g>
<!-- Node44 -->
<g id="node44" class="node">
<title>Node44</title>
<g id="a_node44"><a xlink:title=" ">
<polygon fill="#e0e0e0" stroke="#999999" points="2830.5,-30 2729.5,-30 2729.5,0 2830.5,0 2830.5,-30"/>
<text text-anchor="start" x="2737.5" y="-18" font-family="Helvetica,sans-Serif" font-size="10.00">spdlog/sinks/stdout</text>
<text text-anchor="middle" x="2780" y="-7" font-family="Helvetica,sans-Serif" font-size="10.00">_color_sinks.h</text>
</a>
</g>
</g>
<!-- Node40&#45;&gt;Node44 -->
<g id="edge48" class="edge">
<title>Node40&#45;&gt;Node44</title>
<path fill="none" stroke="#63b8ff" d="M2571.9,-71.03C2609.72,-61.03 2671.67,-44.65 2718.17,-32.35"/>
<polygon fill="#63b8ff" stroke="#63b8ff" points="2718.8,-35.81 2727.57,-29.87 2717.01,-29.04 2718.8,-35.81"/>
</g>
<!-- Node45 -->
<g id="node45" class="node">
<title>Node45</title>
<g id="a_node45"><a xlink:title=" ">
<polygon fill="#e0e0e0" stroke="#999999" points="2933,-24.5 2849,-24.5 2849,-5.5 2933,-5.5 2933,-24.5"/>
<text text-anchor="middle" x="2891" y="-12.5" font-family="Helvetica,sans-Serif" font-size="10.00">spdlog/spdlog.h</text>
</a>
</g>
</g>
<!-- Node40&#45;&gt;Node45 -->
<g id="edge49" class="edge">
<title>Node40&#45;&gt;Node45</title>
<path fill="none" stroke="#63b8ff" d="M2572.85,-71.05C2580.45,-69.25 2588.47,-67.46 2596,-66 2703.61,-45.12 2732.73,-52.55 2840,-30 2843.16,-29.34 2846.41,-28.59 2849.67,-27.8"/>
<polygon fill="#63b8ff" stroke="#63b8ff" points="2850.39,-31.23 2859.21,-25.35 2848.65,-24.45 2850.39,-31.23"/>
</g>
<!-- Node46 -->
<g id="node46" class="node">
<title>Node46</title>
<g id="a_node46"><a xlink:href="../../d4/dfc/win-undef_8hpp.html" target="_top" xlink:title=" ">
<polygon fill="white" stroke="#666666" points="3028.5,-24.5 2951.5,-24.5 2951.5,-5.5 3028.5,-5.5 3028.5,-24.5"/>
<text text-anchor="middle" x="2990" y="-12.5" font-family="Helvetica,sans-Serif" font-size="10.00">win&#45;undef.hpp</text>
</a>
</g>
</g>
<!-- Node40&#45;&gt;Node46 -->
<g id="edge50" class="edge">
<title>Node40&#45;&gt;Node46</title>
<path fill="none" stroke="#63b8ff" d="M2571.89,-71.02C2579.76,-69.16 2588.14,-67.35 2596,-66 2748.37,-39.8 2790.28,-59.77 2942,-30 2945.15,-29.38 2948.4,-28.65 2951.65,-27.85"/>
<polygon fill="#63b8ff" stroke="#63b8ff" points="2952.33,-31.29 2961.08,-25.32 2950.52,-24.53 2952.33,-31.29"/>
</g>
<!-- Node47&#45;&gt;Node39 -->
<g id="edge52" class="edge">
<title>Node47&#45;&gt;Node39</title>
<path fill="none" stroke="#63b8ff" d="M2604.26,-96.12C2484.56,-114.98 2341.97,-130.23 2272.29,-136.89"/>
<polygon fill="#63b8ff" stroke="#63b8ff" points="2272.08,-133.39 2262.46,-137.81 2272.74,-140.36 2272.08,-133.39"/>
</g>
<!-- Node48&#45;&gt;Node2 -->
<g id="edge56" class="edge">
<title>Node48&#45;&gt;Node2</title>
<path fill="none" stroke="#63b8ff" d="M1449.55,-186.59C1469.99,-174.43 1500.31,-151.86 1485,-132 1468.14,-110.13 1396.62,-95.93 1346.32,-88.44"/>
<polygon fill="#63b8ff" stroke="#63b8ff" points="1346.88,-84.98 1336.48,-87.02 1345.88,-91.91 1346.88,-84.98"/>
</g>
<!-- Node49 -->
<g id="node49" class="node">
<title>Node49</title>
<g id="a_node49"><a xlink:href="../../dc/d94/event_8hpp.html" target="_top" xlink:title="Defines event handling and notification mechanisms.">
<polygon fill="white" stroke="#666666" points="1475.5,-151 1416.5,-151 1416.5,-132 1475.5,-132 1475.5,-151"/>
<text text-anchor="middle" x="1446" y="-139" font-family="Helvetica,sans-Serif" font-size="10.00">event.hpp</text>
</a>
</g>
</g>
<!-- Node48&#45;&gt;Node49 -->
<g id="edge54" class="edge">
<title>Node48&#45;&gt;Node49</title>
<path fill="none" stroke="#63b8ff" d="M1435.15,-186.75C1436.76,-180.19 1439.02,-170.95 1441.07,-162.6"/>
<polygon fill="#63b8ff" stroke="#63b8ff" points="1444.46,-163.46 1443.45,-152.91 1437.66,-161.79 1444.46,-163.46"/>
</g>
<!-- Node49&#45;&gt;Node2 -->
<g id="edge55" class="edge">
<title>Node49&#45;&gt;Node2</title>
<path fill="none" stroke="#63b8ff" d="M1423.07,-131.62C1397.9,-121.87 1357.27,-106.12 1328.52,-94.99"/>
<polygon fill="#63b8ff" stroke="#63b8ff" points="1330.15,-91.86 1319.56,-91.52 1327.62,-98.39 1330.15,-91.86"/>
</g>
<!-- Node50&#45;&gt;Node39 -->
<g id="edge58" class="edge">
<title>Node50&#45;&gt;Node39</title>
<path fill="none" stroke="#63b8ff" d="M1892.67,-190.18C1963.11,-180.22 2114.25,-158.86 2187.91,-148.45"/>
<polygon fill="#63b8ff" stroke="#63b8ff" points="2188.14,-151.95 2197.55,-147.09 2187.16,-145.02 2188.14,-151.95"/>
</g>
<!-- Node50&#45;&gt;Node51 -->
<g id="edge59" class="edge">
<title>Node50&#45;&gt;Node51</title>
<path fill="none" stroke="#63b8ff" d="M1842.62,-186.51C1831.85,-178.7 1816.03,-167.21 1803.25,-157.93"/>
<polygon fill="#63b8ff" stroke="#63b8ff" points="1805.57,-155.29 1795.43,-152.25 1801.46,-160.95 1805.57,-155.29"/>
</g>
<!-- Node54&#45;&gt;Node2 -->
<g id="edge64" class="edge">
<title>Node54&#45;&gt;Node2</title>
<path fill="none" stroke="#63b8ff" d="M1280.38,-186.87C1274.43,-174.66 1265.37,-151.62 1270,-132 1272.6,-120.99 1278.02,-109.63 1283.15,-100.54"/>
<polygon fill="#63b8ff" stroke="#63b8ff" points="1286.11,-102.4 1288.27,-92.03 1280.11,-98.79 1286.11,-102.4"/>
</g>
<!-- Node56&#45;&gt;Node2 -->
<g id="edge67" class="edge">
<title>Node56&#45;&gt;Node2</title>
<path fill="none" stroke="#63b8ff" d="M1332.51,-131.87C1326.14,-123.4 1316.24,-110.24 1308.21,-99.57"/>
<polygon fill="#63b8ff" stroke="#63b8ff" points="1311.24,-97.76 1302.43,-91.88 1305.64,-101.97 1311.24,-97.76"/>
</g>
<!-- Node57&#45;&gt;Node2 -->
<g id="edge69" class="edge">
<title>Node57&#45;&gt;Node2</title>
<path fill="none" stroke="#63b8ff" d="M1531.68,-131.81C1482.22,-121.4 1399.39,-103.97 1346,-92.73"/>
<polygon fill="#63b8ff" stroke="#63b8ff" points="1346.73,-89.31 1336.22,-90.67 1345.29,-96.16 1346.73,-89.31"/>
</g>
</g>
</svg>
