<?xml version="1.0" encoding="UTF-8" standalone="no"?>
<!DOCTYPE svg PUBLIC "-//W3C//DTD SVG 1.1//EN"
 "http://www.w3.org/Graphics/SVG/1.1/DTD/svg11.dtd">
<!-- Generated by graphviz version 7.0.5 (20221223.1930)
 -->
<!-- Title: mal&#45;toolkit/mal&#45;toolkit/timer.hpp Pages: 1 -->
<svg width="160pt" height="170pt"
 viewBox="0.00 0.00 160.00 170.00" xmlns="http://www.w3.org/2000/svg" xmlns:xlink="http://www.w3.org/1999/xlink">
<g id="graph0" class="graph" transform="scale(1 1) rotate(0) translate(4 166)">
<title>mal&#45;toolkit/mal&#45;toolkit/timer.hpp</title>
<!-- Node1 -->
<g id="node1" class="node">
<title>Node1</title>
<g id="a_node1"><a xlink:title="Implements timer utilities for measuring elapsed time and intervals.">
<polygon fill="#999999" stroke="#666666" points="110,-162 0,-162 0,-132 110,-132 110,-162"/>
<text text-anchor="start" x="8" y="-150" font-family="Helvetica,sans-Serif" font-size="10.00">mal&#45;toolkit/mal&#45;toolkit</text>
<text text-anchor="middle" x="55" y="-139" font-family="Helvetica,sans-Serif" font-size="10.00">/timer.hpp</text>
</a>
</g>
</g>
<!-- Node2 -->
<g id="node2" class="node">
<title>Node2</title>
<g id="a_node2"><a xlink:href="../../d1/d08/mal__toolkit_8hpp.html" target="_top" xlink:title="Main header file for the MAL Toolkit library, providing a comprehensive set of tools and utilities.">
<polygon fill="white" stroke="#666666" points="110,-30 0,-30 0,0 110,0 110,-30"/>
<text text-anchor="start" x="8" y="-18" font-family="Helvetica,sans-Serif" font-size="10.00">mal&#45;toolkit/mal&#45;toolkit</text>
<text text-anchor="middle" x="55" y="-7" font-family="Helvetica,sans-Serif" font-size="10.00">/mal_toolkit.hpp</text>
</a>
</g>
</g>
<!-- Node1&#45;&gt;Node2 -->
<g id="edge1" class="edge">
<title>Node1&#45;&gt;Node2</title>
<path fill="none" stroke="#63b8ff" d="M41.74,-121.36C38.17,-113.48 34.8,-104.58 33,-96 30.26,-82.95 30.26,-79.05 33,-66 35.65,-53.38 41.7,-40.06 46.78,-30.34"/>
<polygon fill="#63b8ff" stroke="#63b8ff" points="38.58,-122.85 46.11,-130.3 44.87,-119.78 38.58,-122.85"/>
</g>
<!-- Node3 -->
<g id="node3" class="node">
<title>Node3</title>
<g id="a_node3"><a xlink:href="../../d0/db4/measurer_8hpp.html" target="_top" xlink:title="Implements performance measurement and profiling utilities.">
<polygon fill="white" stroke="#666666" points="152,-96 42,-96 42,-66 152,-66 152,-96"/>
<text text-anchor="start" x="50" y="-84" font-family="Helvetica,sans-Serif" font-size="10.00">mal&#45;toolkit/mal&#45;toolkit</text>
<text text-anchor="middle" x="97" y="-73" font-family="Helvetica,sans-Serif" font-size="10.00">/measurer.hpp</text>
</a>
</g>
</g>
<!-- Node1&#45;&gt;Node3 -->
<g id="edge2" class="edge">
<title>Node1&#45;&gt;Node3</title>
<path fill="none" stroke="#63b8ff" d="M70.49,-122.39C76.27,-113.59 82.65,-103.86 87.7,-96.16"/>
<polygon fill="#63b8ff" stroke="#63b8ff" points="67.71,-120.25 65.15,-130.53 73.56,-124.09 67.71,-120.25"/>
</g>
<!-- Node3&#45;&gt;Node2 -->
<g id="edge3" class="edge">
<title>Node3&#45;&gt;Node2</title>
<path fill="none" stroke="#63b8ff" d="M81.51,-56.39C75.73,-47.59 69.35,-37.86 64.3,-30.16"/>
<polygon fill="#63b8ff" stroke="#63b8ff" points="78.44,-58.09 86.85,-64.53 84.29,-54.25 78.44,-58.09"/>
</g>
</g>
</svg>
