<?xml version="1.0" encoding="UTF-8" standalone="no"?>
<!DOCTYPE svg PUBLIC "-//W3C//DTD SVG 1.1//EN"
 "http://www.w3.org/Graphics/SVG/1.1/DTD/svg11.dtd">
<!-- Generated by graphviz version 7.0.5 (20221223.1930)
 -->
<!-- Title: mal&#45;toolkit/timer.hpp Pages: 1 -->
<svg width="180pt" height="137pt"
 viewBox="0.00 0.00 179.50 137.00" xmlns="http://www.w3.org/2000/svg" xmlns:xlink="http://www.w3.org/1999/xlink">
<g id="graph0" class="graph" transform="scale(1 1) rotate(0) translate(4 133)">
<title>mal&#45;toolkit/timer.hpp</title>
<!-- Node1 -->
<g id="node1" class="node">
<title>Node1</title>
<g id="a_node1"><a xlink:title="Implements timer utilities for measuring elapsed time and intervals.">
<polygon fill="#999999" stroke="#666666" points="117,-129 13,-129 13,-110 117,-110 117,-129"/>
<text text-anchor="middle" x="65" y="-117" font-family="Helvetica,sans-Serif" font-size="10.00">mal&#45;toolkit/timer.hpp</text>
</a>
</g>
</g>
<!-- Node2 -->
<g id="node2" class="node">
<title>Node2</title>
<g id="a_node2"><a xlink:href="../../d1/d08/mal__toolkit_8hpp.html" target="_top" xlink:title="Master header file for the MAL Toolkit library, providing a comprehensive set of tools and utilities.">
<polygon fill="white" stroke="#666666" points="130,-19 0,-19 0,0 130,0 130,-19"/>
<text text-anchor="middle" x="65" y="-7" font-family="Helvetica,sans-Serif" font-size="10.00">mal&#45;toolkit/mal_toolkit.hpp</text>
</a>
</g>
</g>
<!-- Node1&#45;&gt;Node2 -->
<g id="edge1" class="edge">
<title>Node1&#45;&gt;Node2</title>
<path fill="none" stroke="#63b8ff" d="M51.41,-100.27C46.48,-92.58 41.51,-83.26 39,-74 33.52,-53.76 47.86,-31.34 57.36,-19.3"/>
<polygon fill="#63b8ff" stroke="#63b8ff" points="48.44,-102.13 57.01,-108.36 54.19,-98.14 48.44,-102.13"/>
</g>
<!-- Node3 -->
<g id="node3" class="node">
<title>Node3</title>
<g id="a_node3"><a xlink:href="../../d0/db4/measurer_8hpp.html" target="_top" xlink:title="Implements performance measurement and profiling utilities.">
<polygon fill="white" stroke="#666666" points="171.5,-74 48.5,-74 48.5,-55 171.5,-55 171.5,-74"/>
<text text-anchor="middle" x="110" y="-62" font-family="Helvetica,sans-Serif" font-size="10.00">mal&#45;toolkit/measurer.hpp</text>
</a>
</g>
</g>
<!-- Node1&#45;&gt;Node3 -->
<g id="edge2" class="edge">
<title>Node1&#45;&gt;Node3</title>
<path fill="none" stroke="#63b8ff" d="M79.68,-101.22C87.26,-92.28 96.21,-81.74 102.41,-74.44"/>
<polygon fill="#63b8ff" stroke="#63b8ff" points="77.21,-98.71 73.41,-108.59 82.55,-103.24 77.21,-98.71"/>
</g>
<!-- Node3&#45;&gt;Node2 -->
<g id="edge3" class="edge">
<title>Node3&#45;&gt;Node2</title>
<path fill="none" stroke="#63b8ff" d="M95.32,-46.22C87.74,-37.28 78.79,-26.74 72.59,-19.44"/>
<polygon fill="#63b8ff" stroke="#63b8ff" points="92.45,-48.24 101.59,-53.59 97.79,-43.71 92.45,-48.24"/>
</g>
</g>
</svg>
