<?xml version="1.0" encoding="UTF-8" standalone="no"?>
<!DOCTYPE svg PUBLIC "-//W3C//DTD SVG 1.1//EN"
 "http://www.w3.org/Graphics/SVG/1.1/DTD/svg11.dtd">
<!-- Generated by graphviz version 9.0.0 (20230911.1827)
 -->
<!-- Title: mal_toolkit::CallbackSystem&lt; F &gt; Pages: 1 -->
<svg width="794pt" height="197pt"
 viewBox="0.00 0.00 794.30 197.25" xmlns="http://www.w3.org/2000/svg" xmlns:xlink="http://www.w3.org/1999/xlink">
<g id="graph0" class="graph" transform="scale(1 1) rotate(0) translate(4 193.25)">
<title>mal_toolkit::CallbackSystem&lt; F &gt;</title>
<!-- Node1 -->
<g id="Node000001" class="node">
<title>Node1</title>
<g id="a_Node000001"><a xlink:title="A system for managing and invoking callback functions.">
<polygon fill="#999999" stroke="#666666" points="786.3,-66.25 634.55,-66.25 634.55,-47 786.3,-47 786.3,-66.25"/>
<text text-anchor="middle" x="710.42" y="-52.75" font-family="Times,serif" font-size="10.00">mal_toolkit::CallbackSystem&lt; F &gt;</text>
</a>
</g>
</g>
<!-- Node2 -->
<g id="Node000002" class="node">
<title>Node2</title>
<g id="a_Node000002"><a xlink:title=" ">
<polygon fill="white" stroke="#666666" points="498.42,-146.88 382.67,-146.88 382.67,-116.38 498.42,-116.38 498.42,-146.88"/>
<text text-anchor="start" x="390.67" y="-133.38" font-family="Times,serif" font-size="10.00">std::unordered_map</text>
<text text-anchor="middle" x="440.55" y="-122.12" font-family="Times,serif" font-size="10.00">&lt; CallbackId, Callback &gt;</text>
</a>
</g>
</g>
<!-- Node2&#45;&gt;Node1 -->
<g id="edge1_Node000001_Node000002" class="edge">
<title>Node2&#45;&gt;Node1</title>
<g id="a_edge1_Node000001_Node000002"><a xlink:title=" ">
<path fill="none" stroke="#9a32cd" stroke-dasharray="5,2" d="M508.56,-112.86C560.81,-98.23 631.36,-78.48 673.44,-66.7"/>
<polygon fill="#9a32cd" stroke="#9a32cd" points="507.85,-109.43 499.16,-115.49 509.74,-116.17 507.85,-109.43"/>
</a>
</g>
<text text-anchor="middle" x="574.55" y="-107.38" font-family="Times,serif" font-size="10.00" fill="grey"> callbacks_</text>
</g>
<!-- Node3 -->
<g id="Node000003" class="node">
<title>Node3</title>
<g id="a_Node000003"><a xlink:title=" ">
<polygon fill="white" stroke="#666666" points="178.67,-77.25 119.17,-77.25 119.17,-58 178.67,-58 178.67,-77.25"/>
<text text-anchor="middle" x="148.92" y="-63.75" font-family="Times,serif" font-size="10.00">CallbackId</text>
</a>
</g>
</g>
<!-- Node3&#45;&gt;Node2 -->
<g id="edge2_Node000002_Node000003" class="edge">
<title>Node3&#45;&gt;Node2</title>
<g id="a_edge2_Node000002_Node000003"><a xlink:title=" ">
<path fill="none" stroke="#9a32cd" stroke-dasharray="5,2" d="M190.3,-64.33C231.12,-62.26 295.57,-62.46 348.55,-78.38 375.02,-86.33 401.93,-103.42 419.54,-116.11"/>
<polygon fill="#9a32cd" stroke="#9a32cd" points="190.23,-60.83 180.45,-64.91 190.64,-67.82 190.23,-60.83"/>
</a>
</g>
<text text-anchor="middle" x="281.42" y="-80.38" font-family="Times,serif" font-size="10.00" fill="grey"> keys</text>
</g>
<!-- Node8 -->
<g id="Node000008" class="node">
<title>Node8</title>
<g id="a_Node000008"><a xlink:title=" ">
<polygon fill="white" stroke="#666666" points="514.55,-71.88 366.55,-71.88 366.55,-41.38 514.55,-41.38 514.55,-71.88"/>
<text text-anchor="start" x="374.55" y="-58.38" font-family="Times,serif" font-size="10.00">std::unordered_map</text>
<text text-anchor="middle" x="440.55" y="-47.12" font-family="Times,serif" font-size="10.00">&lt; CallbackId, CallbackAddress &gt;</text>
</a>
</g>
</g>
<!-- Node3&#45;&gt;Node8 -->
<g id="edge8_Node000008_Node000003" class="edge">
<title>Node3&#45;&gt;Node8</title>
<g id="a_edge8_Node000008_Node000003"><a xlink:title=" ">
<path fill="none" stroke="#9a32cd" stroke-dasharray="5,2" d="M182.47,-53.4C192.48,-49.7 203.67,-46.24 214.3,-44.38 264.55,-35.58 321.97,-38.91 366.27,-44.29"/>
<polygon fill="#9a32cd" stroke="#9a32cd" points="181.19,-50.14 173.16,-57.05 183.75,-56.66 181.19,-50.14"/>
</a>
</g>
<text text-anchor="middle" x="281.42" y="-46.38" font-family="Times,serif" font-size="10.00" fill="grey"> keys</text>
</g>
<!-- Node4 -->
<g id="Node000004" class="node">
<title>Node4</title>
<g id="a_Node000004"><a xlink:title=" ">
<polygon fill="white" stroke="#666666" points="174.55,-189.25 123.3,-189.25 123.3,-170 174.55,-170 174.55,-189.25"/>
<text text-anchor="middle" x="148.92" y="-175.75" font-family="Times,serif" font-size="10.00">Callback</text>
</a>
</g>
</g>
<!-- Node4&#45;&gt;Node2 -->
<g id="edge3_Node000002_Node000004" class="edge">
<title>Node4&#45;&gt;Node2</title>
<g id="a_edge3_Node000002_Node000004"><a xlink:title=" ">
<path fill="none" stroke="#9a32cd" stroke-dasharray="5,2" d="M186.22,-173.61C235.52,-165.44 324.17,-150.75 382.44,-141.09"/>
<polygon fill="#9a32cd" stroke="#9a32cd" points="185.66,-170.16 176.36,-175.24 186.8,-177.06 185.66,-170.16"/>
</a>
</g>
<text text-anchor="middle" x="281.42" y="-170.38" font-family="Times,serif" font-size="10.00" fill="grey"> elements</text>
</g>
<!-- Node5 -->
<g id="Node000005" class="node">
<title>Node5</title>
<g id="a_Node000005"><a xlink:title=" ">
<polygon fill="white" stroke="#666666" points="196.3,-136.88 101.55,-136.88 101.55,-106.38 196.3,-106.38 196.3,-136.88"/>
<text text-anchor="start" x="109.55" y="-123.38" font-family="Times,serif" font-size="10.00">std::unordered_map</text>
<text text-anchor="middle" x="148.92" y="-112.12" font-family="Times,serif" font-size="10.00">&lt; K, T &gt;</text>
</a>
</g>
</g>
<!-- Node5&#45;&gt;Node2 -->
<g id="edge4_Node000002_Node000005" class="edge">
<title>Node5&#45;&gt;Node2</title>
<g id="a_edge4_Node000002_Node000005"><a xlink:title=" ">
<path fill="none" stroke="orange" stroke-dasharray="5,2" d="M208.2,-123.64C258.89,-125.39 331.91,-127.91 382.3,-129.65"/>
<polygon fill="orange" stroke="orange" points="208.41,-120.14 198.29,-123.3 208.17,-127.14 208.41,-120.14"/>
</a>
</g>
<text text-anchor="middle" x="281.42" y="-130.38" font-family="Times,serif" font-size="10.00" fill="grey"> &lt; CallbackId, Callback &gt;</text>
</g>
<!-- Node5&#45;&gt;Node8 -->
<g id="edge10_Node000008_Node000005" class="edge">
<title>Node5&#45;&gt;Node8</title>
<g id="a_edge10_Node000008_Node000005"><a xlink:title=" ">
<path fill="none" stroke="orange" stroke-dasharray="5,2" d="M207.78,-111.46C209.98,-111.09 212.16,-110.73 214.3,-110.38 273.87,-100.57 290.06,-104.6 348.55,-89.62 366.3,-85.08 385.43,-78.43 401.55,-72.28"/>
<polygon fill="orange" stroke="orange" points="207.44,-107.97 198.16,-113.09 208.61,-114.87 207.44,-107.97"/>
</a>
</g>
<text text-anchor="middle" x="281.42" y="-112.38" font-family="Times,serif" font-size="10.00" fill="grey"> &lt; CallbackId, CallbackAddress &gt;</text>
</g>
<!-- Node6 -->
<g id="Node000006" class="node">
<title>Node6</title>
<g id="a_Node000006"><a xlink:title=" ">
<polygon fill="white" stroke="#666666" points="28.8,-149.25 0,-149.25 0,-130 28.8,-130 28.8,-149.25"/>
<text text-anchor="middle" x="14.4" y="-135.75" font-family="Times,serif" font-size="10.00">K</text>
</a>
</g>
</g>
<!-- Node6&#45;&gt;Node5 -->
<g id="edge5_Node000005_Node000006" class="edge">
<title>Node6&#45;&gt;Node5</title>
<g id="a_edge5_Node000005_Node000006"><a xlink:title=" ">
<path fill="none" stroke="#9a32cd" stroke-dasharray="5,2" d="M40.34,-136.24C57.46,-133.91 80.7,-130.76 101.2,-127.97"/>
<polygon fill="#9a32cd" stroke="#9a32cd" points="40.02,-132.75 30.58,-137.56 40.96,-139.68 40.02,-132.75"/>
</a>
</g>
<text text-anchor="middle" x="65.17" y="-137.38" font-family="Times,serif" font-size="10.00" fill="grey"> keys</text>
</g>
<!-- Node7 -->
<g id="Node000007" class="node">
<title>Node7</title>
<g id="a_Node000007"><a xlink:title=" ">
<polygon fill="white" stroke="#666666" points="28.8,-112.25 0,-112.25 0,-93 28.8,-93 28.8,-112.25"/>
<text text-anchor="middle" x="14.4" y="-98.75" font-family="Times,serif" font-size="10.00">T</text>
</a>
</g>
</g>
<!-- Node7&#45;&gt;Node5 -->
<g id="edge6_Node000005_Node000007" class="edge">
<title>Node7&#45;&gt;Node5</title>
<g id="a_edge6_Node000005_Node000007"><a xlink:title=" ">
<path fill="none" stroke="#9a32cd" stroke-dasharray="5,2" d="M40.34,-106.2C57.46,-108.65 80.7,-111.99 101.2,-114.93"/>
<polygon fill="#9a32cd" stroke="#9a32cd" points="40.98,-102.76 30.58,-104.8 39.98,-109.69 40.98,-102.76"/>
</a>
</g>
<text text-anchor="middle" x="65.17" y="-114.38" font-family="Times,serif" font-size="10.00" fill="grey"> elements</text>
</g>
<!-- Node8&#45;&gt;Node1 -->
<g id="edge7_Node000001_Node000008" class="edge">
<title>Node8&#45;&gt;Node1</title>
<g id="a_edge7_Node000001_Node000008"><a xlink:title=" ">
<path fill="none" stroke="#9a32cd" stroke-dasharray="5,2" d="M525.85,-56.62C560.66,-56.62 600.68,-56.62 634.45,-56.62"/>
<polygon fill="#9a32cd" stroke="#9a32cd" points="526.26,-53.13 516.26,-56.63 526.26,-60.13 526.26,-53.13"/>
</a>
</g>
<text text-anchor="middle" x="574.55" y="-58.38" font-family="Times,serif" font-size="10.00" fill="grey"> callback_addresses_</text>
</g>
<!-- Node9 -->
<g id="Node000009" class="node">
<title>Node9</title>
<g id="a_Node000009"><a xlink:title=" ">
<polygon fill="white" stroke="#666666" points="190.67,-19.25 107.17,-19.25 107.17,0 190.67,0 190.67,-19.25"/>
<text text-anchor="middle" x="148.92" y="-5.75" font-family="Times,serif" font-size="10.00">CallbackAddress</text>
</a>
</g>
</g>
<!-- Node9&#45;&gt;Node8 -->
<g id="edge9_Node000008_Node000009" class="edge">
<title>Node9&#45;&gt;Node8</title>
<g id="a_edge9_Node000008_Node000009"><a xlink:title=" ">
<path fill="none" stroke="#9a32cd" stroke-dasharray="5,2" d="M202.42,-8.49C242.95,-8.82 300.09,-11.9 348.55,-24.38 357.07,-26.57 358.36,-29.41 366.55,-32.62 373.88,-35.5 381.71,-38.32 389.41,-40.97"/>
<polygon fill="#9a32cd" stroke="#9a32cd" points="202.45,-4.99 192.45,-8.47 202.44,-11.99 202.45,-4.99"/>
</a>
</g>
<text text-anchor="middle" x="281.42" y="-26.38" font-family="Times,serif" font-size="10.00" fill="grey"> elements</text>
</g>
<!-- Node10 -->
<g id="Node000010" class="node">
<title>Node10</title>
<g id="a_Node000010"><a xlink:title=" ">
<polygon fill="white" stroke="#666666" points="465.42,-23.25 415.67,-23.25 415.67,-4 465.42,-4 465.42,-23.25"/>
<text text-anchor="middle" x="440.55" y="-9.75" font-family="Times,serif" font-size="10.00">uint32_t</text>
</a>
</g>
</g>
<!-- Node10&#45;&gt;Node1 -->
<g id="edge11_Node000001_Node000010" class="edge">
<title>Node10&#45;&gt;Node1</title>
<g id="a_edge11_Node000001_Node000010"><a xlink:title=" ">
<path fill="none" stroke="#9a32cd" stroke-dasharray="5,2" d="M477.07,-19.2C512.43,-24.76 568.26,-33.58 616.55,-41.38 626.87,-43.04 637.84,-44.83 648.48,-46.57"/>
<polygon fill="#9a32cd" stroke="#9a32cd" points="477.82,-15.77 467.4,-17.68 476.73,-22.69 477.82,-15.77"/>
</a>
</g>
<text text-anchor="middle" x="574.55" y="-43.38" font-family="Times,serif" font-size="10.00" fill="grey"> next_id_</text>
</g>
</g>
</svg>
