<?xml version="1.0" encoding="UTF-8" standalone="no"?>
<!DOCTYPE svg PUBLIC "-//W3C//DTD SVG 1.1//EN"
 "http://www.w3.org/Graphics/SVG/1.1/DTD/svg11.dtd">
<!-- Generated by graphviz version 8.1.0 (20230707.0739)
 -->
<!-- Title: mal&#45;toolkit/mal&#45;toolkit/include/win&#45;undef.hpp Pages: 1 -->
<svg width="412pt" height="316pt"
 viewBox="0.00 0.00 412.12 315.75" xmlns="http://www.w3.org/2000/svg" xmlns:xlink="http://www.w3.org/1999/xlink">

<svg id="main" version="1.1" xmlns="http://www.w3.org/2000/svg" xmlns:xlink="http://www.w3.org/1999/xlink" xml:space="preserve" onload="init(evt)">
<style type="text/css"><![CDATA[
.node, .edge {opacity: 0.7;}
.node.selected, .edge.selected {opacity: 1;}
.edge:hover path { stroke: red; }
.edge:hover polygon { stroke: red; fill: red; }
]]></style>
<script type="application/ecmascript" xlink:href="../../svg.min.js"/>
<svg id="graph" class="graph">
<g id="graph0" class="graph" transform="scale(1 1) rotate(0) translate(4 311.75)">
<title>mal&#45;toolkit/mal&#45;toolkit/include/win&#45;undef.hpp</title>
<!-- Node1 -->
<g id="Node000001" class="node">
<title>Node1</title>
<g id="a_Node000001"><a xlink:title=" ">
<polygon fill="#999999" stroke="#666666" points="247.12,-307.75 136.62,-307.75 136.62,-277.25 247.12,-277.25 247.12,-307.75"/>
<text text-anchor="start" x="144.62" y="-294.25" font-family="Times,serif" font-size="10.00">mal&#45;toolkit/mal&#45;toolkit</text>
<text text-anchor="middle" x="191.88" y="-283" font-family="Times,serif" font-size="10.00">/include/win&#45;undef.hpp</text>
</a>
</g>
</g>
<!-- Node2 -->
<g id="Node000002" class="node">
<title>Node2</title>
<g id="a_Node000002"><a xlink:href="../../dd/db5/spdlog_8hpp.html" target="_top" xlink:title="Provides integration with the SPDLOG library for efficient logging and debugging.">
<polygon fill="white" stroke="#666666" points="244.12,-241.25 139.62,-241.25 139.62,-210.75 244.12,-210.75 244.12,-241.25"/>
<text text-anchor="start" x="147.62" y="-227.75" font-family="Times,serif" font-size="10.00">mal&#45;toolkit/mal&#45;toolkit</text>
<text text-anchor="middle" x="191.88" y="-216.5" font-family="Times,serif" font-size="10.00">/include/spdlog.hpp</text>
</a>
</g>
</g>
<!-- Node1&#45;&gt;Node2 -->
<g id="edge1_Node000001_Node000002" class="edge">
<title>Node1&#45;&gt;Node2</title>
<g id="a_edge1_Node000001_Node000002"><a xlink:title=" ">
<path fill="none" stroke="#63b8ff" d="M191.88,-266.13C191.88,-257.8 191.88,-248.83 191.88,-241.58"/>
<polygon fill="#63b8ff" stroke="#63b8ff" points="188.38,-265.86 191.88,-275.86 195.38,-265.86 188.38,-265.86"/>
</a>
</g>
</g>
<!-- Node3 -->
<g id="Node000003" class="node">
<title>Node3</title>
<g id="a_Node000003"><a xlink:href="../../da/d7b/debug_8hpp.html" target="_top" xlink:title="Contains debugging&#45;related macros and utilities for assisting with debugging tasks.">
<polygon fill="white" stroke="#666666" points="244.12,-174.75 139.62,-174.75 139.62,-144.25 244.12,-144.25 244.12,-174.75"/>
<text text-anchor="start" x="147.62" y="-161.25" font-family="Times,serif" font-size="10.00">mal&#45;toolkit/mal&#45;toolkit</text>
<text text-anchor="middle" x="191.88" y="-150" font-family="Times,serif" font-size="10.00">/debug.hpp</text>
</a>
</g>
</g>
<!-- Node2&#45;&gt;Node3 -->
<g id="edge2_Node000002_Node000003" class="edge">
<title>Node2&#45;&gt;Node3</title>
<g id="a_edge2_Node000002_Node000003"><a xlink:title=" ">
<path fill="none" stroke="#63b8ff" d="M191.88,-199.63C191.88,-191.3 191.88,-182.33 191.88,-175.08"/>
<polygon fill="#63b8ff" stroke="#63b8ff" points="188.38,-199.36 191.88,-209.36 195.38,-199.36 188.38,-199.36"/>
</a>
</g>
</g>
<!-- Node4 -->
<g id="Node000004" class="node">
<title>Node4</title>
<g id="a_Node000004"><a xlink:href="../../da/d43/debug__with__source__location_8hpp.html" target="_top" xlink:title="This file provides utility functions for debugging and assertion handling.">
<polygon fill="white" stroke="#666666" points="121.75,-108.25 0,-108.25 0,-66.5 121.75,-66.5 121.75,-108.25"/>
<text text-anchor="start" x="8" y="-94.75" font-family="Times,serif" font-size="10.00">mal&#45;toolkit/mal&#45;toolkit</text>
<text text-anchor="start" x="8" y="-83.5" font-family="Times,serif" font-size="10.00">/detail/debug_with_source</text>
<text text-anchor="middle" x="60.88" y="-72.25" font-family="Times,serif" font-size="10.00">_location.hpp</text>
</a>
</g>
</g>
<!-- Node3&#45;&gt;Node4 -->
<g id="edge3_Node000003_Node000004" class="edge">
<title>Node3&#45;&gt;Node4</title>
<g id="a_edge3_Node000003_Node000004"><a xlink:title=" ">
<path fill="none" stroke="#63b8ff" d="M149.16,-138.91C130.72,-129.48 109.57,-118.17 92.55,-108.64"/>
<polygon fill="#63b8ff" stroke="#63b8ff" points="147.3,-142.4 157.8,-143.8 150.46,-136.16 147.3,-142.4"/>
</a>
</g>
</g>
<!-- Node5 -->
<g id="Node000005" class="node">
<title>Node5</title>
<g id="a_Node000005"><a xlink:href="../../d3/d4b/debug__without__source__location_8hpp.html" target="_top" xlink:title="Provides utility functions for debugging and assertion handling without source location information.">
<polygon fill="white" stroke="#666666" points="244.12,-108.25 139.62,-108.25 139.62,-66.5 244.12,-66.5 244.12,-108.25"/>
<text text-anchor="start" x="147.62" y="-94.75" font-family="Times,serif" font-size="10.00">mal&#45;toolkit/mal&#45;toolkit</text>
<text text-anchor="start" x="147.62" y="-83.5" font-family="Times,serif" font-size="10.00">/detail/debug_without</text>
<text text-anchor="middle" x="191.88" y="-72.25" font-family="Times,serif" font-size="10.00">_source_location.hpp</text>
</a>
</g>
</g>
<!-- Node3&#45;&gt;Node5 -->
<g id="edge5_Node000003_Node000005" class="edge">
<title>Node3&#45;&gt;Node5</title>
<g id="a_edge5_Node000003_Node000005"><a xlink:title=" ">
<path fill="none" stroke="#63b8ff" d="M191.88,-133C191.88,-125.02 191.88,-116.32 191.88,-108.74"/>
<polygon fill="#63b8ff" stroke="#63b8ff" points="188.38,-132.97 191.88,-142.97 195.38,-132.97 188.38,-132.97"/>
</a>
</g>
</g>
<!-- Node6 -->
<g id="Node000006" class="node">
<title>Node6</title>
<g id="a_Node000006"><a xlink:href="../../d1/d8a/mal-toolkit_8hpp.html" target="_top" xlink:title="Main header file for the MAL Toolkit library, providing a comprehensive set of tools and utilities.">
<polygon fill="white" stroke="#666666" points="364.12,-30.5 259.62,-30.5 259.62,0 364.12,0 364.12,-30.5"/>
<text text-anchor="start" x="267.62" y="-17" font-family="Times,serif" font-size="10.00">mal&#45;toolkit/mal&#45;toolkit</text>
<text text-anchor="middle" x="311.88" y="-5.75" font-family="Times,serif" font-size="10.00">/mal&#45;toolkit.hpp</text>
</a>
</g>
</g>
<!-- Node3&#45;&gt;Node6 -->
<g id="edge6_Node000003_Node000006" class="edge">
<title>Node3&#45;&gt;Node6</title>
<g id="a_edge6_Node000003_Node000006"><a xlink:title=" ">
<path fill="none" stroke="#63b8ff" d="M221.35,-137.27C231.93,-128.89 243.55,-118.75 252.88,-108.25 274.79,-83.56 294.17,-49.93 304.34,-30.92"/>
<polygon fill="#63b8ff" stroke="#63b8ff" points="219.56,-135 213.77,-143.87 223.83,-140.55 219.56,-135"/>
</a>
</g>
</g>
<!-- Node7 -->
<g id="Node000007" class="node">
<title>Node7</title>
<g id="a_Node000007"><a xlink:href="../../d0/db4/measurer_8hpp.html" target="_top" xlink:title="Implements performance measurement and profiling utilities.">
<polygon fill="white" stroke="#666666" points="404.12,-102.62 299.62,-102.62 299.62,-72.12 404.12,-72.12 404.12,-102.62"/>
<text text-anchor="start" x="307.62" y="-89.12" font-family="Times,serif" font-size="10.00">mal&#45;toolkit/mal&#45;toolkit</text>
<text text-anchor="middle" x="351.88" y="-77.88" font-family="Times,serif" font-size="10.00">/measurer.hpp</text>
</a>
</g>
</g>
<!-- Node3&#45;&gt;Node7 -->
<g id="edge7_Node000003_Node000007" class="edge">
<title>Node3&#45;&gt;Node7</title>
<g id="a_edge7_Node000003_Node000007"><a xlink:title=" ">
<path fill="none" stroke="#63b8ff" d="M235.44,-139.41C261.56,-127.96 294.28,-113.62 318.38,-103.06"/>
<polygon fill="#63b8ff" stroke="#63b8ff" points="234.17,-136.58 226.42,-143.8 236.98,-142.99 234.17,-136.58"/>
</a>
</g>
</g>
<!-- Node4&#45;&gt;Node3 -->
<g id="edge4_Node000004_Node000003" class="edge">
<title>Node4&#45;&gt;Node3</title>
<g id="a_edge4_Node000004_Node000003"><a xlink:title=" ">
<path fill="none" stroke="#63b8ff" d="M114.6,-113.65C134.02,-123.77 154.83,-135.07 170.03,-143.8"/>
<polygon fill="#63b8ff" stroke="#63b8ff" points="116.41,-110.13 105.92,-108.64 113.19,-116.34 116.41,-110.13"/>
</a>
</g>
</g>
<!-- Node7&#45;&gt;Node6 -->
<g id="edge8_Node000007_Node000006" class="edge">
<title>Node7&#45;&gt;Node6</title>
<g id="a_edge8_Node000007_Node000006"><a xlink:title=" ">
<path fill="none" stroke="#63b8ff" d="M338.18,-62.37C332.19,-51.86 325.35,-39.88 320.15,-30.76"/>
<polygon fill="#63b8ff" stroke="#63b8ff" points="335.59,-63.89 343.59,-70.85 341.67,-60.42 335.59,-63.89"/>
</a>
</g>
</g>
</g>
</svg>
</svg>

<style type='text/css'>
<![CDATA[
[data-mouse-over-selected='false'] { opacity: 0.7; }
[data-mouse-over-selected='true']  { opacity: 1.0; }
]]>
</style>
<script type="application/ecmascript"><![CDATA[
document.addEventListener('DOMContentLoaded', (event) => {
  highlightEdges();
  highlightAdjacentNodes();
});
]]></script>
</svg>
