<?xml version="1.0" encoding="UTF-8" standalone="no"?>
<!DOCTYPE svg PUBLIC "-//W3C//DTD SVG 1.1//EN"
 "http://www.w3.org/Graphics/SVG/1.1/DTD/svg11.dtd">
<!-- Generated by graphviz version 9.0.0 (20230911.1827)
 -->
<!-- Title: mal&#45;toolkit/mal&#45;toolkit/include/win&#45;undef.hpp Pages: 1 -->
<svg width="412pt" height="316pt"
 viewBox="0.00 0.00 412.12 315.75" xmlns="http://www.w3.org/2000/svg" xmlns:xlink="http://www.w3.org/1999/xlink">
<g id="graph0" class="graph" transform="scale(1 1) rotate(0) translate(4 311.75)">
<title>mal&#45;toolkit/mal&#45;toolkit/include/win&#45;undef.hpp</title>
<!-- Node1 -->
<g id="Node000001" class="node">
<title>Node1</title>
<g id="a_Node000001"><a xlink:title=" ">
<polygon fill="#999999" stroke="#666666" points="247.12,-307.75 136.62,-307.75 136.62,-277.25 247.12,-277.25 247.12,-307.75"/>
<text text-anchor="start" x="144.62" y="-294.25" font-family="Times,serif" font-size="10.00">mal&#45;toolkit/mal&#45;toolkit</text>
<text text-anchor="middle" x="191.88" y="-283" font-family="Times,serif" font-size="10.00">/include/win&#45;undef.hpp</text>
</a>
</g>
</g>
<!-- Node2 -->
<g id="Node000002" class="node">
<title>Node2</title>
<g id="a_Node000002"><a xlink:href="../../dd/db5/spdlog_8hpp.html" target="_top" xlink:title="Provides integration with the SPDLOG library for efficient logging and debugging.">
<polygon fill="white" stroke="#666666" points="244.12,-241.25 139.62,-241.25 139.62,-210.75 244.12,-210.75 244.12,-241.25"/>
<text text-anchor="start" x="147.62" y="-227.75" font-family="Times,serif" font-size="10.00">mal&#45;toolkit/mal&#45;toolkit</text>
<text text-anchor="middle" x="191.88" y="-216.5" font-family="Times,serif" font-size="10.00">/include/spdlog.hpp</text>
</a>
</g>
</g>
<!-- Node1&#45;&gt;Node2 -->
<g id="edge1_Node000001_Node000002" class="edge">
<title>Node1&#45;&gt;Node2</title>
<g id="a_edge1_Node000001_Node000002"><a xlink:title=" ">
<path fill="none" stroke="#63b8ff" d="M191.88,-265.56C191.88,-257.39 191.88,-248.66 191.88,-241.58"/>
<polygon fill="#63b8ff" stroke="#63b8ff" points="188.38,-265.35 191.88,-275.35 195.38,-265.35 188.38,-265.35"/>
</a>
</g>
</g>
<!-- Node3 -->
<g id="Node000003" class="node">
<title>Node3</title>
<g id="a_Node000003"><a xlink:href="../../da/d7b/debug_8hpp.html" target="_top" xlink:title="Contains debugging&#45;related macros and utilities for assisting with debugging tasks.">
<polygon fill="white" stroke="#666666" points="244.12,-174.75 139.62,-174.75 139.62,-144.25 244.12,-144.25 244.12,-174.75"/>
<text text-anchor="start" x="147.62" y="-161.25" font-family="Times,serif" font-size="10.00">mal&#45;toolkit/mal&#45;toolkit</text>
<text text-anchor="middle" x="191.88" y="-150" font-family="Times,serif" font-size="10.00">/debug.hpp</text>
</a>
</g>
</g>
<!-- Node2&#45;&gt;Node3 -->
<g id="edge2_Node000002_Node000003" class="edge">
<title>Node2&#45;&gt;Node3</title>
<g id="a_edge2_Node000002_Node000003"><a xlink:title=" ">
<path fill="none" stroke="#63b8ff" d="M191.88,-199.06C191.88,-190.89 191.88,-182.16 191.88,-175.08"/>
<polygon fill="#63b8ff" stroke="#63b8ff" points="188.38,-198.85 191.88,-208.85 195.38,-198.85 188.38,-198.85"/>
</a>
</g>
</g>
<!-- Node4 -->
<g id="Node000004" class="node">
<title>Node4</title>
<g id="a_Node000004"><a xlink:href="../../da/d43/debug__with__source__location_8hpp.html" target="_top" xlink:title="This file provides utility functions for debugging and assertion handling.">
<polygon fill="white" stroke="#666666" points="121.75,-108.25 0,-108.25 0,-66.5 121.75,-66.5 121.75,-108.25"/>
<text text-anchor="start" x="8" y="-94.75" font-family="Times,serif" font-size="10.00">mal&#45;toolkit/mal&#45;toolkit</text>
<text text-anchor="start" x="8" y="-83.5" font-family="Times,serif" font-size="10.00">/detail/debug_with_source</text>
<text text-anchor="middle" x="60.88" y="-72.25" font-family="Times,serif" font-size="10.00">_location.hpp</text>
</a>
</g>
</g>
<!-- Node3&#45;&gt;Node4 -->
<g id="edge3_Node000003_Node000004" class="edge">
<title>Node3&#45;&gt;Node4</title>
<g id="a_edge3_Node000003_Node000004"><a xlink:title=" ">
<path fill="none" stroke="#63b8ff" d="M148.65,-138.65C130.33,-129.27 109.41,-118.08 92.55,-108.64"/>
<polygon fill="#63b8ff" stroke="#63b8ff" points="146.95,-141.71 157.45,-143.12 150.11,-135.47 146.95,-141.71"/>
</a>
</g>
</g>
<!-- Node5 -->
<g id="Node000005" class="node">
<title>Node5</title>
<g id="a_Node000005"><a xlink:href="../../d3/d4b/debug__without__source__location_8hpp.html" target="_top" xlink:title="Provides utility functions for debugging and assertion handling without source location information.">
<polygon fill="white" stroke="#666666" points="244.12,-108.25 139.62,-108.25 139.62,-66.5 244.12,-66.5 244.12,-108.25"/>
<text text-anchor="start" x="147.62" y="-94.75" font-family="Times,serif" font-size="10.00">mal&#45;toolkit/mal&#45;toolkit</text>
<text text-anchor="start" x="147.62" y="-83.5" font-family="Times,serif" font-size="10.00">/detail/debug_without</text>
<text text-anchor="middle" x="191.88" y="-72.25" font-family="Times,serif" font-size="10.00">_source_location.hpp</text>
</a>
</g>
</g>
<!-- Node3&#45;&gt;Node5 -->
<g id="edge5_Node000003_Node000005" class="edge">
<title>Node3&#45;&gt;Node5</title>
<g id="a_edge5_Node000003_Node000005"><a xlink:title=" ">
<path fill="none" stroke="#63b8ff" d="M191.88,-132.72C191.88,-124.81 191.88,-116.23 191.88,-108.74"/>
<polygon fill="#63b8ff" stroke="#63b8ff" points="188.38,-132.46 191.88,-142.46 195.38,-132.46 188.38,-132.46"/>
</a>
</g>
</g>
<!-- Node6 -->
<g id="Node000006" class="node">
<title>Node6</title>
<g id="a_Node000006"><a xlink:href="../../d1/d8a/mal-toolkit_8hpp.html" target="_top" xlink:title="Main header file for the MAL Toolkit library, providing a comprehensive set of tools and utilities.">
<polygon fill="white" stroke="#666666" points="364.12,-30.5 259.62,-30.5 259.62,0 364.12,0 364.12,-30.5"/>
<text text-anchor="start" x="267.62" y="-17" font-family="Times,serif" font-size="10.00">mal&#45;toolkit/mal&#45;toolkit</text>
<text text-anchor="middle" x="311.88" y="-5.75" font-family="Times,serif" font-size="10.00">/mal&#45;toolkit.hpp</text>
</a>
</g>
</g>
<!-- Node3&#45;&gt;Node6 -->
<g id="edge6_Node000003_Node000006" class="edge">
<title>Node3&#45;&gt;Node6</title>
<g id="a_edge6_Node000003_Node000006"><a xlink:title=" ">
<path fill="none" stroke="#63b8ff" d="M221.66,-137.02C232.17,-128.68 243.65,-118.65 252.88,-108.25 274.79,-83.56 294.17,-49.93 304.34,-30.92"/>
<polygon fill="#63b8ff" stroke="#63b8ff" points="219.75,-134.07 213.97,-142.95 224.03,-139.62 219.75,-134.07"/>
</a>
</g>
</g>
<!-- Node7 -->
<g id="Node000007" class="node">
<title>Node7</title>
<g id="a_Node000007"><a xlink:href="../../d0/db4/measurer_8hpp.html" target="_top" xlink:title="Implements performance measurement and profiling utilities.">
<polygon fill="white" stroke="#666666" points="404.12,-102.62 299.62,-102.62 299.62,-72.12 404.12,-72.12 404.12,-102.62"/>
<text text-anchor="start" x="307.62" y="-89.12" font-family="Times,serif" font-size="10.00">mal&#45;toolkit/mal&#45;toolkit</text>
<text text-anchor="middle" x="351.88" y="-77.88" font-family="Times,serif" font-size="10.00">/measurer.hpp</text>
</a>
</g>
</g>
<!-- Node3&#45;&gt;Node7 -->
<g id="edge7_Node000003_Node000007" class="edge">
<title>Node3&#45;&gt;Node7</title>
<g id="a_edge7_Node000003_Node000007"><a xlink:title=" ">
<path fill="none" stroke="#63b8ff" d="M235.78,-139.26C261.85,-127.83 294.39,-113.57 318.38,-103.06"/>
<polygon fill="#63b8ff" stroke="#63b8ff" points="234.56,-135.97 226.8,-143.19 237.37,-142.38 234.56,-135.97"/>
</a>
</g>
</g>
<!-- Node4&#45;&gt;Node3 -->
<g id="edge4_Node000004_Node000003" class="edge">
<title>Node4&#45;&gt;Node3</title>
<g id="a_edge4_Node000004_Node000003"><a xlink:title=" ">
<path fill="none" stroke="#63b8ff" d="M115.14,-113.93C134.39,-123.98 154.97,-135.15 170.03,-143.8"/>
<polygon fill="#63b8ff" stroke="#63b8ff" points="116.75,-110.82 106.26,-109.34 113.54,-117.04 116.75,-110.82"/>
</a>
</g>
</g>
<!-- Node7&#45;&gt;Node6 -->
<g id="edge8_Node000007_Node000006" class="edge">
<title>Node7&#45;&gt;Node6</title>
<g id="a_edge8_Node000007_Node000006"><a xlink:title=" ">
<path fill="none" stroke="#63b8ff" d="M337.99,-62.04C332.05,-51.61 325.3,-39.78 320.15,-30.76"/>
<polygon fill="#63b8ff" stroke="#63b8ff" points="334.84,-63.58 342.84,-70.53 340.92,-60.11 334.84,-63.58"/>
</a>
</g>
</g>
</g>
</svg>
